# pensileVetro.obj 3D model
#
# Created by LucaPresidente
#
# This file is distributed under Free Art License, see http://artlibre.org/licence/lal/en for more informations
# and under CC-BY Creative Commons Attribution 3.0 Unported license, see http://creativecommons.org/licenses/by/3.0/
# at your choice
# 
mtllib pensileVetro.mtl
g Box20_1
usemtl Box20_1
v 12.0 178.0 -34.5
v 12.0 178.0 -58.0
v 48.0 178.0 -58.0
v 48.0 178.0 -34.5
v 12.0 180.0 -34.5
v 48.0 180.0 -34.5
v 48.0 180.0 -58.0
v 12.0 180.0 -58.0
vt 1.0 0.0 0
vt 1.0 1.0 0
vt 0.0 1.0 0
vt 0.0 0.0 0
vn 0.0 -1.0 0.0
vn 0.0 1.0 0.0
vn 0.0 0.0 1.0
vn 1.0 0.0 0.0
vn 0.0 0.0 -1.0
vn -1.0 0.0 0.0
f 1/1/1 2/2/1 3/3/1
f 1/1/1 3/3/1 4/4/1
f 5/4/2 6/1/2 7/2/2
f 5/4/2 7/2/2 8/3/2
f 1/4/3 4/1/3 6/2/3
f 1/4/3 6/2/3 5/3/3
f 4/4/4 3/1/4 7/2/4
f 4/4/4 7/2/4 6/3/4
f 3/4/5 2/1/5 8/2/5
f 3/4/5 8/2/5 7/3/5
f 2/4/6 1/1/6 5/2/6
f 2/4/6 5/2/6 8/3/6
g Box21_2
usemtl Box20_1
v 12.0 197.0 -34.5
v 12.0 197.0 -58.0
v 48.0 197.0 -58.0
v 48.0 197.0 -34.5
v 12.0 199.0 -34.5
v 48.0 199.0 -34.5
v 48.0 199.0 -58.0
v 12.0 199.0 -58.0
f 9/1/1 10/2/1 11/3/1
f 9/1/1 11/3/1 12/4/1
f 13/4/2 14/1/2 15/2/2
f 13/4/2 15/2/2 16/3/2
f 9/4/3 12/1/3 14/2/3
f 9/4/3 14/2/3 13/3/3
f 12/4/4 11/1/4 15/2/4
f 12/4/4 15/2/4 14/3/4
f 11/4/5 10/1/5 16/2/5
f 11/4/5 16/2/5 15/3/5
f 10/4/6 9/1/6 13/2/6
f 10/4/6 13/2/6 16/3/6
g Box22_3
usemtl Box20_1
v 10.0 216.0 -32.5
v 10.0 216.0 -60.0
v 50.0 216.0 -60.0
v 50.0 216.0 -32.5
v 10.0 218.0 -32.5
v 50.0 218.0 -32.5
v 50.0 218.0 -60.0
v 10.0 218.0 -60.0
f 17/1/1 18/2/1 19/3/1
f 17/1/1 19/3/1 20/4/1
f 21/4/2 22/1/2 23/2/2
f 21/4/2 23/2/2 24/3/2
f 17/4/3 20/1/3 22/2/3
f 17/4/3 22/2/3 21/3/3
f 20/4/4 19/1/4 23/2/4
f 20/4/4 23/2/4 22/3/4
f 19/4/5 18/1/5 24/2/5
f 19/4/5 24/2/5 23/3/5
f 18/4/6 17/1/6 21/2/6
f 18/4/6 21/2/6 24/3/6
g Line18_4
usemtl Box20_1
v 12.0 158.0 -32.5
v 12.0 158.0 -58.0
v 12.0 218.0 -58.0
v 12.0 218.0 -32.5
v 48.0 158.0 -58.0
v 48.0 218.0 -58.0
v 48.0 158.0 -32.5
v 48.0 218.0 -32.5
v 50.0 158.0 -32.5
v 50.0 158.0 -60.0
v 10.0 158.0 -60.0
v 10.0 158.0 -32.5
f 25//4 26//4 27//4
f 25//4 27//4 28//4
f 26//3 29//3 30//3
f 26//3 30//3 27//3
f 29//6 31//6 32//6
f 29//6 32//6 30//6
f 31//3 33//3 22//3
f 31//3 22//3 32//3
f 33//4 34//4 23//4
f 33//4 23//4 22//4
f 34//5 35//5 24//5
f 34//5 24//5 23//5
f 35//6 36//6 21//6
f 35//6 21//6 24//6
f 36//3 25//3 28//3
f 36//3 28//3 21//3
f 35//1 26//1 25//1
f 35//1 25//1 36//1
f 34//1 29//1 26//1
f 34//1 26//1 35//1
f 33//1 31//1 29//1
f 33//1 29//1 34//1
f 24//2 21//2 28//2
f 24//2 28//2 27//2
f 23//2 24//2 27//2
f 23//2 27//2 30//2
f 22//2 23//2 30//2
f 22//2 30//2 32//2
g Box19_5
usemtl Box20_1
v 10.0 160.0 -32.5
v 50.0 160.0 -32.5
v 50.0 160.0 -60.0
v 10.0 160.0 -60.0
f 36/1/1 35/2/1 34/3/1
f 36/1/1 34/3/1 33/4/1
f 37/4/2 38/1/2 39/2/2
f 37/4/2 39/2/2 40/3/2
f 36/4/3 33/1/3 38/2/3
f 36/4/3 38/2/3 37/3/3
f 33/4/4 34/1/4 39/2/4
f 33/4/4 39/2/4 38/3/4
f 34/4/5 35/1/5 40/2/5
f 34/4/5 40/2/5 39/3/5
f 35/4/6 36/1/6 37/2/6
f 35/4/6 37/2/6 40/3/6
g Box09_6
usemtl Box09_6
v 17.0 165.0 -32.25
v 17.0 211.0 -32.25
v 43.0 211.0 -32.25
v 43.0 165.0 -32.25
v 17.0 165.0 -31.75
v 43.0 165.0 -31.75
v 43.0 211.0 -31.75
v 17.0 211.0 -31.75
f 41/1/5 42/2/5 43/3/5
f 41/1/5 43/3/5 44/4/5
f 45/4/3 46/1/3 47/2/3
f 45/4/3 47/2/3 48/3/3
f 41/4/1 44/1/1 46/2/1
f 41/4/1 46/2/1 45/3/1
f 44/4/4 43/1/4 47/2/4
f 44/4/4 47/2/4 46/3/4
f 43/4/2 42/1/2 48/2/2
f 43/4/2 48/2/2 47/3/2
f 42/4/6 41/1/6 45/2/6
f 42/4/6 45/2/6 48/3/6
g Rectangle05_7
usemtl Box20_1
v 49.75 217.75 -32.25
v 10.25 217.75 -32.25
v 10.25 217.75 -30.25
v 49.75 217.75 -30.25
v 10.25 158.25 -32.25
v 10.25 158.25 -30.25
v 49.75 158.25 -32.25
v 49.75 158.25 -30.25
v 42.5 165.5 -32.25
v 17.5 165.5 -32.25
v 17.5 165.5 -30.25
v 42.5 165.5 -30.25
v 17.5 210.5 -32.25
v 17.5 210.5 -30.25
v 42.5 210.5 -32.25
v 42.5 210.5 -30.25
f 49//2 50//2 51//2
f 49//2 51//2 52//2
f 50//6 53//6 54//6
f 50//6 54//6 51//6
f 53//1 55//1 56//1
f 53//1 56//1 54//1
f 55//4 49//4 52//4
f 55//4 52//4 56//4
f 57//2 58//2 59//2
f 57//2 59//2 60//2
f 58//4 61//4 62//4
f 58//4 62//4 59//4
f 61//1 63//1 64//1
f 61//1 64//1 62//1
f 63//6 57//6 60//6
f 63//6 60//6 64//6
f 63//5 61//5 49//5
f 63//5 49//5 57//5
f 55//5 53//5 57//5
f 55//5 57//5 49//5
f 53//5 50//5 58//5
f 53//5 58//5 57//5
f 50//5 49//5 61//5
f 50//5 61//5 58//5
f 64//3 60//3 56//3
f 64//3 56//3 52//3
f 54//3 56//3 60//3
f 54//3 60//3 59//3
f 51//3 54//3 59//3
f 51//3 59//3 62//3
f 52//3 51//3 62//3
f 52//3 62//3 64//3
