# 
# Generated by Sweet Home 3D - sam. juil. 13 21:55:26 CEST 2013
# http://www.sweethome3d.com/
# 
mtllib bandeja.mtl
g 1_1
usemtl transparent
v 0.18614335 0.38140264 37.46159
v 0.19104162 1.9235076 36.635597
v -0.14976865 1.9235076 36.980812
v -0.1546669 0.38140264 37.8068
v 0.19804339 3.4656184 35.459198
v -0.14277284 3.4656184 35.804413
v 0.20673749 5.0077233 33.984974
v -0.13407277 5.0077233 34.330185
v 0.22013322 6.5498343 31.722347
v -0.12067705 6.5498343 32.06756
v -0.1546669 0.0 37.8068
v 9.89428 0.0 37.866386
v 9.89428 0.38140264 37.866386
v 0.068376616 0.38140264 0.16516304
v 13.422683 0.38140264 0.24424428
v 13.422683 0.0 0.24424428
v 0.068376616 0.0 0.16516304
v 9.980155 0.38140264 37.519672
v 13.422683 6.5498343 0.24424428
v 0.068376616 6.5498343 0.16516304
v 0.4050871 6.5498343 0.51437545
v 13.420681 6.5498343 0.59145445
v 13.420681 1.9235076 0.59145445
v 0.4050871 1.9235076 0.51437545
v 0.4050871 0.38140264 0.51437545
v 13.420681 0.38140264 0.59145445
v 13.420681 3.4656184 0.59145445
v 0.4050871 3.4656184 0.51437545
v 13.420681 5.0077233 0.59145445
v 0.4050871 5.0077233 0.51437545
v 0.068376616 1.9235076 0.16516304
v 13.422683 1.9235076 0.24424428
v 0.068376616 3.4656184 0.16516304
v 13.422683 3.4656184 0.24424428
v 0.068376616 5.0077233 0.16516304
v 13.422683 5.0077233 0.24424428
v -0.08498889 0.0 26.04719
v -0.08498889 0.38140264 26.04719
v -0.06798801 6.5498343 23.177618
v 0.270826 6.5498343 23.179617
v 0.25622657 1.9235076 25.636194
v 0.2537298 0.38140264 26.049189
v 0.25972447 3.4656184 25.047941
v 0.26402685 5.0077233 24.31083
v -0.08248613 1.9235076 25.634192
v -0.07898823 3.4656184 25.045942
v -0.074691825 5.0077233 24.308828
v 13.269323 0.0 26.12637
v 13.269323 0.38140264 26.12637
v -0.018403579 6.3333874 23.631104
v -0.02980305 6.311494 31.460514
v 0.008888416 5.3463407 24.393208
v -0.08908269 5.281555 33.032413
v -0.017503776 4.800477 24.71103
v -0.04469447 4.8044753 33.669952
v 0.0015946602 3.8362234 25.196606
v -0.089785844 3.7560458 34.73938
v -0.019100776 3.2183816 25.467636
v -0.05529544 3.183188 35.25495
v -0.0035062016 2.261821 25.84544
v -0.0926819 2.2253344 36.030052
v -0.01930338 1.6796733 26.063385
v -0.064090855 1.6144882 36.39196
v -0.008106511 0.6674263 26.31962
v -0.091484144 0.66632986 36.90433
v 0.13455673 6.311494 31.462214
v 0.21583681 6.3333874 23.632504
v 0.1751491 5.281555 33.034714
v 0.1795468 5.3463407 24.394209
v 0.12316321 4.8044753 33.671654
v 0.20214315 4.800477 24.712328
v 0.1555501 3.7560458 34.74158
v 0.17734794 3.8362234 25.197603
v 0.114963695 3.183188 35.25665
v 0.19484343 3.2183816 25.468834
v 0.14315549 2.2253344 36.02795
v 0.17474985 2.261821 25.846441
v 0.11036339 1.6144882 36.386864
v 0.18794297 1.6796733 26.064583
v 0.13166067 0.66632986 36.90463
v 0.17374875 0.6674263 26.32072
v 26.50146 0.66632986 37.06189
v 26.543648 0.6674263 26.476978
v 26.361794 0.6674263 26.47588
v 26.278416 0.66632986 37.059593
v 26.480162 1.6144882 36.54922
v 26.305809 1.6144882 36.54212
v 26.557842 1.6796733 26.220844
v 26.350494 1.6796733 26.219645
v 26.513056 2.2253344 36.18771
v 26.54465 2.261821 26.002699
v 26.366394 2.261821 26.001701
v 26.277218 2.2253344 36.18281
v 26.484863 3.183188 35.412212
v 26.314604 3.183188 35.41191
v 26.564743 3.2183816 25.625095
v 26.350698 3.2183816 25.623896
v 26.525455 3.7560458 34.89714
v 26.547146 3.8362234 25.353865
v 26.371494 3.8362234 25.352863
v 26.280113 3.7560458 34.896343
v 26.493063 4.8044753 33.827213
v 26.325205 4.8044753 33.826912
v 26.572042 4.800477 24.86859
v 26.352396 4.800477 24.867287
v 26.54505 5.281555 33.190273
v 26.549446 5.3463407 24.550468
v 26.378788 5.3463407 24.549469
v 26.280716 5.281555 33.189373
v 26.50436 6.311494 31.617775
v 26.340002 6.311494 31.617474
v 26.585737 6.3333874 23.788761
v 26.351496 6.3333874 23.787361
v 26.287413 1.9235076 25.790453
v 26.284916 0.38140264 26.203447
v 26.21733 0.38140264 37.61585
v 26.222229 1.9235076 36.78986
v 26.29091 3.4656184 25.202204
v 26.22913 3.4656184 35.61346
v 26.295214 5.0077233 24.465092
v 26.237925 5.0077233 34.139133
v 26.301912 6.5498343 23.33388
v 26.25132 6.5498343 31.876608
v 26.558844 1.9235076 37.13907
v 26.553946 0.38140264 37.965164
v 26.623629 0.38140264 26.205446
v 26.626125 1.9235076 25.792454
v 26.565845 3.4656184 35.96267
v 26.629623 3.4656184 25.204203
v 26.57454 5.0077233 34.488445
v 26.633926 5.0077233 24.46709
v 26.587934 6.5498343 32.22582
v 26.640625 6.5498343 23.335878
v 16.423319 0.38140264 37.557865
v 16.505098 0.0 37.905575
v 16.505098 0.38140264 37.905575
v 26.436274 0.38140264 0.6686348
v 26.623629 0.0 26.205446
v 26.553946 0.0 37.965164
v 26.776989 0.0 0.32342085
v 26.776989 5.0077233 0.32342085
v 26.776989 6.5498343 0.32342085
v 26.776989 3.4656184 0.32342085
v 26.776989 1.9235076 0.32342085
v 26.776989 0.38140264 0.32342085
v 26.436274 6.5498343 0.6686348
v 26.436274 5.0077233 0.6686348
v 26.436274 3.4656184 0.6686348
v 26.436274 1.9235076 0.6686348
vn 0.666569 0.350343 0.65798604
vn 0.62811226 0.47015417 0.62002426
vn 0.59190387 0.55521786 0.5842799
vn 0.49709725 0.7156224 0.4906923
vn -0.0059260027 0.000012 0.99998254
vn 0.0059260027 0.000023 -0.99998254
vn 0.0 1.0 0.0
vn -0.0059260027 0.0 0.99998254
vn 0.0059260027 0.0 -0.99998254
vn -0.9999824 -0.0 -0.0059260027
vn 0.9999824 0.000001 0.0059260027
vn 0.9999824 0.0 0.0059260027
vn -0.9999824 -0.000001 -0.0059260027
vn 0.0 -1.0 0.0
vn 0.97065824 0.000002 0.24046308
vn 0.96077114 0.017622001 0.27678204
vn -0.95590407 -0.29365104 -0.0040500006
vn -0.9675206 0.14641695 0.20607293
vn -0.9816155 0.1907169 -0.007615996
vn -0.994192 -0.079706 -0.072313
vn -0.94267654 -0.33368117 -0.0042280024
vn -0.97205055 0.09828596 0.21320792
vn -0.98192674 0.18914096 -0.006756999
vn -0.99436665 -0.063024975 -0.085222974
vn -0.9637116 -0.26689592 -0.0051419986
vn -0.97626245 0.073960036 0.20357211
vn -0.97967803 0.20046203 -0.006774001
vn -0.9936567 -0.05771898 -0.09651397
vn -0.9660321 -0.25835803 -0.0057670004
vn -0.98011905 0.047128007 0.19273204
vn -0.9728723 0.23124707 -0.0066530025
vn -0.9943205 -0.040096022 -0.09858507
vn 0.95623505 -0.29250804 0.007317001
vn 0.98543555 -0.13790707 -0.09949106
vn 0.981454 0.191656 0.003986
vn 0.96500826 0.14642203 0.21753104
vn 0.94302845 -0.33263916 0.0069720033
vn 0.98429257 -0.11904495 -0.13036996
vn 0.9818482 0.18960601 0.0048650005
vn 0.9694548 0.09828599 0.22471595
vn 0.96380746 -0.26652512 0.0062900027
vn 0.9799507 -0.11720597 -0.16111895
vn 0.97959006 0.20094803 0.0048210006
vn 0.9737834 0.07395503 0.21512008
vn 0.9660286 -0.25837314 0.005681004
vn 0.9833384 -0.081272036 -0.16260508
vn 0.9727622 0.23175408 0.004863001
vn 0.97776365 0.047134984 0.20434394
vn -0.0046880003 0.61108106 0.7915541
vn 0.000021 -0.9999961 -0.0027920003
vn 0.005028 -0.836496 -0.54795
vn -0.000056 0.9999718 0.007500999
vn -0.005290003 0.4496513 0.8931886
vn -0.000004 -0.99999994 0.000456
vn 0.0065100007 -0.7141641 -0.6999481
vn -0.000064 0.99996483 0.008393999
vn -0.005511 0.367265 0.9301
vn 0.000028 -0.99999356 -0.003591999
vn -0.000851 -0.628089 -0.778141
vn 0.000009 0.99999356 0.0035899987
vn -0.0057450025 0.24534613 0.96941847
vn -0.000063 -0.9999801 -0.006313001
vn -0.010472001 -0.47732005 -0.8786672
vn 0.0 1.0 0.000096
vn -0.000001 1.0 0.000096
vn 0.020891003 -0.47732005 -0.87848115
vn 0.000138 -0.9999801 -0.006312001
vn -0.000052 0.99999356 0.0035899987
vn 0.010076997 -0.6280908 -0.7780748
vn 0.000015 -0.99999356 -0.003591999
vn -0.000036 0.99996483 0.008393999
vn 0.0017860002 -0.7141641 -0.69997615
vn -0.000002 -0.99999994 0.000456
vn -0.000032 0.9999718 0.007500999
vn 0.0014630004 -0.8364953 -0.5479722
vn 0.000012 -0.9999961 -0.0027920003
vn -0.004694 0.61108 0.79155505
vn -0.972754 0.231744 -0.006666
vn -0.98134035 -0.08127802 -0.17425606
vn -0.96602476 -0.25838494 -0.005767999
vn -0.97626066 0.073960975 0.20357996
vn -0.9795761 0.20095903 -0.0067890007
vn -0.9779703 -0.11720905 -0.17273106
vn -0.9638088 -0.2665449 -0.0051319986
vn -0.9720462 0.098294005 0.21322401
vn -0.98183537 0.18961406 -0.0067710024
vn -0.9826764 -0.119051926 -0.14203392
vn -0.94303566 -0.3326649 -0.0042039985
vn -0.9675151 0.14642902 0.20609003
vn -0.9814298 0.19166897 -0.007644999
vn -0.9841855 -0.13791507 -0.11116806
vn -0.95625126 -0.29251906 -0.004016001
vn 0.9954197 -0.040089987 -0.08678998
vn 0.97288334 0.23124509 0.004877002
vn 0.97776747 0.04713102 0.2043271
vn 0.96603715 -0.25834107 0.005682001
vn 0.99473137 -0.057717018 -0.08472403
vn 0.97969264 0.20044692 0.004836998
vn 0.9737852 0.073954016 0.21511205
vn 0.9637104 -0.2668761 0.006279002
vn 0.99530786 -0.06301599 -0.073424995
vn 0.98194104 0.18912403 0.0048800004
vn 0.96945953 0.098277956 0.2246989
vn 0.94266933 -0.33365613 0.0069450024
vn 0.9949798 -0.079700984 -0.06052199
vn 0.9816394 0.19070409 0.0040180013
vn 0.9650141 0.14640902 0.21751401
vn 0.9558884 -0.29364014 0.0072780037
vn -0.9639836 0.017625993 0.2653769
vn -0.973438 0.000017 0.228951
vn 0.9999825 0.000001 0.0059259967
vn 0.9999824 -0.000008 0.0059260027
vn 0.9999824 -0.000008 0.005925003
vn 0.005925003 0.0 -0.99998254
vn 0.005925003 0.000023 -0.99998254
vn -0.005925003 0.000012 0.99998254
vn -0.5028768 0.7156228 0.48476687
vn -0.59878826 0.5552172 0.5772232
vn -0.6354191 0.47015402 0.61253405
vn -0.6743236 0.35033882 0.6500388
f 1//1 2//1 3//1
f 1//1 3//1 4//1
f 2//2 5//2 6//2
f 2//2 6//2 3//2
f 5//3 7//3 8//3
f 5//3 8//3 6//3
f 7//4 9//4 10//4
f 7//4 10//4 8//4
f 11//5 12//5 13//5
f 11//5 13//5 4//5
f 14//6 15//6 16//6
f 14//6 16//6 17//6
f 4//7 13//7 18//7
f 4//7 18//7 1//7
f 19//7 20//7 21//7
f 19//7 21//7 22//7
f 23//8 24//8 25//8
f 23//8 25//8 26//8
f 27//8 28//8 24//8
f 27//8 24//8 23//8
f 29//8 30//8 28//8
f 29//8 28//8 27//8
f 22//8 21//8 30//8
f 22//8 30//8 29//8
f 31//9 32//9 15//9
f 31//9 15//9 14//9
f 33//9 34//9 32//9
f 33//9 32//9 31//9
f 35//9 36//9 34//9
f 35//9 34//9 33//9
f 20//9 19//9 36//9
f 20//9 36//9 35//9
f 37//10 11//10 4//10
f 37//10 4//10 38//10
f 38//10 14//10 17//10
f 38//10 17//10 37//10
f 20//7 39//7 40//7
f 20//7 40//7 21//7
f 39//7 10//7 9//7
f 39//7 9//7 40//7
f 24//11 41//11 42//11
f 24//11 42//11 25//11
f 28//12 43//12 41//12
f 28//12 41//12 24//12
f 30//12 44//12 43//12
f 30//12 43//12 28//12
f 21//12 40//12 44//12
f 21//12 44//12 30//12
f 45//13 31//13 14//13
f 45//13 14//13 38//13
f 46//10 33//10 31//10
f 46//10 31//10 45//10
f 47//10 35//10 33//10
f 47//10 33//10 46//10
f 39//10 20//10 35//10
f 39//10 35//10 47//10
f 16//14 48//14 37//14
f 16//14 37//14 17//14
f 11//14 37//14 48//14
f 11//14 48//14 12//14
f 25//7 42//7 49//7
f 25//7 49//7 26//7
f 42//7 1//7 18//7
f 42//7 18//7 49//7
f 18//15 13//15 12//15
f 18//16 12//16 48//16
f 18//16 48//16 49//16
f 39//17 50//17 51//17
f 39//17 51//17 10//17
f 47//18 52//18 50//18
f 47//18 50//18 39//18
f 8//19 53//19 52//19
f 8//19 52//19 47//19
f 10//20 51//20 53//20
f 10//20 53//20 8//20
f 47//21 54//21 55//21
f 47//21 55//21 8//21
f 46//22 56//22 54//22
f 46//22 54//22 47//22
f 6//23 57//23 56//23
f 6//23 56//23 46//23
f 8//24 55//24 57//24
f 8//24 57//24 6//24
f 46//25 58//25 59//25
f 46//25 59//25 6//25
f 45//26 60//26 58//26
f 45//26 58//26 46//26
f 3//27 61//27 60//27
f 3//27 60//27 45//27
f 6//28 59//28 61//28
f 6//28 61//28 3//28
f 45//29 62//29 63//29
f 45//29 63//29 3//29
f 38//30 64//30 62//30
f 38//30 62//30 45//30
f 4//31 65//31 64//31
f 4//31 64//31 38//31
f 3//32 63//32 65//32
f 3//32 65//32 4//32
f 9//33 66//33 67//33
f 9//33 67//33 40//33
f 7//34 68//34 66//34
f 7//34 66//34 9//34
f 44//35 69//35 68//35
f 44//35 68//35 7//35
f 40//36 67//36 69//36
f 40//36 69//36 44//36
f 7//37 70//37 71//37
f 7//37 71//37 44//37
f 5//38 72//38 70//38
f 5//38 70//38 7//38
f 43//39 73//39 72//39
f 43//39 72//39 5//39
f 44//40 71//40 73//40
f 44//40 73//40 43//40
f 5//41 74//41 75//41
f 5//41 75//41 43//41
f 2//42 76//42 74//42
f 2//42 74//42 5//42
f 41//43 77//43 76//43
f 41//43 76//43 2//43
f 43//44 75//44 77//44
f 43//44 77//44 41//44
f 2//45 78//45 79//45
f 2//45 79//45 41//45
f 1//46 80//46 78//46
f 1//46 78//46 2//46
f 42//47 81//47 80//47
f 42//47 80//47 1//47
f 41//48 79//48 81//48
f 41//48 81//48 42//48
f 52//49 69//49 67//49
f 52//49 67//49 50//49
f 50//50 67//50 66//50
f 50//50 66//50 51//50
f 51//51 66//51 68//51
f 51//51 68//51 53//51
f 53//52 68//52 69//52
f 53//52 69//52 52//52
f 56//53 73//53 71//53
f 56//53 71//53 54//53
f 54//54 71//54 70//54
f 54//54 70//54 55//54
f 55//55 70//55 72//55
f 55//55 72//55 57//55
f 57//56 72//56 73//56
f 57//56 73//56 56//56
f 60//57 77//57 75//57
f 60//57 75//57 58//57
f 58//58 75//58 74//58
f 58//58 74//58 59//58
f 59//59 74//59 76//59
f 59//59 76//59 61//59
f 61//60 76//60 77//60
f 61//60 77//60 60//60
f 64//61 81//61 79//61
f 64//61 79//61 62//61
f 62//62 79//62 78//62
f 62//62 78//62 63//62
f 63//63 78//63 80//63
f 63//63 80//63 65//63
f 65//64 80//64 81//64
f 65//64 81//64 64//64
f 82//65 83//65 84//65
f 82//65 84//65 85//65
f 86//66 82//66 85//66
f 86//66 85//66 87//66
f 88//67 86//67 87//67
f 88//67 87//67 89//67
f 83//61 88//61 89//61
f 83//61 89//61 84//61
f 90//68 91//68 92//68
f 90//68 92//68 93//68
f 94//69 90//69 93//69
f 94//69 93//69 95//69
f 96//70 94//70 95//70
f 96//70 95//70 97//70
f 91//57 96//57 97//57
f 91//57 97//57 92//57
f 98//71 99//71 100//71
f 98//71 100//71 101//71
f 102//72 98//72 101//72
f 102//72 101//72 103//72
f 104//73 102//73 103//73
f 104//73 103//73 105//73
f 99//53 104//53 105//53
f 99//53 105//53 100//53
f 106//74 107//74 108//74
f 106//74 108//74 109//74
f 110//75 106//75 109//75
f 110//75 109//75 111//75
f 112//76 110//76 111//76
f 112//76 111//76 113//76
f 107//77 112//77 113//77
f 107//77 113//77 108//77
f 114//30 115//30 84//30
f 114//30 84//30 89//30
f 115//78 116//78 85//78
f 115//78 85//78 84//78
f 116//79 117//79 87//79
f 116//79 87//79 85//79
f 117//80 114//80 89//80
f 117//80 89//80 87//80
f 118//81 114//81 92//81
f 118//81 92//81 97//81
f 114//82 117//82 93//82
f 114//82 93//82 92//82
f 117//83 119//83 95//83
f 117//83 95//83 93//83
f 119//84 118//84 97//84
f 119//84 97//84 95//84
f 120//85 118//85 100//85
f 120//85 100//85 105//85
f 118//86 119//86 101//86
f 118//86 101//86 100//86
f 119//87 121//87 103//87
f 119//87 103//87 101//87
f 121//88 120//88 105//88
f 121//88 105//88 103//88
f 122//89 120//89 108//89
f 122//89 108//89 113//89
f 120//90 121//90 109//90
f 120//90 109//90 108//90
f 121//91 123//91 111//91
f 121//91 111//91 109//91
f 123//92 122//92 113//92
f 123//92 113//92 111//92
f 124//93 125//93 82//93
f 124//93 82//93 86//93
f 125//94 126//94 83//94
f 125//94 83//94 82//94
f 126//95 127//95 88//95
f 126//95 88//95 83//95
f 127//96 124//96 86//96
f 127//96 86//96 88//96
f 128//97 124//97 90//97
f 128//97 90//97 94//97
f 124//98 127//98 91//98
f 124//98 91//98 90//98
f 127//99 129//99 96//99
f 127//99 96//99 91//99
f 129//100 128//100 94//100
f 129//100 94//100 96//100
f 130//101 128//101 98//101
f 130//101 98//101 102//101
f 128//102 129//102 99//102
f 128//102 99//102 98//102
f 129//103 131//103 104//103
f 129//103 104//103 99//103
f 131//104 130//104 102//104
f 131//104 102//104 104//104
f 132//105 130//105 106//105
f 132//105 106//105 110//105
f 130//106 131//106 107//106
f 130//106 107//106 106//106
f 131//107 133//107 112//107
f 131//107 112//107 107//107
f 133//108 132//108 110//108
f 133//108 110//108 112//108
f 134//109 49//109 48//109
f 134//109 48//109 135//109
f 134//110 135//110 136//110
f 115//7 49//7 134//7
f 115//7 134//7 116//7
f 137//7 26//7 49//7
f 137//7 49//7 115//7
f 48//14 138//14 139//14
f 48//14 139//14 135//14
f 16//14 140//14 138//14
f 16//14 138//14 48//14
f 133//12 131//12 141//12
f 133//12 141//12 142//12
f 131//12 129//12 143//12
f 131//12 143//12 141//12
f 129//12 127//12 144//12
f 129//12 144//12 143//12
f 127//111 126//111 145//111
f 127//111 145//111 144//111
f 146//10 147//10 120//10
f 146//10 120//10 122//10
f 147//10 148//10 118//10
f 147//10 118//10 120//10
f 148//10 149//10 114//10
f 148//10 114//10 118//10
f 149//13 137//13 115//13
f 149//13 115//13 114//13
f 133//7 122//7 123//7
f 133//7 123//7 132//7
f 142//7 146//7 122//7
f 142//7 122//7 133//7
f 126//112 138//112 140//112
f 126//112 140//112 145//112
f 125//113 139//113 138//113
f 125//113 138//113 126//113
f 142//114 141//114 36//114
f 142//114 36//114 19//114
f 141//114 143//114 34//114
f 141//114 34//114 36//114
f 143//114 144//114 32//114
f 143//114 32//114 34//114
f 144//114 145//114 15//114
f 144//114 15//114 32//114
f 22//8 29//8 147//8
f 22//8 147//8 146//8
f 29//8 27//8 148//8
f 29//8 148//8 147//8
f 27//8 23//8 149//8
f 27//8 149//8 148//8
f 23//8 26//8 137//8
f 23//8 137//8 149//8
f 19//7 22//7 146//7
f 19//7 146//7 142//7
f 125//7 116//7 134//7
f 125//7 134//7 136//7
f 145//115 140//115 16//115
f 145//115 16//115 15//115
f 136//116 135//116 139//116
f 136//116 139//116 125//116
f 121//117 130//117 132//117
f 121//117 132//117 123//117
f 119//118 128//118 130//118
f 119//118 130//118 121//118
f 117//119 124//119 128//119
f 117//119 128//119 119//119
f 116//120 125//120 124//120
f 116//120 124//120 117//120
