# mensolaBlu.obj 3D model
#
# Created by LucaPresidente
#
# This file is distributed under Free Art License, see http://artlibre.org/licence/lal/en for more informations
# and under CC-BY Creative Commons Attribution 3.0 Unported license, see http://creativecommons.org/licenses/by/3.0/
# at your choice
# 
mtllib mensolaBlu.mtl
g Box39_1
usemtl Box39_1
v 290.0 150.0 555.0
v 290.0 150.0 495.0
v 310.0 150.0 495.0
v 310.0 150.0 555.0
v 290.0 155.0 555.0
v 310.0 155.0 555.0
v 310.0 155.0 495.0
v 290.0 155.0 495.0
vt 1.0 0.0 0
vt 1.0 1.0 0
vt 0.0 1.0 0
vt 0.0 0.0 0
vn 0.0 -1.0 0.0
vn 0.0 1.0 0.0
vn 0.0 0.0 1.0
vn 1.0 0.0 0.0
vn 0.0 0.0 -1.0
vn -1.0 0.0 0.0
f 1/1/1 2/2/1 3/3/1
f 1/1/1 3/3/1 4/4/1
f 5/4/2 6/1/2 7/2/2
f 5/4/2 7/2/2 8/3/2
f 1/4/3 4/1/3 6/2/3
f 1/4/3 6/2/3 5/3/3
f 4/4/4 3/1/4 7/2/4
f 4/4/4 7/2/4 6/3/4
f 3/4/5 2/1/5 8/2/5
f 3/4/5 8/2/5 7/3/5
f 2/4/6 1/1/6 5/2/6
f 2/4/6 5/2/6 8/3/6
