# pensileCurva.obj 3D model
#
# Created by LucaPresidente
#
# This file is distributed under Free Art License, see http://artlibre.org/licence/lal/en for more informations
# and under CC-BY Creative Commons Attribution 3.0 Unported license, see http://creativecommons.org/licenses/by/3.0/
# at your choice
# 
mtllib pensileCurva.mtl
g Cylinder06_1
usemtl Cylinder06_1
v -62.0 235.0 -118.0
v -87.1126 235.0 -113.572
v -87.403 235.0 -115.7775
v -87.5 235.0 -118.0
v -85.9622 235.0 -109.2785
v -86.6311 235.0 -111.4001
v -84.0836 235.0 -105.25
v -85.1109 235.0 -107.2232
v -81.5341 235.0 -101.6089
v -82.8884 235.0 -103.3738
v -78.3911 235.0 -98.4659
v -80.0312 235.0 -99.9688
v -74.75 235.0 -95.9164
v -76.6262 235.0 -97.1116
v -70.7215 235.0 -94.0378
v -72.7768 235.0 -94.8892
v -66.428 235.0 -92.8874
v -68.5999 235.0 -93.3689
v -62.0 235.0 -92.5
v -64.2225 235.0 -92.597
v -87.5 238.0 -118.0
v -62.0 238.0 -118.0
v -87.403 238.0 -115.7775
v -87.1126 238.0 -113.572
v -86.6311 238.0 -111.4001
v -85.9622 238.0 -109.2785
v -85.1109 238.0 -107.2232
v -84.0836 238.0 -105.25
v -82.8884 238.0 -103.3738
v -81.5341 238.0 -101.6089
v -80.0312 238.0 -99.9688
v -78.3911 238.0 -98.4659
v -76.6262 238.0 -97.1116
v -74.75 238.0 -95.9164
v -72.7768 238.0 -94.8892
v -70.7215 238.0 -94.0378
v -68.5999 238.0 -93.3689
v -66.428 238.0 -92.8874
v -64.2225 238.0 -92.597
v -62.0 238.0 -92.5
vt 0.5 0.0 0
vt 0.5278 0.0 0
vt 0.5139 0.0 0
vt 0.5556 0.0 0
vt 0.5417 0.0 0
vt 0.5833 0.0 0
vt 0.5694 0.0 0
vt 0.6111 0.0 0
vt 0.5972 0.0 0
vt 0.6389 0.0 0
vt 0.625 0.0 0
vt 0.6667 0.0 0
vt 0.6528 0.0 0
vt 0.6944 0.0 0
vt 0.6806 0.0 0
vt 0.7222 0.0 0
vt 0.7083 0.0 0
vt 0.75 0.0 0
vt 0.7361 0.0 0
vt 0.5 1.0 0
vt 0.5139 1.0 0
vt 0.5278 1.0 0
vt 0.5417 1.0 0
vt 0.5556 1.0 0
vt 0.5694 1.0 0
vt 0.5833 1.0 0
vt 0.5972 1.0 0
vt 0.6111 1.0 0
vt 0.625 1.0 0
vt 0.6389 1.0 0
vt 0.6528 1.0 0
vt 0.6667 1.0 0
vt 0.6806 1.0 0
vt 0.6944 1.0 0
vt 0.7083 1.0 0
vt 0.7222 1.0 0
vt 0.7361 1.0 0
vt 0.75 1.0 0
vn 0.0 -1.0 0.0
vn 0.0 0.0 -1.0
vn -0.99904895 0.0 0.043602135
vn -0.9961909 0.0 0.0871992
vn -0.98481584 0.0 0.17360279
vn -0.9659289 0.0 0.25880775
vn -0.93969995 0.0 0.34199998
vn -0.9063134 0.0 0.42260626
vn -0.86601907 0.0 0.500011
vn -0.81915677 0.0 0.5735697
vn -0.76602 0.0 0.6428168
vn -0.7071068 0.0 0.7071068
vn -0.6428168 0.0 0.76602
vn -0.5735697 0.0 0.81915677
vn -0.500011 0.0 0.86601907
vn -0.42260626 0.0 0.9063134
vn -0.34199998 0.0 0.93969995
vn -0.25880775 0.0 0.9659289
vn -0.17360279 0.0 0.98481584
vn -0.0871992 0.0 0.9961909
vn -0.043602135 0.0 0.99904895
vn 1.0 0.0 0.0
vn 0.0 1.0 0.0
f 1/1/1 2/2/1 3/3/1
f 1/1/1 3/3/1 4/1/1
f 1/1/1 5/4/1 6/5/1
f 1/1/1 6/5/1 2/2/1
f 1/1/1 7/6/1 8/7/1
f 1/1/1 8/7/1 5/4/1
f 1/1/1 9/8/1 10/9/1
f 1/1/1 10/9/1 7/6/1
f 1/1/1 11/10/1 12/11/1
f 1/1/1 12/11/1 9/8/1
f 1/1/1 13/12/1 14/13/1
f 1/1/1 14/13/1 11/10/1
f 1/1/1 15/14/1 16/15/1
f 1/1/1 16/15/1 13/12/1
f 1/1/1 17/16/1 18/17/1
f 1/1/1 18/17/1 15/14/1
f 1/1/1 19/18/1 20/19/1
f 1/1/1 20/19/1 17/16/1
f 1/1/2 4/1/2 21/20/2
f 1/1/2 21/20/2 22/20/2
f 4/1/3 3/3/4 23/21/4
f 4/1/3 23/21/4 21/20/3
f 3/3/4 2/2/5 24/22/5
f 3/3/4 24/22/5 23/21/4
f 2/2/5 6/5/6 25/23/6
f 2/2/5 25/23/6 24/22/5
f 6/5/6 5/4/7 26/24/7
f 6/5/6 26/24/7 25/23/6
f 5/4/7 8/7/8 27/25/8
f 5/4/7 27/25/8 26/24/7
f 8/7/8 7/6/9 28/26/9
f 8/7/8 28/26/9 27/25/8
f 7/6/9 10/9/10 29/27/10
f 7/6/9 29/27/10 28/26/9
f 10/9/10 9/8/11 30/28/11
f 10/9/10 30/28/11 29/27/10
f 9/8/11 12/11/12 31/29/12
f 9/8/11 31/29/12 30/28/11
f 12/11/12 11/10/13 32/30/13
f 12/11/12 32/30/13 31/29/12
f 11/10/13 14/13/14 33/31/14
f 11/10/13 33/31/14 32/30/13
f 14/13/14 13/12/15 34/32/15
f 14/13/14 34/32/15 33/31/14
f 13/12/15 16/15/16 35/33/16
f 13/12/15 35/33/16 34/32/15
f 16/15/16 15/14/17 36/34/17
f 16/15/16 36/34/17 35/33/16
f 15/14/17 18/17/18 37/35/18
f 15/14/17 37/35/18 36/34/17
f 18/17/18 17/16/19 38/36/19
f 18/17/18 38/36/19 37/35/18
f 17/16/19 20/19/20 39/37/20
f 17/16/19 39/37/20 38/36/19
f 20/19/20 19/18/21 40/38/21
f 20/19/20 40/38/21 39/37/20
f 19/18/22 1/1/22 22/20/22
f 19/18/22 22/20/22 40/38/22
f 22/20/23 21/20/23 23/21/23
f 22/20/23 23/21/23 24/22/23
f 22/20/23 24/22/23 25/23/23
f 22/20/23 25/23/23 26/24/23
f 22/20/23 26/24/23 27/25/23
f 22/20/23 27/25/23 28/26/23
f 22/20/23 28/26/23 29/27/23
f 22/20/23 29/27/23 30/28/23
f 22/20/23 30/28/23 31/29/23
f 22/20/23 31/29/23 32/30/23
f 22/20/23 32/30/23 33/31/23
f 22/20/23 33/31/23 34/32/23
f 22/20/23 34/32/23 35/33/23
f 22/20/23 35/33/23 36/34/23
f 22/20/23 36/34/23 37/35/23
f 22/20/23 37/35/23 38/36/23
f 22/20/23 38/36/23 39/37/23
f 22/20/23 39/37/23 40/38/23
g Cylinder07_2
usemtl Cylinder06_1
v -62.0 198.0 -118.0
v -87.1126 198.0 -113.572
v -87.403 198.0 -115.7775
v -87.5 198.0 -118.0
v -85.9622 198.0 -109.2785
v -86.6311 198.0 -111.4001
v -84.0836 198.0 -105.25
v -85.1109 198.0 -107.2232
v -81.5341 198.0 -101.6089
v -82.8884 198.0 -103.3738
v -78.3911 198.0 -98.4659
v -80.0312 198.0 -99.9688
v -74.75 198.0 -95.9164
v -76.6262 198.0 -97.1116
v -70.7215 198.0 -94.0378
v -72.7768 198.0 -94.8892
v -66.428 198.0 -92.8874
v -68.5999 198.0 -93.3689
v -62.0 198.0 -92.5
v -64.2225 198.0 -92.597
v -87.5 200.0 -118.0
v -62.0 200.0 -118.0
v -87.403 200.0 -115.7775
v -87.1126 200.0 -113.572
v -86.6311 200.0 -111.4001
v -85.9622 200.0 -109.2785
v -85.1109 200.0 -107.2232
v -84.0836 200.0 -105.25
v -82.8884 200.0 -103.3738
v -81.5341 200.0 -101.6089
v -80.0312 200.0 -99.9688
v -78.3911 200.0 -98.4659
v -76.6262 200.0 -97.1116
v -74.75 200.0 -95.9164
v -72.7768 200.0 -94.8892
v -70.7215 200.0 -94.0378
v -68.5999 200.0 -93.3689
v -66.428 200.0 -92.8874
v -64.2225 200.0 -92.597
v -62.0 200.0 -92.5
f 41/1/1 42/2/1 43/3/1
f 41/1/1 43/3/1 44/1/1
f 41/1/1 45/4/1 46/5/1
f 41/1/1 46/5/1 42/2/1
f 41/1/1 47/6/1 48/7/1
f 41/1/1 48/7/1 45/4/1
f 41/1/1 49/8/1 50/9/1
f 41/1/1 50/9/1 47/6/1
f 41/1/1 51/10/1 52/11/1
f 41/1/1 52/11/1 49/8/1
f 41/1/1 53/12/1 54/13/1
f 41/1/1 54/13/1 51/10/1
f 41/1/1 55/14/1 56/15/1
f 41/1/1 56/15/1 53/12/1
f 41/1/1 57/16/1 58/17/1
f 41/1/1 58/17/1 55/14/1
f 41/1/1 59/18/1 60/19/1
f 41/1/1 60/19/1 57/16/1
f 41/1/2 44/1/2 61/20/2
f 41/1/2 61/20/2 62/20/2
f 44/1/3 43/3/4 63/21/4
f 44/1/3 63/21/4 61/20/3
f 43/3/4 42/2/5 64/22/5
f 43/3/4 64/22/5 63/21/4
f 42/2/5 46/5/6 65/23/6
f 42/2/5 65/23/6 64/22/5
f 46/5/6 45/4/7 66/24/7
f 46/5/6 66/24/7 65/23/6
f 45/4/7 48/7/8 67/25/8
f 45/4/7 67/25/8 66/24/7
f 48/7/8 47/6/9 68/26/9
f 48/7/8 68/26/9 67/25/8
f 47/6/9 50/9/10 69/27/10
f 47/6/9 69/27/10 68/26/9
f 50/9/10 49/8/11 70/28/11
f 50/9/10 70/28/11 69/27/10
f 49/8/11 52/11/12 71/29/12
f 49/8/11 71/29/12 70/28/11
f 52/11/12 51/10/13 72/30/13
f 52/11/12 72/30/13 71/29/12
f 51/10/13 54/13/14 73/31/14
f 51/10/13 73/31/14 72/30/13
f 54/13/14 53/12/15 74/32/15
f 54/13/14 74/32/15 73/31/14
f 53/12/15 56/15/16 75/33/16
f 53/12/15 75/33/16 74/32/15
f 56/15/16 55/14/17 76/34/17
f 56/15/16 76/34/17 75/33/16
f 55/14/17 58/17/18 77/35/18
f 55/14/17 77/35/18 76/34/17
f 58/17/18 57/16/19 78/36/19
f 58/17/18 78/36/19 77/35/18
f 57/16/19 60/19/20 79/37/20
f 57/16/19 79/37/20 78/36/19
f 60/19/20 59/18/21 80/38/21
f 60/19/20 80/38/21 79/37/20
f 59/18/22 41/1/22 62/20/22
f 59/18/22 62/20/22 80/38/22
f 62/20/23 61/20/23 63/21/23
f 62/20/23 63/21/23 64/22/23
f 62/20/23 64/22/23 65/23/23
f 62/20/23 65/23/23 66/24/23
f 62/20/23 66/24/23 67/25/23
f 62/20/23 67/25/23 68/26/23
f 62/20/23 68/26/23 69/27/23
f 62/20/23 69/27/23 70/28/23
f 62/20/23 70/28/23 71/29/23
f 62/20/23 71/29/23 72/30/23
f 62/20/23 72/30/23 73/31/23
f 62/20/23 73/31/23 74/32/23
f 62/20/23 74/32/23 75/33/23
f 62/20/23 75/33/23 76/34/23
f 62/20/23 76/34/23 77/35/23
f 62/20/23 77/35/23 78/36/23
f 62/20/23 78/36/23 79/37/23
f 62/20/23 79/37/23 80/38/23
g Cylinder05_3
usemtl Cylinder06_1
v -62.0 178.0 -118.0
v -87.1126 178.0 -113.572
v -87.403 178.0 -115.7775
v -87.5 178.0 -118.0
v -85.9622 178.0 -109.2785
v -86.6311 178.0 -111.4001
v -84.0836 178.0 -105.25
v -85.1109 178.0 -107.2232
v -81.5341 178.0 -101.6089
v -82.8884 178.0 -103.3738
v -78.3911 178.0 -98.4659
v -80.0312 178.0 -99.9688
v -74.75 178.0 -95.9164
v -76.6262 178.0 -97.1116
v -70.7215 178.0 -94.0378
v -72.7768 178.0 -94.8892
v -66.428 178.0 -92.8874
v -68.5999 178.0 -93.3689
v -62.0 178.0 -92.5
v -64.2225 178.0 -92.597
v -87.5 181.0 -118.0
v -62.0 181.0 -118.0
v -87.403 181.0 -115.7775
v -87.1126 181.0 -113.572
v -86.6311 181.0 -111.4001
v -85.9622 181.0 -109.2785
v -85.1109 181.0 -107.2232
v -84.0836 181.0 -105.25
v -82.8884 181.0 -103.3738
v -81.5341 181.0 -101.6089
v -80.0312 181.0 -99.9688
v -78.3911 181.0 -98.4659
v -76.6262 181.0 -97.1116
v -74.75 181.0 -95.9164
v -72.7768 181.0 -94.8892
v -70.7215 181.0 -94.0378
v -68.5999 181.0 -93.3689
v -66.428 181.0 -92.8874
v -64.2225 181.0 -92.597
v -62.0 181.0 -92.5
f 81/1/1 82/2/1 83/3/1
f 81/1/1 83/3/1 84/1/1
f 81/1/1 85/4/1 86/5/1
f 81/1/1 86/5/1 82/2/1
f 81/1/1 87/6/1 88/7/1
f 81/1/1 88/7/1 85/4/1
f 81/1/1 89/8/1 90/9/1
f 81/1/1 90/9/1 87/6/1
f 81/1/1 91/10/1 92/11/1
f 81/1/1 92/11/1 89/8/1
f 81/1/1 93/12/1 94/13/1
f 81/1/1 94/13/1 91/10/1
f 81/1/1 95/14/1 96/15/1
f 81/1/1 96/15/1 93/12/1
f 81/1/1 97/16/1 98/17/1
f 81/1/1 98/17/1 95/14/1
f 81/1/1 99/18/1 100/19/1
f 81/1/1 100/19/1 97/16/1
f 81/1/2 84/1/2 101/20/2
f 81/1/2 101/20/2 102/20/2
f 84/1/3 83/3/4 103/21/4
f 84/1/3 103/21/4 101/20/3
f 83/3/4 82/2/5 104/22/5
f 83/3/4 104/22/5 103/21/4
f 82/2/5 86/5/6 105/23/6
f 82/2/5 105/23/6 104/22/5
f 86/5/6 85/4/7 106/24/7
f 86/5/6 106/24/7 105/23/6
f 85/4/7 88/7/8 107/25/8
f 85/4/7 107/25/8 106/24/7
f 88/7/8 87/6/9 108/26/9
f 88/7/8 108/26/9 107/25/8
f 87/6/9 90/9/10 109/27/10
f 87/6/9 109/27/10 108/26/9
f 90/9/10 89/8/11 110/28/11
f 90/9/10 110/28/11 109/27/10
f 89/8/11 92/11/12 111/29/12
f 89/8/11 111/29/12 110/28/11
f 92/11/12 91/10/13 112/30/13
f 92/11/12 112/30/13 111/29/12
f 91/10/13 94/13/14 113/31/14
f 91/10/13 113/31/14 112/30/13
f 94/13/14 93/12/15 114/32/15
f 94/13/14 114/32/15 113/31/14
f 93/12/15 96/15/16 115/33/16
f 93/12/15 115/33/16 114/32/15
f 96/15/16 95/14/17 116/34/17
f 96/15/16 116/34/17 115/33/16
f 95/14/17 98/17/18 117/35/18
f 95/14/17 117/35/18 116/34/17
f 98/17/18 97/16/19 118/36/19
f 98/17/18 118/36/19 117/35/18
f 97/16/19 100/19/20 119/37/20
f 97/16/19 119/37/20 118/36/19
f 100/19/20 99/18/21 120/38/21
f 100/19/20 120/38/21 119/37/20
f 99/18/22 81/1/22 102/20/22
f 99/18/22 102/20/22 120/38/22
f 102/20/23 101/20/23 103/21/23
f 102/20/23 103/21/23 104/22/23
f 102/20/23 104/22/23 105/23/23
f 102/20/23 105/23/23 106/24/23
f 102/20/23 106/24/23 107/25/23
f 102/20/23 107/25/23 108/26/23
f 102/20/23 108/26/23 109/27/23
f 102/20/23 109/27/23 110/28/23
f 102/20/23 110/28/23 111/29/23
f 102/20/23 111/29/23 112/30/23
f 102/20/23 112/30/23 113/31/23
f 102/20/23 113/31/23 114/32/23
f 102/20/23 114/32/23 115/33/23
f 102/20/23 115/33/23 116/34/23
f 102/20/23 116/34/23 117/35/23
f 102/20/23 117/35/23 118/36/23
f 102/20/23 118/36/23 119/37/23
f 102/20/23 119/37/23 120/38/23
g Line19_4
usemtl Cylinder06_1
v -60.0 178.0 -92.5
v -60.0 238.0 -92.5
v -60.0 178.0 -120.0
v -60.0 238.0 -120.0
v -87.5 178.0 -120.0
v -87.5 238.0 -120.0
vn 0.0 0.0 1.0
vn -1.0 0.0 0.0
f 84//24 81//24 22//24
f 84//24 22//24 21//24
f 81//25 99//25 40//25
f 81//25 40//25 22//25
f 99//24 121//24 122//24
f 99//24 122//24 40//24
f 121//22 123//22 124//22
f 121//22 124//22 122//22
f 123//2 125//2 126//2
f 123//2 126//2 124//2
f 125//25 84//25 21//25
f 125//25 21//25 126//25
f 123//1 81//1 84//1
f 123//1 84//1 125//1
f 121//1 99//1 81//1
f 121//1 81//1 123//1
f 124//23 126//23 21//23
f 124//23 21//23 22//23
f 122//23 124//23 22//23
f 122//23 22//23 40//23
g Cylinder08_5
usemtl Cylinder06_1
v -62.0 217.0 -118.0
v -87.1126 217.0 -113.572
v -87.403 217.0 -115.7775
v -87.5 217.0 -118.0
v -85.9622 217.0 -109.2785
v -86.6311 217.0 -111.4001
v -84.0836 217.0 -105.25
v -85.1109 217.0 -107.2232
v -81.5341 217.0 -101.6089
v -82.8884 217.0 -103.3738
v -78.3911 217.0 -98.4659
v -80.0312 217.0 -99.9688
v -74.75 217.0 -95.9164
v -76.6262 217.0 -97.1116
v -70.7215 217.0 -94.0378
v -72.7768 217.0 -94.8892
v -66.428 217.0 -92.8874
v -68.5999 217.0 -93.3689
v -62.0 217.0 -92.5
v -64.2225 217.0 -92.597
v -87.5 219.0 -118.0
v -62.0 219.0 -118.0
v -87.403 219.0 -115.7775
v -87.1126 219.0 -113.572
v -86.6311 219.0 -111.4001
v -85.9622 219.0 -109.2785
v -85.1109 219.0 -107.2232
v -84.0836 219.0 -105.25
v -82.8884 219.0 -103.3738
v -81.5341 219.0 -101.6089
v -80.0312 219.0 -99.9688
v -78.3911 219.0 -98.4659
v -76.6262 219.0 -97.1116
v -74.75 219.0 -95.9164
v -72.7768 219.0 -94.8892
v -70.7215 219.0 -94.0378
v -68.5999 219.0 -93.3689
v -66.428 219.0 -92.8874
v -64.2225 219.0 -92.597
v -62.0 219.0 -92.5
f 127/1/1 128/2/1 129/3/1
f 127/1/1 129/3/1 130/1/1
f 127/1/1 131/4/1 132/5/1
f 127/1/1 132/5/1 128/2/1
f 127/1/1 133/6/1 134/7/1
f 127/1/1 134/7/1 131/4/1
f 127/1/1 135/8/1 136/9/1
f 127/1/1 136/9/1 133/6/1
f 127/1/1 137/10/1 138/11/1
f 127/1/1 138/11/1 135/8/1
f 127/1/1 139/12/1 140/13/1
f 127/1/1 140/13/1 137/10/1
f 127/1/1 141/14/1 142/15/1
f 127/1/1 142/15/1 139/12/1
f 127/1/1 143/16/1 144/17/1
f 127/1/1 144/17/1 141/14/1
f 127/1/1 145/18/1 146/19/1
f 127/1/1 146/19/1 143/16/1
f 127/1/2 130/1/2 147/20/2
f 127/1/2 147/20/2 148/20/2
f 130/1/3 129/3/4 149/21/4
f 130/1/3 149/21/4 147/20/3
f 129/3/4 128/2/5 150/22/5
f 129/3/4 150/22/5 149/21/4
f 128/2/5 132/5/6 151/23/6
f 128/2/5 151/23/6 150/22/5
f 132/5/6 131/4/7 152/24/7
f 132/5/6 152/24/7 151/23/6
f 131/4/7 134/7/8 153/25/8
f 131/4/7 153/25/8 152/24/7
f 134/7/8 133/6/9 154/26/9
f 134/7/8 154/26/9 153/25/8
f 133/6/9 136/9/10 155/27/10
f 133/6/9 155/27/10 154/26/9
f 136/9/10 135/8/11 156/28/11
f 136/9/10 156/28/11 155/27/10
f 135/8/11 138/11/12 157/29/12
f 135/8/11 157/29/12 156/28/11
f 138/11/12 137/10/13 158/30/13
f 138/11/12 158/30/13 157/29/12
f 137/10/13 140/13/14 159/31/14
f 137/10/13 159/31/14 158/30/13
f 140/13/14 139/12/15 160/32/15
f 140/13/14 160/32/15 159/31/14
f 139/12/15 142/15/16 161/33/16
f 139/12/15 161/33/16 160/32/15
f 142/15/16 141/14/17 162/34/17
f 142/15/16 162/34/17 161/33/16
f 141/14/17 144/17/18 163/35/18
f 141/14/17 163/35/18 162/34/17
f 144/17/18 143/16/19 164/36/19
f 144/17/18 164/36/19 163/35/18
f 143/16/19 146/19/20 165/37/20
f 143/16/19 165/37/20 164/36/19
f 146/19/20 145/18/21 166/38/21
f 146/19/20 166/38/21 165/37/20
f 145/18/22 127/1/22 148/20/22
f 145/18/22 148/20/22 166/38/22
f 148/20/23 147/20/23 149/21/23
f 148/20/23 149/21/23 150/22/23
f 148/20/23 150/22/23 151/23/23
f 148/20/23 151/23/23 152/24/23
f 148/20/23 152/24/23 153/25/23
f 148/20/23 153/25/23 154/26/23
f 148/20/23 154/26/23 155/27/23
f 148/20/23 155/27/23 156/28/23
f 148/20/23 156/28/23 157/29/23
f 148/20/23 157/29/23 158/30/23
f 148/20/23 158/30/23 159/31/23
f 148/20/23 159/31/23 160/32/23
f 148/20/23 160/32/23 161/33/23
f 148/20/23 161/33/23 162/34/23
f 148/20/23 162/34/23 163/35/23
f 148/20/23 163/35/23 164/36/23
f 148/20/23 164/36/23 165/37/23
f 148/20/23 165/37/23 166/38/23
