# comoCiliegio.obj 3D model
#
# Created by LucaPresidente
#
# This file is distributed under Free Art License, see http://artlibre.org/licence/lal/en for more informations
# and under CC-BY Creative Commons Attribution 3.0 Unported license, see http://creativecommons.org/licenses/by/3.0/
# at your choice
# 
mtllib comoCiliegio.mtl
g Line41_1
usemtl Line41_1
v -480.0 0.0 190.0
v -480.0 60.0 190.0
v -420.0 60.0 190.0
v -420.0 0.0 190.0
v -480.0 60.0 50.0
v -420.0 60.0 50.0
v -480.0 0.0 50.0
v -420.0 0.0 50.0
v -480.0 0.0 40.0
v -420.0 0.0 40.0
v -480.0 70.0 40.0
v -420.0 70.0 40.0
v -480.0 70.0 200.0
v -420.0 70.0 200.0
v -480.0 0.0 200.0
v -420.0 0.0 200.0
vt 0.0013 0.9995 0
vt 0.0013 0.1432 0
vt 2.6987 0.1432 0
vt 2.6987 0.9995 0
vt 0.1699 0.0005 0
vt 2.5301 0.0005 0
vt 2.5301 0.9995 0
vt 0.1699 0.9995 0
vt 2.6987 0.0005 0
vt 0.0013 0.0005 0
vt 0.1699 0.1432 0
vt 2.5301 0.1432 0
vn 0.0 0.0 -1.0
vn -0.0 -1.0 -0.0
vn 0.0 0.0 1.0
vn 0.0 1.0 0.0
vn -1.0 0.0 0.0
vn 1.0 0.0 0.0
f 1/1/1 2/2/1 3/3/1
f 1/1/1 3/3/1 4/4/1
f 2/5/2 5/6/2 6/7/2
f 2/5/2 6/7/2 3/8/2
f 5/3/3 7/4/3 8/1/3
f 5/3/3 8/1/3 6/2/3
f 7/6/2 9/9/2 10/4/2
f 7/6/2 10/4/2 8/7/2
f 9/1/1 11/10/1 12/9/1
f 9/1/1 12/9/1 10/4/1
f 11/10/4 13/9/4 14/4/4
f 11/10/4 14/4/4 12/1/4
f 13/9/3 15/4/3 16/1/3
f 13/9/3 16/1/3 14/10/3
f 15/10/2 1/5/2 4/8/2
f 15/10/2 4/8/2 16/1/2
f 13/10/5 2/11/5 1/8/5
f 13/10/5 1/8/5 15/1/5
f 11/9/5 5/12/5 2/11/5
f 11/9/5 2/11/5 13/10/5
f 9/4/5 7/7/5 5/12/5
f 9/4/5 5/12/5 11/9/5
f 14/9/6 16/4/6 4/7/6
f 14/9/6 4/7/6 3/12/6
f 12/10/6 14/9/6 3/12/6
f 12/10/6 3/12/6 6/11/6
f 10/1/6 12/10/6 6/11/6
f 10/1/6 6/11/6 8/8/6
g Line42_2
usemtl Line41_1
v -423.0 45.25 190.0
v -423.0 45.25 90.0
v -420.0 45.25 90.0
v -420.0 45.25 190.0
v -423.0 59.75 90.0
v -420.0 59.75 90.0
v -423.0 59.75 190.0
v -420.0 59.75 190.0
v -423.0 58.0 189.0
v -423.0 58.0 157.0
v -420.0 58.0 157.0
v -420.0 58.0 189.0
v -423.0 47.0 157.0
v -420.0 47.0 157.0
v -423.0 47.0 189.0
v -420.0 47.0 189.0
v -423.0 58.0 91.0
v -423.0 47.0 91.0
v -420.0 47.0 91.0
v -420.0 58.0 91.0
v -423.0 47.0 123.0
v -420.0 47.0 123.0
v -423.0 58.0 123.0
v -420.0 58.0 123.0
v -423.0 58.0 156.0
v -423.0 58.0 124.0
v -420.0 58.0 124.0
v -420.0 58.0 156.0
v -423.0 47.0 124.0
v -420.0 47.0 124.0
v -423.0 47.0 156.0
v -420.0 47.0 156.0
vt 0.0 0.0 0
vt 0.4367 0.0 0
vt 0.4367 1.0 0
vt 0.0 1.0 0
vt 0.5 0.0 0
vt 0.5 1.0 0
vt 0.9367 0.0 0
vt 0.9367 1.0 0
vt 1.0 0.0 0
vt 1.0 1.0 0
vt 0.3721 0.0 0
vt 0.3721 1.0 0
vt 0.8721 0.0 0
vt 0.8721 1.0 0
vt 0.1279 0.0 0
vt 0.1279 1.0 0
vt 0.6279 0.0 0
vt 0.6279 1.0 0
vt 0.67 0.1207 0
vt 0.99 0.1207 0
vt 0.99 0.8793 0
vt 0.01 0.1207 0
vt 0.01 0.8793 0
vt 0.67 0.8793 0
vt 0.34 0.8793 0
vt 0.33 0.8793 0
vt 0.66 0.8793 0
vt 0.33 0.1207 0
vt 0.34 0.1207 0
vt 0.66 0.1207 0
f 17/13/2 18/14/2 19/15/2
f 17/13/2 19/15/2 20/16/2
f 18/14/1 21/17/1 22/18/1
f 18/14/1 22/18/1 19/15/1
f 21/17/4 23/19/4 24/20/4
f 21/17/4 24/20/4 22/18/4
f 23/19/3 17/21/3 20/22/3
f 23/19/3 20/22/3 24/20/3
f 25/13/2 26/23/2 27/24/2
f 25/13/2 27/24/2 28/16/2
f 26/23/3 29/17/3 30/18/3
f 26/23/3 30/18/3 27/24/3
f 29/17/4 31/25/4 32/26/4
f 29/17/4 32/26/4 30/18/4
f 31/25/1 25/21/1 28/22/1
f 31/25/1 28/22/1 32/26/1
f 33/13/3 34/27/3 35/28/3
f 33/13/3 35/28/3 36/16/3
f 34/27/4 37/17/4 38/18/4
f 34/27/4 38/18/4 35/28/4
f 37/17/1 39/29/1 40/30/1
f 37/17/1 40/30/1 38/18/1
f 39/29/2 33/21/2 36/22/2
f 39/29/2 36/22/2 40/30/2
f 41/13/2 42/23/2 43/24/2
f 41/13/2 43/24/2 44/16/2
f 42/23/3 45/17/3 46/18/3
f 42/23/3 46/18/3 43/24/3
f 45/17/4 47/25/4 48/26/4
f 45/17/4 48/26/4 46/18/4
f 47/25/1 41/21/1 44/22/1
f 47/25/1 44/22/1 48/26/1
f 18/21/5 37/31/5 34/32/5
f 18/21/5 34/32/5 33/33/5
f 31/34/5 18/21/5 17/13/5
f 31/34/5 17/13/5 25/35/5
f 33/33/5 39/36/5 21/22/5
f 33/33/5 21/22/5 18/21/5
f 23/16/5 21/22/5 25/35/5
f 23/16/5 25/35/5 17/13/5
f 21/22/5 41/37/5 26/38/5
f 21/22/5 26/38/5 25/35/5
f 21/22/5 39/36/5 42/39/5
f 21/22/5 42/39/5 41/37/5
f 29/40/5 47/41/5 18/21/5
f 29/40/5 18/21/5 31/34/5
f 41/37/5 47/41/5 29/40/5
f 41/37/5 29/40/5 26/38/5
f 45/42/5 37/31/5 18/21/5
f 45/42/5 18/21/5 47/41/5
f 37/31/5 45/42/5 42/39/5
f 37/31/5 42/39/5 39/36/5
f 19/21/6 22/22/6 36/33/6
f 19/21/6 36/33/6 35/32/6
f 32/34/6 28/35/6 24/16/6
f 32/34/6 24/16/6 20/13/6
f 22/22/6 24/16/6 28/35/6
f 22/22/6 28/35/6 27/38/6
f 27/38/6 30/40/6 44/37/6
f 27/38/6 44/37/6 22/22/6
f 22/22/6 44/37/6 43/39/6
f 22/22/6 43/39/6 40/36/6
f 32/34/6 20/13/6 19/21/6
f 32/34/6 19/21/6 30/40/6
f 48/41/6 44/37/6 30/40/6
f 48/41/6 30/40/6 19/21/6
f 46/42/6 48/41/6 19/21/6
f 46/42/6 19/21/6 38/31/6
f 40/36/6 36/33/6 22/22/6
f 38/31/6 40/36/6 43/39/6
f 38/31/6 43/39/6 46/42/6
f 35/32/6 38/31/6 19/21/6
g Box59_3
usemtl Line41_1
v -422.0 47.0 189.0
v -422.0 47.0 91.0
v -422.0 58.0 91.0
v -422.0 58.0 189.0
f 31/21/5 25/22/5 33/16/5
f 31/21/5 33/16/5 34/13/5
f 49/13/6 50/21/6 51/22/6
f 49/13/6 51/22/6 52/16/6
f 31/13/2 34/21/2 50/22/2
f 31/13/2 50/22/2 49/16/2
f 34/13/1 33/21/1 51/22/1
f 34/13/1 51/22/1 50/16/1
f 33/13/4 25/21/4 52/22/4
f 33/13/4 52/22/4 51/16/4
f 25/13/3 31/21/3 49/22/3
f 25/13/3 49/22/3 52/16/3
g Line43_4
usemtl Line41_1
v -423.0 30.25 190.0
v -423.0 30.25 90.0
v -420.0 30.25 90.0
v -420.0 30.25 190.0
v -423.0 44.75 90.0
v -420.0 44.75 90.0
v -423.0 44.75 190.0
v -420.0 44.75 190.0
v -423.0 43.0 189.0
v -423.0 43.0 157.0
v -420.0 43.0 157.0
v -420.0 43.0 189.0
v -423.0 32.0 157.0
v -420.0 32.0 157.0
v -423.0 32.0 189.0
v -420.0 32.0 189.0
v -423.0 43.0 91.0
v -423.0 32.0 91.0
v -420.0 32.0 91.0
v -420.0 43.0 91.0
v -423.0 32.0 123.0
v -420.0 32.0 123.0
v -423.0 43.0 123.0
v -420.0 43.0 123.0
v -423.0 43.0 156.0
v -423.0 43.0 124.0
v -420.0 43.0 124.0
v -420.0 43.0 156.0
v -423.0 32.0 124.0
v -420.0 32.0 124.0
v -423.0 32.0 156.0
v -420.0 32.0 156.0
f 53/13/2 54/14/2 55/15/2
f 53/13/2 55/15/2 56/16/2
f 54/14/1 57/17/1 58/18/1
f 54/14/1 58/18/1 55/15/1
f 57/17/4 59/19/4 60/20/4
f 57/17/4 60/20/4 58/18/4
f 59/19/3 53/21/3 56/22/3
f 59/19/3 56/22/3 60/20/3
f 61/13/2 62/23/2 63/24/2
f 61/13/2 63/24/2 64/16/2
f 62/23/3 65/17/3 66/18/3
f 62/23/3 66/18/3 63/24/3
f 65/17/4 67/25/4 68/26/4
f 65/17/4 68/26/4 66/18/4
f 67/25/1 61/21/1 64/22/1
f 67/25/1 64/22/1 68/26/1
f 69/13/3 70/27/3 71/28/3
f 69/13/3 71/28/3 72/16/3
f 70/27/4 73/17/4 74/18/4
f 70/27/4 74/18/4 71/28/4
f 73/17/1 75/29/1 76/30/1
f 73/17/1 76/30/1 74/18/1
f 75/29/2 69/21/2 72/22/2
f 75/29/2 72/22/2 76/30/2
f 77/13/2 78/23/2 79/24/2
f 77/13/2 79/24/2 80/16/2
f 78/23/3 81/17/3 82/18/3
f 78/23/3 82/18/3 79/24/3
f 81/17/4 83/25/4 84/26/4
f 81/17/4 84/26/4 82/18/4
f 83/25/1 77/21/1 80/22/1
f 83/25/1 80/22/1 84/26/1
f 54/21/5 73/31/5 70/32/5
f 54/21/5 70/32/5 69/33/5
f 67/34/5 54/21/5 53/13/5
f 67/34/5 53/13/5 61/35/5
f 69/33/5 75/36/5 57/22/5
f 69/33/5 57/22/5 54/21/5
f 59/16/5 57/22/5 61/35/5
f 59/16/5 61/35/5 53/13/5
f 57/22/5 77/37/5 62/38/5
f 57/22/5 62/38/5 61/35/5
f 57/22/5 75/36/5 78/39/5
f 57/22/5 78/39/5 77/37/5
f 65/40/5 83/41/5 54/21/5
f 65/40/5 54/21/5 67/34/5
f 77/37/5 83/41/5 65/40/5
f 77/37/5 65/40/5 62/38/5
f 81/42/5 73/31/5 54/21/5
f 81/42/5 54/21/5 83/41/5
f 73/31/5 81/42/5 78/39/5
f 73/31/5 78/39/5 75/36/5
f 55/21/6 58/22/6 72/33/6
f 55/21/6 72/33/6 71/32/6
f 68/34/6 64/35/6 60/16/6
f 68/34/6 60/16/6 56/13/6
f 58/22/6 60/16/6 64/35/6
f 58/22/6 64/35/6 63/38/6
f 63/38/6 66/40/6 80/37/6
f 63/38/6 80/37/6 58/22/6
f 58/22/6 80/37/6 79/39/6
f 58/22/6 79/39/6 76/36/6
f 68/34/6 56/13/6 55/21/6
f 68/34/6 55/21/6 66/40/6
f 84/41/6 80/37/6 66/40/6
f 84/41/6 66/40/6 55/21/6
f 82/42/6 84/41/6 55/21/6
f 82/42/6 55/21/6 74/31/6
f 76/36/6 72/33/6 58/22/6
f 74/31/6 76/36/6 79/39/6
f 74/31/6 79/39/6 82/42/6
f 71/32/6 74/31/6 55/21/6
g Box60_5
usemtl Line41_1
v -422.0 32.0 189.0
v -422.0 32.0 91.0
v -422.0 43.0 91.0
v -422.0 43.0 189.0
f 67/21/5 61/22/5 69/16/5
f 67/21/5 69/16/5 70/13/5
f 85/13/6 86/21/6 87/22/6
f 85/13/6 87/22/6 88/16/6
f 67/13/2 70/21/2 86/22/2
f 67/13/2 86/22/2 85/16/2
f 70/13/1 69/21/1 87/22/1
f 70/13/1 87/22/1 86/16/1
f 69/13/4 61/21/4 88/22/4
f 69/13/4 88/22/4 87/16/4
f 61/13/3 67/21/3 85/22/3
f 61/13/3 85/22/3 88/16/3
g Line44_6
usemtl Line41_1
v -423.0 15.25 190.0
v -423.0 15.25 90.0
v -420.0 15.25 90.0
v -420.0 15.25 190.0
v -423.0 29.75 90.0
v -420.0 29.75 90.0
v -423.0 29.75 190.0
v -420.0 29.75 190.0
v -423.0 28.0 189.0
v -423.0 28.0 157.0
v -420.0 28.0 157.0
v -420.0 28.0 189.0
v -423.0 17.0 157.0
v -420.0 17.0 157.0
v -423.0 17.0 189.0
v -420.0 17.0 189.0
v -423.0 28.0 91.0
v -423.0 17.0 91.0
v -420.0 17.0 91.0
v -420.0 28.0 91.0
v -423.0 17.0 123.0
v -420.0 17.0 123.0
v -423.0 28.0 123.0
v -420.0 28.0 123.0
v -423.0 28.0 156.0
v -423.0 28.0 124.0
v -420.0 28.0 124.0
v -420.0 28.0 156.0
v -423.0 17.0 124.0
v -420.0 17.0 124.0
v -423.0 17.0 156.0
v -420.0 17.0 156.0
f 89/13/2 90/14/2 91/15/2
f 89/13/2 91/15/2 92/16/2
f 90/14/1 93/17/1 94/18/1
f 90/14/1 94/18/1 91/15/1
f 93/17/4 95/19/4 96/20/4
f 93/17/4 96/20/4 94/18/4
f 95/19/3 89/21/3 92/22/3
f 95/19/3 92/22/3 96/20/3
f 97/13/2 98/23/2 99/24/2
f 97/13/2 99/24/2 100/16/2
f 98/23/3 101/17/3 102/18/3
f 98/23/3 102/18/3 99/24/3
f 101/17/4 103/25/4 104/26/4
f 101/17/4 104/26/4 102/18/4
f 103/25/1 97/21/1 100/22/1
f 103/25/1 100/22/1 104/26/1
f 105/13/3 106/27/3 107/28/3
f 105/13/3 107/28/3 108/16/3
f 106/27/4 109/17/4 110/18/4
f 106/27/4 110/18/4 107/28/4
f 109/17/1 111/29/1 112/30/1
f 109/17/1 112/30/1 110/18/1
f 111/29/2 105/21/2 108/22/2
f 111/29/2 108/22/2 112/30/2
f 113/13/2 114/23/2 115/24/2
f 113/13/2 115/24/2 116/16/2
f 114/23/3 117/17/3 118/18/3
f 114/23/3 118/18/3 115/24/3
f 117/17/4 119/25/4 120/26/4
f 117/17/4 120/26/4 118/18/4
f 119/25/1 113/21/1 116/22/1
f 119/25/1 116/22/1 120/26/1
f 90/21/5 109/31/5 106/32/5
f 90/21/5 106/32/5 105/33/5
f 103/34/5 90/21/5 89/13/5
f 103/34/5 89/13/5 97/35/5
f 105/33/5 111/36/5 93/22/5
f 105/33/5 93/22/5 90/21/5
f 95/16/5 93/22/5 97/35/5
f 95/16/5 97/35/5 89/13/5
f 93/22/5 113/37/5 98/38/5
f 93/22/5 98/38/5 97/35/5
f 93/22/5 111/36/5 114/39/5
f 93/22/5 114/39/5 113/37/5
f 101/40/5 119/41/5 90/21/5
f 101/40/5 90/21/5 103/34/5
f 113/37/5 119/41/5 101/40/5
f 113/37/5 101/40/5 98/38/5
f 117/42/5 109/31/5 90/21/5
f 117/42/5 90/21/5 119/41/5
f 109/31/5 117/42/5 114/39/5
f 109/31/5 114/39/5 111/36/5
f 91/21/6 94/22/6 108/33/6
f 91/21/6 108/33/6 107/32/6
f 104/34/6 100/35/6 96/16/6
f 104/34/6 96/16/6 92/13/6
f 94/22/6 96/16/6 100/35/6
f 94/22/6 100/35/6 99/38/6
f 99/38/6 102/40/6 116/37/6
f 99/38/6 116/37/6 94/22/6
f 94/22/6 116/37/6 115/39/6
f 94/22/6 115/39/6 112/36/6
f 104/34/6 92/13/6 91/21/6
f 104/34/6 91/21/6 102/40/6
f 120/41/6 116/37/6 102/40/6
f 120/41/6 102/40/6 91/21/6
f 118/42/6 120/41/6 91/21/6
f 118/42/6 91/21/6 110/31/6
f 112/36/6 108/33/6 94/22/6
f 110/31/6 112/36/6 115/39/6
f 110/31/6 115/39/6 118/42/6
f 107/32/6 110/31/6 91/21/6
g Box61_7
usemtl Line41_1
v -422.0 17.0 189.0
v -422.0 17.0 91.0
v -422.0 28.0 91.0
v -422.0 28.0 189.0
f 103/21/5 97/22/5 105/16/5
f 103/21/5 105/16/5 106/13/5
f 121/13/6 122/21/6 123/22/6
f 121/13/6 123/22/6 124/16/6
f 103/13/2 106/21/2 122/22/2
f 103/13/2 122/22/2 121/16/2
f 106/13/1 105/21/1 123/22/1
f 106/13/1 123/22/1 122/16/1
f 105/13/4 97/21/4 124/22/4
f 105/13/4 124/22/4 123/16/4
f 97/13/3 103/21/3 121/22/3
f 97/13/3 121/22/3 124/16/3
g Line45_8
usemtl Line41_1
v -423.0 0.25 190.0
v -423.0 0.25 90.0
v -420.0 0.25 90.0
v -420.0 0.25 190.0
v -423.0 14.75 90.0
v -420.0 14.75 90.0
v -423.0 14.75 190.0
v -420.0 14.75 190.0
v -423.0 13.0 189.0
v -423.0 13.0 157.0
v -420.0 13.0 157.0
v -420.0 13.0 189.0
v -423.0 2.0 157.0
v -420.0 2.0 157.0
v -423.0 2.0 189.0
v -420.0 2.0 189.0
v -423.0 13.0 91.0
v -423.0 2.0 91.0
v -420.0 2.0 91.0
v -420.0 13.0 91.0
v -423.0 2.0 123.0
v -420.0 2.0 123.0
v -423.0 13.0 123.0
v -420.0 13.0 123.0
v -423.0 13.0 156.0
v -423.0 13.0 124.0
v -420.0 13.0 124.0
v -420.0 13.0 156.0
v -423.0 2.0 124.0
v -420.0 2.0 124.0
v -423.0 2.0 156.0
v -420.0 2.0 156.0
f 125/13/2 126/14/2 127/15/2
f 125/13/2 127/15/2 128/16/2
f 126/14/1 129/17/1 130/18/1
f 126/14/1 130/18/1 127/15/1
f 129/17/4 131/19/4 132/20/4
f 129/17/4 132/20/4 130/18/4
f 131/19/3 125/21/3 128/22/3
f 131/19/3 128/22/3 132/20/3
f 133/13/2 134/23/2 135/24/2
f 133/13/2 135/24/2 136/16/2
f 134/23/3 137/17/3 138/18/3
f 134/23/3 138/18/3 135/24/3
f 137/17/4 139/25/4 140/26/4
f 137/17/4 140/26/4 138/18/4
f 139/25/1 133/21/1 136/22/1
f 139/25/1 136/22/1 140/26/1
f 141/13/3 142/27/3 143/28/3
f 141/13/3 143/28/3 144/16/3
f 142/27/4 145/17/4 146/18/4
f 142/27/4 146/18/4 143/28/4
f 145/17/1 147/29/1 148/30/1
f 145/17/1 148/30/1 146/18/1
f 147/29/2 141/21/2 144/22/2
f 147/29/2 144/22/2 148/30/2
f 149/13/2 150/23/2 151/24/2
f 149/13/2 151/24/2 152/16/2
f 150/23/3 153/17/3 154/18/3
f 150/23/3 154/18/3 151/24/3
f 153/17/4 155/25/4 156/26/4
f 153/17/4 156/26/4 154/18/4
f 155/25/1 149/21/1 152/22/1
f 155/25/1 152/22/1 156/26/1
f 126/21/5 145/31/5 142/32/5
f 126/21/5 142/32/5 141/33/5
f 139/34/5 126/21/5 125/13/5
f 139/34/5 125/13/5 133/35/5
f 141/33/5 147/36/5 129/22/5
f 141/33/5 129/22/5 126/21/5
f 131/16/5 129/22/5 133/35/5
f 131/16/5 133/35/5 125/13/5
f 129/22/5 149/37/5 134/38/5
f 129/22/5 134/38/5 133/35/5
f 129/22/5 147/36/5 150/39/5
f 129/22/5 150/39/5 149/37/5
f 137/40/5 155/41/5 126/21/5
f 137/40/5 126/21/5 139/34/5
f 149/37/5 155/41/5 137/40/5
f 149/37/5 137/40/5 134/38/5
f 153/42/5 145/31/5 126/21/5
f 153/42/5 126/21/5 155/41/5
f 145/31/5 153/42/5 150/39/5
f 145/31/5 150/39/5 147/36/5
f 127/21/6 130/22/6 144/33/6
f 127/21/6 144/33/6 143/32/6
f 140/34/6 136/35/6 132/16/6
f 140/34/6 132/16/6 128/13/6
f 130/22/6 132/16/6 136/35/6
f 130/22/6 136/35/6 135/38/6
f 135/38/6 138/40/6 152/37/6
f 135/38/6 152/37/6 130/22/6
f 130/22/6 152/37/6 151/39/6
f 130/22/6 151/39/6 148/36/6
f 140/34/6 128/13/6 127/21/6
f 140/34/6 127/21/6 138/40/6
f 156/41/6 152/37/6 138/40/6
f 156/41/6 138/40/6 127/21/6
f 154/42/6 156/41/6 127/21/6
f 154/42/6 127/21/6 146/31/6
f 148/36/6 144/33/6 130/22/6
f 146/31/6 148/36/6 151/39/6
f 146/31/6 151/39/6 154/42/6
f 143/32/6 146/31/6 127/21/6
g Box62_9
usemtl Line41_1
v -422.0 2.0 189.0
v -422.0 2.0 91.0
v -422.0 13.0 91.0
v -422.0 13.0 189.0
f 139/21/5 133/22/5 141/16/5
f 139/21/5 141/16/5 142/13/5
f 157/13/6 158/21/6 159/22/6
f 157/13/6 159/22/6 160/16/6
f 139/13/2 142/21/2 158/22/2
f 139/13/2 158/22/2 157/16/2
f 142/13/1 141/21/1 159/22/1
f 142/13/1 159/22/1 158/16/1
f 141/13/4 133/21/4 160/22/4
f 141/13/4 160/22/4 159/16/4
f 133/13/3 139/21/3 157/22/3
f 133/13/3 157/22/3 160/16/3
g Box63_10
usemtl Line41_1
v -423.0 1.5 89.5
v -423.0 58.5 89.5
v -423.0 58.5 50.5
v -423.0 1.5 50.5
v -422.0 1.5 89.5
v -422.0 1.5 50.5
v -422.0 58.5 50.5
v -422.0 58.5 89.5
f 161/21/5 162/22/5 163/16/5
f 161/21/5 163/16/5 164/13/5
f 165/13/6 166/21/6 167/22/6
f 165/13/6 167/22/6 168/16/6
f 161/13/2 164/21/2 166/22/2
f 161/13/2 166/22/2 165/16/2
f 164/13/1 163/21/1 167/22/1
f 164/13/1 167/22/1 166/16/1
f 163/13/4 162/21/4 168/22/4
f 163/13/4 168/22/4 167/16/4
f 162/13/3 161/21/3 165/22/3
f 162/13/3 165/22/3 168/16/3
g Line46_11
usemtl Line41_1
v -423.0 0.25 89.0
v -423.0 0.25 51.0
v -420.0 0.25 51.0
v -420.0 0.25 89.0
v -423.0 59.75 51.0
v -420.0 59.75 51.0
v -423.0 59.75 89.0
v -420.0 59.75 89.0
v -423.0 58.0 88.0
v -423.0 58.0 80.0
v -420.0 58.0 80.0
v -420.0 58.0 88.0
v -423.0 2.0 80.0
v -420.0 2.0 80.0
v -423.0 2.0 88.0
v -420.0 2.0 88.0
v -423.0 58.0 52.0
v -423.0 2.0 52.0
v -420.0 2.0 52.0
v -420.0 58.0 52.0
v -423.0 2.0 60.0
v -420.0 2.0 60.0
v -423.0 58.0 60.0
v -420.0 58.0 60.0
v -423.0 58.0 79.0
v -423.0 58.0 61.0
v -420.0 58.0 61.0
v -420.0 58.0 79.0
v -423.0 2.0 61.0
v -420.0 2.0 61.0
v -423.0 2.0 79.0
v -420.0 2.0 79.0
vt 0.1949 0.0 0
vt 0.1949 1.0 0
vt 0.6949 0.0 0
vt 0.6949 1.0 0
vt 0.0625 0.0 0
vt 0.0625 1.0 0
vt 0.5625 0.0 0
vt 0.5625 1.0 0
vt 0.4375 0.0 0
vt 0.4375 1.0 0
vt 0.9375 0.0 0
vt 0.9375 1.0 0
vt 0.1216 0.0 0
vt 0.1216 1.0 0
vt 0.6216 0.0 0
vt 0.6216 1.0 0
vt 0.9737 0.9706 0
vt 0.7632 0.9706 0
vt 0.7632 0.0294 0
vt 0.9737 0.0294 0
vt 0.0263 0.0294 0
vt 0.0263 0.9706 0
vt 0.2632 0.9706 0
vt 0.2368 0.9706 0
vt 0.7368 0.9706 0
vt 0.2368 0.0294 0
vt 0.2632 0.0294 0
vt 0.7368 0.0294 0
f 169/13/2 170/43/2 171/44/2
f 169/13/2 171/44/2 172/16/2
f 170/43/1 173/17/1 174/18/1
f 170/43/1 174/18/1 171/44/1
f 173/17/4 175/45/4 176/46/4
f 173/17/4 176/46/4 174/18/4
f 175/45/3 169/21/3 172/22/3
f 175/45/3 172/22/3 176/46/3
f 177/13/2 178/47/2 179/48/2
f 177/13/2 179/48/2 180/16/2
f 178/47/3 181/17/3 182/18/3
f 178/47/3 182/18/3 179/48/3
f 181/17/4 183/49/4 184/50/4
f 181/17/4 184/50/4 182/18/4
f 183/49/1 177/21/1 180/22/1
f 183/49/1 180/22/1 184/50/1
f 185/13/3 186/51/3 187/52/3
f 185/13/3 187/52/3 188/16/3
f 186/51/4 189/17/4 190/18/4
f 186/51/4 190/18/4 187/52/4
f 189/17/1 191/53/1 192/54/1
f 189/17/1 192/54/1 190/18/1
f 191/53/2 185/21/2 188/22/2
f 191/53/2 188/22/2 192/54/2
f 193/13/2 194/55/2 195/56/2
f 193/13/2 195/56/2 196/16/2
f 194/55/3 197/17/3 198/18/3
f 194/55/3 198/18/3 195/56/3
f 197/17/4 199/57/4 200/58/4
f 197/17/4 200/58/4 198/18/4
f 199/57/1 193/21/1 196/22/1
f 199/57/1 196/22/1 200/58/1
f 185/59/5 191/60/5 173/22/5
f 185/59/5 173/22/5 170/21/5
f 170/21/5 189/61/5 186/62/5
f 170/21/5 186/62/5 185/59/5
f 183/63/5 170/21/5 169/13/5
f 183/63/5 169/13/5 177/64/5
f 175/16/5 173/22/5 177/64/5
f 175/16/5 177/64/5 169/13/5
f 173/22/5 193/65/5 178/66/5
f 173/22/5 178/66/5 177/64/5
f 173/22/5 191/60/5 194/67/5
f 173/22/5 194/67/5 193/65/5
f 181/68/5 199/69/5 170/21/5
f 181/68/5 170/21/5 183/63/5
f 199/69/5 181/68/5 178/66/5
f 199/69/5 178/66/5 193/65/5
f 197/70/5 189/61/5 170/21/5
f 197/70/5 170/21/5 199/69/5
f 194/67/5 191/60/5 189/61/5
f 194/67/5 189/61/5 197/70/5
f 188/59/6 187/62/6 171/21/6
f 188/59/6 171/21/6 174/22/6
f 184/63/6 180/64/6 176/16/6
f 184/63/6 176/16/6 172/13/6
f 174/22/6 176/16/6 180/64/6
f 174/22/6 180/64/6 179/66/6
f 179/66/6 200/69/6 196/65/6
f 179/66/6 196/65/6 174/22/6
f 174/22/6 196/65/6 195/67/6
f 174/22/6 195/67/6 192/60/6
f 184/63/6 172/13/6 171/21/6
f 184/63/6 171/21/6 182/68/6
f 200/69/6 179/66/6 182/68/6
f 200/69/6 182/68/6 171/21/6
f 198/70/6 200/69/6 171/21/6
f 198/70/6 171/21/6 190/61/6
f 171/21/6 187/62/6 190/61/6
f 195/67/6 198/70/6 190/61/6
f 195/67/6 190/61/6 192/60/6
f 174/22/6 192/60/6 188/59/6
g Box64_12
usemtl Line41_1
v -423.0 0.0 50.0
v -423.0 0.0 190.0
v -423.0 60.0 50.0
v -423.0 60.0 190.0
vt 0.0013 1.5992 0
vt 0.0014 0.0008 0
vt 2.6987 0.0008 0
vt 2.6986 1.5992 0
vt 2.6987 1.5992 0
vt 0.0014 1.5992 0
vt 0.0013 0.0008 0
vt 2.6986 0.0008 0
f 201/71/2 202/72/2 1/73/2
f 201/71/2 1/73/2 7/74/2
f 203/75/4 5/76/4 2/77/4
f 203/75/4 2/77/4 204/78/4
f 201/77/1 7/78/1 5/74/1
f 201/77/1 5/74/1 203/71/1
f 7/71/5 1/77/5 2/73/5
f 7/71/5 2/73/5 5/75/5
f 1/77/3 202/78/3 204/74/3
f 1/77/3 204/74/3 2/71/3
f 202/73/6 201/75/6 203/71/6
f 202/73/6 203/71/6 204/77/6
