#Produced by Art of Illusion 2.7.2, Wed Nov 18 16:11:30 PST 2009
mtllib microwave.mtl
s 0
g microwave
usemtl stainless
v -1.235 0.005 0.745
v 1.625 0.005 0.745
v 1.625 0.005 -0.745
v -1.235 0.005 -0.745
v -1.235 1.495 0.745
v 1.625 1.495 0.745
v 1.625 1.495 -0.745
v -1.235 1.495 -0.745
v 0.195 0.75 0.745
v 1.625 0.75 0
v 0.195 0.75 -0.745
v -1.235 0.75 0
v 0.195 0.005 0
v 0.195 1.495 0
f 2 1 13
f 3 2 13
f 4 3 13
f 1 4 13
f 2 3 10
f 3 7 10
f 7 6 10
f 6 2 10
f 1 2 9
f 2 6 9
f 6 5 9
f 5 1 9
f 4 1 12
f 1 5 12
f 5 8 12
f 8 4 12
f 5 6 14
f 6 7 14
f 7 8 14
f 8 5 14
f 3 4 11
f 4 8 11
f 8 7 11
f 7 3 11
s 0
g handle
usemtl handle
v 0.935 0.265 0.905
v 1.025 0.265 0.905
v 1.025 0.265 0.815
v 0.935 0.265 0.815
v 0.935 1.165 0.905
v 1.025 1.165 0.905
v 1.025 1.165 0.815
v 0.935 1.165 0.815
v 0.98 0.715 0.905
v 1.025 0.715 0.86
v 0.98 0.715 0.815
v 0.935 0.715 0.86
v 0.98 0.265 0.86
v 0.98 1.165 0.86
f 16 15 27
f 17 16 27
f 18 17 27
f 15 18 27
f 16 17 24
f 17 21 24
f 21 20 24
f 20 16 24
f 15 16 23
f 16 20 23
f 20 19 23
f 19 15 23
f 18 15 26
f 15 19 26
f 19 22 26
f 22 18 26
f 19 20 28
f 20 21 28
f 21 22 28
f 22 19 28
f 17 18 25
f 18 22 25
f 22 21 25
f 21 17 25
g door
usemtl Default_Texture
v -1.235 0.105 0.82
v 1.115 0.105 0.82
v 1.115 0.105 0.7
v -1.235 0.105 0.7
v -1.235 1.325 0.82
v 1.115 1.325 0.82
v 1.115 1.325 0.7
v -1.235 1.325 0.7
v 1.115 0.715 0.76
v -0.06 0.715 0.7
v -1.235 0.715 0.76
v -0.06 0.105 0.76
v -0.06 1.325 0.76
v 0.835 0.265 0.82
v -1.095 1.165 0.82
v -1.095 0.265 0.82
v 0.835 1.165 0.82
v 0.835 0.265 0.77
v -1.095 0.265 0.77
v 0.835 1.165 0.77
v -1.095 1.165 0.77
v -0.13 0.715 0.77
vn -0.57735 -0.57735 0.57735
vn 0.57735 -0.57735 0.57735
vn 0.57735 -0.57735 -0.57735
vn -0.57735 -0.57735 -0.57735
vn -0.57735 0.57735 0.57735
vn 0.57735 0.57735 0.57735
vn 0.57735 0.57735 -0.57735
vn -0.57735 0.57735 -0.57735
vn 1 0 0
vn 0 0 -1
vn -1 0 0
vn 0 -1 0
vn 0 1 0
vn -1 0 0
vn -1 0 0
vn 0 1 0
vn 0 0 1
vn 0 -1 0
vn 1 0 0
vn 0 0 1
vn 0 -1 0
vn 0 1 0
vn 0 0 1
vn 1 0 0
vn 0 -1 0
vn 0 0 1
vn -1 0 0
vn -1 0 0
vn 0 1 0
vn 0 0 1
vn 0 0 1
vn 0 1 0
vn 0 0 1
vn 0 0 1
vn 1 0 0
vn 0 -1 0
vn 0 -1 0
vn -1 0 0
vn -1 0 0
vn 0 0 1
vn 0 0 1
vn 0 -1 0
vn 1 0 0
vn 0 0 1
vn 0 0 1
vn 0 0 1
vn 0 0 1
vn 0 0 1
vn 0 0 1
f 30//2 29//1 40//12
f 31//3 30//2 40//12
f 32//4 31//3 40//12
f 29//1 32//4 40//12
f 30//2 31//3 37//9
f 31//3 35//7 37//9
f 35//7 34//6 37//9
f 34//6 30//2 37//9
f 32//4 29//1 39//11
f 29//1 33//5 39//11
f 33//5 36//8 39//11
f 36//8 32//4 39//11
f 33//5 34//6 41//13
f 34//6 35//7 41//13
f 35//7 36//8 41//13
f 36//8 33//5 41//13
f 31//3 32//4 38//10
f 32//4 36//8 38//10
f 36//8 35//7 38//10
f 35//7 31//3 38//10
f 49//42 48//36 43//18
f 29//1 30//2 42//17
f 48//38 42//14 45//27
f 30//2 34//6 42//17
f 46//29 47//32 44//22
f 34//6 33//5 43//20
f 33//5 29//1 44//23
f 43//21 48//37 45//25
f 44//23 29//1 42//17
f 49//44 47//34 50//46
f 44//24 47//35 43//19
f 45//26 34//6 43//20
f 42//15 48//39 46//28
f 42//16 46//29 44//22
f 48//41 49//45 50//49
f 42//17 34//6 45//26
f 43//20 33//5 44//23
f 47//33 46//30 50//47
f 43//19 47//35 49//43
f 46//31 48//40 50//48
s 0
g Cube_6
usemtl black
v 1.165 0.145 0.775
v 1.575 0.145 0.775
v 1.575 0.145 0.695
v 1.165 0.145 0.695
v 1.165 1.295 0.775
v 1.575 1.295 0.775
v 1.575 1.295 0.695
v 1.165 1.295 0.695
v 1.37 0.72 0.775
v 1.575 0.72 0.735
v 1.37 0.72 0.695
v 1.165 0.72 0.735
v 1.37 0.145 0.735
v 1.37 1.295 0.735
f 52 51 63
f 53 52 63
f 54 53 63
f 51 54 63
f 52 53 60
f 53 57 60
f 57 56 60
f 56 52 60
f 51 52 59
f 52 56 59
f 56 55 59
f 55 51 59
f 54 51 62
f 51 55 62
f 55 58 62
f 58 54 62
f 55 56 64
f 56 57 64
f 57 58 64
f 58 55 64
f 53 54 61
f 54 58 61
f 58 57 61
f 57 53 61
