# angolo80W.obj 3D model
#
# Created by LucaPresidente
#
# This file is distributed under Free Art License, see http://artlibre.org/licence/lal/en for more informations
# and under CC-BY Creative Commons Attribution 3.0 Unported license, see http://creativecommons.org/licenses/by/3.0/
# at your choice
# 
mtllib angolo80W.mtl
g Cylinder70_1
usemtl Cylinder70_1
v 452.5 3.0 -247.0
v 452.3288 3.0 -243.078
v 451.8163 3.0 -239.1858
v 407.5 3.0 -247.0
v 450.9666 3.0 -235.3531
v 449.7862 3.0 -231.6091
v 448.2838 3.0 -227.9821
v 446.4711 3.0 -224.5
v 444.3618 3.0 -221.189
v 441.972 3.0 -218.0745
v 439.3198 3.0 -215.1802
v 436.4254 3.0 -212.528
v 433.3109 3.0 -210.1381
v 430.0 3.0 -208.0288
v 426.5178 3.0 -206.2161
v 422.8909 3.0 -204.7138
v 419.1468 3.0 -203.5333
v 415.3141 3.0 -202.6836
v 411.422 3.0 -202.1712
v 407.5 3.0 -202.0
v 407.5 5.0 -247.0
v 452.5 5.0 -247.0
v 452.3288 5.0 -243.078
v 451.8163 5.0 -239.1858
v 450.9666 5.0 -235.3531
v 449.7862 5.0 -231.6091
v 448.2838 5.0 -227.9821
v 446.4711 5.0 -224.5
v 444.3618 5.0 -221.189
v 441.972 5.0 -218.0745
v 439.3198 5.0 -215.1802
v 436.4254 5.0 -212.528
v 433.3109 5.0 -210.1381
v 430.0 5.0 -208.0288
v 426.5178 5.0 -206.2161
v 422.8909 5.0 -204.7138
v 419.1468 5.0 -203.5333
v 415.3141 5.0 -202.6836
v 411.422 5.0 -202.1712
v 407.5 5.0 -202.0
vt 0.75 0.0 0
vt 0.7639 0.0 0
vt 0.7778 0.0 0
vt 0.5 0.0 0
vt 0.7917 0.0 0
vt 0.8056 0.0 0
vt 0.8194 0.0 0
vt 0.8333 0.0 0
vt 0.8472 0.0 0
vt 0.8611 0.0 0
vt 0.875 0.0 0
vt 0.8889 0.0 0
vt 0.9028 0.0 0
vt 0.9167 0.0 0
vt 0.9306 0.0 0
vt 0.9444 0.0 0
vt 0.9583 0.0 0
vt 0.9722 0.0 0
vt 0.9861 0.0 0
vt 1.0 0.0 0
vt 0.5 1.0 0
vt 0.75 1.0 0
vt 0.7639 1.0 0
vt 0.7778 1.0 0
vt 0.7917 1.0 0
vt 0.8056 1.0 0
vt 0.8194 1.0 0
vt 0.8333 1.0 0
vt 0.8472 1.0 0
vt 0.8611 1.0 0
vt 0.875 1.0 0
vt 0.8889 1.0 0
vt 0.9028 1.0 0
vt 0.9167 1.0 0
vt 0.9306 1.0 0
vt 0.9444 1.0 0
vt 0.9583 1.0 0
vt 0.9722 1.0 0
vt 0.9861 1.0 0
vt 1.0 1.0 0
vn 0.0 -1.0 0.0
vn 0.0 0.0 -1.0
vn 0.99904895 0.0 0.043602135
vn 0.9961909 0.0 0.0871992
vn 0.98481584 0.0 0.17360279
vn 0.9659289 0.0 0.25880775
vn 0.93969995 0.0 0.34199998
vn 0.9063134 0.0 0.42260626
vn 0.86601907 0.0 0.500011
vn 0.81915677 0.0 0.5735697
vn 0.76602 0.0 0.6428168
vn 0.7071068 0.0 0.7071068
vn 0.6428168 0.0 0.76602
vn 0.5735697 0.0 0.81915677
vn 0.500011 0.0 0.86601907
vn 0.42260626 0.0 0.9063134
vn 0.34199998 0.0 0.93969995
vn 0.25880775 0.0 0.9659289
vn 0.17360279 0.0 0.98481584
vn 0.0871992 0.0 0.9961909
vn 0.043602135 0.0 0.99904895
vn -1.0 -0.0 -0.0
vn 0.0 1.0 0.0
f 1/1/1 2/2/1 3/3/1
f 1/1/1 3/3/1 4/4/1
f 3/3/1 5/5/1 6/6/1
f 3/3/1 6/6/1 4/4/1
f 6/6/1 7/7/1 8/8/1
f 6/6/1 8/8/1 4/4/1
f 8/8/1 9/9/1 10/10/1
f 8/8/1 10/10/1 4/4/1
f 10/10/1 11/11/1 12/12/1
f 10/10/1 12/12/1 4/4/1
f 12/12/1 13/13/1 14/14/1
f 12/12/1 14/14/1 4/4/1
f 14/14/1 15/15/1 16/16/1
f 14/14/1 16/16/1 4/4/1
f 16/16/1 17/17/1 18/18/1
f 16/16/1 18/18/1 4/4/1
f 18/18/1 19/19/1 20/20/1
f 18/18/1 20/20/1 4/4/1
f 21/21/2 22/22/2 1/1/2
f 21/21/2 1/1/2 4/4/2
f 22/22/3 23/23/4 2/2/4
f 22/22/3 2/2/4 1/1/3
f 23/23/4 24/24/5 3/3/5
f 23/23/4 3/3/5 2/2/4
f 24/24/5 25/25/6 5/5/6
f 24/24/5 5/5/6 3/3/5
f 25/25/6 26/26/7 6/6/7
f 25/25/6 6/6/7 5/5/6
f 26/26/7 27/27/8 7/7/8
f 26/26/7 7/7/8 6/6/7
f 27/27/8 28/28/9 8/8/9
f 27/27/8 8/8/9 7/7/8
f 28/28/9 29/29/10 9/9/10
f 28/28/9 9/9/10 8/8/9
f 29/29/10 30/30/11 10/10/11
f 29/29/10 10/10/11 9/9/10
f 30/30/11 31/31/12 11/11/12
f 30/30/11 11/11/12 10/10/11
f 31/31/12 32/32/13 12/12/13
f 31/31/12 12/12/13 11/11/12
f 32/32/13 33/33/14 13/13/14
f 32/32/13 13/13/14 12/12/13
f 33/33/14 34/34/15 14/14/15
f 33/33/14 14/14/15 13/13/14
f 34/34/15 35/35/16 15/15/16
f 34/34/15 15/15/16 14/14/15
f 35/35/16 36/36/17 16/16/17
f 35/35/16 16/16/17 15/15/16
f 36/36/17 37/37/18 17/17/18
f 36/36/17 17/17/18 16/16/17
f 37/37/18 38/38/19 18/18/19
f 37/37/18 18/18/19 17/17/18
f 38/38/19 39/39/20 19/19/20
f 38/38/19 19/19/20 18/18/19
f 39/39/20 40/40/21 20/20/21
f 39/39/20 20/20/21 19/19/20
f 40/40/22 21/21/22 4/4/22
f 40/40/22 4/4/22 20/20/22
f 24/24/23 23/23/23 22/22/23
f 24/24/23 22/22/23 21/21/23
f 26/26/23 25/25/23 24/24/23
f 26/26/23 24/24/23 21/21/23
f 28/28/23 27/27/23 26/26/23
f 28/28/23 26/26/23 21/21/23
f 30/30/23 29/29/23 28/28/23
f 30/30/23 28/28/23 21/21/23
f 32/32/23 31/31/23 30/30/23
f 32/32/23 30/30/23 21/21/23
f 34/34/23 33/33/23 32/32/23
f 34/34/23 32/32/23 21/21/23
f 36/36/23 35/35/23 34/34/23
f 36/36/23 34/34/23 21/21/23
f 38/38/23 37/37/23 36/36/23
f 38/38/23 36/36/23 21/21/23
f 40/40/23 39/39/23 38/38/23
f 40/40/23 38/38/23 21/21/23
g Line60_2
usemtl Cylinder70_1
v 407.5 78.0 -204.5
v 407.5 78.0 -247.0
v 407.5 5.0 -204.5
v 450.0 78.0 -247.0
v 450.0 5.0 -247.0
v 450.0 78.0 -245.0
v 450.0 5.0 -245.0
v 409.5 78.0 -245.0
v 409.5 5.0 -245.0
v 409.5 78.0 -204.5
v 409.5 5.0 -204.5
vn 1.0 0.0 0.0
vn 0.0 0.0 1.0
f 41//22 42//22 21//22
f 41//22 21//22 43//22
f 42//2 44//2 45//2
f 42//2 45//2 21//2
f 44//24 46//24 47//24
f 44//24 47//24 45//24
f 46//25 48//25 49//25
f 46//25 49//25 47//25
f 48//24 50//24 51//24
f 48//24 51//24 49//24
f 50//25 41//25 43//25
f 50//25 43//25 51//25
f 51//1 43//1 21//1
f 51//1 21//1 49//1
f 21//1 45//1 47//1
f 21//1 47//1 49//1
f 42//23 41//23 50//23
f 42//23 50//23 48//23
f 46//23 44//23 42//23
f 46//23 42//23 48//23
g Cylinder72_3
usemtl Cylinder70_1
v 450.0 40.0 -247.0
v 449.8383 40.0 -243.2959
v 449.3543 40.0 -239.6199
v 407.5 40.0 -247.0
v 448.5518 40.0 -236.0002
v 447.4369 40.0 -232.4641
v 446.0181 40.0 -229.0387
v 444.3061 40.0 -225.75
v 442.3139 40.0 -222.623
v 440.0569 40.0 -219.6815
v 437.552 40.0 -216.9479
v 434.8185 40.0 -214.4431
v 431.877 40.0 -212.186
v 428.75 40.0 -210.1939
v 425.4612 40.0 -208.4819
v 422.0358 40.0 -207.063
v 418.4998 40.0 -205.9482
v 414.88 40.0 -205.1457
v 411.2041 40.0 -204.6617
v 407.5 40.0 -204.5
v 407.5 42.0 -247.0
v 450.0 42.0 -247.0
v 449.8383 42.0 -243.2959
v 449.3543 42.0 -239.6199
v 448.5518 42.0 -236.0002
v 447.4369 42.0 -232.4641
v 446.0181 42.0 -229.0387
v 444.3061 42.0 -225.75
v 442.3139 42.0 -222.623
v 440.0569 42.0 -219.6815
v 437.552 42.0 -216.9479
v 434.8185 42.0 -214.4431
v 431.877 42.0 -212.186
v 428.75 42.0 -210.1939
v 425.4612 42.0 -208.4819
v 422.0358 42.0 -207.063
v 418.4998 42.0 -205.9482
v 414.88 42.0 -205.1457
v 411.2041 42.0 -204.6617
v 407.5 42.0 -204.5
f 52/1/1 53/2/1 54/3/1
f 52/1/1 54/3/1 55/4/1
f 54/3/1 56/5/1 57/6/1
f 54/3/1 57/6/1 55/4/1
f 57/6/1 58/7/1 59/8/1
f 57/6/1 59/8/1 55/4/1
f 59/8/1 60/9/1 61/10/1
f 59/8/1 61/10/1 55/4/1
f 61/10/1 62/11/1 63/12/1
f 61/10/1 63/12/1 55/4/1
f 63/12/1 64/13/1 65/14/1
f 63/12/1 65/14/1 55/4/1
f 65/14/1 66/15/1 67/16/1
f 65/14/1 67/16/1 55/4/1
f 67/16/1 68/17/1 69/18/1
f 67/16/1 69/18/1 55/4/1
f 69/18/1 70/19/1 71/20/1
f 69/18/1 71/20/1 55/4/1
f 72/21/2 73/22/2 52/1/2
f 72/21/2 52/1/2 55/4/2
f 73/22/3 74/23/4 53/2/4
f 73/22/3 53/2/4 52/1/3
f 74/23/4 75/24/5 54/3/5
f 74/23/4 54/3/5 53/2/4
f 75/24/5 76/25/6 56/5/6
f 75/24/5 56/5/6 54/3/5
f 76/25/6 77/26/7 57/6/7
f 76/25/6 57/6/7 56/5/6
f 77/26/7 78/27/8 58/7/8
f 77/26/7 58/7/8 57/6/7
f 78/27/8 79/28/9 59/8/9
f 78/27/8 59/8/9 58/7/8
f 79/28/9 80/29/10 60/9/10
f 79/28/9 60/9/10 59/8/9
f 80/29/10 81/30/11 61/10/11
f 80/29/10 61/10/11 60/9/10
f 81/30/11 82/31/12 62/11/12
f 81/30/11 62/11/12 61/10/11
f 82/31/12 83/32/13 63/12/13
f 82/31/12 63/12/13 62/11/12
f 83/32/13 84/33/14 64/13/14
f 83/32/13 64/13/14 63/12/13
f 84/33/14 85/34/15 65/14/15
f 84/33/14 65/14/15 64/13/14
f 85/34/15 86/35/16 66/15/16
f 85/34/15 66/15/16 65/14/15
f 86/35/16 87/36/17 67/16/17
f 86/35/16 67/16/17 66/15/16
f 87/36/17 88/37/18 68/17/18
f 87/36/17 68/17/18 67/16/17
f 88/37/18 89/38/19 69/18/19
f 88/37/18 69/18/19 68/17/18
f 89/38/19 90/39/20 70/19/20
f 89/38/19 70/19/20 69/18/19
f 90/39/20 91/40/21 71/20/21
f 90/39/20 71/20/21 70/19/20
f 91/40/22 72/21/22 55/4/22
f 91/40/22 55/4/22 71/20/22
f 75/24/23 74/23/23 73/22/23
f 75/24/23 73/22/23 72/21/23
f 77/26/23 76/25/23 75/24/23
f 77/26/23 75/24/23 72/21/23
f 79/28/23 78/27/23 77/26/23
f 79/28/23 77/26/23 72/21/23
f 81/30/23 80/29/23 79/28/23
f 81/30/23 79/28/23 72/21/23
f 83/32/23 82/31/23 81/30/23
f 83/32/23 81/30/23 72/21/23
f 85/34/23 84/33/23 83/32/23
f 85/34/23 83/32/23 72/21/23
f 87/36/23 86/35/23 85/34/23
f 87/36/23 85/34/23 72/21/23
f 89/38/23 88/37/23 87/36/23
f 89/38/23 87/36/23 72/21/23
f 91/40/23 90/39/23 89/38/23
f 91/40/23 89/38/23 72/21/23
g Cylinder73_4
usemtl Cylinder73_4
v 452.5 78.0 -246.9999
v 452.3288 78.0 -243.0779
v 451.8163 78.0 -239.1858
v 450.9666 78.0 -235.3531
v 449.7862 78.0 -231.609
v 448.2838 78.0 -227.9821
v 446.4711 78.0 -224.4999
v 444.3618 78.0 -221.189
v 441.972 78.0 -218.0745
v 439.3198 78.0 -215.1801
v 436.4254 78.0 -212.528
v 433.3109 78.0 -210.1381
v 430.0 78.0 -208.0288
v 426.5178 78.0 -206.2161
v 422.8909 78.0 -204.7138
v 419.1468 78.0 -203.5333
v 415.3141 78.0 -202.6836
v 411.422 78.0 -202.1712
v 407.5 78.0 -202.0
v 407.5 80.0 -247.0
v 452.5 80.0 -246.9999
v 452.3288 80.0 -243.0779
v 451.8163 80.0 -239.1858
v 450.9666 80.0 -235.3531
v 449.7862 80.0 -231.609
v 448.2838 80.0 -227.9821
v 446.4711 80.0 -224.4999
v 444.3618 80.0 -221.189
v 441.972 80.0 -218.0745
v 439.3198 80.0 -215.1801
v 436.4254 80.0 -212.528
v 433.3109 80.0 -210.1381
v 430.0 80.0 -208.0288
v 426.5178 80.0 -206.2161
v 422.8909 80.0 -204.7138
v 419.1468 80.0 -203.5333
v 415.3141 80.0 -202.6836
v 411.422 80.0 -202.1712
v 407.5 80.0 -202.0
vt 0.9995 0.0005 0
vt 0.9957 0.0876 0
vt 0.9843 0.174 0
vt 0.0005 0.0005 0
vt 0.9655 0.2591 0
vt 0.9393 0.3422 0
vt 0.9059 0.4227 0
vt 0.8657 0.5 0
vt 0.8188 0.5735 0
vt 0.7658 0.6426 0
vt 0.7069 0.7069 0
vt 0.6426 0.7658 0
vt 0.5735 0.8188 0
vt 0.5 0.8657 0
vt 0.4227 0.9059 0
vt 0.3422 0.9393 0
vt 0.2591 0.9655 0
vt 0.174 0.9843 0
vt 0.0876 0.9957 0
vt 0.0005 0.9995 0
f 92/41/1 93/42/1 94/43/1
f 92/41/1 94/43/1 42/44/1
f 94/43/1 95/45/1 96/46/1
f 94/43/1 96/46/1 42/44/1
f 96/46/1 97/47/1 98/48/1
f 96/46/1 98/48/1 42/44/1
f 98/48/1 99/49/1 100/50/1
f 98/48/1 100/50/1 42/44/1
f 100/50/1 101/51/1 102/52/1
f 100/50/1 102/52/1 42/44/1
f 102/52/1 103/53/1 104/54/1
f 102/52/1 104/54/1 42/44/1
f 104/54/1 105/55/1 106/56/1
f 104/54/1 106/56/1 42/44/1
f 106/56/1 107/57/1 108/58/1
f 106/56/1 108/58/1 42/44/1
f 108/58/1 109/59/1 110/60/1
f 108/58/1 110/60/1 42/44/1
f 111/44/2 112/41/2 92/41/2
f 111/44/2 92/41/2 42/44/2
f 112/41/3 113/42/4 93/42/4
f 112/41/3 93/42/4 92/41/3
f 113/42/4 114/43/5 94/43/5
f 113/42/4 94/43/5 93/42/4
f 114/43/5 115/45/6 95/45/6
f 114/43/5 95/45/6 94/43/5
f 115/45/6 116/46/7 96/46/7
f 115/45/6 96/46/7 95/45/6
f 116/46/7 117/47/8 97/47/8
f 116/46/7 97/47/8 96/46/7
f 117/47/8 118/48/9 98/48/9
f 117/47/8 98/48/9 97/47/8
f 118/48/9 119/49/10 99/49/10
f 118/48/9 99/49/10 98/48/9
f 119/49/10 120/50/11 100/50/11
f 119/49/10 100/50/11 99/49/10
f 120/50/11 121/51/12 101/51/12
f 120/50/11 101/51/12 100/50/11
f 121/51/12 122/52/13 102/52/13
f 121/51/12 102/52/13 101/51/12
f 122/52/13 123/53/14 103/53/14
f 122/52/13 103/53/14 102/52/13
f 123/53/14 124/54/15 104/54/15
f 123/53/14 104/54/15 103/53/14
f 124/54/15 125/55/16 105/55/16
f 124/54/15 105/55/16 104/54/15
f 125/55/16 126/56/17 106/56/17
f 125/55/16 106/56/17 105/55/16
f 126/56/17 127/57/18 107/57/18
f 126/56/17 107/57/18 106/56/17
f 127/57/18 128/58/19 108/58/19
f 127/57/18 108/58/19 107/57/18
f 128/58/19 129/59/20 109/59/20
f 128/58/19 109/59/20 108/58/19
f 129/59/20 130/60/21 110/60/21
f 129/59/20 110/60/21 109/59/20
f 130/60/22 111/44/22 42/44/22
f 130/60/22 42/44/22 110/60/22
f 114/43/23 113/42/23 112/41/23
f 114/43/23 112/41/23 111/44/23
f 116/46/23 115/45/23 114/43/23
f 116/46/23 114/43/23 111/44/23
f 118/48/23 117/47/23 116/46/23
f 118/48/23 116/46/23 111/44/23
f 120/50/23 119/49/23 118/48/23
f 120/50/23 118/48/23 111/44/23
f 122/52/23 121/51/23 120/50/23
f 122/52/23 120/50/23 111/44/23
f 124/54/23 123/53/23 122/52/23
f 124/54/23 122/52/23 111/44/23
f 126/56/23 125/55/23 124/54/23
f 126/56/23 124/54/23 111/44/23
f 128/58/23 127/57/23 126/56/23
f 128/58/23 126/56/23 111/44/23
f 130/60/23 129/59/23 128/58/23
f 130/60/23 128/58/23 111/44/23
g Cylinder74_5
usemtl Cylinder74_5
v 412.0 0.0 -242.5
v 413.9151 0.0 -244.107
v 414.3492 0.0 -243.3551
v 414.5 0.0 -242.5
v 412.4341 0.0 -244.962
v 413.25 0.0 -244.6651
v 410.75 0.0 -244.6651
v 411.5659 0.0 -244.962
v 409.6508 0.0 -243.3551
v 410.0849 0.0 -244.107
v 409.6508 0.0 -241.6449
v 409.5 0.0 -242.5
v 410.75 0.0 -240.3349
v 410.0849 0.0 -240.893
v 412.4341 0.0 -240.038
v 411.5659 0.0 -240.038
v 413.9151 0.0 -240.893
v 413.25 0.0 -240.3349
v 414.3492 0.0 -241.6449
v 414.3492 3.0 -243.3551
v 414.5 3.0 -242.5
v 413.9151 3.0 -244.107
v 413.25 3.0 -244.6651
v 412.4341 3.0 -244.962
v 411.5659 3.0 -244.962
v 410.75 3.0 -244.6651
v 410.0849 3.0 -244.107
v 409.6508 3.0 -243.3551
v 409.5 3.0 -242.5
v 409.6508 3.0 -241.6449
v 410.0849 3.0 -240.893
v 410.75 3.0 -240.3349
v 411.5659 3.0 -240.038
v 412.4341 3.0 -240.038
v 413.25 3.0 -240.3349
v 413.9151 3.0 -240.893
v 414.3492 3.0 -241.6449
v 412.0 3.0 -242.5
vt 0.0833 0.0 0
vt 0.0278 0.0 0
vt -0.0278 0.0 0
vt 0.1944 0.0 0
vt 0.1389 0.0 0
vt 0.3056 0.0 0
vt 0.25 0.0 0
vt 0.4167 0.0 0
vt 0.3611 0.0 0
vt 0.5278 0.0 0
vt 0.4722 0.0 0
vt 0.6389 0.0 0
vt 0.5833 0.0 0
vt 0.6944 0.0 0
vt 0.0278 1.0 0
vt -0.0278 1.0 0
vt 0.0833 1.0 0
vt 0.1389 1.0 0
vt 0.1944 1.0 0
vt 0.25 1.0 0
vt 0.3056 1.0 0
vt 0.3611 1.0 0
vt 0.4167 1.0 0
vt 0.4722 1.0 0
vt 0.5278 1.0 0
vt 0.5833 1.0 0
vt 0.6389 1.0 0
vt 0.6944 1.0 0
vt -0.0197 1.0 0
vn 0.93969995 0.0 -0.34199998
vn 0.76602 0.0 -0.6428168
vn 0.500011 0.0 -0.86601907
vn 0.17360279 0.0 -0.98481584
vn -0.17360279 0.0 -0.98481584
vn -0.500011 0.0 -0.86601907
vn -0.76602 0.0 -0.6428168
vn -0.93969995 0.0 -0.34199998
vn -0.93969995 0.0 0.34199998
vn -0.76602 0.0 0.6428168
vn -0.500011 0.0 0.86601907
vn -0.17360279 0.0 0.98481584
f 131/4/1 132/10/1 133/6/1
f 131/4/1 133/6/1 134/1/1
f 131/4/1 135/18/1 136/14/1
f 131/4/1 136/14/1 132/10/1
f 131/4/1 137/61/1 138/62/1
f 131/4/1 138/62/1 135/63/1
f 131/4/1 139/64/1 140/65/1
f 131/4/1 140/65/1 137/61/1
f 131/4/1 141/66/1 142/67/1
f 131/4/1 142/67/1 139/64/1
f 131/4/1 143/68/1 144/69/1
f 131/4/1 144/69/1 141/66/1
f 131/4/1 145/70/1 146/71/1
f 131/4/1 146/71/1 143/68/1
f 131/4/1 147/72/1 148/73/1
f 131/4/1 148/73/1 145/70/1
f 131/4/1 134/1/1 149/74/1
f 131/4/1 149/74/1 147/72/1
f 134/1/24 133/6/26 150/26/26
f 134/1/24 150/26/26 151/22/24
f 133/6/26 132/10/27 152/30/27
f 133/6/26 152/30/27 150/26/26
f 132/10/27 136/14/28 153/34/28
f 132/10/27 153/34/28 152/30/27
f 136/14/28 135/18/29 154/38/29
f 136/14/28 154/38/29 153/34/28
f 135/63/29 138/62/30 155/75/30
f 135/63/29 155/75/30 154/76/29
f 138/62/30 137/61/31 156/77/31
f 138/62/30 156/77/31 155/75/30
f 137/61/31 140/65/32 157/78/32
f 137/61/31 157/78/32 156/77/31
f 140/65/32 139/64/33 158/79/33
f 140/65/32 158/79/33 157/78/32
f 139/64/33 142/67/22 159/80/22
f 139/64/33 159/80/22 158/79/33
f 142/67/22 141/66/34 160/81/34
f 142/67/22 160/81/34 159/80/22
f 141/66/34 144/69/35 161/82/35
f 141/66/34 161/82/35 160/81/34
f 144/69/35 143/68/36 162/83/36
f 144/69/35 162/83/36 161/82/35
f 143/68/36 146/71/37 163/84/37
f 143/68/36 163/84/37 162/83/36
f 146/71/37 145/70/19 164/85/19
f 146/71/37 164/85/19 163/84/37
f 145/70/19 148/73/15 165/86/15
f 145/70/19 165/86/15 164/85/19
f 148/73/15 147/72/11 166/87/11
f 148/73/15 166/87/11 165/86/15
f 147/72/11 149/74/7 167/88/7
f 147/72/11 167/88/7 166/87/11
f 149/74/7 134/1/24 151/22/24
f 149/74/7 151/22/24 167/88/7
f 168/21/23 167/88/23 151/22/23
f 168/21/23 151/22/23 150/26/23
f 168/21/23 150/26/23 152/30/23
f 168/21/23 152/30/23 153/34/23
f 168/21/23 153/89/23 154/76/23
f 168/21/23 154/76/23 155/75/23
f 168/21/23 155/75/23 156/77/23
f 168/21/23 156/77/23 157/78/23
f 168/21/23 157/78/23 158/79/23
f 168/21/23 158/79/23 159/80/23
f 168/21/23 159/80/23 160/81/23
f 168/21/23 160/81/23 161/82/23
f 168/21/23 161/82/23 162/83/23
f 168/21/23 162/83/23 163/84/23
f 168/21/23 163/84/23 164/85/23
f 168/21/23 164/85/23 165/86/23
f 168/21/23 165/86/23 166/87/23
f 168/21/23 166/87/23 167/88/23
g Cylinder75_6
usemtl Cylinder74_5
v 447.0 0.0 -242.5
v 448.9151 0.0 -244.107
v 449.3492 0.0 -243.3551
v 449.5 0.0 -242.5
v 447.4341 0.0 -244.962
v 448.25 0.0 -244.6651
v 445.75 0.0 -244.6651
v 446.5659 0.0 -244.962
v 444.6508 0.0 -243.3551
v 445.0849 0.0 -244.107
v 444.6508 0.0 -241.6449
v 444.5 0.0 -242.5
v 445.75 0.0 -240.3349
v 445.0849 0.0 -240.893
v 447.4341 0.0 -240.038
v 446.5659 0.0 -240.038
v 448.9151 0.0 -240.893
v 448.25 0.0 -240.3349
v 449.3492 0.0 -241.6449
v 449.3492 3.0 -243.3551
v 449.5 3.0 -242.5
v 448.9151 3.0 -244.107
v 448.25 3.0 -244.6651
v 447.4341 3.0 -244.962
v 446.5659 3.0 -244.962
v 445.75 3.0 -244.6651
v 445.0849 3.0 -244.107
v 444.6508 3.0 -243.3551
v 444.5 3.0 -242.5
v 444.6508 3.0 -241.6449
v 445.0849 3.0 -240.893
v 445.75 3.0 -240.3349
v 446.5659 3.0 -240.038
v 447.4341 3.0 -240.038
v 448.25 3.0 -240.3349
v 448.9151 3.0 -240.893
v 449.3492 3.0 -241.6449
v 447.0 3.0 -242.5
f 169/4/1 170/10/1 171/6/1
f 169/4/1 171/6/1 172/1/1
f 169/4/1 173/18/1 174/14/1
f 169/4/1 174/14/1 170/10/1
f 169/4/1 175/61/1 176/62/1
f 169/4/1 176/62/1 173/63/1
f 169/4/1 177/64/1 178/65/1
f 169/4/1 178/65/1 175/61/1
f 169/4/1 179/66/1 180/67/1
f 169/4/1 180/67/1 177/64/1
f 169/4/1 181/68/1 182/69/1
f 169/4/1 182/69/1 179/66/1
f 169/4/1 183/70/1 184/71/1
f 169/4/1 184/71/1 181/68/1
f 169/4/1 185/72/1 186/73/1
f 169/4/1 186/73/1 183/70/1
f 169/4/1 172/1/1 187/74/1
f 169/4/1 187/74/1 185/72/1
f 172/1/24 171/6/26 188/26/26
f 172/1/24 188/26/26 189/22/24
f 171/6/26 170/10/27 190/30/27
f 171/6/26 190/30/27 188/26/26
f 170/10/27 174/14/28 191/34/28
f 170/10/27 191/34/28 190/30/27
f 174/14/28 173/18/29 192/38/29
f 174/14/28 192/38/29 191/34/28
f 173/63/29 176/62/30 193/75/30
f 173/63/29 193/75/30 192/76/29
f 176/62/30 175/61/31 194/77/31
f 176/62/30 194/77/31 193/75/30
f 175/61/31 178/65/32 195/78/32
f 175/61/31 195/78/32 194/77/31
f 178/65/32 177/64/33 196/79/33
f 178/65/32 196/79/33 195/78/32
f 177/64/33 180/67/22 197/80/22
f 177/64/33 197/80/22 196/79/33
f 180/67/22 179/66/34 198/81/34
f 180/67/22 198/81/34 197/80/22
f 179/66/34 182/69/35 199/82/35
f 179/66/34 199/82/35 198/81/34
f 182/69/35 181/68/36 200/83/36
f 182/69/35 200/83/36 199/82/35
f 181/68/36 184/71/37 201/84/37
f 181/68/36 201/84/37 200/83/36
f 184/71/37 183/70/19 202/85/19
f 184/71/37 202/85/19 201/84/37
f 183/70/19 186/73/15 203/86/15
f 183/70/19 203/86/15 202/85/19
f 186/73/15 185/72/11 204/87/11
f 186/73/15 204/87/11 203/86/15
f 185/72/11 187/74/7 205/88/7
f 185/72/11 205/88/7 204/87/11
f 187/74/7 172/1/24 189/22/24
f 187/74/7 189/22/24 205/88/7
f 206/21/23 205/88/23 189/22/23
f 206/21/23 189/22/23 188/26/23
f 206/21/23 188/26/23 190/30/23
f 206/21/23 190/30/23 191/34/23
f 206/21/23 191/89/23 192/76/23
f 206/21/23 192/76/23 193/75/23
f 206/21/23 193/75/23 194/77/23
f 206/21/23 194/77/23 195/78/23
f 206/21/23 195/78/23 196/79/23
f 206/21/23 196/79/23 197/80/23
f 206/21/23 197/80/23 198/81/23
f 206/21/23 198/81/23 199/82/23
f 206/21/23 199/82/23 200/83/23
f 206/21/23 200/83/23 201/84/23
f 206/21/23 201/84/23 202/85/23
f 206/21/23 202/85/23 203/86/23
f 206/21/23 203/86/23 204/87/23
f 206/21/23 204/87/23 205/88/23
g Cylinder76_7
usemtl Cylinder74_5
v 412.0 0.0 -207.5
v 413.9151 0.0 -209.107
v 414.3492 0.0 -208.3551
v 414.5 0.0 -207.5
v 412.4341 0.0 -209.962
v 413.25 0.0 -209.6651
v 410.75 0.0 -209.6651
v 411.5659 0.0 -209.962
v 409.6508 0.0 -208.3551
v 410.0849 0.0 -209.107
v 409.6508 0.0 -206.6449
v 409.5 0.0 -207.5
v 410.75 0.0 -205.3349
v 410.0849 0.0 -205.893
v 412.4341 0.0 -205.038
v 411.5659 0.0 -205.038
v 413.9151 0.0 -205.893
v 413.25 0.0 -205.3349
v 414.3492 0.0 -206.6449
v 414.3492 3.0 -208.3551
v 414.5 3.0 -207.5
v 413.9151 3.0 -209.107
v 413.25 3.0 -209.6651
v 412.4341 3.0 -209.962
v 411.5659 3.0 -209.962
v 410.75 3.0 -209.6651
v 410.0849 3.0 -209.107
v 409.6508 3.0 -208.3551
v 409.5 3.0 -207.5
v 409.6508 3.0 -206.6449
v 410.0849 3.0 -205.893
v 410.75 3.0 -205.3349
v 411.5659 3.0 -205.038
v 412.4341 3.0 -205.038
v 413.25 3.0 -205.3349
v 413.9151 3.0 -205.893
v 414.3492 3.0 -206.6449
v 412.0 3.0 -207.5
f 207/4/1 208/10/1 209/6/1
f 207/4/1 209/6/1 210/1/1
f 207/4/1 211/18/1 212/14/1
f 207/4/1 212/14/1 208/10/1
f 207/4/1 213/61/1 214/62/1
f 207/4/1 214/62/1 211/63/1
f 207/4/1 215/64/1 216/65/1
f 207/4/1 216/65/1 213/61/1
f 207/4/1 217/66/1 218/67/1
f 207/4/1 218/67/1 215/64/1
f 207/4/1 219/68/1 220/69/1
f 207/4/1 220/69/1 217/66/1
f 207/4/1 221/70/1 222/71/1
f 207/4/1 222/71/1 219/68/1
f 207/4/1 223/72/1 224/73/1
f 207/4/1 224/73/1 221/70/1
f 207/4/1 210/1/1 225/74/1
f 207/4/1 225/74/1 223/72/1
f 210/1/24 209/6/26 226/26/26
f 210/1/24 226/26/26 227/22/24
f 209/6/26 208/10/27 228/30/27
f 209/6/26 228/30/27 226/26/26
f 208/10/27 212/14/28 229/34/28
f 208/10/27 229/34/28 228/30/27
f 212/14/28 211/18/29 230/38/29
f 212/14/28 230/38/29 229/34/28
f 211/63/29 214/62/30 231/75/30
f 211/63/29 231/75/30 230/76/29
f 214/62/30 213/61/31 232/77/31
f 214/62/30 232/77/31 231/75/30
f 213/61/31 216/65/32 233/78/32
f 213/61/31 233/78/32 232/77/31
f 216/65/32 215/64/33 234/79/33
f 216/65/32 234/79/33 233/78/32
f 215/64/33 218/67/22 235/80/22
f 215/64/33 235/80/22 234/79/33
f 218/67/22 217/66/34 236/81/34
f 218/67/22 236/81/34 235/80/22
f 217/66/34 220/69/35 237/82/35
f 217/66/34 237/82/35 236/81/34
f 220/69/35 219/68/36 238/83/36
f 220/69/35 238/83/36 237/82/35
f 219/68/36 222/71/37 239/84/37
f 219/68/36 239/84/37 238/83/36
f 222/71/37 221/70/19 240/85/19
f 222/71/37 240/85/19 239/84/37
f 221/70/19 224/73/15 241/86/15
f 221/70/19 241/86/15 240/85/19
f 224/73/15 223/72/11 242/87/11
f 224/73/15 242/87/11 241/86/15
f 223/72/11 225/74/7 243/88/7
f 223/72/11 243/88/7 242/87/11
f 225/74/7 210/1/24 227/22/24
f 225/74/7 227/22/24 243/88/7
f 244/21/23 243/88/23 227/22/23
f 244/21/23 227/22/23 226/26/23
f 244/21/23 226/26/23 228/30/23
f 244/21/23 228/30/23 229/34/23
f 244/21/23 229/89/23 230/76/23
f 244/21/23 230/76/23 231/75/23
f 244/21/23 231/75/23 232/77/23
f 244/21/23 232/77/23 233/78/23
f 244/21/23 233/78/23 234/79/23
f 244/21/23 234/79/23 235/80/23
f 244/21/23 235/80/23 236/81/23
f 244/21/23 236/81/23 237/82/23
f 244/21/23 237/82/23 238/83/23
f 244/21/23 238/83/23 239/84/23
f 244/21/23 239/84/23 240/85/23
f 244/21/23 240/85/23 241/86/23
f 244/21/23 241/86/23 242/87/23
f 244/21/23 242/87/23 243/88/23
