# comodinoSinistro.obj 3D model
#
# Created by LucaPresidente
#
# This file is distributed under Free Art License, see http://artlibre.org/licence/lal/en for more informations
# and under CC-BY Creative Commons Attribution 3.0 Unported license, see http://creativecommons.org/licenses/by/3.0/
# at your choice
# 
mtllib comodinoSinistro.mtl
g Box37_1
usemtl Box37_1
v -40.0 15.0 160.0
v -40.0 15.0 120.0
v 18.0 15.0 120.0
v 18.0 15.0 160.0
v -40.0 27.0 160.0
v 18.0 27.0 160.0
v 18.0 27.0 120.0
v -40.0 27.0 120.0
vt 0.0008 0.9995 0
vt 0.0008 0.1115 0
vt 0.3098 0.1115 0
vt 0.3098 0.9995 0
vt 1.5992 0.9995 0
vt 1.2902 0.9995 0
vt 1.2902 0.1115 0
vt 1.5992 0.1115 0
vt 0.0008 0.231 0
vt 0.3098 0.231 0
vt 0.3098 0.4155 0
vt 0.0008 0.4155 0
vt 0.3697 0.9995 0
vt 0.3697 0.1115 0
vt 0.6648 0.1115 0
vt 0.6648 0.9995 0
vt 1.2902 0.231 0
vt 1.5992 0.231 0
vt 1.5992 0.4155 0
vt 1.2902 0.4155 0
vt 1.2303 0.1115 0
vt 1.2303 0.9995 0
vt 0.9352 0.9995 0
vt 0.9352 0.1115 0
vn 0.0 -1.0 0.0
vn 0.0 1.0 0.0
vn 0.0 0.0 1.0
vn 1.0 0.0 0.0
vn 0.0 0.0 -1.0
vn -1.0 0.0 0.0
f 1/1/1 2/2/1 3/3/1
f 1/1/1 3/3/1 4/4/1
f 5/5/2 6/6/2 7/7/2
f 5/5/2 7/7/2 8/8/2
f 1/9/3 4/10/3 6/11/3
f 1/9/3 6/11/3 5/12/3
f 4/13/4 3/14/4 7/15/4
f 4/13/4 7/15/4 6/16/4
f 3/17/5 2/18/5 8/19/5
f 3/17/5 8/19/5 7/20/5
f 2/21/6 1/22/6 5/23/6
f 2/21/6 5/23/6 8/24/6
g Box38_2
usemtl Box37_1
v -39.5 41.0 115.0
v -39.5 65.0 115.0
v 19.5 65.0 115.0
v 19.5 41.0 115.0
v -39.5 41.0 118.0
v 19.5 41.0 118.0
v 19.5 65.0 118.0
v -39.5 65.0 118.0
vt 1.5965 0.6306 0
vt 1.5965 0.9995 0
vt 1.2822 0.9995 0
vt 1.2822 0.6306 0
vt 0.0035 0.6306 0
vt 0.3178 0.6306 0
vt 0.3178 0.9995 0
vt 0.0035 0.9995 0
vt 0.0035 0.0005 0
vt 0.3178 0.0005 0
vt 0.3178 0.0671 0
vt 0.0035 0.0671 0
vt 1.009 0.0005 0
vt 1.5992 0.0005 0
vt 1.5992 0.0671 0
vt 1.009 0.0671 0
vt 1.2822 0.0005 0
vt 1.5965 0.0005 0
vt 1.5965 0.0671 0
vt 1.2822 0.0671 0
vt 0.0008 0.0005 0
vt 0.591 0.0005 0
vt 0.591 0.0671 0
vt 0.0008 0.0671 0
f 9/25/5 10/26/5 11/27/5
f 9/25/5 11/27/5 12/28/5
f 13/29/3 14/30/3 15/31/3
f 13/29/3 15/31/3 16/32/3
f 9/33/1 12/34/1 14/35/1
f 9/33/1 14/35/1 13/36/1
f 12/37/4 11/38/4 15/39/4
f 12/37/4 15/39/4 14/40/4
f 11/41/2 10/42/2 16/43/2
f 11/41/2 16/43/2 15/44/2
f 10/45/6 9/46/6 13/47/6
f 10/45/6 13/47/6 16/48/6
g Box39_3
usemtl Box37_1
v -39.5 16.0 115.0
v -39.5 40.0 115.0
v 19.5 40.0 115.0
v 19.5 16.0 115.0
v -39.5 16.0 118.0
v 19.5 16.0 118.0
v 19.5 40.0 118.0
v -39.5 40.0 118.0
vt 1.5965 0.2464 0
vt 1.5965 0.6153 0
vt 1.2822 0.6153 0
vt 1.2822 0.2464 0
vt 0.0035 0.2464 0
vt 0.3178 0.2464 0
vt 0.3178 0.6153 0
vt 0.0035 0.6153 0
vt 0.3943 0.0005 0
vt 0.9844 0.0005 0
vt 0.9844 0.0671 0
vt 0.3943 0.0671 0
vt 0.6156 0.0005 0
vt 1.2057 0.0005 0
vt 1.2057 0.0671 0
vt 0.6156 0.0671 0
f 17/49/5 18/50/5 19/51/5
f 17/49/5 19/51/5 20/52/5
f 21/53/3 22/54/3 23/55/3
f 21/53/3 23/55/3 24/56/3
f 17/33/1 20/34/1 22/35/1
f 17/33/1 22/35/1 21/36/1
f 20/57/4 19/58/4 23/59/4
f 20/57/4 23/59/4 22/60/4
f 19/41/2 18/42/2 24/43/2
f 19/41/2 24/43/2 23/44/2
f 18/61/6 17/62/6 21/63/6
f 18/61/6 21/63/6 24/64/6
g Line19_4
usemtl Box37_1
v 110.0 15.0 120.0
v -28.0 15.0 120.0
v -28.0 0.0 120.0
v 110.0 0.0 120.0
v -28.0 15.0 160.0
v -28.0 0.0 160.0
v -40.0 0.0 160.0
v -40.0 15.0 115.0
v -40.0 0.0 115.0
v 110.0 15.0 115.0
v 110.0 0.0 115.0
vt 0.8 0.231 0
vt 0.0647 0.231 0
vt 0.0647 0.0005 0
vt 0.8 0.0005 0
vt 1.2303 0.0005 0
vt 0.3697 0.0005 0
vt 0.8 0.1115 0
vt 0.0647 0.1115 0
vt 0.0647 0.9995 0
vt 1.5353 0.1115 0
vt 1.5353 0.9995 0
f 25/65/3 26/66/3 27/67/3
f 25/65/3 27/67/3 28/68/3
f 26/14/4 29/13/4 30/1/4
f 26/14/4 30/1/4 27/2/4
f 29/66/3 1/9/3 31/45/3
f 29/66/3 31/45/3 30/67/3
f 1/22/6 32/69/6 33/38/6
f 1/22/6 33/38/6 31/5/6
f 32/18/5 34/65/5 35/68/5
f 32/18/5 35/68/5 33/38/5
f 34/70/4 25/14/4 28/2/4
f 34/70/4 28/2/4 35/45/4
f 35/68/1 28/71/1 27/72/1
f 35/68/1 27/72/1 33/45/1
f 33/45/1 27/72/1 30/73/1
f 33/45/1 30/73/1 31/1/1
f 26/74/2 25/71/2 34/68/2
f 26/74/2 34/68/2 32/38/2
f 29/75/2 26/74/2 32/38/2
f 29/75/2 32/38/2 1/5/2
