# Blender3D v249 OBJ File: 
# www.blender3d.org
mtllib table4.mtl
v 61.999985 0.000001 -45.000004
v 70.000000 0.000001 -45.000004
v 70.000000 0.000001 -37.000004
v 61.999989 0.000001 -37.000004
v 61.999992 70.000008 -45.000008
v 70.000000 70.000008 -45.000000
v 69.999992 70.000008 -37.000008
v 61.999992 70.000008 -37.000008
v -69.999985 70.000008 -45.000000
v 70.000008 70.000008 -45.000008
v 70.000000 70.000008 44.999996
v -70.000008 70.000008 44.999981
v -69.999969 75.000000 -45.000031
v -69.999992 75.000000 44.999992
v 69.999985 75.000000 45.000008
v 70.000038 75.000000 -44.999977
v 70.000000 0.000005 44.999996
v 61.999992 0.000005 44.999996
v 61.999989 0.000005 36.999996
v 70.000000 0.000005 36.999996
v 61.999996 70.000008 36.999992
v 70.000000 70.000008 37.000000
v 69.999992 70.000008 44.999992
v 61.999996 70.000008 44.999992
v -70.000015 -0.000001 45.000004
v -70.000008 70.000008 45.000000
v -70.000008 70.000008 37.000000
v -70.000015 -0.000001 37.000004
v -62.000004 -0.000001 45.000004
v -62.000011 70.000008 45.000000
v -62.000008 -0.000001 37.000004
v -62.000011 70.000008 37.000008
v -70.000008 70.000008 -45.000000
v -70.000015 -0.000005 -44.999996
v -70.000015 -0.000005 -36.999996
v -70.000008 70.000008 -37.000000
v -62.000008 -0.000005 -36.999996
v -62.000015 70.000008 -37.000000
v -62.000011 -0.000005 -44.999996
v -62.000015 70.000008 -44.999992
vt 0.978187 0.060674
vt 0.978187 0.005171
vt 0.893176 0.005171
vt 0.893176 0.060674
vt -0.158836 0.490817
vt -0.158836 0.976462
vt -0.243847 0.976462
vt -0.243847 0.490817
vt 0.978187 0.490817
vt 0.978187 0.976462
vt 0.893176 0.976462
vt 0.893176 0.490817
vt 0.021813 0.005171
vt 0.021813 0.976462
vt 0.978188 0.976462
vt 0.753178 0.018352
vt 0.806310 0.018353
vt 0.806310 0.989643
vt 0.753178 0.989643
vt 0.753178 0.191797
vt 0.806310 0.191797
vt 0.806310 0.816198
vt 0.753178 0.816198
vt 0.806310 0.018352
vt 0.021813 0.060674
vt 0.106824 0.060674
vt 0.106824 0.005171
vt 0.106824 0.490817
vt 0.106824 0.976462
vt 0.021813 0.490817
vt 1.158836 0.490817
vt 1.158836 0.976462
vt 1.243847 0.976462
vt 1.243847 0.490817
vt 0.021813 0.920960
vt 0.106824 0.920960
vt 0.978187 0.920960
vt 0.893176 0.920960
vn 0.000000 -1.000000 0.000000
vn 0.000000 -0.000000 -1.000000
vn 1.000000 0.000000 0.000000
vn 0.000000 0.000000 1.000000
vn -1.000000 0.000000 0.000000
vn 0.000000 1.000000 0.000000
vn 1.000000 -0.000002 0.000000
vn -0.000000 -0.000002 1.000000
vn -1.000000 0.000003 -0.000000
g fusta_taula_tipical.j_fusta_taula_tipical.j_fusta_taula_tipical.j_tipical.jpg
usemtl fusta_taula_tipical.j_tipical.jpg
s off
f 1/1/1 2/2/1 3/3/1 4/4/1
f 1/5/2 5/6/2 6/7/2 2/8/2
f 2/9/3 6/10/3 7/11/3 3/12/3
f 3/8/4 7/7/4 8/6/4 4/5/4
f 5/10/5 1/9/5 4/12/5 8/11/5
f 9/10/1 10/2/1 11/13/1 12/14/1
f 13/15/6 14/14/6 15/13/6 16/2/6
f 9/16/2 13/17/2 16/18/2 10/19/2
f 10/20/7 16/21/7 15/22/7 11/23/7
f 11/19/8 15/18/8 14/24/8 12/16/8
f 13/21/9 9/20/9 12/23/9 14/22/9
f 17/13/1 18/25/1 19/26/1 20/27/1
f 19/5/2 21/6/2 22/7/2 20/8/2
f 20/28/3 22/29/3 23/14/3 17/30/3
f 17/8/4 23/7/4 24/6/4 18/5/4
f 18/30/5 24/14/5 21/29/5 19/28/5
f 25/30/5 26/14/5 27/29/5 28/28/5
f 29/31/4 30/32/4 26/33/4 25/34/4
f 31/28/3 32/29/3 30/14/3 29/30/3
f 28/34/2 27/33/2 32/32/2 31/31/2
f 29/35/1 25/14/1 28/29/1 31/36/1
f 33/10/5 34/9/5 35/12/5 36/11/5
f 37/31/4 38/32/4 36/33/4 35/34/4
f 39/9/3 40/10/3 38/11/3 37/12/3
f 34/34/2 33/33/2 40/32/2 39/31/2
f 34/10/1 39/37/1 37/38/1 35/11/1
