# raccordo80W.obj 3D model
#
# Created by LucaPresidente
#
# This file is distributed under Free Art License, see http://artlibre.org/licence/lal/en for more informations
# and under CC-BY Creative Commons Attribution 3.0 Unported license, see http://creativecommons.org/licenses/by/3.0/
# at your choice
# 
mtllib raccordo80W.mtl
g Box37_1
usemtl Box37_1
v 471.0 0.0 119.0
v 471.0 0.0 111.0
v 479.0 0.0 111.0
v 479.0 0.0 119.0
v 471.0 70.0 119.0
v 479.0 70.0 119.0
v 479.0 70.0 111.0
v 471.0 70.0 111.0
vt 1.0 0.0 0
vt 1.0 1.0 0
vt 0.0 1.0 0
vt 0.0 0.0 0
vn 0.0 -1.0 0.0
vn 0.0 1.0 0.0
vn 0.0 0.0 1.0
vn 1.0 0.0 0.0
vn 0.0 0.0 -1.0
vn -1.0 0.0 0.0
f 1/1/1 2/2/1 3/3/1
f 1/1/1 3/3/1 4/4/1
f 5/4/2 6/1/2 7/2/2
f 5/4/2 7/2/2 8/3/2
f 1/4/3 4/1/3 6/2/3
f 1/4/3 6/2/3 5/3/3
f 4/4/4 3/1/4 7/2/4
f 4/4/4 7/2/4 6/3/4
f 3/4/5 2/1/5 8/2/5
f 3/4/5 8/2/5 7/3/5
f 2/4/6 1/1/6 5/2/6
f 2/4/6 5/2/6 8/3/6
g Box36_2
usemtl Box36_2
v 460.0 69.5 130.0
v 460.0 69.5 50.0
v 540.0 69.5 50.0
v 540.0 69.5 130.0
v 460.0 72.0 130.0
v 540.0 72.0 130.0
v 540.0 72.0 50.0
v 460.0 72.0 50.0
vt 0.0005 0.7498 0
vt 0.9995 0.7498 0
vt 0.9995 0.2502 0
vt 0.0005 0.2502 0
f 9/5/1 10/6/1 11/7/1
f 9/5/1 11/7/1 12/8/1
f 13/5/2 14/8/2 15/7/2
f 13/5/2 15/7/2 16/6/2
f 9/5/3 12/8/3 14/8/3
f 9/5/3 14/8/3 13/5/3
f 12/8/4 11/7/4 15/7/4
f 12/8/4 15/7/4 14/8/4
f 11/7/5 10/6/5 16/6/5
f 11/7/5 16/6/5 15/7/5
f 10/6/6 9/5/6 13/5/6
f 10/6/6 13/5/6 16/6/6
