# Blender v2.76 (sub 0) OBJ File: 'diving-board.blend'
# www.blender.org
mtllib diving-board.mtl
o base_Cube.001
v -6.500000 -26.500019 -34.858177
v -18.500000 -1.500019 -9.858177
v -6.500000 -26.500019 -66.358177
v -18.500000 -1.500019 -91.358177
v 6.500000 -26.500019 -34.858177
v 18.500000 -1.500019 -9.858177
v 6.500000 -26.500019 -66.358177
v 18.500000 -1.500019 -91.358177
v -7.708061 -21.500019 -33.346207
v -8.822759 -16.500019 -31.048456
v -10.696618 -11.500019 -27.262163
v -13.943793 -6.500019 -21.150002
v -13.943793 -6.500019 -80.066353
v -10.696616 -11.500019 -73.954193
v -8.822757 -16.500019 -70.167900
v -7.708060 -21.500019 -67.870148
v 13.943793 -6.500019 -80.066353
v 10.696616 -11.500019 -73.954193
v 8.822756 -16.500019 -70.167900
v 7.708060 -21.500019 -67.870148
v 13.943793 -6.500019 -21.150002
v 10.696616 -11.500019 -27.262163
v 8.822756 -16.500019 -31.048456
v 7.708060 -21.500019 -33.346207
v -6.585852 -26.144688 -66.465630
v 6.585852 -26.144688 -66.465630
v 6.585852 -26.144688 -34.750725
v -6.585852 -26.144688 -34.750725
v -17.781040 -2.289009 -11.640007
v -17.781040 -2.289009 -89.576347
v 17.781040 -2.289009 -89.576347
v 17.781040 -2.289009 -11.640007
v -16.951914 -1.500019 -91.358177
v -5.956078 -26.500019 -66.358177
v -16.951914 -1.500019 -9.858177
v -5.956078 -26.500019 -34.858177
v -12.776972 -6.500019 -21.150002
v -9.801521 -11.500019 -27.262163
v -8.084467 -16.500019 -31.048456
v -7.063048 -21.500019 -33.346207
v -12.776972 -6.500019 -80.066353
v -9.801519 -11.500019 -73.954193
v -8.084465 -16.500019 -70.167900
v -7.063047 -21.500019 -67.870148
v -6.034746 -26.144688 -34.750725
v -6.034746 -26.144688 -66.465630
v -16.293116 -2.289009 -89.576347
v -16.293116 -2.289009 -11.640007
v 17.519943 -1.500019 -91.358177
v 6.155656 -26.500019 -34.858177
v 13.205108 -6.500019 -21.150002
v 10.129952 -11.500019 -27.262163
v 8.355362 -16.500019 -31.048456
v 7.299717 -21.500019 -33.346207
v 6.236960 -26.144688 -34.750725
v 16.839071 -2.289009 -11.640007
v 6.155656 -26.500019 -66.358177
v 17.519943 -1.500019 -9.858177
v 13.205106 -6.500019 -80.066353
v 10.129952 -11.500019 -73.954193
v 8.355362 -16.500019 -70.167900
v 7.299717 -21.500019 -67.870148
v 6.236960 -26.144688 -66.465630
v 16.839071 -2.289009 -89.576347
v -18.500000 -1.500019 -11.205738
v -6.500000 -26.500019 -35.379013
v 18.500000 -1.500019 -11.205738
v 6.500000 -26.500019 -35.379013
v 13.943793 -6.500019 -22.124153
v 10.696616 -11.500019 -28.034189
v 8.822756 -16.500019 -31.695274
v 7.708060 -21.500019 -33.917038
v -13.943793 -6.500019 -22.124153
v -10.696618 -11.500019 -28.034189
v -8.822759 -16.500019 -31.695274
v -7.708061 -21.500019 -33.917038
v 6.585852 -26.144688 -35.275116
v -6.585852 -26.144688 -35.275116
v -17.781040 -2.289009 -12.928642
v 17.781040 -2.289009 -12.928642
v -16.951914 -1.500019 -11.205738
v -5.956078 -26.500019 -35.379013
v 17.519943 -1.500019 -11.205738
v 6.155656 -26.500019 -35.379013
v -18.500000 -1.500019 -90.196548
v 6.500000 -26.500019 -65.909203
v 13.943793 -6.500019 -79.226608
v 10.696616 -11.500019 -73.288689
v 8.822756 -16.500019 -69.610321
v 7.708060 -21.500019 -67.378075
v 6.585852 -26.144688 -66.013596
v 17.781040 -2.289009 -88.465515
v -6.500000 -26.500019 -65.909203
v 18.500000 -1.500019 -90.196548
v -13.943793 -6.500019 -79.226608
v -10.696616 -11.500019 -73.288689
v -8.822757 -16.500019 -69.610321
v -7.708060 -21.500019 -67.378075
v -6.585852 -26.144688 -66.013596
v -17.781040 -2.289009 -88.465515
v -16.951914 -1.500019 -90.196548
v -5.956078 -26.500019 -65.909203
v 17.519943 -1.500019 -90.196548
v 6.155656 -26.500019 -65.909203
vn -0.972000 -0.234800 0.000000
vn -0.665100 -0.358700 -0.654900
vn -0.508300 -0.711800 -0.484700
vn -0.618500 -0.785800 0.000000
vn 0.000000 -0.289400 -0.957200
vn 0.665100 -0.358700 -0.654900
vn 0.508300 -0.711800 -0.484700
vn 0.000000 -0.802900 -0.596000
vn 0.972000 -0.234800 0.000000
vn 0.665100 -0.358700 0.654900
vn 0.508300 -0.711800 0.484700
vn 0.618500 -0.785800 0.000000
vn 0.000000 -0.289400 0.957200
vn -0.665100 -0.358700 0.654900
vn -0.508300 -0.711800 0.484700
vn 0.000000 -0.802900 0.596000
vn 0.000000 -1.000000 0.000000
vn 0.000000 1.000000 0.000000
vn 0.000000 0.206900 -0.978300
vn -0.622300 0.146900 -0.768900
vn -0.914700 0.404000 0.000000
vn 0.000000 -0.914400 0.404900
vn -0.411100 -0.883300 0.225200
vn -0.451500 -0.851000 0.268000
vn 0.000000 -0.851900 0.523700
vn -0.537100 -0.730300 0.422000
vn 0.000000 -0.693700 0.720200
vn -0.635700 -0.544200 0.547300
vn 0.000000 -0.513700 0.858000
vn -0.680000 -0.396800 0.616400
vn 0.000000 -0.354300 0.935100
vn 0.739100 -0.673500 0.000000
vn 0.411100 -0.883300 0.225200
vn 0.451500 -0.851000 0.268000
vn 0.791500 -0.611100 0.000000
vn 0.537100 -0.730300 0.422000
vn 0.892800 -0.450500 0.000000
vn 0.635700 -0.544200 0.547300
vn 0.958500 -0.285000 0.000000
vn 0.680000 -0.396800 0.616400
vn 0.974100 -0.226200 0.000000
vn 0.000000 -0.914400 -0.404900
vn 0.411100 -0.883300 -0.225200
vn 0.451500 -0.851000 -0.268000
vn 0.000000 -0.851900 -0.523700
vn 0.537100 -0.730300 -0.422000
vn 0.000000 -0.693700 -0.720200
vn 0.635700 -0.544200 -0.547300
vn 0.000000 -0.513700 -0.858000
vn 0.680100 -0.396800 -0.616400
vn 0.000000 -0.354300 -0.935100
vn -0.739100 -0.673500 0.000000
vn -0.411100 -0.883300 -0.225200
vn -0.451500 -0.851000 -0.268000
vn -0.791500 -0.611100 0.000000
vn -0.537100 -0.730300 -0.422000
vn -0.892800 -0.450500 0.000000
vn -0.635700 -0.544200 -0.547300
vn -0.958500 -0.285000 0.000000
vn -0.680100 -0.396800 -0.616400
vn -0.974100 -0.226200 0.000000
vn 0.622300 0.146900 -0.768900
vn 0.914700 0.404000 0.000000
vn 0.622300 0.146900 0.768900
vn 0.000000 0.206900 0.978300
vn -0.622300 0.146900 0.768900
usemtl concrete
s 1
f 99//1 25//2 3//3 93//4
f 63//5 26//6 7//7 57//8
f 77//9 27//10 5//11 68//12
f 45//13 28//14 1//15 36//16
f 104//17 57//8 7//7 86//12
f 101//18 33//19 4//20 85//21
f 48//22 29//23 12//24 37//25
f 37//25 12//24 11//26 38//27
f 38//27 11//26 10//28 39//29
f 39//29 10//28 9//30 40//31
f 80//32 32//33 21//34 69//35
f 69//35 21//34 22//36 70//37
f 70//37 22//36 23//38 71//39
f 71//39 23//38 24//40 72//41
f 64//42 31//43 17//44 59//45
f 59//45 17//44 18//46 60//47
f 60//47 18//46 19//48 61//49
f 61//49 19//48 20//50 62//51
f 100//52 30//53 13//54 95//55
f 95//55 13//54 14//56 96//57
f 96//57 14//56 15//58 97//59
f 97//59 15//58 16//60 98//61
f 40//31 9//30 28//14 45//13
f 72//41 24//40 27//10 77//9
f 62//51 20//50 26//6 63//5
f 98//61 16//60 25//2 99//1
f 85//21 4//20 30//53 100//52
f 49//19 8//62 31//43 64//42
f 67//63 6//64 32//33 80//32
f 35//65 2//66 29//23 48//22
f 58//65 35//65 48//22 56//22
f 4//20 33//19 47//42 30//53
f 16//60 44//51 46//5 25//2
f 54//31 40//31 45//13 55//13
f 15//58 43//49 44//51 16//60
f 14//56 42//47 43//49 15//58
f 13//54 41//45 42//47 14//56
f 30//53 47//42 41//45 13//54
f 53//29 39//29 40//31 54//31
f 52//27 38//27 39//29 53//29
f 51//25 37//25 38//27 52//27
f 56//22 48//22 37//25 51//25
f 103//18 49//19 33//19 101//18
f 93//4 3//3 34//8 102//17
f 55//13 45//13 36//16 50//16
f 25//2 46//5 34//8 3//3
f 27//10 55//13 50//16 5//11
f 94//63 8//62 49//19 103//18
f 32//33 56//22 51//25 21//34
f 21//34 51//25 52//27 22//36
f 22//36 52//27 53//29 23//38
f 23//38 53//29 54//31 24//40
f 24//40 54//31 55//13 27//10
f 6//64 58//65 56//22 32//33
f 33//19 49//19 64//42 47//42
f 44//51 62//51 63//5 46//5
f 43//49 61//49 62//51 44//51
f 42//47 60//47 61//49 43//49
f 41//45 59//45 60//47 42//47
f 47//42 64//42 59//45 41//45
f 102//17 34//8 57//8 104//17
f 46//5 63//5 57//8 34//8
f 36//16 82//17 84//17 50//16
f 6//64 67//63 83//18 58//65
f 1//15 66//4 82//17 36//16
f 58//65 83//18 81//18 35//65
f 94//63 67//63 80//32 92//32
f 2//66 65//21 79//52 29//23
f 9//30 76//61 78//1 28//14
f 90//41 72//41 77//9 91//9
f 10//28 75//59 76//61 9//30
f 11//26 74//57 75//59 10//28
f 12//24 73//55 74//57 11//26
f 29//23 79//52 73//55 12//24
f 89//39 71//39 72//41 90//41
f 88//37 70//37 71//39 89//39
f 87//35 69//35 70//37 88//37
f 92//32 80//32 69//35 87//35
f 35//65 81//18 65//21 2//66
f 50//16 84//17 68//12 5//11
f 91//9 77//9 68//12 86//12
f 28//14 78//1 66//4 1//15
f 26//6 91//9 86//12 7//7
f 31//43 92//32 87//35 17//44
f 17//44 87//35 88//37 18//46
f 18//46 88//37 89//39 19//48
f 19//48 89//39 90//41 20//50
f 20//50 90//41 91//9 26//6
f 8//62 94//63 92//32 31//43
f 82//17 102//17 104//17 84//17
f 67//63 94//63 103//18 83//18
f 66//4 93//4 102//17 82//17
f 83//18 103//18 101//18 81//18
f 65//21 85//21 100//52 79//52
f 76//61 98//61 99//1 78//1
f 75//59 97//59 98//61 76//61
f 74//57 96//57 97//59 75//59
f 73//55 95//55 96//57 74//57
f 79//52 100//52 95//55 73//55
f 81//18 101//18 85//21 65//21
f 84//17 104//17 86//12 68//12
f 78//1 99//1 93//4 66//4
o table_Cube
v -21.000000 -1.500000 91.500000
v -20.999998 1.500000 90.066322
v -21.000000 -1.500000 -91.500000
v -20.999998 1.500000 -90.066322
v 21.000000 -1.500000 91.500000
v 20.999998 1.500000 90.066322
v 21.000000 -1.500000 -91.500000
v 20.999998 1.500000 -90.066322
v -21.000000 0.168042 91.500000
v -21.000000 0.168042 -91.500000
v 21.000000 0.168042 -91.500000
v 21.000000 0.168042 91.500000
v -20.999998 0.834021 91.352242
v -20.999998 0.834021 -91.352242
v 20.999998 0.834021 -91.352242
v 20.999998 0.834021 91.352242
v -20.999998 1.332932 90.887543
v -20.999998 1.332932 -90.887543
v 20.999998 1.332932 -90.887543
v 20.999998 1.332932 90.887543
v -18.802687 1.500000 -90.066322
v 18.802687 1.500000 -90.066322
v 18.802687 -1.500000 -91.500000
v -18.802687 -1.500000 -91.500000
v 18.802687 1.500000 90.066322
v -18.802687 1.500000 90.066322
v -18.802687 -1.500000 91.500000
v 18.802687 -1.500000 91.500000
v -18.802687 0.168042 91.500000
v 18.802687 0.168042 91.500000
v 18.802687 0.168042 -91.500000
v -18.802687 0.168042 -91.500000
v 18.802687 0.834021 -91.352242
v -18.802687 0.834021 -91.352242
v -18.802687 0.834021 91.352242
v 18.802687 0.834021 91.352242
v -18.802685 1.332932 90.887543
v 18.802687 1.332932 90.887543
v 18.802685 1.332932 -90.887543
v -18.802687 1.332932 -90.887543
vn -0.683400 0.079500 0.725700
vn -0.683400 0.079500 -0.725700
vn -0.577300 -0.577300 -0.577300
vn -0.577300 -0.577300 0.577300
vn 0.000000 0.108900 -0.994000
vn 0.683400 0.079500 -0.725700
vn 0.577300 -0.577300 -0.577300
vn 0.000000 -0.707100 -0.707100
vn 0.683400 0.079500 0.725700
vn 0.577300 -0.577300 0.577300
vn 0.000000 0.108900 0.994000
vn 0.000000 -0.707100 0.707100
vn 0.000000 0.995000 0.100200
vn 0.000000 0.995000 -0.100200
vn -0.685200 0.724600 -0.072900
vn -0.685200 0.724600 0.072900
vn 0.000000 0.465400 0.885100
vn -0.652500 0.352700 0.670700
vn 0.652500 0.352700 -0.670700
vn 0.652500 0.352700 0.670700
vn 0.000000 0.465400 -0.885100
vn -0.652500 0.352700 -0.670700
vn -0.644400 0.667000 0.373800
vn -0.644400 0.667000 -0.373800
vn 0.000000 0.872300 -0.488800
vn 0.644400 0.667000 -0.373800
vn 0.644400 0.667000 0.373800
vn 0.000000 0.872300 0.488800
vn 0.685200 0.724600 -0.072900
vn 0.685200 0.724600 0.072900
usemtl blue-plastic
s 1
f 113//67 114//68 107//69 105//70
f 135//71 115//72 111//73 127//74
f 115//72 116//75 109//76 111//73
f 133//77 113//67 105//70 131//78
f 132//78 127//74 111//73 109//76
f 130//79 125//80 108//81 106//82
f 139//83 117//84 113//67 133//77
f 119//85 120//86 116//75 115//72
f 137//87 119//85 115//72 135//71
f 117//84 118//88 114//68 113//67
f 121//89 122//90 118//88 117//84
f 143//91 123//92 119//85 137//87
f 123//92 124//93 120//86 119//85
f 141//94 121//89 117//84 139//83
f 130//79 106//82 121//89 141//94
f 112//95 110//96 124//93 123//92
f 126//80 112//95 123//92 143//91
f 106//82 108//81 122//90 121//89
f 108//81 125//80 144//91 122//90
f 110//96 129//79 142//94 124//93
f 124//93 142//94 140//83 120//86
f 122//90 144//91 138//87 118//88
f 118//88 138//87 136//71 114//68
f 120//86 140//83 134//77 116//75
f 110//96 112//95 126//80 129//79
f 105//70 107//69 128//74 131//78
f 131//78 128//74 127//74 132//78
f 116//75 134//77 132//78 109//76
f 134//77 133//77 131//78 132//78
f 114//68 136//71 128//74 107//69
f 136//71 135//71 127//74 128//74
usemtl white-plastic
f 125//80 126//80 143//91 144//91
f 129//79 130//79 141//94 142//94
f 142//94 141//94 139//83 140//83
f 144//91 143//91 137//87 138//87
f 138//87 137//87 135//71 136//71
f 140//83 139//83 133//77 134//77
f 129//79 126//80 125//80 130//79
