# Blender v2.76 (sub 0) OBJ File: 'frames.blend'
# www.blender.org
mtllib frame2.mtl
o frame2_Cube.002
v 0.237808 3.258830 -0.903694
v -2.130254 3.258831 -0.903694
v -1.816591 2.975997 -0.727780
v -0.075856 2.975997 -0.727780
v -2.130254 0.105675 0.189744
v 0.237806 0.105674 0.189744
v -0.075857 0.436727 0.152779
v -1.816591 0.436728 0.152778
v -0.075857 0.370074 -0.039369
v -1.816591 0.370075 -0.039370
v -1.816591 2.909344 -0.919928
v -0.075856 2.909344 -0.919928
v 0.191260 0.050530 -0.128241
v -2.083707 0.050530 -0.128241
v -2.083707 0.060884 -0.098384
v 0.191260 0.060884 -0.098384
v -2.083707 3.105247 -1.187544
v 0.191260 3.105247 -1.187544
v 0.191260 3.115601 -1.157686
v -2.083707 3.115601 -1.157686
v -0.075857 0.766291 0.077737
v -0.075857 1.090931 -0.011496
v -0.075857 1.004891 -0.259509
v -0.075857 0.687483 -0.149439
v -0.075857 1.412297 -0.110163
v -0.075857 1.322300 -0.369579
v -0.075857 1.730973 -0.216582
v -0.075857 1.639709 -0.479648
v -0.075857 2.047114 -0.330303
v -0.075857 1.957118 -0.589718
v -0.075856 2.360566 -0.451775
v -0.075856 2.274526 -0.699788
v -0.075856 2.670744 -0.582682
v -0.075856 2.591935 -0.809858
v -1.816591 2.670744 -0.582683
v -1.816591 2.360567 -0.451775
v -1.816591 2.274527 -0.699788
v -1.816591 2.591936 -0.809858
v -1.816591 2.047115 -0.330303
v -1.816591 1.957118 -0.589718
v -1.816591 1.730973 -0.216582
v -1.816591 1.639710 -0.479649
v -1.816591 1.412298 -0.110163
v -1.816591 1.322301 -0.369579
v -1.816591 1.090932 -0.011496
v -1.816591 1.004892 -0.259509
v -1.816591 0.766292 0.077736
v -1.816591 0.687483 -0.149439
v 0.191260 2.723407 -1.055130
v 0.191260 2.341568 -0.922718
v 0.191260 2.351921 -0.892862
v 0.191260 2.733761 -1.025275
v 0.191260 1.959728 -0.790305
v 0.191260 1.970082 -0.760449
v 0.191260 1.577889 -0.657893
v 0.191260 1.588242 -0.628036
v 0.191260 1.196049 -0.525480
v 0.191260 1.206403 -0.495623
v 0.191260 0.814209 -0.393067
v 0.191260 0.824563 -0.363210
v 0.191260 0.432370 -0.260654
v 0.191260 0.442723 -0.230797
v -2.083707 0.432370 -0.260654
v -2.083707 0.814209 -0.393067
v -2.083707 0.824563 -0.363210
v -2.083707 0.442723 -0.230797
v -2.083707 1.196049 -0.525480
v -2.083707 1.206403 -0.495623
v -2.083707 1.577889 -0.657893
v -2.083707 1.588242 -0.628036
v -2.083707 1.959728 -0.790306
v -2.083707 1.970082 -0.760449
v -2.083707 2.341568 -0.922718
v -2.083707 2.351922 -0.892862
v -2.083707 2.723407 -1.055130
v -2.083707 2.733761 -1.025275
v -0.075857 0.602693 0.118671
v -0.075857 0.528778 -0.094404
v -0.075856 2.824555 -0.651818
v -0.075856 2.750640 -0.864893
v -1.816591 2.824556 -0.651818
v -1.816591 2.750640 -0.864893
v -1.816591 0.602694 0.118671
v -1.816591 0.528779 -0.094404
v 0.191260 2.914327 -1.121338
v 0.191260 2.924681 -1.091480
v 0.191260 0.241450 -0.194448
v 0.191260 0.251803 -0.164591
v -2.083707 0.241450 -0.194448
v -2.083707 0.251804 -0.164591
v -2.083707 2.914327 -1.121338
v -2.083707 2.924681 -1.091480
v -2.130254 2.892820 -0.685944
v -2.130254 2.511013 -0.513714
v -2.130254 2.123154 -0.358921
v -2.130254 1.730973 -0.216582
v -2.130254 1.334865 -0.085562
v -2.130254 0.934435 0.033006
v -2.130254 0.527954 0.134135
v 0.237806 0.527953 0.134136
v 0.237807 0.934434 0.033006
v 0.237807 1.334864 -0.085561
v 0.237807 1.730973 -0.216582
v 0.237807 2.123153 -0.358921
v 0.237807 2.511012 -0.513713
v 0.237808 2.892819 -0.685944
v -2.130254 3.077962 -0.788663
v -2.130254 0.318951 0.168096
v 0.237806 0.318950 0.168096
v 0.237808 3.077961 -0.788663
v -0.493440 1.684652 -0.598693
v -0.885854 1.920976 -0.682010
v -0.850335 1.968827 -0.713571
v -0.457922 1.732503 -0.630254
v -1.179435 0.001311 -1.941216
v -1.213848 0.001311 -1.853508
v -2.025947 0.524952 -2.055521
v -2.044685 0.513719 -1.967428
v -1.830504 0.001311 -2.155772
v -1.799310 0.001311 -2.243115
v 0.237807 0.001311 -0.111173
v -2.130254 0.001311 -0.111173
v 0.237807 3.154467 -1.204612
v -2.130254 3.154467 -1.204612
v 0.237807 2.366178 -0.931253
v 0.237807 2.760323 -1.067932
v 0.237807 1.972034 -0.794573
v 0.237807 1.577889 -0.657893
v 0.237807 1.183745 -0.521213
v 0.237807 0.789600 -0.384533
v 0.237807 0.395455 -0.247853
v -2.130254 0.789600 -0.384533
v -2.130254 0.395456 -0.247853
v -2.130254 1.183745 -0.521213
v -2.130254 1.577889 -0.657893
v -2.130254 1.972034 -0.794573
v -2.130254 2.366178 -0.931253
v -2.130254 2.760323 -1.067932
v 0.237807 2.957394 -1.136271
v 0.237807 0.198383 -0.179513
v -2.130254 0.198383 -0.179513
v -2.130254 2.957394 -1.136271
vt 0.000000 0.000000
vt 1.000000 0.000000
vt 1.000000 1.000000
vt 0.000000 1.000000
vn 0.000000 0.528100 0.849200
vn -0.000000 0.111000 0.993800
vn 0.000000 0.944800 -0.327700
vn 0.000000 -0.944800 0.327700
vn 0.000000 0.944800 -0.327600
vn 0.000000 -0.944800 0.327600
vn -1.000000 0.000000 0.000000
vn 1.000000 -0.000000 0.000000
vn 0.000100 0.437600 0.899200
vn -0.002600 0.389200 0.921100
vn -0.002300 0.378700 0.925500
vn -0.001700 0.416100 0.909300
vn -0.001900 0.355400 0.934700
vn -0.001800 0.351100 0.936300
vn -0.001700 0.327600 0.944800
vn -0.001900 0.299600 0.954100
vn -0.001800 0.303900 0.952700
vn -0.002600 0.264600 0.964400
vn -0.002300 0.275600 0.961300
vn 0.000100 0.213000 0.977000
vn -0.001700 0.236200 0.971700
vn -0.000100 0.213000 0.977100
vn 0.002600 0.264600 0.964400
vn 0.002300 0.275600 0.961300
vn 0.001700 0.236200 0.971700
vn 0.001900 0.299600 0.954100
vn 0.001800 0.303900 0.952700
vn 0.001700 0.327600 0.944800
vn 0.001900 0.355400 0.934700
vn 0.001800 0.351100 0.936300
vn 0.002600 0.389200 0.921100
vn 0.002300 0.378700 0.925500
vn -0.000100 0.437600 0.899200
vn 0.001700 0.416100 0.909300
vn -0.006300 0.498300 0.867000
vn -0.004300 0.486300 0.873800
vn -0.000600 0.464500 0.885600
vn -0.004300 0.159100 0.987300
vn -0.000600 0.183500 0.983000
vn -0.006300 0.145500 0.989300
vn 0.006300 0.145500 0.989300
vn 0.004300 0.159100 0.987300
vn 0.000600 0.183500 0.983000
vn 0.004300 0.486300 0.873800
vn 0.000600 0.464500 0.885600
vn 0.006300 0.498300 0.867000
vn -0.000000 0.327600 0.944800
vn -0.336600 0.282100 -0.898400
vn 0.562800 -0.355800 -0.746100
vn 0.319700 -0.706200 -0.631700
vn -0.110600 -0.488700 -0.865400
vn -0.805300 0.533900 -0.257900
vn -0.373700 0.919800 -0.119700
vn -0.180500 0.827000 -0.532400
vn -0.396900 -0.437200 0.807100
vn -0.394500 -0.443500 0.804800
vn -0.394800 -0.442600 0.805100
vn 0.935400 0.013300 -0.353300
vn 0.974800 -0.086200 0.205600
vn 0.622400 0.754700 -0.207500
vn 0.497200 0.854300 0.151500
vn -0.389800 -0.455500 0.800400
vn -0.000000 -0.327600 -0.944800
usemtl wood_sq2
s 1
f 1//1 2//1 3//1 4//1
f 5//2 6//2 7//2 8//2
f 8//3 7//3 9//3 10//3
f 4//4 3//4 11//4 12//4
f 13//5 14//5 15//5 16//5
f 17//6 18//6 19//6 20//6
f 21//7 22//7 23//7 24//7
f 22//7 25//7 26//7 23//7
f 25//7 27//7 28//7 26//7
f 27//7 29//7 30//7 28//7
f 29//7 31//7 32//7 30//7
f 31//7 33//7 34//7 32//7
f 35//8 36//8 37//8 38//8
f 36//8 39//8 40//8 37//8
f 39//8 41//8 42//8 40//8
f 41//8 43//8 44//8 42//8
f 43//8 45//8 46//8 44//8
f 45//8 47//8 48//8 46//8
f 49//7 50//7 51//7 52//7
f 50//7 53//7 54//7 51//7
f 53//7 55//7 56//7 54//7
f 55//7 57//7 58//7 56//7
f 57//7 59//7 60//7 58//7
f 59//7 61//7 62//7 60//7
f 63//8 64//8 65//8 66//8
f 64//8 67//8 68//8 65//8
f 67//8 69//8 70//8 68//8
f 69//8 71//8 72//8 70//8
f 71//8 73//8 74//8 72//8
f 73//8 75//8 76//8 74//8
f 7//7 77//7 78//7 9//7
f 77//7 21//7 24//7 78//7
f 33//7 79//7 80//7 34//7
f 79//7 4//7 12//7 80//7
f 3//8 81//8 82//8 11//8
f 81//8 35//8 38//8 82//8
f 47//8 83//8 84//8 48//8
f 83//8 8//8 10//8 84//8
f 18//7 85//7 86//7 19//7
f 85//7 49//7 52//7 86//7
f 61//7 87//7 88//7 62//7
f 87//7 13//7 16//7 88//7
f 14//8 89//8 90//8 15//8
f 89//8 63//8 66//8 90//8
f 75//8 91//8 92//8 76//8
f 91//8 17//8 20//8 92//8
f 93//9 94//10 36//11 35//12
f 94//10 95//13 39//14 36//11
f 95//13 96//15 41//15 39//14
f 96//15 97//16 43//17 41//15
f 97//16 98//18 45//19 43//17
f 98//18 99//20 47//21 45//19
f 100//22 101//23 22//24 21//25
f 101//23 102//26 25//27 22//24
f 102//26 103//28 27//28 25//27
f 103//28 104//29 29//30 27//28
f 104//29 105//31 31//32 29//30
f 105//31 106//33 33//34 31//32
f 2//35 107//36 81//37 3//35
f 107//36 93//9 35//12 81//37
f 99//20 108//38 83//39 47//21
f 108//38 5//40 8//40 83//39
f 6//41 109//42 77//43 7//41
f 109//42 100//22 21//25 77//43
f 106//33 110//44 79//45 33//34
f 110//44 1//46 4//46 79//45
usemtl picture
s off
f 11/4/47 10/1/47 9/2/47 12/3/47
usemtl cuir_black
s off
f 111//48 112//49 113//50 114//51
f 111//48 114//52 115//53 116//54
f 114//55 113//55 117//56 115//57
f 113//50 112//49 118//58 117//59
f 112//49 111//48 116//54 118//58
f 118//58 116//54 119//60
f 117//59 118//58 119//60 120//61
f 115//57 117//56 120//62
f 116//54 115//53 120//61 119//60
f 52//63 51//63 74//63 76//63
f 51//63 54//63 72//63 74//63
f 54//63 56//63 70//63 72//63
f 56//63 58//63 68//63 70//63
f 58//63 60//63 65//63 68//63
f 60//63 62//63 66//63 65//63
f 19//63 86//63 92//63 20//63
f 86//63 52//63 76//63 92//63
f 62//63 88//63 90//63 66//63
f 88//63 16//63 15//63 90//63
usemtl wood_sq2black
f 121//4 6//4 5//4 122//4
f 1//3 123//3 124//3 2//3
f 124//63 123//63 18//63 17//63
f 121//63 122//63 14//63 13//63
f 106//8 105//8 125//8 126//8
f 105//8 104//8 127//8 125//8
f 104//8 103//8 128//8 127//8
f 103//8 102//8 129//8 128//8
f 102//8 101//8 130//8 129//8
f 101//8 100//8 131//8 130//8
f 99//7 98//7 132//7 133//7
f 98//7 97//7 134//7 132//7
f 97//7 96//7 135//7 134//7
f 96//7 95//7 136//7 135//7
f 95//7 94//7 137//7 136//7
f 94//7 93//7 138//7 137//7
f 133//63 132//63 64//63 63//63
f 132//63 134//63 67//63 64//63
f 134//63 135//63 69//63 67//63
f 135//63 136//63 71//63 69//63
f 136//63 137//63 73//63 71//63
f 137//63 138//63 75//63 73//63
f 126//63 125//63 50//63 49//63
f 125//63 127//63 53//63 50//63
f 127//63 128//63 55//63 53//63
f 128//63 129//63 57//63 55//63
f 129//63 130//63 59//63 57//63
f 130//63 131//63 61//63 59//63
f 126//8 139//8 110//8 106//8
f 139//8 123//8 1//8 110//8
f 100//8 109//8 140//8 131//8
f 109//8 6//8 121//8 140//8
f 5//7 108//7 141//7 122//7
f 108//7 99//7 133//7 141//7
f 93//7 107//7 142//7 138//7
f 107//7 2//7 124//7 142//7
f 122//63 141//63 89//63 14//63
f 141//63 133//63 63//63 89//63
f 138//63 142//63 91//63 75//63
f 142//63 124//63 17//63 91//63
f 123//63 139//63 85//63 18//63
f 139//63 126//63 49//63 85//63
f 131//63 140//63 87//63 61//63
f 140//63 121//63 13//63 87//63
