# mobilettoBlu.obj 3D model
#
# Created by LucaPresidente
#
# This file is distributed under Free Art License, see http://artlibre.org/licence/lal/en for more informations
# and under CC-BY Creative Commons Attribution 3.0 Unported license, see http://creativecommons.org/licenses/by/3.0/
# at your choice
# 
mtllib mobilettoBlu.mtl
g Box30_1
usemtl Box30_1
v -166.0 70.4 -150.0
v -166.0 71.6 -150.0
v -150.0 71.6 -150.0
v -150.0 70.4 -150.0
v -166.0 70.4 -148.0
v -150.0 70.4 -148.0
v -150.0 71.6 -148.0
v -166.0 71.6 -148.0
vt 1.0 0.0 0
vt 1.0 1.0 0
vt 0.0 1.0 0
vt 0.0 0.0 0
vn 0.0 0.0 -1.0
vn 0.0 0.0 1.0
vn 0.0 -1.0 0.0
vn 1.0 0.0 0.0
vn 0.0 1.0 0.0
vn -1.0 0.0 0.0
f 1/1/1 2/2/1 3/3/1
f 1/1/1 3/3/1 4/4/1
f 5/4/2 6/1/2 7/2/2
f 5/4/2 7/2/2 8/3/2
f 1/4/3 4/1/3 6/2/3
f 1/4/3 6/2/3 5/3/3
f 4/4/4 3/1/4 7/2/4
f 4/4/4 7/2/4 6/3/4
f 3/4/5 2/1/5 8/2/5
f 3/4/5 8/2/5 7/3/5
f 2/4/6 1/1/6 5/2/6
f 2/4/6 5/2/6 8/3/6
g Line16_2
usemtl Line16_2
v -110.0 0.0 -189.0
v -101.0 0.0 -189.0
v -101.0 8.0 -189.0
v -110.0 8.0 -189.0
v -101.0 0.0 -180.0
v -101.0 8.0 -180.0
v -100.0 0.0 -180.0
v -100.0 8.0 -180.0
v -100.0 0.0 -190.0
v -100.0 8.0 -190.0
v -110.0 0.0 -190.0
v -110.0 8.0 -190.0
f 9//2 10//2 11//2
f 9//2 11//2 12//2
f 10//6 13//6 14//6
f 10//6 14//6 11//6
f 13//2 15//2 16//2
f 13//2 16//2 14//2
f 15//4 17//4 18//4
f 15//4 18//4 16//4
f 17//1 19//1 20//1
f 17//1 20//1 18//1
f 19//6 9//6 12//6
f 19//6 12//6 20//6
f 17//3 10//3 9//3
f 17//3 9//3 19//3
f 15//3 13//3 10//3
f 15//3 10//3 17//3
f 18//5 20//5 12//5
f 18//5 12//5 11//5
f 16//5 18//5 11//5
f 16//5 11//5 14//5
g Line17_3
usemtl Line16_2
v -110.0 8.0 -153.0
v -101.0 8.0 -153.0
v -101.0 0.0 -153.0
v -110.0 0.0 -153.0
v -101.0 8.0 -162.0
v -101.0 0.0 -162.0
v -100.0 8.0 -162.0
v -100.0 0.0 -162.0
v -100.0 8.0 -152.0
v -100.0 0.0 -152.0
v -110.0 8.0 -152.0
v -110.0 0.0 -152.0
f 21//1 22//1 23//1
f 21//1 23//1 24//1
f 22//6 25//6 26//6
f 22//6 26//6 23//6
f 25//1 27//1 28//1
f 25//1 28//1 26//1
f 27//4 29//4 30//4
f 27//4 30//4 28//4
f 29//2 31//2 32//2
f 29//2 32//2 30//2
f 31//6 21//6 24//6
f 31//6 24//6 32//6
f 32//3 24//3 23//3
f 32//3 23//3 30//3
f 30//3 23//3 26//3
f 30//3 26//3 28//3
f 22//5 21//5 31//5
f 22//5 31//5 29//5
f 25//5 22//5 29//5
f 25//5 29//5 27//5
g Line18_4
usemtl Line16_2
v -170.0 8.0 -189.0
v -179.0 8.0 -189.0
v -179.0 0.0 -189.0
v -170.0 0.0 -189.0
v -179.0 8.0 -180.0
v -179.0 0.0 -180.0
v -180.0 8.0 -180.0
v -180.0 0.0 -180.0
v -180.0 8.0 -190.0
v -180.0 0.0 -190.0
v -170.0 8.0 -190.0
v -170.0 0.0 -190.0
f 33//2 34//2 35//2
f 33//2 35//2 36//2
f 34//4 37//4 38//4
f 34//4 38//4 35//4
f 37//2 39//2 40//2
f 37//2 40//2 38//2
f 39//6 41//6 42//6
f 39//6 42//6 40//6
f 41//1 43//1 44//1
f 41//1 44//1 42//1
f 43//4 33//4 36//4
f 43//4 36//4 44//4
f 44//3 36//3 35//3
f 44//3 35//3 42//3
f 42//3 35//3 38//3
f 42//3 38//3 40//3
f 34//5 33//5 43//5
f 34//5 43//5 41//5
f 37//5 34//5 41//5
f 37//5 41//5 39//5
g Box32_5
usemtl Box30_1
v -130.0 70.4 -150.0
v -130.0 71.6 -150.0
v -114.0 71.6 -150.0
v -114.0 70.4 -150.0
v -130.0 70.4 -148.0
v -114.0 70.4 -148.0
v -114.0 71.6 -148.0
v -130.0 71.6 -148.0
f 45/1/1 46/2/1 47/3/1
f 45/1/1 47/3/1 48/4/1
f 49/4/2 50/1/2 51/2/2
f 49/4/2 51/2/2 52/3/2
f 45/4/3 48/1/3 50/2/3
f 45/4/3 50/2/3 49/3/3
f 48/4/4 47/1/4 51/2/4
f 48/4/4 51/2/4 50/3/4
f 47/4/5 46/1/5 52/2/5
f 47/4/5 52/2/5 51/3/5
f 46/4/6 45/1/6 49/2/6
f 46/4/6 49/2/6 52/3/6
g Line20_6
usemtl Line16_2
v -170.0 0.0 -153.0
v -179.0 0.0 -153.0
v -179.0 8.0 -153.0
v -170.0 8.0 -153.0
v -179.0 0.0 -162.0
v -179.0 8.0 -162.0
v -180.0 0.0 -162.0
v -180.0 8.0 -162.0
v -180.0 0.0 -152.0
v -180.0 8.0 -152.0
v -170.0 0.0 -152.0
v -170.0 8.0 -152.0
f 53//1 54//1 55//1
f 53//1 55//1 56//1
f 54//4 57//4 58//4
f 54//4 58//4 55//4
f 57//1 59//1 60//1
f 57//1 60//1 58//1
f 59//6 61//6 62//6
f 59//6 62//6 60//6
f 61//2 63//2 64//2
f 61//2 64//2 62//2
f 63//4 53//4 56//4
f 63//4 56//4 64//4
f 61//3 54//3 53//3
f 61//3 53//3 63//3
f 59//3 57//3 54//3
f 59//3 54//3 61//3
f 62//5 64//5 56//5
f 62//5 56//5 55//5
f 60//5 62//5 55//5
f 60//5 55//5 58//5
g Box33_7
usemtl Box33_7
v -180.0 80.0 -150.0
v -180.0 80.0 -190.0
v -100.0 80.0 -190.0
v -100.0 80.0 -150.0
v -180.0 82.0 -150.0
v -100.0 82.0 -150.0
v -100.0 82.0 -190.0
v -180.0 82.0 -190.0
vt 0.0005 0.9725 0
vt 0.9995 0.9725 0
vt 0.0005 0.9995 0
vt 0.9995 0.9995 0
f 65/5/3 66/5/3 67/6/3
f 65/5/3 67/6/3 68/6/3
f 69/7/5 70/8/5 71/8/5
f 69/7/5 71/8/5 72/7/5
f 65/5/2 68/6/2 70/8/2
f 65/5/2 70/8/2 69/7/2
f 68/6/4 67/6/4 71/8/4
f 68/6/4 71/8/4 70/8/4
f 67/6/1 66/5/1 72/7/1
f 67/6/1 72/7/1 71/8/1
f 66/5/6 65/5/6 69/7/6
f 66/5/6 69/7/6 72/7/6
g Box31_8
usemtl Box33_7
v -180.0 80.0 -152.0
v -100.0 80.0 -152.0
vt 0.0005 0.0005 0
vt 0.9995 0.0005 0
f 62/9/3 41/9/3 18/10/3
f 62/9/3 18/10/3 29/10/3
f 73/5/5 74/6/5 67/6/5
f 73/5/5 67/6/5 66/5/5
f 62/9/2 29/10/2 74/6/2
f 62/9/2 74/6/2 73/5/2
f 29/10/4 18/10/4 67/6/4
f 29/10/4 67/6/4 74/6/4
f 18/10/1 41/9/1 66/5/1
f 18/10/1 66/5/1 67/6/1
f 41/9/6 62/9/6 73/5/6
f 41/9/6 73/5/6 66/5/6
g Rectangle20_9
usemtl Box33_7
v -140.5 79.0 -151.5
v -140.5264 79.2291 -151.5
v -140.5264 79.2291 -150.0
v -140.5 79.0 -150.0
v -140.6017 79.4396 -151.5
v -140.6017 79.4396 -150.0
v -140.7198 79.6252 -151.5
v -140.7198 79.6252 -150.0
v -140.8748 79.7802 -151.5
v -140.8748 79.7802 -150.0
v -141.0604 79.8983 -151.5
v -141.0604 79.8983 -150.0
v -141.2709 79.9736 -151.5
v -141.2709 79.9736 -150.0
v -141.5 80.0 -151.5
v -141.5 80.0 -150.0
v -179.0 80.0 -151.5
v -179.0 80.0 -150.0
v -179.2291 79.9736 -151.5
v -179.2291 79.9736 -150.0
v -179.4396 79.8983 -151.5
v -179.4396 79.8983 -150.0
v -179.6252 79.7802 -151.5
v -179.6252 79.7802 -150.0
v -179.7802 79.6252 -151.5
v -179.7802 79.6252 -150.0
v -179.8983 79.4396 -151.5
v -179.8983 79.4396 -150.0
v -179.9736 79.2291 -151.5
v -179.9736 79.2291 -150.0
v -180.0 79.0 -151.5
v -180.0 79.0 -150.0
v -180.0 9.0 -151.5
v -180.0 9.0 -150.0
v -179.9736 8.7709 -151.5
v -179.9736 8.7709 -150.0
v -179.8983 8.5604 -151.5
v -179.8983 8.5604 -150.0
v -179.7802 8.3748 -151.5
v -179.7802 8.3748 -150.0
v -179.6252 8.2198 -151.5
v -179.6252 8.2198 -150.0
v -179.4396 8.1017 -151.5
v -179.4396 8.1017 -150.0
v -179.2291 8.0264 -151.5
v -179.2291 8.0264 -150.0
v -179.0 8.0 -151.5
v -179.0 8.0 -150.0
v -141.5 8.0 -151.5
v -141.5 8.0 -150.0
v -141.2709 8.0264 -151.5
v -141.2709 8.0264 -150.0
v -141.0604 8.1017 -151.5
v -141.0604 8.1017 -150.0
v -140.8748 8.2198 -151.5
v -140.8748 8.2198 -150.0
v -140.7198 8.3748 -151.5
v -140.7198 8.3748 -150.0
v -140.6017 8.5604 -151.5
v -140.6017 8.5604 -150.0
v -140.5264 8.7709 -151.5
v -140.5264 8.7709 -150.0
v -140.5 9.0 -151.5
v -140.5 9.0 -150.0
vt 0.4938 0.959 0
vt 0.4934 0.9621 0
vt 0.4925 0.9649 0
vt 0.491 0.9674 0
vt 0.4891 0.9695 0
vt 0.4868 0.9711 0
vt 0.4841 0.9721 0
vt 0.4813 0.9725 0
vt 0.013 0.9725 0
vt 0.0101 0.9721 0
vt 0.0075 0.9711 0
vt 0.0052 0.9695 0
vt 0.0032 0.9674 0
vt 0.0018 0.9649 0
vt 0.0008 0.9621 0
vt 0.0005 0.959 0
vt 0.0005 0.014 0
vt 0.0008 0.0109 0
vt 0.0018 0.0081 0
vt 0.0032 0.0056 0
vt 0.0052 0.0035 0
vt 0.0075 0.0019 0
vt 0.0101 0.0009 0
vt 0.013 0.0005 0
vt 0.4813 0.0005 0
vt 0.4841 0.0009 0
vt 0.4868 0.0019 0
vt 0.4891 0.0035 0
vt 0.491 0.0056 0
vt 0.4925 0.0081 0
vt 0.4934 0.0109 0
vt 0.4938 0.014 0
vn 0.9934116 0.114601344 0.0
vn 0.9738456 0.22721064 0.0
vn 0.89823437 0.4395168 0.0
vn 0.78007793 0.6256823 0.0
vn 0.6256823 0.78007793 0.0
vn 0.4395168 0.89823437 0.0
vn 0.22721064 0.9738456 0.0
vn 0.114601344 0.9934116 0.0
vn -0.114601344 0.9934116 0.0
vn -0.22721064 0.9738456 0.0
vn -0.4395168 0.89823437 0.0
vn -0.6256823 0.78007793 0.0
vn -0.78007793 0.6256823 0.0
vn -0.89823437 0.4395168 0.0
vn -0.9738456 0.22721064 0.0
vn -0.9934116 0.114601344 0.0
vn -0.9934116 -0.114601344 -0.0
vn -0.9738456 -0.22721064 -0.0
vn -0.89823437 -0.4395168 -0.0
vn -0.78007793 -0.6256823 -0.0
vn -0.6256823 -0.78007793 -0.0
vn -0.4395168 -0.89823437 -0.0
vn -0.22721064 -0.9738456 -0.0
vn -0.114601344 -0.9934116 -0.0
vn 0.114601344 -0.9934116 0.0
vn 0.22721064 -0.9738456 0.0
vn 0.4395168 -0.89823437 0.0
vn 0.6256823 -0.78007793 0.0
vn 0.78007793 -0.6256823 0.0
vn 0.89823437 -0.4395168 0.0
vn 0.9738456 -0.22721064 0.0
vn 0.9934116 -0.114601344 0.0
f 75/11/7 76/12/8 77/12/8
f 75/11/7 77/12/8 78/11/7
f 76/12/8 79/13/9 80/13/9
f 76/12/8 80/13/9 77/12/8
f 79/13/9 81/14/10 82/14/10
f 79/13/9 82/14/10 80/13/9
f 81/14/10 83/15/11 84/15/11
f 81/14/10 84/15/11 82/14/10
f 83/15/11 85/16/12 86/16/12
f 83/15/11 86/16/12 84/15/11
f 85/16/12 87/17/13 88/17/13
f 85/16/12 88/17/13 86/16/12
f 87/17/13 89/18/14 90/18/14
f 87/17/13 90/18/14 88/17/13
f 89/18/5 91/19/5 92/19/5
f 89/18/5 92/19/5 90/18/5
f 91/19/15 93/20/16 94/20/16
f 91/19/15 94/20/16 92/19/15
f 93/20/16 95/21/17 96/21/17
f 93/20/16 96/21/17 94/20/16
f 95/21/17 97/22/18 98/22/18
f 95/21/17 98/22/18 96/21/17
f 97/22/18 99/23/19 100/23/19
f 97/22/18 100/23/19 98/22/18
f 99/23/19 101/24/20 102/24/20
f 99/23/19 102/24/20 100/23/19
f 101/24/20 103/25/21 104/25/21
f 101/24/20 104/25/21 102/24/20
f 103/25/21 105/26/22 106/26/22
f 103/25/21 106/26/22 104/25/21
f 105/26/6 107/27/6 108/27/6
f 105/26/6 108/27/6 106/26/6
f 107/27/23 109/28/24 110/28/24
f 107/27/23 110/28/24 108/27/23
f 109/28/24 111/29/25 112/29/25
f 109/28/24 112/29/25 110/28/24
f 111/29/25 113/30/26 114/30/26
f 111/29/25 114/30/26 112/29/25
f 113/30/26 115/31/27 116/31/27
f 113/30/26 116/31/27 114/30/26
f 115/31/27 117/32/28 118/32/28
f 115/31/27 118/32/28 116/31/27
f 117/32/28 119/33/29 120/33/29
f 117/32/28 120/33/29 118/32/28
f 119/33/29 121/34/30 122/34/30
f 119/33/29 122/34/30 120/33/29
f 121/34/3 123/35/3 124/35/3
f 121/34/3 124/35/3 122/34/3
f 123/35/31 125/36/32 126/36/32
f 123/35/31 126/36/32 124/35/31
f 125/36/32 127/37/33 128/37/33
f 125/36/32 128/37/33 126/36/32
f 127/37/33 129/38/34 130/38/34
f 127/37/33 130/38/34 128/37/33
f 129/38/34 131/39/35 132/39/35
f 129/38/34 132/39/35 130/38/34
f 131/39/35 133/40/36 134/40/36
f 131/39/35 134/40/36 132/39/35
f 133/40/36 135/41/37 136/41/37
f 133/40/36 136/41/37 134/40/36
f 135/41/37 137/42/38 138/42/38
f 135/41/37 138/42/38 136/41/37
f 137/42/4 75/11/4 78/11/4
f 137/42/4 78/11/4 138/42/4
f 133/40/1 131/39/1 137/42/1
f 133/40/1 137/42/1 135/41/1
f 129/38/1 127/37/1 137/42/1
f 129/38/1 137/42/1 131/39/1
f 125/36/1 123/35/1 137/42/1
f 125/36/1 137/42/1 127/37/1
f 121/34/1 75/11/1 137/42/1
f 121/34/1 137/42/1 123/35/1
f 119/33/1 117/32/1 75/11/1
f 119/33/1 75/11/1 121/34/1
f 115/31/1 113/30/1 75/11/1
f 115/31/1 75/11/1 117/32/1
f 111/29/1 109/28/1 75/11/1
f 111/29/1 75/11/1 113/30/1
f 107/27/1 105/26/1 75/11/1
f 107/27/1 75/11/1 109/28/1
f 103/25/1 101/24/1 75/11/1
f 103/25/1 75/11/1 105/26/1
f 99/23/1 97/22/1 75/11/1
f 99/23/1 75/11/1 101/24/1
f 95/21/1 93/20/1 75/11/1
f 95/21/1 75/11/1 97/22/1
f 91/19/1 89/18/1 75/11/1
f 91/19/1 75/11/1 93/20/1
f 87/17/1 76/12/1 75/11/1
f 87/17/1 75/11/1 89/18/1
f 85/16/1 79/13/1 76/12/1
f 85/16/1 76/12/1 87/17/1
f 85/16/1 83/15/1 81/14/1
f 85/16/1 81/14/1 79/13/1
f 134/40/2 136/41/2 138/42/2
f 134/40/2 138/42/2 132/39/2
f 130/38/2 132/39/2 138/42/2
f 130/38/2 138/42/2 128/37/2
f 126/36/2 128/37/2 138/42/2
f 126/36/2 138/42/2 124/35/2
f 122/34/2 124/35/2 138/42/2
f 122/34/2 138/42/2 78/11/2
f 120/33/2 122/34/2 78/11/2
f 120/33/2 78/11/2 118/32/2
f 116/31/2 118/32/2 78/11/2
f 116/31/2 78/11/2 114/30/2
f 112/29/2 114/30/2 78/11/2
f 112/29/2 78/11/2 110/28/2
f 108/27/2 110/28/2 78/11/2
f 108/27/2 78/11/2 106/26/2
f 104/25/2 106/26/2 78/11/2
f 104/25/2 78/11/2 102/24/2
f 100/23/2 102/24/2 78/11/2
f 100/23/2 78/11/2 98/22/2
f 96/21/2 98/22/2 78/11/2
f 96/21/2 78/11/2 94/20/2
f 92/19/2 94/20/2 78/11/2
f 92/19/2 78/11/2 90/18/2
f 88/17/2 90/18/2 78/11/2
f 88/17/2 78/11/2 77/12/2
f 86/16/2 88/17/2 77/12/2
f 86/16/2 77/12/2 80/13/2
f 86/16/2 80/13/2 82/14/2
f 86/16/2 82/14/2 84/15/2
g Rectangle19_10
usemtl Box33_7
v -100.0 79.0 -151.5
v -100.0264 79.2291 -151.5
v -100.0264 79.2291 -150.0
v -100.0 79.0 -150.0
v -100.1017 79.4396 -151.5
v -100.1017 79.4396 -150.0
v -100.2198 79.6252 -151.5
v -100.2198 79.6252 -150.0
v -100.3748 79.7802 -151.5
v -100.3748 79.7802 -150.0
v -100.5604 79.8983 -151.5
v -100.5604 79.8983 -150.0
v -100.7709 79.9736 -151.5
v -100.7709 79.9736 -150.0
v -101.0 80.0 -151.5
v -101.0 80.0 -150.0
v -138.5 80.0 -151.5
v -138.5 80.0 -150.0
v -138.7291 79.9736 -151.5
v -138.7291 79.9736 -150.0
v -138.9396 79.8983 -151.5
v -138.9396 79.8983 -150.0
v -139.1252 79.7802 -151.5
v -139.1252 79.7802 -150.0
v -139.2802 79.6252 -151.5
v -139.2802 79.6252 -150.0
v -139.3983 79.4396 -151.5
v -139.3983 79.4396 -150.0
v -139.4736 79.2291 -151.5
v -139.4736 79.2291 -150.0
v -139.5 79.0 -151.5
v -139.5 79.0 -150.0
v -139.5 9.0 -151.5
v -139.5 9.0 -150.0
v -139.4736 8.7709 -151.5
v -139.4736 8.7709 -150.0
v -139.3983 8.5604 -151.5
v -139.3983 8.5604 -150.0
v -139.2802 8.3748 -151.5
v -139.2802 8.3748 -150.0
v -139.1252 8.2198 -151.5
v -139.1252 8.2198 -150.0
v -138.9396 8.1017 -151.5
v -138.9396 8.1017 -150.0
v -138.7291 8.0264 -151.5
v -138.7291 8.0264 -150.0
v -138.5 8.0 -151.5
v -138.5 8.0 -150.0
v -101.0 8.0 -151.5
v -101.0 8.0 -150.0
v -100.7709 8.0264 -151.5
v -100.7709 8.0264 -150.0
v -100.5604 8.1017 -151.5
v -100.5604 8.1017 -150.0
v -100.3748 8.2198 -151.5
v -100.3748 8.2198 -150.0
v -100.2198 8.3748 -151.5
v -100.2198 8.3748 -150.0
v -100.1017 8.5604 -151.5
v -100.1017 8.5604 -150.0
v -100.0264 8.7709 -151.5
v -100.0264 8.7709 -150.0
v -100.0 9.0 -151.5
v -100.0 9.0 -150.0
vt 0.9995 0.959 0
vt 0.9992 0.9621 0
vt 0.9982 0.9649 0
vt 0.9968 0.9674 0
vt 0.9948 0.9695 0
vt 0.9925 0.9711 0
vt 0.9899 0.9721 0
vt 0.987 0.9725 0
vt 0.5187 0.9725 0
vt 0.5159 0.9721 0
vt 0.5132 0.9711 0
vt 0.5109 0.9695 0
vt 0.509 0.9674 0
vt 0.5075 0.9649 0
vt 0.5066 0.9621 0
vt 0.5062 0.959 0
vt 0.5062 0.014 0
vt 0.5066 0.0109 0
vt 0.5075 0.0081 0
vt 0.509 0.0056 0
vt 0.5109 0.0035 0
vt 0.5132 0.0019 0
vt 0.5159 0.0009 0
vt 0.5187 0.0005 0
vt 0.987 0.0005 0
vt 0.9899 0.0009 0
vt 0.9925 0.0019 0
vt 0.9948 0.0035 0
vt 0.9968 0.0056 0
vt 0.9982 0.0081 0
vt 0.9992 0.0109 0
vt 0.9995 0.014 0
f 139/43/7 140/44/8 141/44/8
f 139/43/7 141/44/8 142/43/7
f 140/44/8 143/45/9 144/45/9
f 140/44/8 144/45/9 141/44/8
f 143/45/9 145/46/10 146/46/10
f 143/45/9 146/46/10 144/45/9
f 145/46/10 147/47/11 148/47/11
f 145/46/10 148/47/11 146/46/10
f 147/47/11 149/48/12 150/48/12
f 147/47/11 150/48/12 148/47/11
f 149/48/12 151/49/13 152/49/13
f 149/48/12 152/49/13 150/48/12
f 151/49/13 153/50/14 154/50/14
f 151/49/13 154/50/14 152/49/13
f 153/50/5 155/51/5 156/51/5
f 153/50/5 156/51/5 154/50/5
f 155/51/15 157/52/16 158/52/16
f 155/51/15 158/52/16 156/51/15
f 157/52/16 159/53/17 160/53/17
f 157/52/16 160/53/17 158/52/16
f 159/53/17 161/54/18 162/54/18
f 159/53/17 162/54/18 160/53/17
f 161/54/18 163/55/19 164/55/19
f 161/54/18 164/55/19 162/54/18
f 163/55/19 165/56/20 166/56/20
f 163/55/19 166/56/20 164/55/19
f 165/56/20 167/57/21 168/57/21
f 165/56/20 168/57/21 166/56/20
f 167/57/21 169/58/22 170/58/22
f 167/57/21 170/58/22 168/57/21
f 169/58/6 171/59/6 172/59/6
f 169/58/6 172/59/6 170/58/6
f 171/59/23 173/60/24 174/60/24
f 171/59/23 174/60/24 172/59/23
f 173/60/24 175/61/25 176/61/25
f 173/60/24 176/61/25 174/60/24
f 175/61/25 177/62/26 178/62/26
f 175/61/25 178/62/26 176/61/25
f 177/62/26 179/63/27 180/63/27
f 177/62/26 180/63/27 178/62/26
f 179/63/27 181/64/28 182/64/28
f 179/63/27 182/64/28 180/63/27
f 181/64/28 183/65/29 184/65/29
f 181/64/28 184/65/29 182/64/28
f 183/65/29 185/66/30 186/66/30
f 183/65/29 186/66/30 184/65/29
f 185/66/3 187/67/3 188/67/3
f 185/66/3 188/67/3 186/66/3
f 187/67/31 189/68/32 190/68/32
f 187/67/31 190/68/32 188/67/31
f 189/68/32 191/69/33 192/69/33
f 189/68/32 192/69/33 190/68/32
f 191/69/33 193/70/34 194/70/34
f 191/69/33 194/70/34 192/69/33
f 193/70/34 195/71/35 196/71/35
f 193/70/34 196/71/35 194/70/34
f 195/71/35 197/72/36 198/72/36
f 195/71/35 198/72/36 196/71/35
f 197/72/36 199/73/37 200/73/37
f 197/72/36 200/73/37 198/72/36
f 199/73/37 201/74/38 202/74/38
f 199/73/37 202/74/38 200/73/37
f 201/74/4 139/43/4 142/43/4
f 201/74/4 142/43/4 202/74/4
f 197/72/1 195/71/1 201/74/1
f 197/72/1 201/74/1 199/73/1
f 193/70/1 191/69/1 201/74/1
f 193/70/1 201/74/1 195/71/1
f 189/68/1 187/67/1 201/74/1
f 189/68/1 201/74/1 191/69/1
f 185/66/1 139/43/1 201/74/1
f 185/66/1 201/74/1 187/67/1
f 183/65/1 181/64/1 139/43/1
f 183/65/1 139/43/1 185/66/1
f 179/63/1 177/62/1 139/43/1
f 179/63/1 139/43/1 181/64/1
f 175/61/1 173/60/1 139/43/1
f 175/61/1 139/43/1 177/62/1
f 171/59/1 169/58/1 139/43/1
f 171/59/1 139/43/1 173/60/1
f 167/57/1 165/56/1 139/43/1
f 167/57/1 139/43/1 169/58/1
f 163/55/1 161/54/1 139/43/1
f 163/55/1 139/43/1 165/56/1
f 159/53/1 157/52/1 139/43/1
f 159/53/1 139/43/1 161/54/1
f 155/51/1 153/50/1 139/43/1
f 155/51/1 139/43/1 157/52/1
f 151/49/1 140/44/1 139/43/1
f 151/49/1 139/43/1 153/50/1
f 149/48/1 143/45/1 140/44/1
f 149/48/1 140/44/1 151/49/1
f 149/48/1 147/47/1 145/46/1
f 149/48/1 145/46/1 143/45/1
f 198/72/2 200/73/2 202/74/2
f 198/72/2 202/74/2 196/71/2
f 194/70/2 196/71/2 202/74/2
f 194/70/2 202/74/2 192/69/2
f 190/68/2 192/69/2 202/74/2
f 190/68/2 202/74/2 188/67/2
f 186/66/2 188/67/2 202/74/2
f 186/66/2 202/74/2 142/43/2
f 184/65/2 186/66/2 142/43/2
f 184/65/2 142/43/2 182/64/2
f 180/63/2 182/64/2 142/43/2
f 180/63/2 142/43/2 178/62/2
f 176/61/2 178/62/2 142/43/2
f 176/61/2 142/43/2 174/60/2
f 172/59/2 174/60/2 142/43/2
f 172/59/2 142/43/2 170/58/2
f 168/57/2 170/58/2 142/43/2
f 168/57/2 142/43/2 166/56/2
f 164/55/2 166/56/2 142/43/2
f 164/55/2 142/43/2 162/54/2
f 160/53/2 162/54/2 142/43/2
f 160/53/2 142/43/2 158/52/2
f 156/51/2 158/52/2 142/43/2
f 156/51/2 142/43/2 154/50/2
f 152/49/2 154/50/2 142/43/2
f 152/49/2 142/43/2 141/44/2
f 150/48/2 152/49/2 141/44/2
f 150/48/2 141/44/2 144/45/2
f 150/48/2 144/45/2 146/46/2
f 150/48/2 146/46/2 148/47/2
