# Produced by Art of Illusion 2.7.2, Sun Apr 26 14:15:55 CEST 2009
g plinthe
s 0
usemtl flblonde
v -25 0 18
v 25 0 18
v 25 0 -20
v -25 0 -20
v -25 3 18
v 25 3 18
v 25 3 -20
v -25 3 -20
v 0 1.5 18
v 25 1.5 -1
v 0 1.5 -20
v -25 1.5 -1
v 0 0 -1
v 0 3 -1
f 2 1 13
f 3 2 13
f 4 3 13
f 1 4 13
f 2 3 10
f 3 7 10
f 7 6 10
f 6 2 10
f 1 2 9
f 2 6 9
f 6 5 9
f 5 1 9
f 4 1 12
f 1 5 12
f 5 8 12
f 8 4 12
f 5 6 14
f 6 7 14
f 7 8 14
f 8 5 14
f 3 4 11
f 4 8 11
f 8 7 11
f 7 3 11
g caisson
usemtl flblonde
v -25 3 20
v 25 3 20
v 25 3 -20
v -25 3 -20
v -25 79 20
v 25 79 20
v 25 79 -20
v -25 79 -20
v 0 41 20
v 25 41 0
v 0 41 -20
v -25 41 0
v 0 3 0
v 0 79 0
v 23 5 20
v -23 5 20
v -23 40 20
v 23 40 20
v 23 5 -18
v -23 5 -18
v 23 40 -18
v -23 40 -18
v 23 22.5 2
v 0 22.5 -18
v -23 22.5 2
v 0 5 2
v 0 40 2
v 23 42 20
v -23 42 20
v -23 77 20
v 23 77 20
v 23 42 -18
v -23 42 -18
v 23 77 -18
v -23 77 -18
v 23 59.5 2
v 0 59.5 -18
v -23 59.5 2
v 0 42 2
v 0 77 2
vn 0 -1 0
vn 0 -1 0
vn -1 0 0
vn -1 0 0
vn 0 0 1
vn 0 0 1
vn 0 -1 0
vn 0 -1 0
vn 1 0 0
vn 1 0 0
vn 0 0 1
vn 0 0 1
vn 0 -1 0
vn 0 -1 0
vn 0 0 -1
vn 0 0 -1
vn 1 0 0
vn 1 0 0
vn 0 -1 0
vn 0 -1 0
vn -1 0 0
vn -1 0 0
vn 0 0 -1
vn 0 0 -1
vn -1 0 0
vn 0 1 0
vn 0 1 0
vn 0 0 1
vn 0 0 1
vn -1 0 0
vn 1 0 0
vn 1 0 0
vn 0 0 1
vn 0 0 1
vn 0 1 0
vn 0 1 0
vn 1 0 0
vn 1 0 0
vn 0 0 -1
vn 0 0 -1
vn 0 1 0
vn 0 1 0
vn -1 0 0
vn -1 0 0
vn 0 1 0
vn 0 1 0
vn 0 0 -1
vn 0 0 -1
vn 0 0 1
vn 0 0 1
vn 1 0 0
vn 1 0 0
vn 1 0 0
vn 1 0 0
vn 0 0 -1
vn 0 0 -1
vn 0 0 -1
vn 0 0 -1
vn -1 0 0
vn -1 0 0
vn -1 0 0
vn -1 0 0
vn 0 -1 0
vn 0 -1 0
vn 0 -1 0
vn 0 -1 0
vn 0 1 0
vn 0 1 0
vn 0 1 0
vn 0 1 0
vn 0 0 1
vn -1 0 -0
vn -1 0 -0
vn 0 1 0
vn 0 1 0
vn 0 0 1
vn 0 1 0
vn 0 0 1
vn 0 0 1
vn 1 0 0
vn 1 0 0
vn 0 -1 0
vn 0 -1 0
vn 1 0 0
vn 1 0 0
vn 0 0 1
vn 0 0 1
vn -1 0 0
vn 0 -1 0
vn 0 -1 0
vn 0 0 1
vn -1 0 -0
vn 0 0 1
vn 0 0 1
vn -1 0 0
vn -1 0 -0
vn 0 1 0
vn 0 1 0
vn 0 1 0
vn 1 0 0
vn 1 0 0
vn 0 0 1
vn 0 0 1
vn 0 1 0
vn 0 0 1
vn 0 -1 0
vn 0 -1 0
vn -1 0 0
vn -1 0 0
vn 0 0 1
vn 1 0 0
vn 0 -1 0
vn 0 -1 0
vn 0 0 1
vn 0 0 1
vn 1 0 0
vn -1 0 0
vn -1 0 0
vn -1 0 -0
vn -1 0 -0
vn 0 0 1
vn 0 0 1
vn 0 0 1
vn 0 0 1
vn 1 0 0
vn 1 0 0
vn 1 0 0
vn 1 0 0
vn 0 1 0
vn 0 1 0
vn 0 1 0
vn 0 -1 0
vn 0 -1 0
vn 0 -1 0
vn 0 -1 0
vn -1 0 -0
vn 0 0 1
vn 0 0 1
vn 0 1 0
vn 0 1 0
vn -1 0 -0
vn 1 0 0
vn 1 0 0
vn 0 1 0
vn 0 1 0
vn 0 0 1
vn 1 0 0
vn 0 0 1
vn 0 0 1
vn -0 -1 -0
vn 0 -1 0
vn 1 0 0
vn -0 -1 -0
vn -0 -1 -0
vn 0 0 1
vn 0 0 1
vn -1 0 -0
vn -1 0 0
vn 0 0 1
vn -1 0 0
vn -1 0 -0
vn 0 1 0
vn 0 1 0
vn 0 0 1
vn 0 0 1
vn 0 0 1
vn 0 1 0
vn 0 1 0
vn 1 0 0
vn 1 0 0
vn -0 -1 -0
vn -1 0 0
vn -1 0 0
vn 0 0 1
vn 0 0 1
vn 0 -1 0
vn 0 0 1
vn 0 0 1
vn 0 -1 0
vn 0 -1 0
vn 1 0 0
vn 1 0 0
vn -1 0 -0
vn -1 0 0
vn -1 0 0
vn -1 0 -0
vn 0 0 1
vn 0 0 1
vn 0 0 1
vn 0 0 1
vn 1 0 0
vn 1 0 0
vn 1 0 0
vn 1 0 0
vn 0 1 0
vn 0 1 0
vn 0 1 0
vn 0 1 0
vn -0 -1 -0
vn -0 -1 -0
vn 0 -1 0
vn 0 -1 0
f 16//7 15//1 27//63
f 17//13 16//8 27//66
f 18//19 17//14 27//65
f 15//2 18//20 27//64
f 16//9 17//18 24//51
f 17//17 21//38 24//52
f 21//37 20//31 24//53
f 20//32 16//10 24//54
f 18//21 15//3 26//59
f 15//4 19//30 26//60
f 19//25 22//44 26//61
f 22//43 18//22 26//62
f 19//27 20//35 28//67
f 20//36 21//42 28//68
f 21//41 22//46 28//69
f 22//45 19//26 28//70
f 17//15 18//24 25//55
f 18//23 22//48 25//56
f 22//47 21//40 25//57
f 21//39 17//16 25//58
f 30//77 40//129 34//99
f 16//12 29//76 15//6
f 32//88 35//108 37//117
f 16//11 20//33 29//71
f 41//132 32//90 31//82
f 19//29 15//5 30//79
f 31//84 39//125 36//111
f 35//105 36//114 38//121
f 15//6 29//76 30//78
f 34//103 33//93 38//123
f 29//71 20//33 32//91
f 33//98 34//104 40//131
f 19//29 30//79 31//86
f 35//109 33//95 37//118
f 33//94 35//110 38//124
f 37//119 33//96 29//73
f 31//83 36//112 41//133
f 32//89 41//135 35//107
f 36//113 35//106 41//134
f 39//126 31//85 30//80
f 29//75 40//129 30//77
f 29//74 33//97 40//130
f 36//115 34//102 38//122
f 23//50 31//87 32//91
f 34//100 39//127 30//81
f 37//120 29//72 32//92
f 34//101 36//116 39//128
f 50//183 42//136 45//157
f 43//142 52//191 44//147
f 23//50 32//91 42//137
f 23//49 42//138 43//146
f 31//86 23//49 43//146
f 45//153 54//199 48//171
f 53//195 43//145 42//139
f 20//34 19//28 45//155
f 46//159 48//174 51//187
f 49//177 47//165 51//189
f 32//91 20//33 42//137
f 48//172 50//184 45//158
f 19//29 31//86 43//146
f 43//143 47//169 52//192
f 42//140 46//162 53//196
f 43//144 53//198 47//168
f 54//200 45//154 44//150
f 52//194 49//181 44//152
f 44//151 49//180 54//201
f 42//141 50//186 46//161
f 44//149 45//155 19//28
f 48//175 49//178 51//188
f 20//33 45//156 42//137
f 44//148 19//29 43//146
f 46//163 47//167 53//197
f 48//173 46//160 50//185
f 47//170 49//182 52//193
f 49//179 48//176 54//202
f 47//166 46//164 51//190
s 0
g cote_gauche
usemtl flblonde
v -25 79 5
v -23 79 5
v -23 79 -20
v -25 79 -20
v -25 229 5
v -23 229 5
v -23 229 -20
v -25 229 -20
v -24 154 5
v -23 154 -7.5
v -24 154 -20
v -25 154 -7.5
v -24 79 -7.5
v -24 229 -7.5
f 56 55 67
f 57 56 67
f 58 57 67
f 55 58 67
f 56 57 64
f 57 61 64
f 61 60 64
f 60 56 64
f 55 56 63
f 56 60 63
f 60 59 63
f 59 55 63
f 58 55 66
f 55 59 66
f 59 62 66
f 62 58 66
f 59 60 68
f 60 61 68
f 61 62 68
f 62 59 68
f 57 58 65
f 58 62 65
f 62 61 65
f 61 57 65
s 0
g cote_droit
usemtl flblonde
v 23 79 5
v 25 79 5
v 25 79 -20
v 23 79 -20
v 23 229 5
v 25 229 5
v 25 229 -20
v 23 229 -20
v 24 154 5
v 25 154 -7.5
v 24 154 -20
v 23 154 -7.5
v 24 79 -7.5
v 24 229 -7.5
f 70 69 81
f 71 70 81
f 72 71 81
f 69 72 81
f 70 71 78
f 71 75 78
f 75 74 78
f 74 70 78
f 69 70 77
f 70 74 77
f 74 73 77
f 73 69 77
f 72 69 80
f 69 73 80
f 73 76 80
f 76 72 80
f 73 74 82
f 74 75 82
f 75 76 82
f 76 73 82
f 71 72 79
f 72 76 79
f 76 75 79
f 75 71 79
s 0
g planche1
usemtl flblonde
v -23 103 5
v 23 103 5
v 23 103 -20
v -23 103 -20
v -23 105 5
v 23 105 5
v 23 105 -20
v -23 105 -20
v 0 104 5
v 23 104 -7.5
v 0 104 -20
v -23 104 -7.5
v 0 103 -7.5
v 0 105 -7.5
f 84 83 95
f 85 84 95
f 86 85 95
f 83 86 95
f 84 85 92
f 85 89 92
f 89 88 92
f 88 84 92
f 83 84 91
f 84 88 91
f 88 87 91
f 87 83 91
f 86 83 94
f 83 87 94
f 87 90 94
f 90 86 94
f 87 88 96
f 88 89 96
f 89 90 96
f 90 87 96
f 85 86 93
f 86 90 93
f 90 89 93
f 89 85 93
s 0
g planche2
usemtl flblonde
v -23 128 5
v 23 128 5
v 23 128 -20
v -23 128 -20
v -23 130 5
v 23 130 5
v 23 130 -20
v -23 130 -20
v 0 129 5
v 23 129 -7.5
v 0 129 -20
v -23 129 -7.5
v 0 128 -7.5
v 0 130 -7.5
f 98 97 109
f 99 98 109
f 100 99 109
f 97 100 109
f 98 99 106
f 99 103 106
f 103 102 106
f 102 98 106
f 97 98 105
f 98 102 105
f 102 101 105
f 101 97 105
f 100 97 108
f 97 101 108
f 101 104 108
f 104 100 108
f 101 102 110
f 102 103 110
f 103 104 110
f 104 101 110
f 99 100 107
f 100 104 107
f 104 103 107
f 103 99 107
s 0
g planche3
usemtl flblonde
v -23 153 5
v 23 153 5
v 23 153 -20
v -23 153 -20
v -23 155 5
v 23 155 5
v 23 155 -20
v -23 155 -20
v 0 154 5
v 23 154 -7.5
v 0 154 -20
v -23 154 -7.5
v 0 153 -7.5
v 0 155 -7.5
f 112 111 123
f 113 112 123
f 114 113 123
f 111 114 123
f 112 113 120
f 113 117 120
f 117 116 120
f 116 112 120
f 111 112 119
f 112 116 119
f 116 115 119
f 115 111 119
f 114 111 122
f 111 115 122
f 115 118 122
f 118 114 122
f 115 116 124
f 116 117 124
f 117 118 124
f 118 115 124
f 113 114 121
f 114 118 121
f 118 117 121
f 117 113 121
s 0
g planche4
usemtl flblonde
v -23 178 5
v 23 178 5
v 23 178 -20
v -23 178 -20
v -23 180 5
v 23 180 5
v 23 180 -20
v -23 180 -20
v 0 179 5
v 23 179 -7.5
v 0 179 -20
v -23 179 -7.5
v 0 178 -7.5
v 0 180 -7.5
f 126 125 137
f 127 126 137
f 128 127 137
f 125 128 137
f 126 127 134
f 127 131 134
f 131 130 134
f 130 126 134
f 125 126 133
f 126 130 133
f 130 129 133
f 129 125 133
f 128 125 136
f 125 129 136
f 129 132 136
f 132 128 136
f 129 130 138
f 130 131 138
f 131 132 138
f 132 129 138
f 127 128 135
f 128 132 135
f 132 131 135
f 131 127 135
s 0
g planche5
usemtl flblonde
v -23 203 5
v 23 203 5
v 23 203 -20
v -23 203 -20
v -23 205 5
v 23 205 5
v 23 205 -20
v -23 205 -20
v 0 204 5
v 23 204 -7.5
v 0 204 -20
v -23 204 -7.5
v 0 203 -7.5
v 0 205 -7.5
f 140 139 151
f 141 140 151
f 142 141 151
f 139 142 151
f 140 141 148
f 141 145 148
f 145 144 148
f 144 140 148
f 139 140 147
f 140 144 147
f 144 143 147
f 143 139 147
f 142 139 150
f 139 143 150
f 143 146 150
f 146 142 150
f 143 144 152
f 144 145 152
f 145 146 152
f 146 143 152
f 141 142 149
f 142 146 149
f 146 145 149
f 145 141 149
s 0
g planche6
usemtl flblonde
v -23 227 5
v 23 227 5
v 23 227 -20
v -23 227 -20
v -23 229 5
v 23 229 5
v 23 229 -20
v -23 229 -20
v 0 228 5
v 23 228 -7.5
v 0 228 -20
v -23 228 -7.5
v 0 227 -7.5
v 0 229 -7.5
f 154 153 165
f 155 154 165
f 156 155 165
f 153 156 165
f 154 155 162
f 155 159 162
f 159 158 162
f 158 154 162
f 153 154 161
f 154 158 161
f 158 157 161
f 157 153 161
f 156 153 164
f 153 157 164
f 157 160 164
f 160 156 164
f 157 158 166
f 158 159 166
f 159 160 166
f 160 157 166
f 155 156 163
f 156 160 163
f 160 159 163
f 159 155 163
s 0
g porte
usemtl flblonde
v 23 5 18.1
v -23 5 18.1
v -23 5 20.1
v 23 5 20.1
v 23 77 18.1
v -23 77 18.1
v -23 77 20.1
v 23 77 20.1
v -0 41 18.1
v -23 41 19.1
v 0 41 20.1
v 23 41 19.1
v 0 5 19.1
v 0 77 19.1
f 168 167 179
f 169 168 179
f 170 169 179
f 167 170 179
f 168 169 176
f 169 173 176
f 173 172 176
f 172 168 176
f 167 168 175
f 168 172 175
f 172 171 175
f 171 167 175
f 170 167 178
f 167 171 178
f 171 174 178
f 174 170 178
f 171 172 180
f 172 173 180
f 173 174 180
f 174 171 180
f 169 170 177
f 170 174 177
f 174 173 177
f 173 169 177
