# bordure.obj Produced by Art of Illusion 3.0.2, Thu Aug 13 08:44:15 CEST 2015 and Blender v2.76 
#
# Created by Roger Lonqueux
# Simplified by Emmanuel Puybaret / eTeks
#
# This file is distributed under Free Art License, see http://artlibre.org/licence/lal/en for more informations
#
mtllib bordure2.mtl
g Cube_1
v 22.497192 -12.000000 1.499998
v -22.497192 -12.000000 1.499998
v 0.000000 -12.000000 -0.000002
v 22.497192 -12.000000 -1.500002
v -22.497192 -12.000000 -1.500002
v 22.497192 -6.000000 -0.000001
v 22.497192 0.000000 -1.500000
v 22.497192 -0.000000 1.500000
v 0.000000 -6.000000 1.499999
v -22.497192 -0.000000 1.500000
v -22.497192 -6.000000 -0.000001
v -22.497192 0.000000 -1.500000
v 0.000000 0.000000 0.000000
v 0.000000 -6.000000 -1.500001
vn 0.000000 -1.000000 0.000000
vn 1.000000 0.000000 0.000000
vn 0.000000 -0.000000 1.000000
vn -1.000000 0.000000 0.000000
vn 0.000000 1.000000 0.000000
vn 0.000000 0.000000 -1.000000
usemtl flltgrey
s off
f 1//1 2//1 3//1
f 4//1 1//1 3//1
f 5//1 4//1 3//1
f 2//1 5//1 3//1
f 1//2 4//2 6//2
f 4//2 7//2 6//2
f 7//2 8//2 6//2
f 8//2 1//2 6//2
f 2//3 1//3 9//3
f 1//3 8//3 9//3
f 8//3 10//3 9//3
f 10//3 2//3 9//3
f 5//4 2//4 11//4
f 2//4 10//4 11//4
f 10//4 12//4 11//4
f 12//4 5//4 11//4
f 10//5 8//5 13//5
f 8//5 7//5 13//5
f 7//5 12//5 13//5
f 12//5 10//5 13//5
f 4//6 5//6 14//6
f 5//6 12//6 14//6
f 12//6 7//6 14//6
f 7//6 4//6 14//6
g Cylinder_1
v 6.000000 -0.000000 1.500000
v 0.000000 -0.000000 1.500000
v -6.000000 -0.000000 1.500000
v -5.543280 2.296110 1.500000
v -4.242630 4.242630 1.500001
v -2.296110 5.543279 1.500001
v 0.000000 6.000000 1.500001
v 2.296110 5.543279 1.500001
v 4.242630 4.242630 1.500001
v 5.543280 2.296110 1.500000
v 6.000000 0.000000 -1.500000
v -6.000000 0.000000 -1.500000
v -5.543280 2.296110 -1.500000
v -4.242630 4.242630 -1.499999
v -2.296110 5.543280 -1.499999
v 0.000000 6.000000 -1.499999
v 2.296110 5.543280 -1.499999
v 4.242630 4.242630 -1.499999
v 5.543280 2.296110 -1.500000
v 0.000000 0.000000 -1.500000
vn 0.000000 -0.000000 1.000000
vn -1.000000 -0.000000 -0.000000
vn -0.923900 0.382700 -0.000000
vn -0.707100 0.707100 -0.000000
vn -0.382700 0.923900 -0.000000
vn 0.000000 1.000000 -0.000000
vn 0.382700 0.923900 -0.000000
vn 0.707100 0.707100 -0.000000
vn 0.707100 0.707100 -0.000100
vn 0.923900 0.382700 -0.000000
vn 1.000000 -0.000000 -0.000000
vn -0.707100 0.707100 0.000100
vn 0.000000 0.000000 -1.000000
usemtl flltgrey
s off
f 18//7 17//7 16//7
f 19//7 18//7 16//7
f 20//7 19//7 16//7
f 21//7 20//7 16//7
f 22//7 21//7 16//7
f 23//7 22//7 16//7
f 24//7 23//7 16//7
f 15//7 24//7 16//7
f 26//8 17//8 18//9
f 27//9 18//9 19//10
f 28//10 19//10 20//11
f 29//11 20//11 21//12
f 30//12 21//12 22//13
f 31//13 22//13 23//14
f 32//14 23//15 24//16
f 33//16 24//16 15//17
f 26//8 18//9 27//9
f 27//9 19//10 28//18
f 28//10 20//11 29//11
f 29//11 21//12 30//12
f 30//12 22//13 31//13
f 31//13 23//14 32//14
f 32//14 24//16 33//16
f 33//16 15//17 25//17
f 34//19 26//19 27//19
f 34//19 27//19 28//19
f 34//19 28//19 29//19
f 34//19 29//19 30//19
f 34//19 30//19 31//19
f 34//19 31//19 32//19
f 34//19 32//19 33//19
f 34//19 33//19 25//19
g Cylinder_2
v -9.000000 -0.000000 1.500000
v -15.000000 -0.000000 1.500000
v -21.000000 -0.000000 1.500000
v -20.543282 2.296110 1.500000
v -19.242630 4.242630 1.500001
v -17.296110 5.543279 1.500001
v -15.000000 6.000000 1.500001
v -12.703890 5.543279 1.500001
v -10.757370 4.242630 1.500001
v -9.456720 2.296110 1.500000
v -9.000000 0.000000 -1.500000
v -21.000000 0.000000 -1.500000
v -20.543282 2.296110 -1.500000
v -19.242630 4.242630 -1.499999
v -17.296110 5.543280 -1.499999
v -15.000000 6.000000 -1.499999
v -12.703890 5.543280 -1.499999
v -10.757370 4.242630 -1.499999
v -9.456720 2.296110 -1.500000
v -15.000000 0.000000 -1.500000
vn 0.000000 -0.000000 1.000000
vn -1.000000 -0.000000 -0.000000
vn -0.923900 0.382700 -0.000000
vn -0.707100 0.707100 -0.000000
vn -0.382700 0.923900 -0.000000
vn 0.000000 1.000000 -0.000000
vn 0.382700 0.923900 -0.000000
vn 0.707100 0.707100 -0.000000
vn 0.923900 0.382700 -0.000000
vn 1.000000 -0.000000 -0.000000
vn -0.923900 0.382700 0.000100
vn 0.000000 0.000000 -1.000000
usemtl flltgrey
s off
f 38//20 37//20 36//20
f 39//20 38//20 36//20
f 40//20 39//20 36//20
f 41//20 40//20 36//20
f 42//20 41//20 36//20
f 43//20 42//20 36//20
f 44//20 43//20 36//20
f 35//20 44//20 36//20
f 46//21 37//21 38//22
f 47//22 38//22 39//23
f 48//23 39//23 40//24
f 49//24 40//24 41//25
f 50//25 41//25 42//26
f 51//26 42//26 43//27
f 52//27 43//27 44//28
f 53//28 44//28 35//29
f 46//21 38//22 47//30
f 47//22 39//23 48//23
f 48//23 40//24 49//24
f 49//24 41//25 50//25
f 50//25 42//26 51//26
f 51//26 43//27 52//27
f 52//27 44//28 53//28
f 53//28 35//29 45//29
f 54//31 46//31 47//31
f 54//31 47//31 48//31
f 54//31 48//31 49//31
f 54//31 49//31 50//31
f 54//31 50//31 51//31
f 54//31 51//31 52//31
f 54//31 52//31 53//31
f 54//31 53//31 45//31
g Cylinder_3
v 21.000000 -0.000000 1.500000
v 15.000000 -0.000000 1.500000
v 9.000000 -0.000000 1.500000
v 9.456720 2.296110 1.500000
v 10.757370 4.242630 1.500001
v 12.703890 5.543279 1.500001
v 15.000000 6.000000 1.500001
v 17.296110 5.543279 1.500001
v 19.242630 4.242630 1.500001
v 20.543282 2.296110 1.500000
v 21.000000 0.000000 -1.500000
v 9.000000 0.000000 -1.500000
v 9.456720 2.296110 -1.500000
v 10.757370 4.242630 -1.499999
v 12.703890 5.543280 -1.499999
v 15.000000 6.000000 -1.499999
v 17.296110 5.543280 -1.499999
v 19.242630 4.242630 -1.499999
v 20.543282 2.296110 -1.500000
v 15.000000 0.000000 -1.500000
vn 0.000000 -0.000000 1.000000
vn -1.000000 -0.000000 -0.000000
vn -0.923900 0.382700 -0.000000
vn -0.707100 0.707100 -0.000000
vn -0.382700 0.923900 -0.000000
vn 0.000000 1.000000 -0.000000
vn 0.382700 0.923900 -0.000000
vn 0.707100 0.707100 -0.000000
vn 0.923900 0.382700 -0.000000
vn 0.923900 0.382700 -0.000100
vn 1.000000 -0.000000 -0.000000
vn 0.000000 0.000000 -1.000000
usemtl flltgrey
s off
f 58//32 57//32 56//32
f 59//32 58//32 56//32
f 60//32 59//32 56//32
f 61//32 60//32 56//32
f 62//32 61//32 56//32
f 63//32 62//32 56//32
f 64//32 63//32 56//32
f 55//32 64//32 56//32
f 66//33 57//33 58//34
f 67//34 58//34 59//35
f 68//35 59//35 60//36
f 69//36 60//36 61//37
f 70//37 61//37 62//38
f 71//38 62//38 63//39
f 72//39 63//39 64//40
f 73//40 64//41 55//42
f 66//33 58//34 67//34
f 67//34 59//35 68//35
f 68//35 60//36 69//36
f 69//36 61//37 70//37
f 70//37 62//38 71//38
f 71//38 63//39 72//39
f 72//39 64//40 73//40
f 73//40 55//42 65//42
f 74//43 66//43 67//43
f 74//43 67//43 68//43
f 74//43 68//43 69//43
f 74//43 69//43 70//43
f 74//43 70//43 71//43
f 74//43 71//43 72//43
f 74//43 72//43 73//43
f 74//43 73//43 65//43
