# cloture.obj Produced by Art of Illusion 3.0.2, Thu Aug 13 18:23:38 CEST 2015 and Blender v2.76 
#
# Created by Roger Lonqueux
# Modified by Emmanuel Puybaret / eTeks
#
# This file is distributed under Free Art License, see http://artlibre.org/licence/lal/en for more informations
#
g pointe_poteau2
v 57.021606 96.000000 2.828416
v 53.021606 96.000000 2.828416
v 55.021606 94.585800 1.414215
v 57.021606 93.171600 0.000015
v 53.021606 93.171600 0.000015
v 57.021606 96.000000 0.000016
v 57.021606 96.000000 -2.828384
v 57.021606 98.828400 0.000016
v 55.021606 97.414200 1.414216
v 53.021606 98.828400 0.000016
v 53.021606 96.000000 0.000016
v 53.021606 96.000000 -2.828384
v 55.021606 97.414200 -1.414184
v 55.021606 94.585800 -1.414185
vn 0.000000 -0.707100 0.707100
vn 1.000000 0.000000 0.000000
vn 0.000000 0.707100 0.707100
vn -1.000000 0.000000 0.000000
vn 0.000000 0.707100 -0.707100
vn 0.000000 -0.707100 -0.707100
usemtl yellow_green
s off
f 1//1 2//1 3//1
f 4//1 1//1 3//1
f 5//1 4//1 3//1
f 2//1 5//1 3//1
f 1//2 4//2 6//2
f 4//2 7//2 6//2
f 7//2 8//2 6//2
f 8//2 1//2 6//2
f 2//3 1//3 9//3
f 1//3 8//3 9//3
f 8//3 10//3 9//3
f 10//3 2//3 9//3
f 5//4 2//4 11//4
f 2//4 10//4 11//4
f 10//4 12//4 11//4
f 12//4 5//4 11//4
f 10//5 8//5 13//5
f 8//5 7//5 13//5
f 7//5 12//5 13//5
f 12//5 10//5 13//5
f 4//6 5//6 14//6
f 5//6 12//6 14//6
f 12//6 7//6 14//6
f 7//6 4//6 14//6
g poteau2
v 57.021606 -18.750000 1.999997
v 53.021606 -18.750000 1.999997
v 55.021606 -18.750000 -0.000003
v 57.021606 -18.750000 -2.000003
v 53.021606 -18.750000 -2.000003
v 57.021606 37.500000 0.000006
v 57.021606 93.750000 -1.999985
v 57.021606 93.750000 2.000015
v 55.021606 37.500000 2.000006
v 53.021606 93.750000 2.000015
v 53.021606 37.500000 0.000006
v 53.021606 93.750000 -1.999985
v 55.021606 93.750000 0.000015
v 55.021606 37.500000 -1.999994
vn 0.000000 -1.000000 0.000000
vn 1.000000 0.000000 0.000000
vn 0.000000 -0.000000 1.000000
vn -1.000000 0.000000 0.000000
vn 0.000000 1.000000 0.000000
vn 0.000000 0.000000 -1.000000
usemtl green
s off
f 15//7 16//7 17//7
f 18//7 15//7 17//7
f 19//7 18//7 17//7
f 16//7 19//7 17//7
f 15//8 18//8 20//8
f 18//8 21//8 20//8
f 21//8 22//8 20//8
f 22//8 15//8 20//8
f 16//9 15//9 23//9
f 15//9 22//9 23//9
f 22//9 24//9 23//9
f 24//9 16//9 23//9
f 19//10 16//10 25//10
f 16//10 24//10 25//10
f 24//10 26//10 25//10
f 26//10 19//10 25//10
f 24//11 22//11 27//11
f 22//11 21//11 27//11
f 21//11 26//11 27//11
f 26//11 24//11 27//11
f 18//12 19//12 28//12
f 19//12 26//12 28//12
f 26//12 21//12 28//12
f 21//12 18//12 28//12
g fil1-8
v -56.422585 90.000000 -0.499985
v -56.422585 89.500000 0.000015
v -56.422585 90.000000 0.000015
v -56.422585 90.500000 0.000015
v -56.422585 90.000000 0.500015
v 53.062057 89.500000 0.000015
v 53.062057 90.000000 -0.499985
v 53.062057 90.500000 0.000015
v 53.062057 90.000000 0.500015
v 53.062057 90.000000 0.000015
vn -1.000000 -0.000000 0.000000
vn 0.000000 -1.000000 0.000000
vn 0.000000 0.000000 -1.000000
vn 0.000000 1.000000 0.000000
vn 0.000000 -0.000000 1.000000
vn 1.000000 0.000000 0.000000
usemtl mintgrn
s 1
f 29//13 30//13 31//13
f 32//13 29//13 31//13
f 33//13 32//13 31//13
f 30//13 33//13 31//13
f 34//14 30//14 29//15
f 35//15 29//15 32//16
f 36//16 32//16 33//17
f 37//17 33//17 30//14
f 34//14 29//15 35//15
f 35//15 32//16 36//16
f 36//16 33//17 37//17
f 37//17 30//14 34//14
f 38//18 34//18 35//18
f 38//18 35//18 36//18
f 38//18 36//18 37//18
f 38//18 37//18 34//18
g fil7
v 13.536455 17.500000 -0.499997
v 14.036455 17.500000 0.000003
v 13.536455 17.500000 0.000003
v 13.036455 17.500000 0.000003
v 13.536455 17.500000 0.500003
v 14.036455 92.500000 0.000015
v 13.536455 92.500000 -0.499985
v 13.036455 92.500000 0.000015
v 13.536455 92.500000 0.500015
v 13.536455 92.500000 0.000015
vn 0.000000 -1.000000 0.000000
vn 1.000000 -0.000000 -0.000000
vn 0.000000 0.000000 -1.000000
vn -1.000000 0.000000 -0.000000
vn -0.000000 -0.000000 1.000000
vn 0.000000 1.000000 0.000000
usemtl mintgrn
s 1
f 39//19 40//19 41//19
f 42//19 39//19 41//19
f 43//19 42//19 41//19
f 40//19 43//19 41//19
f 44//20 40//20 39//21
f 45//21 39//21 42//22
f 46//22 42//22 43//23
f 47//23 43//23 40//20
f 44//20 39//21 45//21
f 45//21 42//22 46//22
f 46//22 43//23 47//23
f 47//23 40//20 44//20
f 48//24 44//24 45//24
f 48//24 45//24 46//24
f 48//24 46//24 47//24
f 48//24 47//24 44//24
g fil1-4
v -56.422585 50.000000 -0.499992
v -56.422585 49.500000 0.000008
v -56.422585 50.000000 0.000008
v -56.422585 50.500000 0.000008
v -56.422585 50.000000 0.500008
v 53.062057 49.500000 0.000008
v 53.062057 50.000000 -0.499992
v 53.062057 50.500000 0.000008
v 53.062057 50.000000 0.500008
v 53.062057 50.000000 0.000008
vn -1.000000 -0.000000 0.000000
vn 0.000000 -1.000000 0.000000
vn 0.000000 0.000000 -1.000000
vn 0.000000 1.000000 0.000000
vn 0.000000 -0.000000 1.000000
vn 1.000000 0.000000 0.000000
usemtl mintgrn
s 1
f 49//25 50//25 51//25
f 52//25 49//25 51//25
f 53//25 52//25 51//25
f 50//25 53//25 51//25
f 54//26 50//26 49//27
f 55//27 49//27 52//28
f 56//28 52//28 53//29
f 57//29 53//29 50//26
f 54//26 49//27 55//27
f 55//27 52//28 56//28
f 56//28 53//29 57//29
f 57//29 50//26 54//26
f 58//30 54//30 55//30
f 58//30 55//30 56//30
f 58//30 56//30 57//30
f 58//30 57//30 54//30
g poteau
v -56.000000 -18.750000 1.999997
v -60.000000 -18.750000 1.999997
v -58.000000 -18.750000 -0.000003
v -56.000000 -18.750000 -2.000003
v -60.000000 -18.750000 -2.000003
v -56.000000 37.500000 0.000006
v -56.000000 93.750000 -1.999985
v -56.000000 93.750000 2.000015
v -58.000000 37.500000 2.000006
v -60.000000 93.750000 2.000015
v -60.000000 37.500000 0.000006
v -60.000000 93.750000 -1.999985
v -58.000000 93.750000 0.000015
v -58.000000 37.500000 -1.999994
vn 0.000000 -1.000000 0.000000
vn 1.000000 0.000000 0.000000
vn 0.000000 -0.000000 1.000000
vn -1.000000 -0.000000 0.000000
vn 0.000000 1.000000 0.000000
vn 0.000000 0.000000 -1.000000
usemtl green
s off
f 59//31 60//31 61//31
f 62//31 59//31 61//31
f 63//31 62//31 61//31
f 60//31 63//31 61//31
f 59//32 62//32 64//32
f 62//32 65//32 64//32
f 65//32 66//32 64//32
f 66//32 59//32 64//32
f 60//33 59//33 67//33
f 59//33 66//33 67//33
f 66//33 68//33 67//33
f 68//33 60//33 67//33
f 63//34 60//34 69//34
f 60//34 68//34 69//34
f 68//34 70//34 69//34
f 70//34 63//34 69//34
f 68//35 66//35 71//35
f 66//35 65//35 71//35
f 65//35 70//35 71//35
f 70//35 68//35 71//35
f 62//36 63//36 72//36
f 63//36 70//36 72//36
f 70//36 65//36 72//36
f 65//36 62//36 72//36
g fil10
v 43.536453 17.500000 -0.499997
v 44.036453 17.500000 0.000003
v 43.536453 17.500000 0.000003
v 43.036453 17.500000 0.000003
v 43.536453 17.500000 0.500003
v 44.036453 92.500000 0.000015
v 43.536453 92.500000 -0.499985
v 43.036453 92.500000 0.000015
v 43.536453 92.500000 0.500015
v 43.536453 92.500000 0.000015
vn 0.000000 -1.000000 0.000000
vn 1.000000 0.000000 -0.000000
vn 0.000000 0.000000 -1.000000
vn -1.000000 0.000000 -0.000000
vn -0.000000 -0.000000 1.000000
vn 0.000000 1.000000 0.000000
usemtl mintgrn
s 1
f 73//37 74//37 75//37
f 76//37 73//37 75//37
f 77//37 76//37 75//37
f 74//37 77//37 75//37
f 78//38 74//38 73//39
f 79//39 73//39 76//40
f 80//40 76//40 77//41
f 81//41 77//41 74//38
f 78//38 73//39 79//39
f 79//39 76//40 80//40
f 80//40 77//41 81//41
f 81//41 74//38 78//38
f 82//42 78//42 79//42
f 82//42 79//42 80//42
f 82//42 80//42 81//42
f 82//42 81//42 78//42
g fil1-2
v -56.422585 30.000000 -0.499995
v -56.422585 29.500000 0.000005
v -56.422585 30.000000 0.000005
v -56.422585 30.500000 0.000005
v -56.422585 30.000000 0.500005
v 53.062057 29.500000 0.000005
v 53.062057 30.000000 -0.499995
v 53.062057 30.500000 0.000005
v 53.062057 30.000000 0.500005
v 53.062057 30.000000 0.000005
vn -1.000000 -0.000000 0.000000
vn 0.000000 -1.000000 0.000000
vn 0.000000 0.000000 -1.000000
vn 0.000000 1.000000 0.000000
vn 0.000000 -0.000000 1.000000
vn 1.000000 0.000000 0.000000
usemtl mintgrn
s 1
f 83//43 84//43 85//43
f 86//43 83//43 85//43
f 87//43 86//43 85//43
f 84//43 87//43 85//43
f 88//44 84//44 83//45
f 89//45 83//45 86//46
f 90//46 86//46 87//47
f 91//47 87//47 84//44
f 88//44 83//45 89//45
f 89//45 86//46 90//46
f 90//46 87//47 91//47
f 91//47 84//44 88//44
f 92//48 88//48 89//48
f 92//48 89//48 90//48
f 92//48 90//48 91//48
f 92//48 91//48 88//48
g fil2
v -36.463547 17.500000 -0.499997
v -35.963547 17.500000 0.000003
v -36.463547 17.500000 0.000003
v -36.963547 17.500000 0.000003
v -36.463547 17.500000 0.500003
v -35.963547 92.500000 0.000015
v -36.463547 92.500000 -0.499985
v -36.963547 92.500000 0.000015
v -36.463547 92.500000 0.500015
v -36.463547 92.500000 0.000015
vn 0.000000 -1.000000 0.000000
vn 1.000000 -0.000000 -0.000000
vn 0.000000 0.000000 -1.000000
vn -1.000000 -0.000000 -0.000000
vn -0.000000 -0.000000 1.000000
vn 0.000000 1.000000 0.000000
usemtl mintgrn
s 1
f 93//49 94//49 95//49
f 96//49 93//49 95//49
f 97//49 96//49 95//49
f 94//49 97//49 95//49
f 98//50 94//50 93//51
f 99//51 93//51 96//52
f 100//52 96//52 97//53
f 101//53 97//53 94//50
f 98//50 93//51 99//51
f 99//51 96//52 100//52
f 100//52 97//53 101//53
f 101//53 94//50 98//50
f 102//54 98//54 99//54
f 102//54 99//54 100//54
f 102//54 100//54 101//54
f 102//54 101//54 98//54
g fil3
v -26.463545 17.500000 -0.499997
v -25.963545 17.500000 0.000003
v -26.463545 17.500000 0.000003
v -26.963545 17.500000 0.000003
v -26.463545 17.500000 0.500003
v -25.963545 92.500000 0.000015
v -26.463545 92.500000 -0.499985
v -26.963545 92.500000 0.000015
v -26.463545 92.500000 0.500015
v -26.463545 92.500000 0.000015
vn 0.000000 -1.000000 0.000000
vn 1.000000 -0.000000 -0.000000
vn 0.000000 0.000000 -1.000000
vn -1.000000 0.000000 -0.000000
vn -0.000000 -0.000000 1.000000
vn 0.000000 1.000000 0.000000
usemtl mintgrn
s 1
f 103//55 104//55 105//55
f 106//55 103//55 105//55
f 107//55 106//55 105//55
f 104//55 107//55 105//55
f 108//56 104//56 103//57
f 109//57 103//57 106//58
f 110//58 106//58 107//59
f 111//59 107//59 104//56
f 108//56 103//57 109//57
f 109//57 106//58 110//58
f 110//58 107//59 111//59
f 111//59 104//56 108//56
f 112//60 108//60 109//60
f 112//60 109//60 110//60
f 112//60 110//60 111//60
f 112//60 111//60 108//60
g fil8
v 23.536455 17.500000 -0.499997
v 24.036455 17.500000 0.000003
v 23.536455 17.500000 0.000003
v 23.036455 17.500000 0.000003
v 23.536455 17.500000 0.500003
v 24.036455 92.500000 0.000015
v 23.536455 92.500000 -0.499985
v 23.036455 92.500000 0.000015
v 23.536455 92.500000 0.500015
v 23.536455 92.500000 0.000015
vn 0.000000 -1.000000 0.000000
vn 1.000000 0.000000 -0.000000
vn 0.000000 0.000000 -1.000000
vn -1.000000 0.000000 -0.000000
vn -0.000000 -0.000000 1.000000
vn 0.000000 1.000000 0.000000
usemtl mintgrn
s 1
f 113//61 114//61 115//61
f 116//61 113//61 115//61
f 117//61 116//61 115//61
f 114//61 117//61 115//61
f 118//62 114//62 113//63
f 119//63 113//63 116//64
f 120//64 116//64 117//65
f 121//65 117//65 114//62
f 118//62 113//63 119//63
f 119//63 116//64 120//64
f 120//64 117//65 121//65
f 121//65 114//62 118//62
f 122//66 118//66 119//66
f 122//66 119//66 120//66
f 122//66 120//66 121//66
f 122//66 121//66 118//66
g fil6
v 3.536455 17.500000 -0.499997
v 4.036455 17.500000 0.000003
v 3.536455 17.500000 0.000003
v 3.036455 17.500000 0.000003
v 3.536455 17.500000 0.500003
v 4.036455 92.500000 0.000015
v 3.536455 92.500000 -0.499985
v 3.036455 92.500000 0.000015
v 3.536455 92.500000 0.500015
v 3.536455 92.500000 0.000015
vn 0.000000 -1.000000 0.000000
vn 1.000000 -0.000000 -0.000000
vn 0.000000 0.000000 -1.000000
vn -1.000000 -0.000000 -0.000000
vn -0.000000 -0.000000 1.000000
vn 0.000000 1.000000 0.000000
usemtl mintgrn
s 1
f 123//67 124//67 125//67
f 126//67 123//67 125//67
f 127//67 126//67 125//67
f 124//67 127//67 125//67
f 128//68 124//68 123//69
f 129//69 123//69 126//70
f 130//70 126//70 127//71
f 131//71 127//71 124//68
f 128//68 123//69 129//69
f 129//69 126//70 130//70
f 130//70 127//71 131//71
f 131//71 124//68 128//68
f 132//72 128//72 129//72
f 132//72 129//72 130//72
f 132//72 130//72 131//72
f 132//72 131//72 128//72
g fil11
v 53.536453 17.500000 -0.499997
v 54.036453 17.500000 0.000003
v 53.536453 17.500000 0.000003
v 53.036453 17.500000 0.000003
v 53.536453 17.500000 0.500003
v 54.036453 92.500000 0.000015
v 53.536453 92.500000 -0.499985
v 53.036453 92.500000 0.000015
v 53.536453 92.500000 0.500015
v 53.536453 92.500000 0.000015
vn 0.000000 -1.000000 0.000000
vn 1.000000 0.000000 -0.000000
vn 0.000000 0.000000 -1.000000
vn -1.000000 0.000000 -0.000000
vn -0.000000 -0.000000 1.000000
vn 0.000000 1.000000 0.000000
usemtl mintgrn
s 1
f 133//73 134//73 135//73
f 136//73 133//73 135//73
f 137//73 136//73 135//73
f 134//73 137//73 135//73
f 138//74 134//74 133//75
f 139//75 133//75 136//76
f 140//76 136//76 137//77
f 141//77 137//77 134//74
f 138//74 133//75 139//75
f 139//75 136//76 140//76
f 140//76 137//77 141//77
f 141//77 134//74 138//74
f 142//78 138//78 139//78
f 142//78 139//78 140//78
f 142//78 140//78 141//78
f 142//78 141//78 138//78
g pointe_poteau
v -56.000000 96.000000 2.828416
v -60.000000 96.000000 2.828416
v -58.000000 94.585800 1.414215
v -56.000000 93.171600 0.000015
v -60.000000 93.171600 0.000015
v -56.000000 96.000000 0.000016
v -56.000000 96.000000 -2.828384
v -56.000000 98.828400 0.000016
v -58.000000 97.414200 1.414216
v -60.000000 98.828400 0.000016
v -60.000000 96.000000 0.000016
v -60.000000 96.000000 -2.828384
v -58.000000 97.414200 -1.414184
v -58.000000 94.585800 -1.414185
vn 0.000000 -0.707100 0.707100
vn 1.000000 -0.000000 0.000000
vn 0.000000 0.707100 0.707100
vn -1.000000 0.000000 0.000000
vn 0.000000 0.707100 -0.707100
vn 0.000000 -0.707100 -0.707100
usemtl yellow_green
s off
f 143//79 144//79 145//79
f 146//79 143//79 145//79
f 147//79 146//79 145//79
f 144//79 147//79 145//79
f 143//80 146//80 148//80
f 146//80 149//80 148//80
f 149//80 150//80 148//80
f 150//80 143//80 148//80
f 144//81 143//81 151//81
f 143//81 150//81 151//81
f 150//81 152//81 151//81
f 152//81 144//81 151//81
f 147//82 144//82 153//82
f 144//82 152//82 153//82
f 152//82 154//82 153//82
f 154//82 147//82 153//82
f 152//83 150//83 155//83
f 150//83 149//83 155//83
f 149//83 154//83 155//83
f 154//83 152//83 155//83
f 146//84 147//84 156//84
f 147//84 154//84 156//84
f 154//84 149//84 156//84
f 149//84 146//84 156//84
g fil1-5
v -56.422585 60.000000 -0.499990
v -56.422585 59.500000 0.000010
v -56.422585 60.000000 0.000010
v -56.422585 60.500000 0.000010
v -56.422585 60.000000 0.500010
v 53.062057 59.500000 0.000010
v 53.062057 60.000000 -0.499990
v 53.062057 60.500000 0.000010
v 53.062057 60.000000 0.500010
v 53.062057 60.000000 0.000010
vn -1.000000 -0.000000 0.000000
vn 0.000000 -1.000000 0.000000
vn 0.000000 0.000000 -1.000000
vn 0.000000 1.000000 0.000000
vn 0.000000 -0.000000 1.000000
vn 1.000000 0.000000 0.000000
usemtl mintgrn
s 1
f 157//85 158//85 159//85
f 160//85 157//85 159//85
f 161//85 160//85 159//85
f 158//85 161//85 159//85
f 162//86 158//86 157//87
f 163//87 157//87 160//88
f 164//88 160//88 161//89
f 165//89 161//89 158//86
f 162//86 157//87 163//87
f 163//87 160//88 164//88
f 164//88 161//89 165//89
f 165//89 158//86 162//86
f 166//90 162//90 163//90
f 166//90 163//90 164//90
f 166//90 164//90 165//90
f 166//90 165//90 162//90
g fil9
v 33.536453 17.500000 -0.499997
v 34.036453 17.500000 0.000003
v 33.536453 17.500000 0.000003
v 33.036453 17.500000 0.000003
v 33.536453 17.500000 0.500003
v 34.036453 92.500000 0.000015
v 33.536453 92.500000 -0.499985
v 33.036453 92.500000 0.000015
v 33.536453 92.500000 0.500015
v 33.536453 92.500000 0.000015
vn 0.000000 -1.000000 0.000000
vn 1.000000 -0.000000 -0.000000
vn 0.000000 0.000000 -1.000000
vn -1.000000 0.000000 -0.000000
vn -0.000000 -0.000000 1.000000
vn 0.000000 1.000000 0.000000
usemtl mintgrn
s 1
f 167//91 168//91 169//91
f 170//91 167//91 169//91
f 171//91 170//91 169//91
f 168//91 171//91 169//91
f 172//92 168//92 167//93
f 173//93 167//93 170//94
f 174//94 170//94 171//95
f 175//95 171//95 168//92
f 172//92 167//93 173//93
f 173//93 170//94 174//94
f 174//94 171//95 175//95
f 175//95 168//92 172//92
f 176//96 172//96 173//96
f 176//96 173//96 174//96
f 176//96 174//96 175//96
f 176//96 175//96 172//96
g fil5
v -6.463545 17.500000 -0.499997
v -5.963545 17.500000 0.000003
v -6.463545 17.500000 0.000003
v -6.963545 17.500000 0.000003
v -6.463545 17.500000 0.500003
v -5.963545 92.500000 0.000015
v -6.463545 92.500000 -0.499985
v -6.963545 92.500000 0.000015
v -6.463545 92.500000 0.500015
v -6.463545 92.500000 0.000015
vn 0.000000 -1.000000 0.000000
vn 1.000000 0.000000 -0.000000
vn 0.000000 0.000000 -1.000000
vn -1.000000 -0.000000 -0.000000
vn -0.000000 -0.000000 1.000000
vn 0.000000 1.000000 0.000000
usemtl mintgrn
s 1
f 177//97 178//97 179//97
f 180//97 177//97 179//97
f 181//97 180//97 179//97
f 178//97 181//97 179//97
f 182//98 178//98 177//99
f 183//99 177//99 180//100
f 184//100 180//100 181//101
f 185//101 181//101 178//98
f 182//98 177//99 183//99
f 183//99 180//100 184//100
f 184//100 181//101 185//101
f 185//101 178//98 182//98
f 186//102 182//102 183//102
f 186//102 183//102 184//102
f 186//102 184//102 185//102
f 186//102 185//102 182//102
g fil1-7
v -56.422585 80.000000 -0.499987
v -56.422585 79.500000 0.000013
v -56.422585 80.000000 0.000013
v -56.422585 80.500000 0.000013
v -56.422585 80.000000 0.500013
v 53.062057 79.500000 0.000013
v 53.062057 80.000000 -0.499987
v 53.062057 80.500000 0.000013
v 53.062057 80.000000 0.500013
v 53.062057 80.000000 0.000013
vn -1.000000 -0.000000 0.000000
vn 0.000000 -1.000000 0.000000
vn 0.000000 0.000000 -1.000000
vn 0.000000 1.000000 0.000000
vn 0.000000 -0.000000 1.000000
vn 1.000000 0.000000 0.000000
usemtl mintgrn
s 1
f 187//103 188//103 189//103
f 190//103 187//103 189//103
f 191//103 190//103 189//103
f 188//103 191//103 189//103
f 192//104 188//104 187//105
f 193//105 187//105 190//106
f 194//106 190//106 191//107
f 195//107 191//107 188//104
f 192//104 187//105 193//105
f 193//105 190//106 194//106
f 194//106 191//107 195//107
f 195//107 188//104 192//104
f 196//108 192//108 193//108
f 196//108 193//108 194//108
f 196//108 194//108 195//108
f 196//108 195//108 192//108
g fil1-3
v -56.422585 40.000000 -0.499993
v -56.422585 39.500000 0.000006
v -56.422585 40.000000 0.000007
v -56.422585 40.500000 0.000007
v -56.422585 40.000000 0.500006
v 53.062057 39.500000 0.000006
v 53.062057 40.000000 -0.499993
v 53.062057 40.500000 0.000007
v 53.062057 40.000000 0.500006
v 53.062057 40.000000 0.000007
vn -1.000000 -0.000000 0.000000
vn 0.000000 -1.000000 0.000000
vn 0.000000 0.000000 -1.000000
vn 0.000000 1.000000 0.000000
vn 0.000000 -0.000000 1.000000
vn 1.000000 0.000000 0.000000
usemtl mintgrn
s 1
f 197//109 198//109 199//109
f 200//109 197//109 199//109
f 201//109 200//109 199//109
f 198//109 201//109 199//109
f 202//110 198//110 197//111
f 203//111 197//111 200//112
f 204//112 200//112 201//113
f 205//113 201//113 198//110
f 202//110 197//111 203//111
f 203//111 200//112 204//112
f 204//112 201//113 205//113
f 205//113 198//110 202//110
f 206//114 202//114 203//114
f 206//114 203//114 204//114
f 206//114 204//114 205//114
f 206//114 205//114 202//114
g fil1
v -46.463547 17.500000 -0.499997
v -45.963547 17.500000 0.000003
v -46.463547 17.500000 0.000003
v -46.963547 17.500000 0.000003
v -46.463547 17.500000 0.500003
v -45.963547 92.500000 0.000015
v -46.463547 92.500000 -0.499985
v -46.963547 92.500000 0.000015
v -46.463547 92.500000 0.500015
v -46.463547 92.500000 0.000015
vn 0.000000 -1.000000 0.000000
vn 1.000000 0.000000 -0.000000
vn 0.000000 0.000000 -1.000000
vn -1.000000 -0.000000 -0.000000
vn -0.000000 -0.000000 1.000000
vn 0.000000 1.000000 0.000000
usemtl mintgrn
s 1
f 207//115 208//115 209//115
f 210//115 207//115 209//115
f 211//115 210//115 209//115
f 208//115 211//115 209//115
f 212//116 208//116 207//117
f 213//117 207//117 210//118
f 214//118 210//118 211//119
f 215//119 211//119 208//116
f 212//116 207//117 213//117
f 213//117 210//118 214//118
f 214//118 211//119 215//119
f 215//119 208//116 212//116
f 216//120 212//120 213//120
f 216//120 213//120 214//120
f 216//120 214//120 215//120
f 216//120 215//120 212//120
g muret
v 57.022324 -20.000000 4.999997
v -60.000702 -20.000000 4.999997
v -1.489191 -20.000000 -0.000003
v 57.022324 -20.000000 -5.000003
v -60.000702 -20.000000 -5.000003
v 57.022324 0.000000 0.000000
v 57.022324 20.000000 -4.999997
v 57.022324 20.000000 5.000003
v -1.489191 -0.000001 5.000000
v -60.000702 20.000000 5.000003
v -60.000702 0.000000 0.000000
v -60.000702 20.000000 -4.999997
v -1.489191 20.000000 0.000003
v -1.489191 0.000001 -5.000000
vn 0.000000 -1.000000 0.000000
vn 1.000000 0.000000 0.000000
vn 0.000000 -0.000000 1.000000
vn -1.000000 0.000000 0.000000
vn 0.000000 1.000000 0.000000
vn 0.000000 0.000000 -1.000000
usemtl grey
s off
f 217//121 218//121 219//121
f 220//121 217//121 219//121
f 221//121 220//121 219//121
f 218//121 221//121 219//121
f 217//122 220//122 222//122
f 220//122 223//122 222//122
f 223//122 224//122 222//122
f 224//122 217//122 222//122
f 218//123 217//123 225//123
f 217//123 224//123 225//123
f 224//123 226//123 225//123
f 226//123 218//123 225//123
f 221//124 218//124 227//124
f 218//124 226//124 227//124
f 226//124 228//124 227//124
f 228//124 221//124 227//124
f 226//125 224//125 229//125
f 224//125 223//125 229//125
f 223//125 228//125 229//125
f 228//125 226//125 229//125
f 220//126 221//126 230//126
f 221//126 228//126 230//126
f 228//126 223//126 230//126
f 223//126 220//126 230//126
g fil4
v -16.463545 17.500000 -0.499997
v -15.963545 17.500000 0.000003
v -16.463545 17.500000 0.000003
v -16.963545 17.500000 0.000003
v -16.463545 17.500000 0.500003
v -15.963545 92.500000 0.000015
v -16.463545 92.500000 -0.499985
v -16.963545 92.500000 0.000015
v -16.463545 92.500000 0.500015
v -16.463545 92.500000 0.000015
vn 0.000000 -1.000000 0.000000
vn 1.000000 -0.000000 -0.000000
vn 0.000000 0.000000 -1.000000
vn -1.000000 0.000000 -0.000000
vn -0.000000 -0.000000 1.000000
vn 0.000000 1.000000 0.000000
usemtl mintgrn
s 1
f 231//127 232//127 233//127
f 234//127 231//127 233//127
f 235//127 234//127 233//127
f 232//127 235//127 233//127
f 236//128 232//128 231//129
f 237//129 231//129 234//130
f 238//130 234//130 235//131
f 239//131 235//131 232//128
f 236//128 231//129 237//129
f 237//129 234//130 238//130
f 238//130 235//131 239//131
f 239//131 232//128 236//128
f 240//132 236//132 237//132
f 240//132 237//132 238//132
f 240//132 238//132 239//132
f 240//132 239//132 236//132
g fil1-6
v -56.422585 70.000000 -0.499989
v -56.422585 69.500000 0.000011
v -56.422585 70.000000 0.000011
v -56.422585 70.500000 0.000011
v -56.422585 70.000000 0.500011
v 53.062057 69.500000 0.000011
v 53.062057 70.000000 -0.499989
v 53.062057 70.500000 0.000011
v 53.062057 70.000000 0.500011
v 53.062057 70.000000 0.000011
vn -1.000000 -0.000000 0.000000
vn 0.000000 -1.000000 0.000000
vn 0.000000 0.000000 -1.000000
vn 0.000000 1.000000 0.000000
vn 0.000000 -0.000000 1.000000
vn 1.000000 0.000000 0.000000
usemtl mintgrn
s 1
f 241//133 242//133 243//133
f 244//133 241//133 243//133
f 245//133 244//133 243//133
f 242//133 245//133 243//133
f 246//134 242//134 241//135
f 247//135 241//135 244//136
f 248//136 244//136 245//137
f 249//137 245//137 242//134
f 246//134 241//135 247//135
f 247//135 244//136 248//136
f 248//136 245//137 249//137
f 249//137 242//134 246//134
f 250//138 246//138 247//138
f 250//138 247//138 248//138
f 250//138 248//138 249//138
f 250//138 249//138 246//138
