#Produced by Art of Illusion 2.4.1, Wed Sep 12 21:34:00 CEST 2007
#Etienne gerard, Interrupteur 1
#Copyleft: cette oeuvre est libre, vous pouvez la copier, la diffuser et la modifier selon les termes de la Licence Art Libre http://www.artlibre.org
g Cube_1
usemtl flwhite
v -4 -4 0.5
v 4 -4 0.5
v 4 -4 -0.5
v -4 -4 -0.5
v -4 4 0.5
v 4 4 0.5
v 4 4 -0.5
v -4 4 -0.5
v 0 0 0.5
v 4 0 0
v 0 0 -0.5
v -4 0 0
v 0 -4 0
v 0 4 0
vn 1 0 0
vn 0 -1 0
vn 0 -1 0
vn 0 -1 0
vn 0 -1 0
vn 1 0 0
vn 1 0 0
vn 1 0 0
vn 1 0 0
vn 0 0 1
vn 0 0 1
vn 0 0 1
vn 0 0 1
vn -1 0 0
vn -1 0 0
vn -1 0 0
vn -1 0 0
vn 0 1 0
vn 0 1 0
vn 0 1 0
vn 0 1 0
vn 0 0 -1
vn 0 0 -1
vn 0 0 -1
vn 0 0 -1
f 2//2 1//2 13//2
f 3//3 2//3 13//3
f 4//4 3//4 13//4
f 1//5 4//5 13//5
f 2//6 3//6 10//6
f 3//7 7//7 10//7
f 7//8 6//8 10//8
f 6//9 2//9 10//9
f 1//10 2//10 9//10
f 2//11 6//11 9//11
f 6//12 5//12 9//12
f 5//13 1//13 9//13
f 4//14 1//14 12//14
f 1//15 5//15 12//15
f 5//16 8//16 12//16
f 8//17 4//17 12//17
f 5//18 6//18 14//18
f 6//19 7//19 14//19
f 7//20 8//20 14//20
f 8//21 5//21 14//21
f 3//22 4//22 11//22
f 4//23 8//23 11//23
f 8//24 7//24 11//24
f 7//25 3//25 11//25
g Cube_10
usemtl offwhite.warm
v -1.9333 -1.4008 0.91667
v 2.0667 -1.4008 0.91667
v 2.0667 -1.48762 0.42427
v -1.9333 -1.48762 0.42427
v -1.9333 1.55362 0.39573
v 2.0667 1.55362 0.39573
v 2.0667 1.4668 -0.09667
v -1.9333 1.4668 -0.09667
v 0.0667 0.07641 0.6562
v 2.0667 0.033 0.41
v 0.0667 -0.01041 0.1638
v -1.9333 0.033 0.41
v 0.0667 -1.44421 0.67047
v 0.0667 1.51021 0.14953
vn 1 0 0
vn 0 -0.98481 0.17365
vn 0 -0.98481 0.17365
vn 0 -0.98481 0.17365
vn 0 -0.98481 0.17365
vn 1 0 0
vn 1 0 0
vn 1 0 0
vn 1 0 0
vn 0 0.17365 0.98481
vn 0 0.17365 0.98481
vn 0 0.17365 0.98481
vn 0 0.17365 0.98481
vn -1 0 0
vn -1 0 0
vn -1 0 -0
vn -1 0 0
vn 0 0.98481 -0.17365
vn 0 0.98481 -0.17365
vn 0 0.98481 -0.17365
vn 0 0.98481 -0.17365
vn 0 -0.17365 -0.98481
vn 0 -0.17365 -0.98481
vn 0 -0.17365 -0.98481
vn 0 -0.17365 -0.98481
f 16//27 15//27 27//27
f 17//28 16//28 27//28
f 18//29 17//29 27//29
f 15//30 18//30 27//30
f 16//31 17//31 24//31
f 17//32 21//32 24//32
f 21//33 20//33 24//33
f 20//34 16//34 24//34
f 15//35 16//35 23//35
f 16//36 20//36 23//36
f 20//37 19//37 23//37
f 19//38 15//38 23//38
f 18//39 15//39 26//39
f 15//40 19//40 26//40
f 19//41 22//41 26//41
f 22//42 18//42 26//42
f 19//43 20//43 28//43
f 20//44 21//44 28//44
f 21//45 22//45 28//45
f 22//46 19//46 28//46
f 17//47 18//47 25//47
f 18//48 22//48 25//48
f 22//49 21//49 25//49
f 21//50 17//50 25//50
