# lampeHalogene.obj
#
# Created by GdB / Damien Leduc
#
# This file is distributed under Free Art License, see http://artlibre.org/licence/lal/en for more informations
# and under CC-BY Creative Commons Attribution 3.0 Unported license, see http://creativecommons.org/licenses/by/3.0/
# at your choice
# 
mtllib lampeHalogene.mtl
v 0.035101 1.440000 0.409995
v 0.135100 1.440000 0.309996
v 0.065103 1.440000 0.339998
v 0.205096 1.440000 0.339998
v 0.235099 1.440000 0.409995
v 0.205103 1.440000 0.479998
v 0.135100 1.440000 0.509994
v 0.065096 1.440000 0.479998
v 0.155097 1.400000 0.409995
v 0.149086 1.400000 0.395994
v 0.135100 1.400000 0.389998
v 0.121106 1.400000 0.395987
v 0.115096 1.400000 0.410002
v 0.121092 1.400000 0.423988
v 0.135100 1.400000 0.429992
v 0.149086 1.400000 0.423981
vn 0.000000 1.000000 0.000000
vn 0.438989 -0.878507 -0.188454
vn 0.439209 -0.878439 -0.188258
vn 0.188295 -0.878432 -0.439206
vn 0.188256 -0.878442 -0.439204
vn -0.188274 -0.878416 -0.439247
vn -0.187989 -0.878485 -0.439232
vn -0.439226 -0.878429 -0.188265
vn -0.439149 -0.878452 -0.188334
vn -0.439243 -0.878432 0.188209
vn -0.439249 -0.878407 0.188313
vn -0.188233 -0.878443 0.439211
vn -0.188195 -0.878452 0.439209
vn 0.188564 -0.878577 0.438801
vn 0.188196 -0.878449 0.439214
vn 0.439169 -0.878359 0.188723
vn 0.439141 -0.878493 0.188165
vn 0.000000 -1.000000 0.000000
g Couche:OBJECT012
usemtl glassblutint
s off
f 1//1 2//1 3//1
f 1//1 4//1 2//1
f 1//1 5//1 4//1
f 1//1 6//1 5//1
f 1//1 7//1 6//1
f 1//1 8//1 7//1
f 4//2 9//2 10//2
f 4//3 5//3 9//3
f 2//4 10//4 11//4
f 2//5 4//5 10//5
f 2//6 12//6 3//6
f 2//7 11//7 12//7
f 13//8 1//8 3//8
f 3//9 12//9 13//9
f 1//10 14//10 8//10
f 1//11 13//11 14//11
f 7//12 14//12 15//12
f 7//13 8//13 14//13
f 6//14 15//14 16//14
f 6//15 7//15 15//15
f 5//16 16//16 9//16
f 5//17 6//17 16//17
f 10//18 12//18 11//18
f 10//18 13//18 12//18
f 10//18 14//18 13//18
f 10//18 15//18 14//18
f 10//18 16//18 15//18
f 10//18 9//18 16//18
v 0.285091 -1.920000 -0.620005
v -0.014906 -1.920000 -0.620005
v 0.135093 -1.920000 -0.660006
v -0.124910 -1.920000 -0.510001
v -0.164911 -1.920000 -0.360002
v -0.124903 -1.920000 -0.209996
v -0.014906 -1.920000 -0.099999
v 0.135100 -1.920000 -0.060005
v 0.285098 -1.920000 -0.100006
v 0.395096 -1.920000 -0.210004
v 0.435097 -1.920000 -0.360002
v 0.395096 -1.920000 -0.510001
v 0.395096 -1.820000 -0.210004
v 0.135100 -1.820000 -0.060005
v 0.285098 -1.820000 -0.100006
v -0.014906 -1.820000 -0.099999
v -0.124903 -1.820000 -0.209996
v -0.164911 -1.820000 -0.360002
v -0.124910 -1.820000 -0.510001
v -0.014906 -1.820000 -0.620005
v 0.135093 -1.820000 -0.660006
v 0.285091 -1.820000 -0.620005
v 0.395096 -1.820000 -0.510001
v 0.435097 -1.820000 -0.360002
vn 0.966233 0.000000 0.257671
vn 0.707107 0.000000 0.707107
vn 0.257671 0.000000 0.966233
vn -0.257617 0.000000 0.966247
vn -0.707107 0.000000 0.707107
vn -0.966224 0.000000 0.257702
vn -0.966233 0.000000 -0.257671
vn -0.707107 0.000000 -0.707107
vn -0.257671 0.000000 -0.966233
vn 0.257671 0.000000 -0.966233
vn 0.707107 0.000000 -0.707107
vn 0.966233 0.000000 -0.257671
g Couche:OBJECT000
usemtl black
s off
f 17//18 18//18 19//18
f 17//18 20//18 18//18
f 17//18 21//18 20//18
f 17//18 22//18 21//18
f 17//18 23//18 22//18
f 17//18 24//18 23//18
f 17//18 25//18 24//18
f 17//18 26//18 25//18
f 17//18 27//18 26//18
f 17//18 28//18 27//18
f 29//1 30//1 31//1
f 29//1 32//1 30//1
f 29//1 33//1 32//1
f 29//1 34//1 33//1
f 29//1 35//1 34//1
f 29//1 36//1 35//1
f 29//1 37//1 36//1
f 29//1 38//1 37//1
f 29//1 39//1 38//1
f 29//1 40//1 39//1
f 26//19 40//19 29//19
f 26//19 27//19 40//19
f 25//20 29//20 31//20
f 25//20 26//20 29//20
f 24//21 31//21 30//21
f 24//21 25//21 31//21
f 23//22 30//22 32//22
f 23//22 24//22 30//22
f 22//23 32//23 33//23
f 22//23 23//23 32//23
f 21//24 33//24 34//24
f 21//24 22//24 33//24
f 20//25 34//25 35//25
f 20//25 21//25 34//25
f 18//26 35//26 36//26
f 18//26 20//26 35//26
f 19//27 36//27 37//27
f 19//27 18//27 36//27
f 17//28 37//28 38//28
f 17//28 19//28 37//28
f 28//29 38//29 39//29
f 28//29 17//29 38//29
f 27//30 39//30 40//30
f 27//30 28//30 39//30
v 0.125094 -1.820000 -0.380006
v 0.125094 -1.820000 -0.339998
v 0.115089 -1.820000 -0.360002
v 0.145091 -1.820000 -0.339998
v 0.155097 -1.820000 -0.360002
v 0.145091 -1.820000 -0.380006
v 0.145091 0.520000 -0.339998
v 0.115089 0.520000 -0.360002
v 0.125094 0.520000 -0.339998
v 0.125094 0.520000 -0.380006
v 0.145091 0.520000 -0.380006
v 0.155097 0.520000 -0.360002
vn 0.894364 0.000000 0.447340
vn 0.000001 0.000000 1.000000
vn -0.894364 0.000000 0.447340
vn -0.894364 0.000000 -0.447340
vn 0.000000 0.000000 -1.000000
vn 0.894364 0.000000 -0.447340
g Couche:OBJECT001
usemtl black
s off
f 41//18 42//18 43//18
f 41//18 44//18 42//18
f 41//18 45//18 44//18
f 41//18 46//18 45//18
f 47//1 48//1 49//1
f 47//1 50//1 48//1
f 47//1 51//1 50//1
f 47//1 52//1 51//1
f 44//31 52//31 47//31
f 44//31 45//31 52//31
f 42//32 47//32 49//32
f 42//32 44//32 47//32
f 43//33 49//33 48//33
f 43//33 42//33 49//33
f 41//34 48//34 50//34
f 41//34 43//34 48//34
f 46//35 50//35 51//35
f 46//35 41//35 50//35
f 45//36 51//36 52//36
f 45//36 46//36 51//36
v 0.195098 1.445600 0.258921
v 0.175101 1.365600 0.120357
v 0.175101 1.445600 0.258921
v 0.195098 1.365600 0.120357
v 0.175101 1.428280 0.268920
v 0.195098 1.348280 0.130355
v 0.195098 1.428280 0.268920
v 0.175101 1.348280 0.130355
vn 0.000001 0.866026 -0.499999
vn 0.000000 0.866026 -0.499999
vn -0.000001 -0.866026 0.499999
vn 0.000000 -0.866026 0.499999
vn 0.000000 -0.499954 -0.866052
vn -0.000001 0.499954 0.866052
vn 1.000000 0.000000 0.000000
vn -1.000000 0.000000 0.000000
g Couche:OBJECT005
usemtl black
s off
f 53//37 54//37 55//37
f 53//38 56//38 54//38
f 57//39 58//39 59//39
f 57//40 60//40 58//40
f 54//41 58//41 60//41
f 54//41 56//41 58//41
f 57//42 53//42 55//42
f 59//42 53//42 57//42
f 56//43 59//43 58//43
f 56//43 53//43 59//43
f 60//44 55//44 54//44
f 60//44 57//44 55//44
v -0.114898 1.530000 0.410002
v 0.135093 1.530000 0.159997
v -0.044901 1.530000 0.229993
v 0.315101 1.530000 0.229993
v 0.385104 1.530000 0.409995
v 0.315101 1.530000 0.589996
v 0.135100 1.530000 0.659999
v -0.044901 1.530000 0.589996
v 0.224393 1.440000 0.409995
v 0.199390 1.440000 0.345719
v 0.135100 1.440000 0.320715
v 0.070817 1.440000 0.345712
v 0.045813 1.440000 0.410002
v 0.070824 1.440000 0.474285
v 0.135100 1.440000 0.499288
v 0.199390 1.440000 0.474285
vn 0.479980 -0.857180 -0.186712
vn 0.480020 -0.857164 -0.186683
vn 0.186683 -0.857169 -0.480011
vn 0.186651 -0.857180 -0.480005
vn -0.186665 -0.857176 -0.480005
vn -0.186647 -0.857182 -0.480001
vn -0.480023 -0.857168 -0.186658
vn -0.479996 -0.857179 -0.186677
vn -0.479996 -0.857182 0.186662
vn -0.480014 -0.857152 0.186757
vn -0.186726 -0.857157 0.480017
vn -0.186678 -0.857172 0.480007
vn 0.186685 -0.857165 0.480017
vn 0.186683 -0.857164 0.480021
vn 0.480020 -0.857163 0.186686
vn 0.480020 -0.857164 0.186683
g Couche:OBJECT011
usemtl black
s off
f 61//1 62//1 63//1
f 61//1 64//1 62//1
f 61//1 65//1 64//1
f 61//1 66//1 65//1
f 61//1 67//1 66//1
f 61//1 68//1 67//1
f 64//45 69//45 70//45
f 64//46 65//46 69//46
f 62//47 70//47 71//47
f 62//48 64//48 70//48
f 62//49 72//49 63//49
f 62//50 71//50 72//50
f 73//51 61//51 63//51
f 63//52 72//52 73//52
f 61//53 74//53 68//53
f 61//54 73//54 74//54
f 67//55 74//55 75//55
f 67//56 68//56 74//56
f 66//57 75//57 76//57
f 66//58 67//58 75//58
f 65//59 76//59 69//59
f 65//60 66//60 76//60
f 70//18 72//18 71//18
f 70//18 73//18 72//18
f 70//18 74//18 73//18
f 70//18 75//18 74//18
f 70//18 76//18 75//18
f 70//18 69//18 76//18
v 0.205096 1.464880 0.256955
v 0.065103 1.430240 0.236958
v 0.065096 1.464880 0.256963
v 0.205096 1.430240 0.236958
v 0.065096 1.444880 0.291597
v 0.205103 1.410240 0.271600
v 0.205096 1.444880 0.291604
v 0.065096 1.410240 0.271600
vn -0.000044 0.500088 -0.865975
vn 0.000000 0.499955 -0.866051
vn -0.000044 -0.500088 0.865975
vn 0.000000 -0.499955 0.866051
vn 0.000000 -0.866027 -0.499998
vn 0.000025 0.865982 0.500074
vn -0.000025 0.866071 0.499921
vn 1.000000 0.000242 -0.000065
vn 1.000000 0.000000 -0.000001
vn -1.000000 -0.000065 -0.000241
g Couche:OBJECT010
usemtl black
s off
f 77//61 78//61 79//61
f 77//62 80//62 78//62
f 81//63 82//63 83//63
f 81//64 84//64 82//64
f 78//65 82//65 84//65
f 78//65 80//65 82//65
f 81//66 77//66 79//66
f 83//67 77//67 81//67
f 80//68 83//68 82//68
f 80//69 77//69 83//69
f 84//70 79//70 78//70
f 84//44 81//44 79//44
v 0.205096 0.367080 -0.561605
v 0.065089 0.315120 -0.591601
v 0.065089 0.367080 -0.561605
v 0.205089 0.315120 -0.591608
v 0.065096 0.337080 -0.509640
v 0.205096 0.285120 -0.539643
v 0.205096 0.337080 -0.509647
v 0.065089 0.285120 -0.539643
vn -0.000044 0.500042 -0.866001
vn 0.000044 -0.499954 0.866052
vn 0.000000 -0.500043 0.866000
vn 0.000000 -0.866012 -0.500024
vn -0.000025 -0.866041 -0.499973
vn 0.000000 0.866041 0.499973
vn 0.000026 0.866012 0.500024
vn 1.000000 0.000059 -0.000102
vn 1.000000 -0.000102 -0.000059
vn -1.000000 -0.000001 -0.000001
vn -1.000000 0.000043 0.000161
g Couche:OBJECT008
usemtl black
s off
f 85//62 86//62 87//62
f 85//71 88//71 86//71
f 89//72 90//72 91//72
f 89//73 92//73 90//73
f 86//74 90//74 92//74
f 86//75 88//75 90//75
f 89//76 85//76 87//76
f 91//77 85//77 89//77
f 88//78 91//78 90//78
f 88//79 85//79 91//79
f 92//80 87//80 86//80
f 92//81 89//81 87//81
v 0.095099 1.445600 0.258921
v 0.075102 1.365600 0.120357
v 0.075102 1.445600 0.258921
v 0.095099 1.365600 0.120357
v 0.075102 1.428280 0.268920
v 0.095099 1.348280 0.130355
v 0.095099 1.428280 0.268920
v 0.075102 1.348280 0.130355
vn 0.000000 -0.499953 -0.866052
vn 0.000000 0.499953 0.866053
vn -1.000000 0.000001 0.000000
g Couche:OBJECT009
usemtl black
s off
f 93//38 94//38 95//38
f 93//38 96//38 94//38
f 97//40 98//40 99//40
f 97//40 100//40 98//40
f 94//82 98//82 100//82
f 94//41 96//41 98//41
f 97//83 93//83 95//83
f 99//83 93//83 97//83
f 96//43 99//43 98//43
f 96//43 93//43 99//43
f 100//44 95//44 94//44
f 100//84 97//84 95//84
v 0.095099 1.369970 0.121332
v 0.075095 0.400030 -0.438661
v 0.075095 1.369970 0.121339
v 0.095092 0.400030 -0.438661
v 0.075102 1.359970 0.138657
v 0.095092 0.390030 -0.421337
v 0.095099 1.359970 0.138656
v 0.075095 0.390030 -0.421337
vn -0.000306 0.500003 -0.866023
vn -0.000001 0.499999 -0.866026
vn 0.000003 -0.499999 0.866026
vn 0.000000 -0.499999 0.866026
vn 0.000000 -0.866070 -0.499922
vn -0.000001 -0.866071 -0.499921
vn 0.000177 0.865982 0.500075
vn 0.000000 0.866071 0.499922
vn 1.000000 -0.000006 -0.000003
vn -1.000000 -0.000171 0.000309
g Couche:OBJECT002
usemtl black
s off
f 101//85 102//85 103//85
f 101//86 104//86 102//86
f 105//87 106//87 107//87
f 105//88 108//88 106//88
f 102//89 106//89 108//89
f 102//90 104//90 106//90
f 105//91 101//91 103//91
f 107//92 101//92 105//92
f 104//93 107//93 106//93
f 104//93 101//93 107//93
f 108//44 103//44 102//44
f 108//94 105//94 103//94
v 0.195098 1.369970 0.121332
v 0.175094 0.400030 -0.438661
v 0.175094 1.369970 0.121339
v 0.195091 0.400030 -0.438661
v 0.175101 1.359970 0.138657
v 0.195098 0.390030 -0.421344
v 0.195098 1.359970 0.138656
v 0.175094 0.390030 -0.421337
vn 0.000000 0.499999 -0.866026
vn 0.000000 -0.500003 0.866023
vn 0.000306 -0.499999 0.866026
vn -0.000177 -0.866070 -0.499922
vn 0.000000 -0.865982 -0.500075
vn 0.000177 0.865982 0.500074
vn 1.000000 0.000177 -0.000307
vn 1.000000 -0.000005 -0.000004
vn -1.000000 0.000000 0.000001
g Couche:OBJECT003
usemtl black
s off
f 109//85 110//85 111//85
f 109//95 112//95 110//95
f 113//96 114//96 115//96
f 113//97 116//97 114//97
f 110//98 114//98 116//98
f 110//99 112//99 114//99
f 113//100 109//100 111//100
f 115//92 109//92 113//92
f 112//101 115//101 114//101
f 112//102 109//102 115//102
f 116//103 111//103 110//103
f 116//94 113//94 111//94
v 0.195091 0.405380 -0.434022
v 0.175094 0.340380 -0.546608
v 0.175094 0.405380 -0.434022
v 0.195091 0.340380 -0.546608
v 0.175094 0.388060 -0.424024
v 0.195091 0.323060 -0.536609
v 0.195091 0.388060 -0.424024
v 0.175094 0.323060 -0.536609
vn 0.000000 0.866030 -0.499993
vn -0.000001 -0.866030 0.499993
vn 0.000000 -0.866030 0.499993
vn 0.000000 -0.499955 -0.866052
vn 0.000000 0.499954 0.866052
vn -0.000001 0.499955 0.866052
vn 1.000000 -0.000001 0.000000
vn -1.000000 -0.000001 0.000001
g Couche:OBJECT006
usemtl black
s off
f 117//104 118//104 119//104
f 117//104 120//104 118//104
f 121//105 122//105 123//105
f 121//106 124//106 122//106
f 118//107 122//107 124//107
f 118//107 120//107 122//107
f 121//108 117//108 119//108
f 123//109 117//109 121//109
f 120//110 123//110 122//110
f 120//43 117//43 123//43
f 124//44 119//44 118//44
f 124//111 121//111 119//111
v 0.095092 0.405380 -0.434022
v 0.075095 0.340380 -0.546608
v 0.075095 0.405380 -0.434022
v 0.095092 0.340380 -0.546608
v 0.075095 0.388060 -0.424024
v 0.095092 0.323060 -0.536609
v 0.095092 0.388060 -0.424024
v 0.075095 0.323060 -0.536609
vn -0.000001 0.866030 -0.499992
vn -0.000003 -0.499957 -0.866050
vn 0.000000 0.499955 0.866052
g Couche:OBJECT007
usemtl black
s off
f 125//104 126//104 127//104
f 125//112 128//112 126//112
f 129//106 130//106 131//106
f 129//106 132//106 130//106
f 126//107 130//107 132//107
f 126//113 128//113 130//113
f 129//114 125//114 127//114
f 131//114 125//114 129//114
f 128//43 131//43 130//43
f 128//110 125//110 131//110
f 132//84 127//84 126//84
f 132//44 129//44 127//44
v 0.205096 0.543590 -0.367321
v 0.065096 0.508950 -0.387325
v 0.065089 0.543590 -0.367321
v 0.205096 0.508950 -0.387318
v 0.065096 0.523590 -0.332680
v 0.205096 0.488950 -0.352684
v 0.205096 0.523590 -0.332687
v 0.065096 0.488950 -0.352677
vn 0.000000 0.500087 -0.865975
vn 0.000044 0.499954 -0.866052
vn -0.000025 -0.866070 -0.499922
vn 0.000025 -0.865982 -0.500075
vn 0.000000 0.866027 0.499998
vn 1.000000 0.000000 0.000001
vn -1.000000 -0.000153 -0.000088
vn -1.000000 -0.000089 0.000153
g Couche:OBJECT004
usemtl black
s off
f 133//115 134//115 135//115
f 133//116 136//116 134//116
f 137//72 138//72 139//72
f 137//72 140//72 138//72
f 134//117 138//117 140//117
f 134//118 136//118 138//118
f 137//119 133//119 135//119
f 139//66 133//66 137//66
f 136//120 139//120 138//120
f 136//120 133//120 139//120
f 140//121 135//121 134//121
f 140//122 137//122 135//122
