#Produced by Art of Illusion 2.5.1, Wed Apr 15 21:34:17 CEST 2009
g bas_orange
usemtl gold
v 0 -0.7 0
v 0.7 -0.7 0
v 0.64672 -0.7 -0.26788
v 0.49497 -0.7 -0.49497
v 0.26788 -0.7 -0.64672
v 0 -0.7 -0.7
v -0.26788 -0.7 -0.64672
v -0.49497 -0.7 -0.49497
v -0.64672 -0.7 -0.26788
v -0.7 -0.7 0
v -0.64672 -0.7 0.26788
v -0.49497 -0.7 0.49497
v -0.26788 -0.7 0.64672
v 0 -0.7 0.7
v 0.26788 -0.7 0.64672
v 0.49497 -0.7 0.49497
v 0.64672 -0.7 0.26788
v 0.7 0.7 0
v 0.64672 0.7 -0.26788
v 0.49497 0.7 -0.49497
v 0.26788 0.7 -0.64672
v 0 0.7 -0.7
v -0.26788 0.7 -0.64672
v -0.49497 0.7 -0.49497
v -0.64672 0.7 -0.26788
v -0.7 0.7 0
v -0.64672 0.7 0.26788
v -0.49497 0.7 0.49497
v -0.26788 0.7 0.64672
v 0 0.7 0.7
v 0.26788 0.7 0.64672
v 0.49497 0.7 0.49497
v 0.64672 0.7 0.26788
v 0 0.7 0
vn 0 -1 0
vn 0 -1 0
vn 1 0 0
vn 0 -1 0
vn 0.92388 0 -0.38268
vn 0 -1 0
vn 0.70711 0 -0.70711
vn 0 -1 0
vn 0.38268 0 -0.92388
vn 0 -1 0
vn 0 0 -1
vn 0 -1 0
vn -0.38268 0 -0.92388
vn 0 -1 0
vn -0.70711 0 -0.70711
vn 0 -1 0
vn -0.92388 0 -0.38268
vn 0 -1 0
vn -1 0 -0
vn 0 -1 0
vn -0.92388 0 0.38268
vn 0 -1 0
vn -0.70711 0 0.70711
vn 0 -1 0
vn -0.38268 0 0.92388
vn 0 -1 0
vn -0 0 1
vn 0 -1 0
vn 0.38268 0 0.92388
vn 0 -1 0
vn 0.70711 0 0.70711
vn 0 -1 0
vn 0.92388 0 0.38268
vn 0 1 0
vn 1 0 0
vn 0 1 0
vn 0.92388 0 -0.38268
vn 0 1 0
vn 0.70711 0 -0.70711
vn 0 1 0
vn 0.38268 0 -0.92388
vn 0 1 0
vn -0 0 -1
vn 0 1 0
vn -0.38268 0 -0.92388
vn 0 1 0
vn -0.70711 0 -0.70711
vn 0 1 0
vn -0.92388 0 -0.38268
vn 0 1 0
vn -1 0 -0
vn 0 1 0
vn -0.92388 0 0.38268
vn 0 1 0
vn -0.70711 0 0.70711
vn 0 1 0
vn -0.38268 0 0.92388
vn 0 1 0
vn -0 0 1
vn 0 1 0
vn 0.38268 0 0.92388
vn 0 1 0
vn 0.70711 0 0.70711
vn 0 1 0
vn 0.92388 0 0.38268
vn 0 1 0
f 3//4 2//2 1//1
f 4//6 3//4 1//1
f 5//8 4//6 1//1
f 6//10 5//8 1//1
f 7//12 6//10 1//1
f 8//14 7//12 1//1
f 9//16 8//14 1//1
f 10//18 9//16 1//1
f 11//20 10//18 1//1
f 12//22 11//20 1//1
f 13//24 12//22 1//1
f 14//26 13//24 1//1
f 15//28 14//26 1//1
f 16//30 15//28 1//1
f 17//32 16//30 1//1
f 2//2 17//32 1//1
f 18//35 2//3 3//5
f 19//37 3//5 4//7
f 20//39 4//7 5//9
f 21//41 5//9 6//11
f 22//43 6//11 7//13
f 23//45 7//13 8//15
f 24//47 8//15 9//17
f 25//49 9//17 10//19
f 26//51 10//19 11//21
f 27//53 11//21 12//23
f 28//55 12//23 13//25
f 29//57 13//25 14//27
f 30//59 14//27 15//29
f 31//61 15//29 16//31
f 32//63 16//31 17//33
f 33//65 17//33 2//3
f 18//35 3//5 19//37
f 19//37 4//7 20//39
f 20//39 5//9 21//41
f 21//41 6//11 22//43
f 22//43 7//13 23//45
f 23//45 8//15 24//47
f 24//47 9//17 25//49
f 25//49 10//19 26//51
f 26//51 11//21 27//53
f 27//53 12//23 28//55
f 28//55 13//25 29//57
f 29//57 14//27 30//59
f 30//59 15//29 31//61
f 31//61 16//31 32//63
f 32//63 17//33 33//65
f 33//65 2//3 18//35
f 34//66 18//34 19//36
f 34//66 19//36 20//38
f 34//66 20//38 21//40
f 34//66 21//40 22//42
f 34//66 22//42 23//44
f 34//66 23//44 24//46
f 34//66 24//46 25//48
f 34//66 25//48 26//50
f 34//66 26//50 27//52
f 34//66 27//52 28//54
f 34//66 28//54 29//56
f 34//66 29//56 30//58
f 34//66 30//58 31//60
f 34//66 31//60 32//62
f 34//66 32//62 33//64
f 34//66 33//64 18//34
g haut_vert
usemtl mintgrn
v 0 0.7 0
v 0.7 0.7 0
v 0.64672 0.7 -0.26788
v 0.49497 0.7 -0.49497
v 0.26788 0.7 -0.64672
v 0 0.7 -0.7
v -0.26788 0.7 -0.64672
v -0.49497 0.7 -0.49497
v -0.64672 0.7 -0.26788
v -0.7 0.7 0
v -0.64672 0.7 0.26788
v -0.49497 0.7 0.49497
v -0.26788 0.7 0.64672
v 0 0.7 0.7
v 0.26788 0.7 0.64672
v 0.49497 0.7 0.49497
v 0.64672 0.7 0.26788
v 0.7 4.1 0
v 0.64672 4.1 -0.26788
v 0.49497 4.1 -0.49497
v 0.26788 4.1 -0.64672
v 0 4.1 -0.7
v -0.26788 4.1 -0.64672
v -0.49497 4.1 -0.49497
v -0.64672 4.1 -0.26788
v -0.7 4.1 0
v -0.64672 4.1 0.26788
v -0.49497 4.1 0.49497
v -0.26788 4.1 0.64672
v 0 4.1 0.7
v 0.26788 4.1 0.64672
v 0.49497 4.1 0.49497
v 0.64672 4.1 0.26788
v 0 4.1 0
vn 0 -1 0
vn 0 -1 0
vn 1 0 0
vn 0 -1 0
vn 0.92388 0 -0.38268
vn 0 -1 0
vn 0.70711 0 -0.70711
vn 0 -1 0
vn 0.38268 0 -0.92388
vn 0 -1 0
vn 0 0 -1
vn 0 -1 0
vn -0.38268 0 -0.92388
vn 0 -1 0
vn -0.70711 0 -0.70711
vn 0 -1 0
vn -0.92388 0 -0.38268
vn 0 -1 0
vn -1 0 -0
vn 0 -1 0
vn -0.92388 0 0.38268
vn 0 -1 0
vn -0.70711 0 0.70711
vn 0 -1 0
vn -0.38268 0 0.92388
vn 0 -1 0
vn -0 0 1
vn 0 -1 0
vn 0.38268 0 0.92388
vn 0 -1 0
vn 0.70711 0 0.70711
vn 0 -1 0
vn 0.92388 0 0.38268
vn 0 1 0
vn 1 0 0
vn 0 1 0
vn 0.92388 0 -0.38268
vn 0 1 0
vn 0.70711 0 -0.70711
vn 0 1 0
vn 0.38268 0 -0.92388
vn 0 1 0
vn -0 0 -1
vn 0 1 0
vn -0.38268 0 -0.92388
vn 0 1 0
vn -0.70711 0 -0.70711
vn 0 1 0
vn -0.92388 0 -0.38268
vn 0 1 0
vn -1 0 -0
vn 0 1 0
vn -0.92388 0 0.38268
vn 0 1 0
vn -0.70711 0 0.70711
vn 0 1 0
vn -0.38268 0 0.92388
vn 0 1 0
vn -0 0 1
vn 0 1 0
vn 0.38268 0 0.92388
vn 0 1 0
vn 0.70711 0 0.70711
vn 0 1 0
vn 0.92388 0 0.38268
vn 0 1 0
f 37//70 36//68 35//67
f 38//72 37//70 35//67
f 39//74 38//72 35//67
f 40//76 39//74 35//67
f 41//78 40//76 35//67
f 42//80 41//78 35//67
f 43//82 42//80 35//67
f 44//84 43//82 35//67
f 45//86 44//84 35//67
f 46//88 45//86 35//67
f 47//90 46//88 35//67
f 48//92 47//90 35//67
f 49//94 48//92 35//67
f 50//96 49//94 35//67
f 51//98 50//96 35//67
f 36//68 51//98 35//67
f 52//101 36//69 37//71
f 53//103 37//71 38//73
f 54//105 38//73 39//75
f 55//107 39//75 40//77
f 56//109 40//77 41//79
f 57//111 41//79 42//81
f 58//113 42//81 43//83
f 59//115 43//83 44//85
f 60//117 44//85 45//87
f 61//119 45//87 46//89
f 62//121 46//89 47//91
f 63//123 47//91 48//93
f 64//125 48//93 49//95
f 65//127 49//95 50//97
f 66//129 50//97 51//99
f 67//131 51//99 36//69
f 52//101 37//71 53//103
f 53//103 38//73 54//105
f 54//105 39//75 55//107
f 55//107 40//77 56//109
f 56//109 41//79 57//111
f 57//111 42//81 58//113
f 58//113 43//83 59//115
f 59//115 44//85 60//117
f 60//117 45//87 61//119
f 61//119 46//89 62//121
f 62//121 47//91 63//123
f 63//123 48//93 64//125
f 64//125 49//95 65//127
f 65//127 50//97 66//129
f 66//129 51//99 67//131
f 67//131 36//69 52//101
f 68//132 52//100 53//102
f 68//132 53//102 54//104
f 68//132 54//104 55//106
f 68//132 55//106 56//108
f 68//132 56//108 57//110
f 68//132 57//110 58//112
f 68//132 58//112 59//114
f 68//132 59//114 60//116
f 68//132 60//116 61//118
f 68//132 61//118 62//120
f 68//132 62//120 63//122
f 68//132 63//122 64//124
f 68//132 64//124 65//126
f 68//132 65//126 66//128
f 68//132 66//128 67//130
f 68//132 67//130 52//100
g bas_silver
usemtl silver
v 0 -0.75 0
v 0.5 -0.75 0
v 0.35355 -0.75 -0.35355
v 0 -0.75 -0.5
v -0.35355 -0.75 -0.35355
v -0.5 -0.75 0
v -0.35355 -0.75 0.35355
v 0 -0.75 0.5
v 0.35355 -0.75 0.35355
v 0.5 -0.55 0
v 0.35355 -0.55 -0.35355
v 0 -0.55 -0.5
v -0.35355 -0.55 -0.35355
v -0.5 -0.55 0
v -0.35355 -0.55 0.35355
v 0 -0.55 0.5
v 0.35355 -0.55 0.35355
v 0 -0.55 0
vn 0 -1 0
vn 0 -1 0
vn 1 0 0
vn 0 -1 0
vn 0.70711 0 -0.70711
vn 0 -1 0
vn 0 0 -1
vn 0 -1 0
vn -0.70711 0 -0.70711
vn 0 -1 0
vn -1 0 -0
vn 0 -1 0
vn -0.70711 0 0.70711
vn 0 -1 0
vn -0 0 1
vn 0 -1 0
vn 0.70711 0 0.70711
vn 0 1 0
vn 1 0 0
vn 0 1 0
vn 0.70711 0 -0.70711
vn 0 1 0
vn 0 0 -1
vn 0 1 0
vn -0.70711 0 -0.70711
vn 0 1 0
vn -1 0 -0
vn 0 1 0
vn -0.70711 0 0.70711
vn 0 1 0
vn -0 0 1
vn 0 1 0
vn 0.70711 0 0.70711
vn 0 1 0
f 71//136 70//134 69//133
f 72//138 71//136 69//133
f 73//140 72//138 69//133
f 74//142 73//140 69//133
f 75//144 74//142 69//133
f 76//146 75//144 69//133
f 77//148 76//146 69//133
f 70//134 77//148 69//133
f 78//151 70//135 71//137
f 79//153 71//137 72//139
f 80//155 72//139 73//141
f 81//157 73//141 74//143
f 82//159 74//143 75//145
f 83//161 75//145 76//147
f 84//163 76//147 77//149
f 85//165 77//149 70//135
f 78//151 71//137 79//153
f 79//153 72//139 80//155
f 80//155 73//141 81//157
f 81//157 74//143 82//159
f 82//159 75//145 83//161
f 83//161 76//147 84//163
f 84//163 77//149 85//165
f 85//165 70//135 78//151
f 86//166 78//150 79//152
f 86//166 79//152 80//154
f 86//166 80//154 81//156
f 86//166 81//156 82//158
f 86//166 82//158 83//160
f 86//166 83//160 84//162
f 86//166 84//162 85//164
f 86//166 85//164 78//150
g haut_noir
usemtl black
v 0 3.95 0
v 0.5 3.95 0
v 0.35355 3.95 -0.35355
v 0 3.95 -0.5
v -0.35355 3.95 -0.35355
v -0.5 3.95 0
v -0.35355 3.95 0.35355
v 0 3.95 0.5
v 0.35355 3.95 0.35355
v 0.5 4.15 0
v 0.35355 4.15 -0.35355
v 0 4.15 -0.5
v -0.35355 4.15 -0.35355
v -0.5 4.15 0
v -0.35355 4.15 0.35355
v 0 4.15 0.5
v 0.35355 4.15 0.35355
v 0 4.15 0
vn 0 -1 0
vn 0 -1 0
vn 1 0 0
vn 0 -1 0
vn 0.70711 0 -0.70711
vn 0 -1 0
vn 0 0 -1
vn 0 -1 0
vn -0.70711 0 -0.70711
vn 0 -1 0
vn -1 0 -0
vn 0 -1 0
vn -0.70711 0 0.70711
vn 0 -1 0
vn -0 0 1
vn 0 -1 0
vn 0.70711 0 0.70711
vn 0 1 0
vn 1 0 0
vn 0 1 0
vn 0.70711 0 -0.70711
vn 0 1 0
vn 0 0 -1
vn 0 1 0
vn -0.70711 0 -0.70711
vn 0 1 0
vn -1 0 -0
vn 0 1 0
vn -0.70711 0 0.70711
vn 0 1 0
vn -0 0 1
vn 0 1 0
vn 0.70711 0 0.70711
vn 0 1 0
f 89//170 88//168 87//167
f 90//172 89//170 87//167
f 91//174 90//172 87//167
f 92//176 91//174 87//167
f 93//178 92//176 87//167
f 94//180 93//178 87//167
f 95//182 94//180 87//167
f 88//168 95//182 87//167
f 96//185 88//169 89//171
f 97//187 89//171 90//173
f 98//189 90//173 91//175
f 99//191 91//175 92//177
f 100//193 92//177 93//179
f 101//195 93//179 94//181
f 102//197 94//181 95//183
f 103//199 95//183 88//169
f 96//185 89//171 97//187
f 97//187 90//173 98//189
f 98//189 91//175 99//191
f 99//191 92//177 100//193
f 100//193 93//179 101//195
f 101//195 94//181 102//197
f 102//197 95//183 103//199
f 103//199 88//169 96//185
f 104//200 96//184 97//186
f 104//200 97//186 98//188
f 104//200 98//188 99//190
f 104//200 99//190 100//192
f 104//200 100//192 101//194
f 104//200 101//194 102//196
f 104//200 102//196 103//198
f 104//200 103//198 96//184
g haut_silver
usemtl silver
v 0 4.05 0
v 0.1 4.05 0
v 0 4.05 -0.1
v -0.1 4.05 0
v 0 4.05 0.1
v 0.1 4.25 0
v 0 4.25 -0.1
v -0.1 4.25 0
v 0 4.25 0.1
v 0 4.25 0
vn 0 -1 0
vn 0 -1 0
vn 1 0 0
vn 0 -1 0
vn 0 0 -1
vn 0 -1 0
vn -1 0 -0
vn 0 -1 0
vn -0 0 1
vn 0 1 0
vn 1 0 -0
vn 0 1 0
vn -0 0 -1
vn 0 1 0
vn -1 0 0
vn 0 1 0
vn 0 0 1
vn 0 1 0
f 107//204 106//202 105//201
f 108//206 107//204 105//201
f 109//208 108//206 105//201
f 106//202 109//208 105//201
f 110//211 106//203 107//205
f 111//213 107//205 108//207
f 112//215 108//207 109//209
f 113//217 109//209 106//203
f 110//211 107//205 111//213
f 111//213 108//207 112//215
f 112//215 109//209 113//217
f 113//217 106//203 110//211
f 114//218 110//210 111//212
f 114//218 111//212 112//214
f 114//218 112//214 113//216
f 114//218 113//216 110//210
