#Produced by Art of Illusion 2.4.1, Tue Sep 11 22:17:49 CEST 2007
#Etienne gerard, Prise television 1
#Copyleft: cette oeuvre est libre, vous pouvez la copier, la diffuser et la modifier selon les termes de la Licence Art Libre http://www.artlibre.org
g Cube_1
usemtl flwhite
v -4 -4 0.5
v 4 -4 0.5
v 4 -4 -0.5
v -4 -4 -0.5
v -4 4 0.5
v 4 4 0.5
v 4 4 -0.5
v -4 4 -0.5
v 0 0 0.5
v 4 0 0
v 0 0 -0.5
v -4 0 0
v 0 -4 0
v 0 4 0
vn 1 0 0
vn 0 -1 0
vn 0 -1 0
vn 0 -1 0
vn 0 -1 0
vn 1 0 0
vn 1 0 0
vn 1 0 0
vn 1 0 0
vn 0 0 1
vn 0 0 1
vn 0 0 1
vn 0 0 1
vn -1 0 0
vn -1 0 0
vn -1 0 0
vn -1 0 0
vn 0 1 0
vn 0 1 0
vn 0 1 0
vn 0 1 0
vn 0 0 -1
vn 0 0 -1
vn 0 0 -1
vn 0 0 -1
f 2//2 1//2 13//2
f 3//3 2//3 13//3
f 4//4 3//4 13//4
f 1//5 4//5 13//5
f 2//6 3//6 10//6
f 3//7 7//7 10//7
f 7//8 6//8 10//8
f 6//9 2//9 10//9
f 1//10 2//10 9//10
f 2//11 6//11 9//11
f 6//12 5//12 9//12
f 5//13 1//13 9//13
f 4//14 1//14 12//14
f 1//15 5//15 12//15
f 5//16 8//16 12//16
f 8//17 4//17 12//17
f 5//18 6//18 14//18
f 6//19 7//19 14//19
f 7//20 8//20 14//20
f 8//21 5//21 14//21
f 3//22 4//22 11//22
f 4//23 8//23 11//23
f 8//24 7//24 11//24
f 7//25 3//25 11//25
g Cylinder_1
usemtl black
v 0 0 0.575
v 0.5 0 0.575
v 0.35355 -0.35355 0.575
v -0 -0.5 0.575
v -0.35355 -0.35355 0.575
v -0.5 0 0.575
v -0.35355 0.35355 0.575
v 0 0.5 0.575
v 0.35355 0.35355 0.575
v 0.5 -0 -0.425
v 0.35355 -0.35355 -0.425
v -0 -0.5 -0.425
v -0.35355 -0.35355 -0.425
v -0.5 -0 -0.425
v -0.35355 0.35355 -0.425
v 0 0.5 -0.425
v 0.35355 0.35355 -0.425
v 0 -0 -0.425
vn 0 0 1
vn 0 0 1
vn 1 0 -0
vn 0 0 1
vn 0.70711 -0.70711 0
vn 0 0 1
vn 0 -1 0
vn 0 0 1
vn -0.70711 -0.70711 0
vn 0 0 1
vn -1 -0 0
vn 0 0 1
vn -0.70711 0.70711 -0
vn 0 0 1
vn -0 1 -0
vn 0 0 1
vn 0.70711 0.70711 -0
vn 0 -0 -1
vn 1 0 -0
vn 0 -0 -1
vn 0.70711 -0.70711 0
vn 0 -0 -1
vn -0 -1 0
vn 0 -0 -1
vn -0.70711 -0.70711 0
vn 0 -0 -1
vn -1 -0 0
vn 0 -0 -1
vn -0.70711 0.70711 -0
vn 0 -0 -1
vn -0 1 -0
vn 0 -0 -1
vn 0.70711 0.70711 -0
vn 0 -0 -1
f 17//29 16//27 15//26
f 18//31 17//29 15//26
f 19//33 18//31 15//26
f 20//35 19//33 15//26
f 21//37 20//35 15//26
f 22//39 21//37 15//26
f 23//41 22//39 15//26
f 16//27 23//41 15//26
f 24//44 16//28 17//30
f 25//46 17//30 18//32
f 26//48 18//32 19//34
f 27//50 19//34 20//36
f 28//52 20//36 21//38
f 29//54 21//38 22//40
f 30//56 22//40 23//42
f 31//58 23//42 16//28
f 24//44 17//30 25//46
f 25//46 18//32 26//48
f 26//48 19//34 27//50
f 27//50 20//36 28//52
f 28//52 21//38 29//54
f 29//54 22//40 30//56
f 30//56 23//42 31//58
f 31//58 16//28 24//44
f 32//59 24//43 25//45
f 32//59 25//45 26//47
f 32//59 26//47 27//49
f 32//59 27//49 28//51
f 32//59 28//51 29//53
f 32//59 29//53 30//55
f 32//59 30//55 31//57
f 32//59 31//57 24//43
g Cylinder_1_1
usemtl silver
v 0 0 0.615
v 0.3 0 0.615
v 0.21213 -0.21213 0.615
v -0 -0.3 0.615
v -0.21213 -0.21213 0.615
v -0.3 0 0.615
v -0.21213 0.21213 0.615
v 0 0.3 0.615
v 0.21213 0.21213 0.615
v 0.3 -0 -0.385
v 0.21213 -0.21213 -0.385
v -0 -0.3 -0.385
v -0.21213 -0.21213 -0.385
v -0.3 -0 -0.385
v -0.21213 0.21213 -0.385
v 0 0.3 -0.385
v 0.21213 0.21213 -0.385
v 0 -0 -0.385
vn 0 0 1
vn 0 0 1
vn 1 -0 0
vn 0 0 1
vn 0.70711 -0.70711 0
vn 0 0 1
vn -0 -1 0
vn 0 0 1
vn -0.70711 -0.70711 0
vn 0 0 1
vn -1 -0 0
vn 0 0 1
vn -0.70711 0.70711 -0
vn 0 0 1
vn 0 1 -0
vn 0 0 1
vn 0.70711 0.70711 -0
vn 0 -0 -1
vn 1 0 -0
vn 0 -0 -1
vn 0.70711 -0.70711 0
vn 0 -0 -1
vn 0 -1 0
vn 0 -0 -1
vn -0.70711 -0.70711 0
vn 0 -0 -1
vn -1 -0 0
vn 0 -0 -1
vn -0.70711 0.70711 -0
vn 0 -0 -1
vn -0 1 -0
vn 0 -0 -1
vn 0.70711 0.70711 -0
vn 0 -0 -1
f 35//63 34//61 33//60
f 36//65 35//63 33//60
f 37//67 36//65 33//60
f 38//69 37//67 33//60
f 39//71 38//69 33//60
f 40//73 39//71 33//60
f 41//75 40//73 33//60
f 34//61 41//75 33//60
f 42//78 34//62 35//64
f 43//80 35//64 36//66
f 44//82 36//66 37//68
f 45//84 37//68 38//70
f 46//86 38//70 39//72
f 47//88 39//72 40//74
f 48//90 40//74 41//76
f 49//92 41//76 34//62
f 42//78 35//64 43//80
f 43//80 36//66 44//82
f 44//82 37//68 45//84
f 45//84 38//70 46//86
f 46//86 39//72 47//88
f 47//88 40//74 48//90
f 48//90 41//76 49//92
f 49//92 34//62 42//78
f 50//93 42//77 43//79
f 50//93 43//79 44//81
f 50//93 44//81 45//83
f 50//93 45//83 46//85
f 50//93 46//85 47//87
f 50//93 47//87 48//89
f 50//93 48//89 49//91
f 50//93 49//91 42//77
g Cylinder_1_2
v 0 0 0.615
v 0.1 0 0.615
v -0 -0.1 0.615
v -0.1 0 0.615
v 0 0.1 0.615
v 0.1 -0 -0.385
v -0 -0.1 -0.385
v -0.1 -0 -0.385
v 0 0.1 -0.385
v 0 -0 -0.385
vn 0 0 1
vn 0 0 1
vn 1 -0 0
vn 0 0 1
vn -0 -1 0
vn 0 0 1
vn -1 0 -0
vn 0 0 1
vn 0 1 -0
vn 0 -0 -1
vn 1 -0 0
vn 0 -0 -1
vn -0 -1 0
vn 0 -0 -1
vn -1 0 -0
vn 0 -0 -1
vn 0 1 -0
vn 0 -0 -1
f 53//97 52//95 51//94
f 54//99 53//97 51//94
f 55//101 54//99 51//94
f 52//95 55//101 51//94
f 56//104 52//96 53//98
f 57//106 53//98 54//100
f 58//108 54//100 55//102
f 59//110 55//102 52//96
f 56//104 53//98 57//106
f 57//106 54//100 58//108
f 58//108 55//102 59//110
f 59//110 52//96 56//104
f 60//111 56//103 57//105
f 60//111 57//105 58//107
f 60//111 58//107 59//109
f 60//111 59//109 56//103
