# mobileangoloCiliegio.obj 3D model
#
# Created by LucaPresidente
#
# This file is distributed under Free Art License, see http://artlibre.org/licence/lal/en for more informations
# and under CC-BY Creative Commons Attribution 3.0 Unported license, see http://creativecommons.org/licenses/by/3.0/
# at your choice
# 
mtllib mobileangoloCiliegio.mtl
g Line28_1
usemtl Line28_1
v -20.3692 0.0 -3.6308
v -20.3692 0.0 -49.6308
v -20.3692 240.0 -49.6308
v -20.3692 240.0 -3.6308
v -106.3692 0.0 -49.6308
v -106.3692 240.0 -49.6308
v -106.3692 0.0 36.3692
v -106.3692 240.0 36.3692
v -60.3692 0.0 36.3692
v -60.3692 240.0 36.3692
vt 0.3721 0.0005 0
vt 0.7996 0.0005 0
vt 0.7996 0.9995 0
vt 0.3721 0.9995 0
vt 0.0004 0.0005 0
vt 0.0004 0.9995 0
vt 0.4279 0.0005 0
vt 0.4279 0.9995 0
vt 0.7996 0.4652 0
vt 0.0004 0.4652 0
vn 1.0 0.0 0.0
vn 0.0 0.0 -1.0
vn -1.0 0.0 0.0
vn 0.0 0.0 1.0
vn 0.7071068 0.0 0.7071068
vn 0.0 -1.0 0.0
vn 0.0 1.0 0.0
f 1/1/1 2/2/1 3/3/1
f 1/1/1 3/3/1 4/4/1
f 2/5/2 5/2/2 6/3/2
f 2/5/2 6/3/2 3/6/2
f 5/5/3 7/2/3 8/3/3
f 5/5/3 8/3/3 6/6/3
f 7/5/4 9/7/4 10/8/4
f 7/5/4 10/8/4 8/6/4
f 9/7/5 1/2/5 4/3/5
f 9/7/5 4/3/5 10/8/5
f 5/6/6 2/5/6 9/9/6
f 5/6/6 9/9/6 7/3/6
f 2/5/6 1/7/6 9/9/6
f 6/3/7 8/6/7 10/10/7
f 6/3/7 10/10/7 3/2/7
f 3/2/7 10/10/7 4/1/7
g Line29_2
usemtl Line28_1
v -57.1075 231.0 32.9862
v -21.7522 231.0 -2.3692
v -19.6308 231.0 -0.2478
v -54.9862 231.0 35.1075
v -21.7522 240.0 -2.3692
v -19.6308 240.0 -0.2478
v -57.1075 240.0 32.9862
v -54.9862 240.0 35.1075
v -56.4004 238.0 32.2791
v -22.4593 238.0 -1.6621
v -20.3379 238.0 0.4593
v -54.2791 238.0 34.4004
v -22.4593 233.0 -1.6621
v -20.3379 233.0 0.4593
v -56.4004 233.0 32.2791
v -54.2791 233.0 34.4004
vt 0.0005 0.0005 0
vt 0.5 0.0005 0
vt 0.5 0.9995 0
vt 0.0005 0.9995 0
vt 0.0105 0.7775 0
vt 0.49 0.7775 0
vt 0.49 0.2225 0
vt 0.0105 0.2225 0
vn 0.7071068 0.0 -0.7071068
vn -0.7071068 0.0 0.7071068
vn -0.7071068 0.0 -0.7071068
f 11/11/6 12/12/6 13/12/6
f 11/11/6 13/12/6 14/11/6
f 12/12/8 15/13/8 16/13/8
f 12/12/8 16/13/8 13/12/8
f 15/13/7 17/14/7 18/14/7
f 15/13/7 18/14/7 16/13/7
f 17/14/9 11/11/9 14/11/9
f 17/14/9 14/11/9 18/14/9
f 19/15/6 20/16/6 21/16/6
f 19/15/6 21/16/6 22/15/6
f 20/16/9 23/17/9 24/17/9
f 20/16/9 24/17/9 21/16/9
f 23/17/7 25/18/7 26/18/7
f 23/17/7 26/18/7 24/17/7
f 25/18/8 19/15/8 22/15/8
f 25/18/8 22/15/8 26/18/8
f 25/18/10 23/17/10 11/11/10
f 25/18/10 11/11/10 19/15/10
f 17/14/10 15/13/10 19/15/10
f 17/14/10 19/15/10 11/11/10
f 15/13/10 12/12/10 20/16/10
f 15/13/10 20/16/10 19/15/10
f 12/12/10 11/11/10 23/17/10
f 12/12/10 23/17/10 20/16/10
f 26/18/5 22/15/5 18/14/5
f 26/18/5 18/14/5 14/11/5
f 16/13/5 18/14/5 22/15/5
f 16/13/5 22/15/5 21/16/5
f 13/12/5 16/13/5 21/16/5
f 13/12/5 21/16/5 24/17/5
f 14/11/5 13/12/5 24/17/5
f 14/11/5 24/17/5 26/18/5
g Line30_3
usemtl Line28_1
v -19.6308 70.5 -0.2478
v -54.6326 70.5 34.754
v -56.7539 70.5 32.6326
v -21.7522 70.5 -2.3692
v -54.6326 230.5 34.754
v -56.7539 230.5 32.6326
v -19.6308 230.5 -0.2478
v -21.7522 230.5 -2.3692
v -20.3379 228.5 0.4593
v -54.2791 228.5 34.4004
v -56.4004 228.5 32.2791
v -22.4593 228.5 -1.6621
v -54.2791 226.5 34.4004
v -56.4004 226.5 32.2791
v -20.3379 226.5 0.4593
v -22.4593 226.5 -1.6621
v -20.3379 224.5 0.4593
v -54.2791 224.5 34.4004
v -56.4004 224.5 32.2791
v -22.4593 224.5 -1.6621
v -54.2791 222.5 34.4004
v -56.4004 222.5 32.2791
v -20.3379 222.5 0.4593
v -22.4593 222.5 -1.6621
v -20.3379 220.5 0.4593
v -54.2791 220.5 34.4004
v -56.4004 220.5 32.2791
v -22.4593 220.5 -1.6621
v -54.2791 168.0 34.4004
v -56.4004 168.0 32.2791
v -20.3379 168.0 0.4593
v -22.4593 168.0 -1.6621
v -20.3379 166.0 0.4593
v -54.2791 166.0 34.4004
v -56.4004 166.0 32.2791
v -22.4593 166.0 -1.6621
v -54.2791 164.0 34.4004
v -56.4004 164.0 32.2791
v -20.3379 164.0 0.4593
v -22.4593 164.0 -1.6621
v -20.3379 162.0 0.4593
v -54.2791 162.0 34.4004
v -56.4004 162.0 32.2791
v -22.4593 162.0 -1.6621
v -54.2791 160.0 34.4004
v -56.4004 160.0 32.2791
v -20.3379 160.0 0.4593
v -22.4593 160.0 -1.6621
v -20.3379 158.0 0.4593
v -54.2791 158.0 34.4004
v -56.4004 158.0 32.2791
v -22.4593 158.0 -1.6621
v -54.2791 80.5 34.4004
v -56.4004 80.5 32.2791
v -20.3379 80.5 0.4593
v -22.4593 80.5 -1.6621
v -20.3379 78.5 0.4593
v -54.2791 78.5 34.4004
v -56.4004 78.5 32.2791
v -22.4593 78.5 -1.6621
v -54.2791 76.5 34.4004
v -56.4004 76.5 32.2791
v -20.3379 76.5 0.4593
v -22.4593 76.5 -1.6621
v -20.3379 74.5 0.4593
v -54.2791 74.5 34.4004
v -56.4004 74.5 32.2791
v -22.4593 74.5 -1.6621
v -54.2791 72.5 34.4004
v -56.4004 72.5 32.2791
v -20.3379 72.5 0.4593
v -22.4593 72.5 -1.6621
vt 0.0003 0.0005 0
vt 0.6997 0.0005 0
vt 0.6997 0.9995 0
vt 0.0003 0.9995 0
vt 0.0145 0.987 0
vt 0.6926 0.987 0
vt 0.6926 0.9745 0
vt 0.0145 0.9745 0
vt 0.0145 0.962 0
vt 0.6926 0.962 0
vt 0.6926 0.9496 0
vt 0.0145 0.9496 0
vt 0.0145 0.9371 0
vt 0.6926 0.9371 0
vt 0.6926 0.6093 0
vt 0.0145 0.6093 0
vt 0.0145 0.5968 0
vt 0.6926 0.5968 0
vt 0.6926 0.5843 0
vt 0.0145 0.5843 0
vt 0.0145 0.5718 0
vt 0.6926 0.5718 0
vt 0.6926 0.5593 0
vt 0.0145 0.5593 0
vt 0.0145 0.5468 0
vt 0.6926 0.5468 0
vt 0.6926 0.0629 0
vt 0.0145 0.0629 0
vt 0.0145 0.0504 0
vt 0.6926 0.0504 0
vt 0.6926 0.038 0
vt 0.0145 0.038 0
vt 0.0145 0.0255 0
vt 0.6926 0.0255 0
vt 0.6926 0.013 0
vt 0.0145 0.013 0
f 27/19/6 28/20/6 29/20/6
f 27/19/6 29/20/6 30/19/6
f 28/20/9 31/21/9 32/21/9
f 28/20/9 32/21/9 29/20/9
f 31/21/7 33/22/7 34/22/7
f 31/21/7 34/22/7 32/21/7
f 33/22/8 27/19/8 30/19/8
f 33/22/8 30/19/8 34/22/8
f 35/23/6 36/24/6 37/24/6
f 35/23/6 37/24/6 38/23/6
f 36/24/8 39/25/8 40/25/8
f 36/24/8 40/25/8 37/24/8
f 39/25/7 41/26/7 42/26/7
f 39/25/7 42/26/7 40/25/7
f 41/26/9 35/23/9 38/23/9
f 41/26/9 38/23/9 42/26/9
f 43/27/6 44/28/6 45/28/6
f 43/27/6 45/28/6 46/27/6
f 44/28/8 47/29/8 48/29/8
f 44/28/8 48/29/8 45/28/8
f 47/29/7 49/30/7 50/30/7
f 47/29/7 50/30/7 48/29/7
f 49/30/9 43/27/9 46/27/9
f 49/30/9 46/27/9 50/30/9
f 51/31/6 52/32/6 53/32/6
f 51/31/6 53/32/6 54/31/6
f 52/32/8 55/33/8 56/33/8
f 52/32/8 56/33/8 53/32/8
f 55/33/7 57/34/7 58/34/7
f 55/33/7 58/34/7 56/33/7
f 57/34/9 51/31/9 54/31/9
f 57/34/9 54/31/9 58/34/9
f 59/35/6 60/36/6 61/36/6
f 59/35/6 61/36/6 62/35/6
f 60/36/8 63/37/8 64/37/8
f 60/36/8 64/37/8 61/36/8
f 63/37/7 65/38/7 66/38/7
f 63/37/7 66/38/7 64/37/7
f 65/38/9 59/35/9 62/35/9
f 65/38/9 62/35/9 66/38/9
f 67/39/6 68/40/6 69/40/6
f 67/39/6 69/40/6 70/39/6
f 68/40/8 71/41/8 72/41/8
f 68/40/8 72/41/8 69/40/8
f 71/41/7 73/42/7 74/42/7
f 71/41/7 74/42/7 72/41/7
f 73/42/9 67/39/9 70/39/9
f 73/42/9 70/39/9 74/42/9
f 75/43/6 76/44/6 77/44/6
f 75/43/6 77/44/6 78/43/6
f 76/44/8 79/45/8 80/45/8
f 76/44/8 80/45/8 77/44/8
f 79/45/7 81/46/7 82/46/7
f 79/45/7 82/46/7 80/45/7
f 81/46/9 75/43/9 78/43/9
f 81/46/9 78/43/9 82/46/9
f 83/47/6 84/48/6 85/48/6
f 83/47/6 85/48/6 86/47/6
f 84/48/8 87/49/8 88/49/8
f 84/48/8 88/49/8 85/48/8
f 87/49/7 89/50/7 90/50/7
f 87/49/7 90/50/7 88/49/7
f 89/50/9 83/47/9 86/47/9
f 89/50/9 86/47/9 90/50/9
f 91/51/6 92/52/6 93/52/6
f 91/51/6 93/52/6 94/51/6
f 92/52/8 95/53/8 96/53/8
f 92/52/8 96/53/8 93/52/8
f 95/53/7 97/54/7 98/54/7
f 95/53/7 98/54/7 96/53/7
f 97/54/9 91/51/9 94/51/9
f 97/54/9 94/51/9 98/54/9
f 30/19/10 54/31/10 50/30/10
f 30/19/10 50/30/10 34/22/10
f 30/19/10 62/35/10 58/34/10
f 30/19/10 58/34/10 54/31/10
f 34/22/10 42/26/10 38/23/10
f 34/22/10 38/23/10 32/21/10
f 37/24/10 29/20/10 32/21/10
f 37/24/10 32/21/10 38/23/10
f 42/26/10 34/22/10 46/27/10
f 42/26/10 46/27/10 40/25/10
f 45/28/10 29/20/10 40/25/10
f 45/28/10 40/25/10 46/27/10
f 61/36/10 56/33/10 58/34/10
f 61/36/10 58/34/10 62/35/10
f 30/19/10 70/39/10 66/38/10
f 30/19/10 66/38/10 62/35/10
f 69/40/10 64/37/10 66/38/10
f 69/40/10 66/38/10 70/39/10
f 30/19/10 78/43/10 74/42/10
f 30/19/10 74/42/10 70/39/10
f 77/44/10 72/41/10 74/42/10
f 77/44/10 74/42/10 78/43/10
f 30/19/10 86/47/10 82/46/10
f 30/19/10 82/46/10 78/43/10
f 85/48/10 80/45/10 82/46/10
f 85/48/10 82/46/10 86/47/10
f 90/50/10 30/19/10 94/51/10
f 90/50/10 94/51/10 88/49/10
f 93/52/10 29/20/10 88/49/10
f 93/52/10 88/49/10 94/51/10
f 86/47/10 30/19/10 90/50/10
f 30/19/10 29/20/10 98/54/10
f 30/19/10 98/54/10 94/51/10
f 37/24/10 40/25/10 29/20/10
f 48/29/10 53/32/10 29/20/10
f 48/29/10 29/20/10 45/28/10
f 29/20/10 93/52/10 96/53/10
f 29/20/10 96/53/10 98/54/10
f 46/27/10 34/22/10 50/30/10
f 50/30/10 54/31/10 53/32/10
f 50/30/10 53/32/10 48/29/10
f 56/33/10 61/36/10 29/20/10
f 56/33/10 29/20/10 53/32/10
f 64/37/10 69/40/10 29/20/10
f 64/37/10 29/20/10 61/36/10
f 72/41/10 77/44/10 29/20/10
f 72/41/10 29/20/10 69/40/10
f 80/45/10 85/48/10 29/20/10
f 80/45/10 29/20/10 77/44/10
f 85/48/10 88/49/10 29/20/10
f 51/31/5 57/34/5 27/19/5
f 51/31/5 27/19/5 33/22/5
f 33/22/5 31/21/5 36/24/5
f 33/22/5 36/24/5 35/23/5
f 41/26/5 39/25/5 44/28/5
f 41/26/5 44/28/5 43/27/5
f 57/34/5 55/33/5 60/36/5
f 57/34/5 60/36/5 59/35/5
f 27/19/5 57/34/5 59/35/5
f 27/19/5 59/35/5 65/38/5
f 65/38/5 63/37/5 68/40/5
f 65/38/5 68/40/5 67/39/5
f 27/19/5 65/38/5 67/39/5
f 27/19/5 67/39/5 73/42/5
f 73/42/5 71/41/5 76/44/5
f 73/42/5 76/44/5 75/43/5
f 27/19/5 73/42/5 75/43/5
f 27/19/5 75/43/5 81/46/5
f 81/46/5 79/45/5 84/48/5
f 81/46/5 84/48/5 83/47/5
f 89/50/5 87/49/5 92/52/5
f 89/50/5 92/52/5 91/51/5
f 27/19/5 81/46/5 83/47/5
f 27/19/5 83/47/5 89/50/5
f 27/19/5 89/50/5 91/51/5
f 27/19/5 91/51/5 97/54/5
f 39/25/5 36/24/5 31/21/5
f 39/25/5 31/21/5 28/20/5
f 44/28/5 39/25/5 28/20/5
f 44/28/5 28/20/5 47/29/5
f 95/53/5 28/20/5 27/19/5
f 95/53/5 27/19/5 97/54/5
f 33/22/5 35/23/5 41/26/5
f 33/22/5 41/26/5 43/27/5
f 28/20/5 95/53/5 92/52/5
f 28/20/5 92/52/5 87/49/5
f 33/22/5 43/27/5 49/30/5
f 33/22/5 49/30/5 51/31/5
f 52/32/5 51/31/5 49/30/5
f 52/32/5 49/30/5 47/29/5
f 52/32/5 47/29/5 28/20/5
f 52/32/5 28/20/5 55/33/5
f 60/36/5 55/33/5 28/20/5
f 60/36/5 28/20/5 63/37/5
f 68/40/5 63/37/5 28/20/5
f 68/40/5 28/20/5 71/41/5
f 76/44/5 71/41/5 28/20/5
f 76/44/5 28/20/5 79/45/5
f 84/48/5 79/45/5 28/20/5
f 84/48/5 28/20/5 87/49/5
g Line31_4
usemtl Line28_1
v -57.1075 55.25 32.9862
v -21.7522 55.25 -2.3692
v -19.6308 55.25 -0.2478
v -54.9862 55.25 35.1075
v -21.7522 69.75 -2.3692
v -19.6308 69.75 -0.2478
v -57.1075 69.75 32.9862
v -54.9862 69.75 35.1075
v -56.4004 68.0 32.2791
v -22.4593 68.0 -1.6621
v -20.338 68.0 0.4593
v -54.2791 68.0 34.4004
v -22.4593 57.0 -1.6621
v -20.338 57.0 0.4593
v -56.4004 57.0 32.2791
v -54.2791 57.0 34.4004
vt 0.0 0.0 0
vt 0.3876 0.0 0
vt 0.3876 1.0 0
vt 0.0 1.0 0
vt 0.5 0.0 0
vt 0.5 1.0 0
vt 0.8876 0.0 0
vt 0.8876 1.0 0
vt 1.0 0.0 0
vt 1.0 1.0 0
vt 0.4068 0.0 0
vt 0.4068 1.0 0
vt 0.9068 0.0 0
vt 0.9068 1.0 0
vt 0.02 0.1207 0
vt 0.98 0.1207 0
vt 0.02 0.8793 0
vt 0.98 0.8793 0
f 99/55/6 100/56/6 101/57/6
f 99/55/6 101/57/6 102/58/6
f 100/56/8 103/59/8 104/60/8
f 100/56/8 104/60/8 101/57/8
f 103/59/7 105/61/7 106/62/7
f 103/59/7 106/62/7 104/60/7
f 105/61/9 99/63/9 102/64/9
f 105/61/9 102/64/9 106/62/9
f 107/55/6 108/65/6 109/66/6
f 107/55/6 109/66/6 110/58/6
f 108/65/9 111/59/9 112/60/9
f 108/65/9 112/60/9 109/66/9
f 111/59/7 113/67/7 114/68/7
f 111/59/7 114/68/7 112/60/7
f 113/67/8 107/63/8 110/64/8
f 113/67/8 110/64/8 114/68/8
f 113/69/10 111/70/10 99/55/10
f 113/69/10 99/55/10 107/71/10
f 105/58/10 103/64/10 107/71/10
f 105/58/10 107/71/10 99/55/10
f 103/64/10 100/63/10 108/72/10
f 103/64/10 108/72/10 107/71/10
f 100/63/10 99/55/10 111/70/10
f 100/63/10 111/70/10 108/72/10
f 114/69/5 110/71/5 106/58/5
f 114/69/5 106/58/5 102/55/5
f 104/64/5 106/58/5 110/71/5
f 104/64/5 110/71/5 109/72/5
f 101/63/5 104/64/5 109/72/5
f 101/63/5 109/72/5 112/70/5
f 102/55/5 101/63/5 112/70/5
f 102/55/5 112/70/5 114/69/5
g Line32_5
usemtl Line28_1
v -57.1075 40.25 32.9862
v -21.7522 40.25 -2.3692
v -19.6308 40.25 -0.2478
v -54.9862 40.25 35.1075
v -21.7522 54.75 -2.3692
v -19.6308 54.75 -0.2478
v -57.1075 54.75 32.9862
v -54.9862 54.75 35.1075
v -56.4004 53.0 32.2791
v -22.4593 53.0 -1.6621
v -20.338 53.0 0.4593
v -54.2791 53.0 34.4004
v -22.4593 42.0 -1.6621
v -20.338 42.0 0.4593
v -56.4004 42.0 32.2791
v -54.2791 42.0 34.4004
f 115/55/6 116/56/6 117/57/6
f 115/55/6 117/57/6 118/58/6
f 116/56/8 119/59/8 120/60/8
f 116/56/8 120/60/8 117/57/8
f 119/59/7 121/61/7 122/62/7
f 119/59/7 122/62/7 120/60/7
f 121/61/9 115/63/9 118/64/9
f 121/61/9 118/64/9 122/62/9
f 123/55/6 124/65/6 125/66/6
f 123/55/6 125/66/6 126/58/6
f 124/65/9 127/59/9 128/60/9
f 124/65/9 128/60/9 125/66/9
f 127/59/7 129/67/7 130/68/7
f 127/59/7 130/68/7 128/60/7
f 129/67/8 123/63/8 126/64/8
f 129/67/8 126/64/8 130/68/8
f 129/69/10 127/70/10 115/55/10
f 129/69/10 115/55/10 123/71/10
f 121/58/10 119/64/10 123/71/10
f 121/58/10 123/71/10 115/55/10
f 119/64/10 116/63/10 124/72/10
f 119/64/10 124/72/10 123/71/10
f 116/63/10 115/55/10 127/70/10
f 116/63/10 127/70/10 124/72/10
f 130/69/5 126/71/5 122/58/5
f 130/69/5 122/58/5 118/55/5
f 120/64/5 122/58/5 126/71/5
f 120/64/5 126/71/5 125/72/5
f 117/63/5 120/64/5 125/72/5
f 117/63/5 125/72/5 128/70/5
f 118/55/5 117/63/5 128/70/5
f 118/55/5 128/70/5 130/69/5
g Line33_6
usemtl Line28_1
v -57.1075 25.25 32.9862
v -21.7522 25.25 -2.3692
v -19.6308 25.25 -0.2478
v -54.9862 25.25 35.1075
v -21.7522 39.75 -2.3692
v -19.6308 39.75 -0.2478
v -57.1075 39.75 32.9862
v -54.9862 39.75 35.1075
v -56.4004 38.0 32.2791
v -22.4593 38.0 -1.6621
v -20.338 38.0 0.4593
v -54.2791 38.0 34.4004
v -22.4593 27.0 -1.6621
v -20.338 27.0 0.4593
v -56.4004 27.0 32.2791
v -54.2791 27.0 34.4004
f 131/55/6 132/56/6 133/57/6
f 131/55/6 133/57/6 134/58/6
f 132/56/8 135/59/8 136/60/8
f 132/56/8 136/60/8 133/57/8
f 135/59/7 137/61/7 138/62/7
f 135/59/7 138/62/7 136/60/7
f 137/61/9 131/63/9 134/64/9
f 137/61/9 134/64/9 138/62/9
f 139/55/6 140/65/6 141/66/6
f 139/55/6 141/66/6 142/58/6
f 140/65/9 143/59/9 144/60/9
f 140/65/9 144/60/9 141/66/9
f 143/59/7 145/67/7 146/68/7
f 143/59/7 146/68/7 144/60/7
f 145/67/8 139/63/8 142/64/8
f 145/67/8 142/64/8 146/68/8
f 145/69/10 143/70/10 131/55/10
f 145/69/10 131/55/10 139/71/10
f 137/58/10 135/64/10 139/71/10
f 137/58/10 139/71/10 131/55/10
f 135/64/10 132/63/10 140/72/10
f 135/64/10 140/72/10 139/71/10
f 132/63/10 131/55/10 143/70/10
f 132/63/10 143/70/10 140/72/10
f 146/69/5 142/71/5 138/58/5
f 146/69/5 138/58/5 134/55/5
f 136/64/5 138/58/5 142/71/5
f 136/64/5 142/71/5 141/72/5
f 133/63/5 136/64/5 141/72/5
f 133/63/5 141/72/5 144/70/5
f 134/55/5 133/63/5 144/70/5
f 134/55/5 144/70/5 146/69/5
g Line34_7
usemtl Line28_1
v -57.1075 10.25 32.9862
v -21.7522 10.25 -2.3692
v -19.6308 10.25 -0.2478
v -54.9862 10.25 35.1075
v -21.7522 24.75 -2.3692
v -19.6308 24.75 -0.2478
v -57.1075 24.75 32.9862
v -54.9862 24.75 35.1075
v -56.4004 23.0 32.2791
v -22.4593 23.0 -1.6621
v -20.338 23.0 0.4593
v -54.2791 23.0 34.4004
v -22.4593 12.0 -1.6621
v -20.338 12.0 0.4593
v -56.4004 12.0 32.2791
v -54.2791 12.0 34.4004
f 147/55/6 148/56/6 149/57/6
f 147/55/6 149/57/6 150/58/6
f 148/56/8 151/59/8 152/60/8
f 148/56/8 152/60/8 149/57/8
f 151/59/7 153/61/7 154/62/7
f 151/59/7 154/62/7 152/60/7
f 153/61/9 147/63/9 150/64/9
f 153/61/9 150/64/9 154/62/9
f 155/55/6 156/65/6 157/66/6
f 155/55/6 157/66/6 158/58/6
f 156/65/9 159/59/9 160/60/9
f 156/65/9 160/60/9 157/66/9
f 159/59/7 161/67/7 162/68/7
f 159/59/7 162/68/7 160/60/7
f 161/67/8 155/63/8 158/64/8
f 161/67/8 158/64/8 162/68/8
f 161/69/10 159/70/10 147/55/10
f 161/69/10 147/55/10 155/71/10
f 153/58/10 151/64/10 155/71/10
f 153/58/10 155/71/10 147/55/10
f 151/64/10 148/63/10 156/72/10
f 151/64/10 156/72/10 155/71/10
f 148/63/10 147/55/10 159/70/10
f 148/63/10 159/70/10 156/72/10
f 162/69/5 158/71/5 154/58/5
f 162/69/5 154/58/5 150/55/5
f 152/64/5 154/58/5 158/71/5
f 152/64/5 158/71/5 157/72/5
f 149/63/5 152/64/5 157/72/5
f 149/63/5 157/72/5 160/70/5
f 150/55/5 149/63/5 160/70/5
f 150/55/5 160/70/5 162/69/5
g Box52_8
usemtl Line28_1
v -56.4004 11.5 32.2791
v -56.4004 239.5 32.2791
v -22.4593 239.5 -1.6621
v -22.4593 11.5 -1.6621
v -55.6933 11.5 32.9862
v -21.7522 11.5 -0.955
v -21.7522 239.5 -0.9549
v -55.6933 239.5 32.9862
vt 0.0145 -0.2118 0
vt 0.0145 1.2118 0
vt 0.6926 1.2118 0
vt 0.6926 -0.2118 0
f 163/73/10 164/74/10 165/75/10
f 163/73/10 165/75/10 166/76/10
f 167/73/5 168/76/5 169/75/5
f 167/73/5 169/75/5 170/74/5
f 163/73/6 166/76/6 168/76/6
f 163/73/6 168/76/6 167/73/6
f 166/76/8 165/75/8 169/75/8
f 166/76/8 169/75/8 168/76/8
f 165/75/7 164/74/7 170/74/7
f 165/75/7 170/74/7 169/75/7
f 164/74/9 163/73/9 167/73/9
f 164/74/9 167/73/9 170/74/9
