# baguettes.obj produced by Art of Illusion 2.8.1, Thu Jul 04 10:45:38 CEST 2013
#
# Created by Thomas PUYBARET / eTeks for Sweet Home 3D
# Copyright (c) 2013 Emmanuel PUYBARET / eTeks <info@eteks.com>
#
# This file is distributed under Free Art License, see http://artlibre.org/licence/lal/en for more informations
# and under CC-BY Creative Commons Attribution 3.0 Unported license, see http://creativecommons.org/licenses/by/3.0/
# at your choice
#
mtllib baguettes.mtl
g baguette_droite
usemtl marron_clair
v -1.77697 -0.22621 10.49059
v -1.77697 -0.22605 10.45941
v -1.92911 -0.23353 10.19345
v -1.77697 0.28526 10.45941
v -1.77697 0.28543 10.49059
v -2.12626 -0.17807 9.81472
v -2.00075 -0.24554 10.05581
v -2.15346 -0.08025 9.76246
v -2.0724 0.29275 9.91818
v -2.0724 -0.23353 9.91818
v -2.15346 0.13947 9.76246
v -2.12626 0.23729 9.81472
v -2.00075 0.30476 10.05581
v -2.16313 0.02961 9.7439
v -1.92911 0.29275 10.19345
v -1.69788 0.02961 -10.50941
v -1.71191 -0.04403 -10.50941
v -1.7461 -0.1008 -10.50941
v -1.81887 -0.1354 -10.50941
v -1.94788 -0.14539 -10.50941
v -2.07688 -0.1354 -10.50941
v -2.14965 -0.1008 -10.50941
v -2.18385 -0.04403 -10.50941
v -2.19788 0.02961 -10.50941
v -2.18385 0.10325 -10.50941
v -2.14965 0.16002 -10.50941
v -2.07688 0.19462 -10.50941
v -1.94788 0.20461 -10.50941
v -1.81887 0.19462 -10.50941
v -1.7461 0.16002 -10.50941
v -1.71191 0.10325 -10.50941
v -1.69788 0.02961 -10.50941
v -1.71191 -0.04403 -10.50941
v -1.7461 -0.1008 -10.50941
v -1.81887 -0.1354 -10.50941
v -1.94788 -0.14539 -10.50941
v -2.07688 -0.1354 -10.50941
v -2.14965 -0.1008 -10.50941
v -2.18385 -0.04403 -10.50941
v -2.19788 0.02961 -10.50941
v -2.18385 0.10325 -10.50941
v -2.14965 0.16002 -10.50941
v -2.07688 0.19462 -10.50941
v -1.94788 0.20461 -10.50941
v -1.81887 0.19462 -10.50941
v -1.7461 0.16002 -10.50941
v -1.71191 0.10325 -10.50941
v -1.94788 0.02961 -10.50941
v -1.59608 0.02961 10.49059
v -1.61702 -0.08031 10.49059
v -1.67597 -0.17818 10.49059
v -1.67597 0.2374 10.49059
v -1.61702 0.13952 10.49059
vn -1 0 0
vn -1 -0 -0
vn 0.34952 -0.73509 0.58094
vn 0.38007 -0.92494 -0.00496
vn -0.96603 0 0.25842
vn 0.07778 -0.99696 -0.00554
vn -0.878 -0 0.47867
vn -0.04041 0.99917 -0.00514
vn -0.87699 0 0.48051
vn -0.44293 0.70341 0.5559
vn -0.8114 -0.58449 -0.00226
vn -0.88701 -0 0.46175
vn -0.88701 -0 0.46175
vn 0.12213 -0.99251 -0.00401
vn -0.88701 -0 0.46175
vn -0.98069 -0.19559 0.0006
vn -0.27307 0.96198 -0.00429
vn -0.88701 -0 0.46175
vn -0.88701 -0 0.46175
vn -0.27222 -0.96222 -0.00498
vn -0.88701 -0 0.46175
vn -0.98077 0.19516 0.00127
vn -0.88701 -0 0.46175
vn -0.81233 0.5832 -0.00101
vn -0.88701 -0 0.46175
vn 0.12329 0.99236 -0.00444
vn -0.88701 -0 0.46175
vn -1 -0.00014 0.00153
vn -0.878 0 0.47867
vn 0.07517 0.99716 -0.00442
vn 0.99999 -0 -0.00485
vn 0 0 0
vn 0 0 0
vn 0.93405 -0.35711 -0.00484
vn 0 0 0
vn 0.67088 -0.74156 -0.00354
vn 0.25843 -0.96602 -0.00338
vn 0 0 0
vn 0 0 0
vn 0.00004 -0.99999 -0.00473
vn 0 0 0
vn -0.25818 -0.96609 -0.00392
vn 0 0 0
vn -0.67231 -0.74027 -0.00134
vn -0.93421 -0.35672 0.00104
vn 0 0 0
vn 0 0 0
vn -1 -0.00017 0.00144
vn 0 0 0
vn -0.9343 0.35649 0.00009
vn 0 0 0
vn -0.6723 0.74027 -0.00272
vn 0 0 0
vn -0.25786 0.96617 -0.00473
vn 0 0 0
vn 0.00024 0.99999 -0.0047
vn 0.25748 0.96627 -0.00462
vn 0 0 0
vn 0 0 0
vn 0.67152 0.74097 -0.00497
vn 0.93405 0.35711 -0.00484
vn 0 0 0
vn 0 0 -1
vn 0 0 0
vn 0 0 -1
vn 0 0 0
vn 0 0 -1
vn 0 0 0
vn 0 0 -1
vn 0 0 0
vn 0 0 -1
vn 0 0 0
vn 0 0 -1
vn 0 0 0
vn 0 0 -1
vn 0 0 0
vn 0 0 -1
vn 0 0 0
vn 0 0 -1
vn 0 0 0
vn 0 0 -1
vn 0 0 0
vn 0 0 -1
vn 0 0 0
vn 0 0 -1
vn 0 0 0
vn 0 0 -1
vn 0 0 0
vn 0 0 -1
vn 0 0 0
vn 0 0 -1
vn 0 0 0
vn 0 0 -1
vn 0 0 0
vn 0 0 -1
vn 0.74638 0 0.66552
vn 0.69528 -0.26583 0.66778
vn 0.51275 -0.56577 0.64575
vn 0.51275 0.56577 0.64575
vn 0.69528 0.26583 0.66778
f 51//98 1//3 2//4
f 28//56 15//30 29//57
f 53//100 30//60 52//99
f 4//9 2//5 1//1
f 21//42 10//20 6//11
f 5//10 52//99 4//8
f 29//57 15//30 4//8
f 22//44 8//16 23//45
f 25//50 11//22 12//24
f 23//45 8//16 14//28
f 51//98 17//34 50//97
f 10//20 20//40 7//14
f 4//9 3//7 2//5
f 20//40 10//20 21//42
f 27//54 13//26 28//56
f 18//36 51//98 2//4
f 11//22 24//48 14//28
f 6//12 3//7 9//18
f 3//6 18//36 2//4
f 23//45 14//28 24//48
f 52//99 5//10 1//3
f 6//12 7//13 3//7
f 28//56 13//26 15//30
f 4//8 1//2 5//10
f 50//97 49//96 1//3
f 50//97 1//3 51//98
f 24//48 11//22 25//50
f 26//52 12//24 9//17
f 31//61 30//60 53//100
f 21//42 6//11 22//44
f 49//96 31//61 53//100
f 13//26 27//54 9//17
f 11//21 8//15 6//12
f 11//21 6//12 12//23
f 18//36 3//6 19//37
f 52//99 29//57 4//8
f 9//18 3//7 13//25
f 25//50 12//24 26//52
f 7//14 19//37 3//6
f 22//44 6//11 8//16
f 6//12 10//19 7//13
f 8//15 11//21 14//27
f 53//100 1//3 49//96
f 52//99 1//3 53//100
f 6//12 9//18 12//23
f 19//37 7//14 20//40
f 13//25 3//7 15//29
f 26//52 9//17 27//54
f 3//7 4//9 15//29
f 18//36 17//34 51//98
f 30//60 29//57 52//99
f 32//64 16//32 17//33
f 33//66 17//33 18//35
f 34//68 18//35 19//38
f 35//70 19//38 20//39
f 36//72 20//39 21//41
f 37//74 21//41 22//43
f 38//76 22//43 23//46
f 39//78 23//46 24//47
f 40//80 24//47 25//49
f 41//82 25//49 26//51
f 42//84 26//51 27//53
f 43//86 27//53 28//55
f 44//88 28//55 29//58
f 45//90 29//58 30//59
f 46//92 30//59 31//62
f 47//94 31//62 16//32
f 32//64 17//33 33//66
f 33//66 18//35 34//68
f 34//68 19//38 35//70
f 35//70 20//39 36//72
f 36//72 21//41 37//74
f 37//74 22//43 38//76
f 38//76 23//46 39//78
f 39//78 24//47 40//80
f 40//80 25//49 41//82
f 41//82 26//51 42//84
f 42//84 27//53 43//86
f 43//86 28//55 44//88
f 44//88 29//58 45//90
f 45//90 30//59 46//92
f 46//92 31//62 47//94
f 47//94 16//32 32//64
f 48//95 32//63 33//65
f 48//95 33//65 34//67
f 48//95 34//67 35//69
f 48//95 35//69 36//71
f 48//95 36//71 37//73
f 48//95 37//73 38//75
f 48//95 38//75 39//77
f 48//95 39//77 40//79
f 48//95 40//79 41//81
f 48//95 41//81 42//83
f 48//95 42//83 43//85
f 48//95 43//85 44//87
f 48//95 44//87 45//89
f 48//95 45//89 46//91
f 48//95 46//91 47//93
f 48//95 47//93 32//63
f 17//34 16//31 50//97
f 50//97 16//31 49//96
f 16//31 31//61 49//96
g baguette_gauche
usemtl marron_clair
v -2.86307 0.28582 10.49059
v -2.86307 0.28566 10.45941
v -2.71089 0.29314 10.19345
v -2.86307 -0.22537 10.45941
v -2.86307 -0.22554 10.49059
v -2.51367 0.23771 9.81472
v -2.63922 0.30514 10.05581
v -2.48646 0.13994 9.76246
v -2.56755 -0.23285 9.91818
v -2.56755 0.29314 9.91818
v -2.48646 -0.07966 9.76246
v -2.51367 -0.17742 9.81472
v -2.63922 -0.24486 10.05581
v -2.47679 0.03014 9.7439
v -2.71089 -0.23285 10.19345
v -2.9422 0.03014 -10.50941
v -2.92816 0.10374 -10.50941
v -2.89396 0.16048 -10.50941
v -2.82116 0.19507 -10.50941
v -2.69211 0.20505 -10.50941
v -2.56307 0.19507 -10.50941
v -2.49027 0.16048 -10.50941
v -2.45606 0.10374 -10.50941
v -2.44203 0.03014 -10.50941
v -2.45606 -0.04345 -10.50941
v -2.49027 -0.1002 -10.50941
v -2.56307 -0.13478 -10.50941
v -2.69211 -0.14476 -10.50941
v -2.82116 -0.13478 -10.50941
v -2.89396 -0.1002 -10.50941
v -2.92816 -0.04345 -10.50941
v -2.9422 0.03014 -10.50941
v -2.92816 0.10374 -10.50941
v -2.89396 0.16048 -10.50941
v -2.82116 0.19507 -10.50941
v -2.69211 0.20505 -10.50941
v -2.56307 0.19507 -10.50941
v -2.49027 0.16048 -10.50941
v -2.45606 0.10374 -10.50941
v -2.44203 0.03014 -10.50941
v -2.45606 -0.04345 -10.50941
v -2.49027 -0.1002 -10.50941
v -2.56307 -0.13478 -10.50941
v -2.69211 -0.14476 -10.50941
v -2.82116 -0.13478 -10.50941
v -2.89396 -0.1002 -10.50941
v -2.92816 -0.04345 -10.50941
v -2.69211 0.03014 -10.50941
v -3.04403 0.03014 10.49059
v -3.02308 0.14 10.49059
v -2.96411 0.23782 10.49059
v -2.96411 -0.17754 10.49059
v -3.02308 -0.07971 10.49059
vn 1 -0 0
vn 1 0 -0
vn -0.34923 0.73513 0.58105
vn -0.37978 0.92506 -0.00496
vn 0.96601 -0 0.25849
vn -0.07772 0.99696 -0.00554
vn 0.87793 0 0.47879
vn 0.04069 -0.99916 -0.00514
vn 0.87693 -0 0.48062
vn 0.44305 -0.70333 0.55592
vn 0.81117 0.58481 -0.00226
vn 0.88695 0 0.46187
vn 0.88695 0 0.46187
vn -0.12201 0.99252 -0.00401
vn 0.88695 0 0.46187
vn 0.98065 0.19576 0.0006
vn 0.27289 -0.96204 -0.00429
vn 0.88695 0 0.46187
vn 0.88695 0 0.46187
vn 0.27204 0.96227 -0.00497
vn 0.88695 0 0.46187
vn 0.98074 -0.19533 0.00127
vn 0.88695 0 0.46187
vn 0.81209 -0.58353 -0.00101
vn 0.88695 0 0.46187
vn -0.12317 -0.99238 -0.00444
vn 0.88695 0 0.46187
vn 1 0.00014 0.00153
vn 0.87793 -0 0.47879
vn -0.07511 -0.99717 -0.00442
vn -0.99999 -0 -0.00485
vn 0 0 0
vn 0 0 0
vn -0.93395 0.35737 -0.00484
vn 0 0 0
vn -0.6706 0.74181 -0.00354
vn -0.25824 0.96608 -0.00337
vn 0 0 0
vn 0 0 0
vn -0.00004 0.99999 -0.00473
vn 0 0 0
vn 0.25798 0.96614 -0.00392
vn 0 0 0
vn 0.67204 0.74051 -0.00134
vn 0.93411 0.35698 0.00104
vn 0 0 0
vn 0 0 0
vn 1 0.00017 0.00144
vn 0 0 0
vn 0.9342 -0.35675 0.00009
vn 0 0 0
vn 0.67203 -0.74052 -0.00272
vn 0 0 0
vn 0.25766 -0.96622 -0.00472
vn 0 0 0
vn -0.00024 -0.99999 -0.0047
vn -0.25728 -0.96633 -0.00461
vn 0 0 0
vn 0 0 0
vn -0.67125 -0.74121 -0.00497
vn -0.93395 -0.35737 -0.00484
vn 0 0 0
vn 0 -0 -1
vn 0 0 0
vn 0 -0 -1
vn 0 0 0
vn 0 -0 -1
vn 0 0 0
vn 0 -0 -1
vn 0 0 0
vn 0 -0 -1
vn 0 0 0
vn 0 -0 -1
vn 0 0 0
vn 0 -0 -1
vn 0 0 0
vn 0 -0 -1
vn 0 0 0
vn 0 -0 -1
vn 0 0 0
vn 0 -0 -1
vn 0 0 0
vn 0 -0 -1
vn 0 0 0
vn 0 -0 -1
vn 0 0 0
vn 0 -0 -1
vn 0 0 0
vn 0 -0 -1
vn 0 0 0
vn 0 -0 -1
vn 0 0 0
vn 0 -0 -1
vn 0 0 0
vn 0 -0 -1
vn -0.74641 -0 0.66548
vn -0.69523 0.26602 0.66775
vn -0.51254 0.56595 0.64576
vn -0.51254 -0.56595 0.64576
vn -0.69523 -0.26602 0.66775
f 104//198 54//103 55//104
f 81//156 68//130 82//157
f 106//200 83//160 105//199
f 57//109 55//105 54//101
f 74//142 63//120 59//111
f 58//110 105//199 57//108
f 82//157 68//130 57//108
f 75//144 61//116 76//145
f 78//150 64//122 65//124
f 76//145 61//116 67//128
f 104//198 70//134 103//197
f 63//120 73//140 60//114
f 57//109 56//107 55//105
f 73//140 63//120 74//142
f 80//154 66//126 81//156
f 71//136 104//198 55//104
f 64//122 77//148 67//128
f 59//112 56//107 62//118
f 56//106 71//136 55//104
f 76//145 67//128 77//148
f 105//199 58//110 54//103
f 59//112 60//113 56//107
f 81//156 66//126 68//130
f 57//108 54//102 58//110
f 103//197 102//196 54//103
f 103//197 54//103 104//198
f 77//148 64//122 78//150
f 79//152 65//124 62//117
f 84//161 83//160 106//200
f 74//142 59//111 75//144
f 102//196 84//161 106//200
f 66//126 80//154 62//117
f 64//121 61//115 59//112
f 64//121 59//112 65//123
f 71//136 56//106 72//137
f 105//199 82//157 57//108
f 62//118 56//107 66//125
f 78//150 65//124 79//152
f 60//114 72//137 56//106
f 75//144 59//111 61//116
f 59//112 63//119 60//113
f 61//115 64//121 67//127
f 106//200 54//103 102//196
f 105//199 54//103 106//200
f 59//112 62//118 65//123
f 72//137 60//114 73//140
f 66//125 56//107 68//129
f 79//152 62//117 80//154
f 56//107 57//109 68//129
f 71//136 70//134 104//198
f 83//160 82//157 105//199
f 85//164 69//132 70//133
f 86//166 70//133 71//135
f 87//168 71//135 72//138
f 88//170 72//138 73//139
f 89//172 73//139 74//141
f 90//174 74//141 75//143
f 91//176 75//143 76//146
f 92//178 76//146 77//147
f 93//180 77//147 78//149
f 94//182 78//149 79//151
f 95//184 79//151 80//153
f 96//186 80//153 81//155
f 97//188 81//155 82//158
f 98//190 82//158 83//159
f 99//192 83//159 84//162
f 100//194 84//162 69//132
f 85//164 70//133 86//166
f 86//166 71//135 87//168
f 87//168 72//138 88//170
f 88//170 73//139 89//172
f 89//172 74//141 90//174
f 90//174 75//143 91//176
f 91//176 76//146 92//178
f 92//178 77//147 93//180
f 93//180 78//149 94//182
f 94//182 79//151 95//184
f 95//184 80//153 96//186
f 96//186 81//155 97//188
f 97//188 82//158 98//190
f 98//190 83//159 99//192
f 99//192 84//162 100//194
f 100//194 69//132 85//164
f 101//195 85//163 86//165
f 101//195 86//165 87//167
f 101//195 87//167 88//169
f 101//195 88//169 89//171
f 101//195 89//171 90//173
f 101//195 90//173 91//175
f 101//195 91//175 92//177
f 101//195 92//177 93//179
f 101//195 93//179 94//181
f 101//195 94//181 95//183
f 101//195 95//183 96//185
f 101//195 96//185 97//187
f 101//195 97//187 98//189
f 101//195 98//189 99//191
f 101//195 99//191 100//193
f 101//195 100//193 85//163
f 70//134 69//131 103//197
f 103//197 69//131 102//196
f 69//131 84//161 102//196
