# pizza.obj produced by Art of Illusion 2.8.1, Fri Jun 21 11:40:43 CEST 2013
#
# Created by Thomas PUYBARET / eTeks for Sweet Home 3D
# Copyright (c) 2013 Emmanuel PUYBARET / eTeks <info@eteks.com>
#
# This file is distributed under Free Art License, see http://artlibre.org/licence/lal/en for more informations
# and under CC-BY Creative Commons Attribution 3.0 Unported license, see http://creativecommons.org/licenses/by/3.0/
# at your choice
#
mtllib pizza.mtl
g Cylinder_4
usemtl pizza
v 0.09687 -0.02381 0.03519
v 14.05945 -0.02381 -0.05606
v 13.77553 -0.02381 -2.98242
v 13.22732 -0.02381 -5.70506
v 11.89726 -0.02381 -8.29836
v 9.81613 -0.02381 -10.27835
v 7.93147 -0.02381 -12.43685
v 5.44816 -0.02381 -13.823
v 2.75569 -0.02381 -14.67658
v -0.04096 -0.02381 -14.96481
v -2.83255 -0.02381 -14.67658
v -5.30815 -0.02381 -13.62119
v -7.76685 -0.02381 -12.23504
v -10.11291 -0.02381 -10.57141
v -11.85971 -0.02381 -8.29836
v -13.14198 -0.02381 -5.70506
v -13.54625 -0.02381 -2.89116
v -14.13947 -0.02381 0.03519
v -13.81974 -0.02381 2.96155
v -12.66374 -0.02381 5.57364
v -11.61434 -0.02381 8.36875
v -9.81684 -0.02381 10.6418
v -7.64375 -0.02381 12.50724
v -5.07752 -0.02381 13.79248
v -2.51455 -0.02381 14.74697
v 0.24725 -0.02381 15.03519
v 2.91178 -0.02381 14.47321
v 5.7725 -0.02381 13.64665
v 8.20914 -0.02381 12.2605
v 10.2206 -0.02381 10.6418
v 11.97202 -0.02381 8.36875
v 12.99851 -0.02381 5.68419
v 14.07015 -0.02381 2.96155
v 14.844 0.38557 -0.05606
v 14.55578 0.38557 -2.98242
v 13.97596 0.38557 -5.70506
v 12.58981 0.38557 -8.29836
v 10.4313 0.38557 -10.27835
v 8.45132 0.38557 -12.43685
v 5.85801 0.38557 -13.823
v 3.04412 0.38557 -14.67658
v 0.11776 0.38557 -14.96481
v -2.80859 0.38557 -14.67658
v -5.42068 0.38557 -13.62119
v -8.01398 0.38557 -12.23504
v -10.48884 0.38557 -10.57141
v -12.35428 0.38557 -8.29836
v -13.74043 0.38557 -5.70506
v -14.229 0.38557 -2.89116
v -14.88224 0.38557 0.03519
v -14.59402 0.38557 2.96155
v -13.43772 0.38557 5.57364
v -12.35428 0.38557 8.36875
v -10.48884 0.38557 10.6418
v -8.21579 0.38557 12.50724
v -5.52159 0.38557 13.79248
v -2.80859 0.38557 14.74697
v 0.11776 0.38557 15.03519
v 2.95286 0.38557 14.47321
v 5.98138 0.38557 13.64665
v 8.57468 0.38557 12.2605
v 10.72436 0.38557 10.6418
v 12.58981 0.38557 8.36875
v 13.70219 0.38557 5.68419
v 14.82954 0.38557 2.96155
v 0.11776 0.38557 0.03519
v 14.54255 0.88557 -0.05606
v 14.26012 0.88557 -2.92361
v 13.69745 0.88557 -5.5897
v 12.33916 0.88557 -8.13088
v 10.21814 0.88557 -10.06519
v 8.28384 0.88557 -12.1862
v 5.74265 0.88557 -13.54449
v 2.98531 0.88557 -14.38093
v 0.11776 0.88557 -14.66335
v -2.74978 0.88557 -14.38093
v -5.30532 0.88557 -13.34269
v -7.84651 0.88557 -11.9844
v -10.27568 0.88557 -10.35825
v -12.10363 0.88557 -8.13088
v -13.46193 0.88557 -5.5897
v -13.93334 0.88557 -2.83235
v -14.58079 0.88557 0.03519
v -14.29836 0.88557 2.90274
v -13.15922 0.88557 5.45828
v -12.10363 0.88557 8.20127
v -10.27568 0.88557 10.42864
v -8.04831 0.88557 12.25659
v -5.40623 0.88557 13.51398
v -2.74978 0.88557 14.45131
v 0.11776 0.88557 14.73374
v 2.89405 0.88557 14.17755
v 5.86602 0.88557 13.36815
v 8.40721 0.88557 12.00986
v 10.51121 0.88557 10.42864
v 12.33916 0.88557 8.20127
v 13.42368 0.88557 5.56883
v 14.53388 0.88557 2.90274
v 13.53771 0.88557 -0.05606
v 13.27459 0.88557 -2.72757
v 12.7691 0.88557 -5.20516
v 11.50367 0.88557 -7.57262
v 9.50762 0.88557 -9.35466
v 7.72558 0.88557 -11.35071
v 5.35812 0.88557 -12.61614
v 2.78927 0.88557 -13.39539
v 0.11776 0.88557 -13.65852
v -2.55375 0.88557 -13.39539
v -4.92079 0.88557 -12.41434
v -7.28825 0.88557 -11.1489
v -9.56515 0.88557 -9.64772
v -11.26814 0.88557 -7.57262
v -12.53358 0.88557 -5.20516
v -12.94781 0.88557 -2.63632
v -13.57595 0.88557 0.03519
v -13.31283 0.88557 2.7067
v -12.23087 0.88557 5.07374
v -11.26814 0.88557 7.64301
v -9.56515 0.88557 9.71811
v -7.49006 0.88557 11.4211
v -5.02169 0.88557 12.58563
v -2.55375 0.88557 13.46578
v 0.11776 0.88557 13.7289
v 2.69802 0.88557 13.19202
v 5.48149 0.88557 12.4398
v 7.84895 0.88557 11.17436
v 9.80068 0.88557 9.71811
v 11.50367 0.88557 7.64301
v 12.49534 0.88557 5.1843
v 13.54835 0.88557 2.7067
v 13.23626 0.38557 -0.05606
v 12.97893 0.38557 -2.66876
v 12.4906 0.38557 -5.0898
v 11.25302 0.38557 -7.40515
v 9.29446 0.38557 -9.1415
v 7.5581 0.38557 -11.10006
v 5.24276 0.38557 -12.33764
v 2.73046 0.38557 -13.09974
v 0.11776 0.38557 -13.35706
v -2.49494 0.38557 -13.09974
v -4.80543 0.38557 -12.13583
v -7.12077 0.38557 -10.89825
v -9.35199 0.38557 -9.43456
v -11.01749 0.38557 -7.40515
v -12.25507 0.38557 -5.0898
v -12.65215 0.38557 -2.57751
v -13.2745 0.38557 0.03519
v -13.01717 0.38557 2.64789
v -11.95236 0.38557 4.95838
v -11.01749 0.38557 7.47553
v -9.35199 0.38557 9.50495
v -7.32258 0.38557 11.17045
v -4.90633 0.38557 12.30712
v -2.49494 0.38557 13.17012
v 0.11776 0.38557 13.42745
v 2.63921 0.38557 12.89636
v 5.36613 0.38557 12.16129
v 7.68147 0.38557 10.92371
v 9.58752 0.38557 9.50495
v 11.25302 0.38557 7.47553
v 12.21683 0.38557 5.06893
v 13.25269 0.38557 2.64789
vn 0 -1 0
vn 0 -1 0
vn 0.46352 -0.8858 -0.0223
vn 0 -1 0
vn 0.46325 -0.88336 -0.07129
vn 0 -1 0
vn 0.47049 -0.86345 -0.18192
vn 0 -1 0
vn 0.46424 -0.78981 -0.40085
vn 0 -1 0
vn 0.49024 -0.74179 -0.45762
vn 0 -1 0
vn 0.45558 -0.58506 -0.67094
vn 0 -1 0
vn 0.32929 -0.33473 -0.88291
vn 0 -1 0
vn 0.16033 -0.11656 -0.98016
vn 0 -1 0
vn -0.02578 0.00863 -0.99963
vn 0 -1 0
vn -0.25342 0.01633 -0.96722
vn 0 -1 0
vn -0.42298 -0.11005 -0.89943
vn 0 -1 0
vn -0.48942 -0.28786 -0.82317
vn 0 -1 0
vn -0.55575 -0.50188 -0.66277
vn 0 -1 0
vn -0.58789 -0.69947 -0.40636
vn 0 -1 0
vn -0.55768 -0.80512 -0.20192
vn 0 -1 0
vn -0.51613 -0.85123 -0.09496
vn 0 -1 0
vn -0.48499 -0.87404 -0.02892
vn 0 -1 0
vn -0.4643 -0.8752 0.13582
vn 0 -1 0
vn -0.45951 -0.8688 0.18451
vn 0 -1 0
vn -0.46154 -0.83705 0.29381
vn 0 -1 0
vn -0.45469 -0.75116 0.47855
vn 0 -1 0
vn -0.40698 -0.57453 0.71013
vn 0 -1 0
vn -0.34366 -0.37807 0.85963
vn 0 -1 0
vn -0.17376 -0.13004 0.97616
vn 0 -1 0
vn 0.08407 0.02481 0.99615
vn 0 -1 0
vn 0.23414 -0.01959 0.972
vn 0 -1 0
vn 0.34454 -0.17082 0.9231
vn 0 -1 0
vn 0.47506 -0.41504 0.77592
vn 0 -1 0
vn 0.51852 -0.62671 0.5817
vn 0 -1 0
vn 0.52444 -0.78108 0.33894
vn 0 -1 0
vn 0.49676 -0.84446 0.20032
vn 0 -1 0
vn 0.47417 -0.87412 0.10528
vn 0.85597 0.51547 -0.04003
vn 0.46269 -0.88628 -0.02076
vn 0.84635 0.516 -0.13204
vn 0.46491 -0.88273 -0.0681
vn 0.80399 0.51644 -0.29479
vn 0.47592 -0.86517 -0.15805
vn 0.679 0.51547 -0.52273
vn 0.48243 -0.81077 -0.33152
vn 0.60506 0.51566 -0.60662
vn 0.48419 -0.72098 -0.49573
vn 0.52327 0.51614 -0.67808
vn 0.51053 -0.64292 -0.57098
vn 0.32773 0.51632 -0.7912
vn 0.3914 -0.3883 -0.83428
vn 0.16707 0.51632 -0.83994
vn 0.22938 -0.1603 -0.96005
vn -0 0.51632 -0.85639
vn 0.02147 -0.00974 -0.99972
vn -0.20289 0.51598 -0.83223
vn -0.24176 0.00813 -0.9703
vn -0.36304 0.51549 -0.77619
vn -0.43803 -0.12781 -0.88983
vn -0.44199 0.51591 -0.73381
vn -0.51205 -0.31771 -0.79804
vn -0.57683 0.51638 -0.63294
vn -0.5955 -0.55848 -0.57748
vn -0.71207 0.51632 -0.47579
vn -0.58965 -0.72366 -0.35865
vn -0.80933 0.51568 -0.28117
vn -0.55186 -0.81704 -0.16704
vn -0.84057 0.51573 -0.1657
vn -0.50901 -0.85523 -0.0974
vn -0.85496 0.51625 -0.05031
vn -0.48104 -0.87634 -0.02501
vn -0.82918 0.51568 0.2157
vn -0.46447 -0.87845 0.11224
vn -0.79097 0.51573 0.32921
vn -0.46009 -0.86688 0.19191
vn -0.73874 0.51626 0.43329
vn -0.47139 -0.84665 0.24695
vn -0.60556 0.51632 0.60556
vn -0.47179 -0.76822 0.43272
vn -0.46002 0.51623 0.72242
vn -0.4545 -0.62966 0.63005
vn -0.32669 0.51611 0.79177
vn -0.37411 -0.40075 0.83632
vn -0.18503 0.51645 0.83609
vn -0.25762 -0.18335 0.94869
vn 0.03988 0.51591 0.85571
vn 0.02456 0.00405 0.99969
vn 0.19663 0.51561 0.83395
vn 0.23806 -0.02865 0.97083
vn 0.31677 0.51641 0.79559
vn 0.40206 -0.21424 0.8902
vn 0.46119 0.51624 0.72166
vn 0.51061 -0.46762 0.72153
vn 0.59295 0.51647 0.61779
vn 0.54042 -0.67644 0.50037
vn 0.73377 0.51591 0.44207
vn 0.52565 -0.80338 0.27978
vn 0.79176 0.51585 0.32714
vn 0.49031 -0.84878 0.1979
vn 0.83914 0.51681 0.16954
vn 0.47162 -0.87776 0.08428
vn 0 1 0
vn 0.50322 0.86381 -0.02439
vn 0.49907 0.86313 -0.077
vn 0.49281 0.85166 -0.17837
vn 0.41761 0.8478 -0.32687
vn 0.33973 0.8767 -0.34057
vn 0.32766 0.84759 -0.41741
vn 0.19684 0.85756 -0.47522
vn 0.10035 0.85756 -0.50449
vn -0 0.85756 -0.51438
vn -0.12641 0.85146 -0.50896
vn -0.21441 0.86356 -0.45639
vn -0.2592 0.86382 -0.432
vn -0.35197 0.85091 -0.38997
vn -0.42769 0.85756 -0.28577
vn -0.50007 0.84913 -0.17004
vn -0.47658 0.8741 -0.09395
vn -0.52721 0.84903 -0.03456
vn -0.51025 0.84916 0.13632
vn -0.44855 0.87405 0.18668
vn -0.45747 0.84906 0.26424
vn -0.36372 0.85756 0.36372
vn -0.27821 0.85447 0.43872
vn -0.19226 0.86362 0.46604
vn -0.11316 0.85454 0.5069
vn 0.02699 0.8509 0.52464
vn 0.11518 0.86604 0.48652
vn 0.19093 0.85564 0.48107
vn 0.274 0.86034 0.42982
vn 0.35884 0.85468 0.37518
vn 0.45135 0.85086 0.26893
vn 0.45431 0.87085 0.18771
vn 0.52462 0.84468 0.10624
vn -0.4803 0.87676 0.02461
vn -0.47413 0.87752 0.07189
vn -0.42862 0.89007 0.15513
vn -0.3536 0.89383 0.27576
vn -0.3568 0.8629 0.3579
vn -0.27598 0.89403 0.3529
vn -0.17901 0.88384 0.43217
vn -0.09126 0.88384 0.45879
vn 0 0.88384 0.46778
vn 0.10973 0.89026 0.44204
vn 0.20557 0.877 0.43429
vn 0.24631 0.87675 0.41309
vn 0.30464 0.89078 0.3372
vn 0.38895 0.88384 0.25988
vn 0.42678 0.89256 0.14559
vn 0.49108 0.86575 0.0965
vn 0.44988 0.89262 0.02893
vn 0.43581 0.89254 -0.11598
vn 0.46185 0.86581 -0.19254
vn 0.39014 0.89259 -0.22599
vn 0.33077 0.88384 -0.33077
vn 0.24709 0.88714 -0.38978
vn 0.18307 0.87723 -0.44379
vn 0.1007 0.88708 -0.4505
vn -0.02317 0.89081 -0.45379
vn -0.11308 0.87442 -0.4718
vn -0.17106 0.88591 -0.43117
vn -0.25417 0.88074 -0.39961
vn -0.31908 0.88696 -0.3339
vn -0.39019 0.89084 -0.23272
vn -0.45684 0.86932 -0.18863
vn -0.43164 0.8978 -0.08741
vn -0.50212 0.86439 0.0266
vn -0.49846 0.86369 0.0747
vn -0.49461 0.85103 0.17635
vn -0.41638 0.84683 0.33091
vn -0.33727 0.87854 0.33826
vn -0.33186 0.84658 0.41615
vn -0.19684 0.85756 0.47522
vn -0.10035 0.85756 0.50449
vn 0 0.85756 0.51438
vn 0.12911 0.85083 0.50933
vn 0.21609 0.86416 0.45445
vn 0.25675 0.8644 0.43231
vn 0.35072 0.85025 0.39251
vn 0.42769 0.85756 0.28577
vn 0.50248 0.84827 0.16719
vn 0.4738 0.8757 0.09312
vn 0.52832 0.8482 0.03802
vn 0.51066 0.8483 -0.14002
vn 0.44578 0.87564 -0.18583
vn 0.4603 0.84823 -0.26198
vn 0.36372 0.85756 -0.36372
vn 0.27747 0.85418 -0.43976
vn 0.19184 0.86421 -0.46512
vn 0.11446 0.85424 -0.50712
vn -0.02974 0.85023 -0.52557
vn -0.11662 0.86686 -0.48472
vn -0.19039 0.85546 -0.4816
vn -0.27277 0.86063 -0.43002
vn -0.35829 0.85436 -0.37642
vn -0.45364 0.85019 -0.26717
vn -0.45224 0.87213 -0.18673
vn -0.52643 0.84347 -0.10691
vt 0.4993 0.5
vt 0.969 0.50304
vt 0.95945 0.60059
vt 0.94101 0.69134
vt 0.89627 0.77779
vt 0.82626 0.84378
vt 0.76286 0.91573
vt 0.67932 0.96194
vt 0.58874 0.99039
vt 0.49466 1
vt 0.40075 0.99039
vt 0.31747 0.95521
vt 0.23476 0.90901
vt 0.15584 0.85355
vt 0.09707 0.77779
vt 0.05394 0.69134
vt 0.04034 0.59755
vt 0.02038 0.5
vt 0.03114 0.40245
vt 0.07003 0.31539
vt 0.10533 0.22221
vt 0.1658 0.14645
vt 0.2389 0.08427
vt 0.32523 0.04142
vt 0.41145 0.00961
vt 0.50436 0
vt 0.59399 0.01873
vt 0.69023 0.04628
vt 0.7722 0.09249
vt 0.83986 0.14645
vt 0.89878 0.22221
vt 0.93331 0.3117
vt 0.96936 0.40245
vt 0.9954 0.50304
vt 0.9857 0.60059
vt 0.96619 0.69134
vt 0.91956 0.77779
vt 0.84695 0.84378
vt 0.78034 0.91573
vt 0.6931 0.96194
vt 0.59844 0.99039
vt 0.5 1
vt 0.40156 0.99039
vt 0.31368 0.95521
vt 0.22645 0.90901
vt 0.14319 0.85355
vt 0.08044 0.77779
vt 0.03381 0.69134
vt 0.01737 0.59755
vt -0.0046 0.5
vt 0.00509 0.40245
vt 0.04399 0.31539
vt 0.08044 0.22221
vt 0.14319 0.14645
vt 0.21966 0.08427
vt 0.31029 0.04142
vt 0.40156 0.00961
vt 0.5 0
vt 0.59537 0.01873
vt 0.69725 0.04628
vt 0.78449 0.09249
vt 0.85681 0.14645
vt 0.91956 0.22221
vt 0.95698 0.3117
vt 0.99491 0.40245
vt 0.5 0.5
vt 0.98525 0.50304
vt 0.97575 0.59863
vt 0.95683 0.6875
vt 0.91113 0.7722
vt 0.83978 0.83668
vt 0.77471 0.90738
vt 0.68922 0.95266
vt 0.59647 0.98054
vt 0.5 0.98995
vt 0.40353 0.98054
vt 0.31757 0.94593
vt 0.23208 0.90065
vt 0.15036 0.84645
vt 0.08887 0.7722
vt 0.04317 0.6875
vt 0.02732 0.59558
vt 0.00554 0.5
vt 0.01504 0.40442
vt 0.05336 0.31923
vt 0.08887 0.2278
vt 0.15036 0.15355
vt 0.22529 0.09262
vt 0.31417 0.05071
vt 0.40353 0.01946
vt 0.5 0.01005
vt 0.5934 0.02859
vt 0.69337 0.05557
vt 0.77886 0.10084
vt 0.84964 0.15355
vt 0.91113 0.2278
vt 0.94762 0.31555
vt 0.98496 0.40442
vt 0.95145 0.50304
vt 0.9426 0.59209
vt 0.9256 0.67468
vt 0.88303 0.75359
vt 0.81588 0.813
vt 0.75593 0.87953
vt 0.67629 0.92171
vt 0.58987 0.94769
vt 0.5 0.95646
vt 0.41013 0.94769
vt 0.3305 0.91498
vt 0.25086 0.8728
vt 0.17426 0.82276
vt 0.11697 0.75359
vt 0.0744 0.67468
vt 0.06047 0.58905
vt 0.03934 0.5
vt 0.04819 0.41095
vt 0.08459 0.33205
vt 0.11697 0.24641
vt 0.17426 0.17724
vt 0.24407 0.12047
vt 0.32711 0.08165
vt 0.41013 0.05231
vt 0.5 0.04354
vt 0.5868 0.06144
vt 0.68044 0.08651
vt 0.76008 0.12869
vt 0.82574 0.17724
vt 0.88303 0.24641
vt 0.91639 0.32836
vt 0.95181 0.41095
vt 0.94131 0.50304
vt 0.93265 0.59013
vt 0.91623 0.67083
vt 0.87459 0.74801
vt 0.80871 0.80589
vt 0.7503 0.87118
vt 0.67241 0.91243
vt 0.58789 0.93783
vt 0.5 0.94641
vt 0.41211 0.93783
vt 0.33438 0.9057
vt 0.25649 0.86445
vt 0.18143 0.81566
vt 0.12541 0.74801
vt 0.08377 0.67083
vt 0.07042 0.58709
vt 0.04948 0.5
vt 0.05814 0.41291
vt 0.09396 0.33589
vt 0.12541 0.25199
vt 0.18143 0.18434
vt 0.2497 0.12882
vt 0.33099 0.09094
vt 0.41211 0.06217
vt 0.5 0.05359
vt 0.58482 0.07129
vt 0.67656 0.0958
vt 0.75445 0.13705
vt 0.81857 0.18434
vt 0.87459 0.25199
vt 0.90702 0.33221
vt 0.94186 0.41291
f 3/3/4 2/2/2 1/1/1
f 4/4/6 3/3/4 1/1/1
f 5/5/8 4/4/6 1/1/1
f 6/6/10 5/5/8 1/1/1
f 7/7/12 6/6/10 1/1/1
f 8/8/14 7/7/12 1/1/1
f 9/9/16 8/8/14 1/1/1
f 10/10/18 9/9/16 1/1/1
f 11/11/20 10/10/18 1/1/1
f 12/12/22 11/11/20 1/1/1
f 13/13/24 12/12/22 1/1/1
f 14/14/26 13/13/24 1/1/1
f 15/15/28 14/14/26 1/1/1
f 16/16/30 15/15/28 1/1/1
f 17/17/32 16/16/30 1/1/1
f 18/18/34 17/17/32 1/1/1
f 19/19/36 18/18/34 1/1/1
f 20/20/38 19/19/36 1/1/1
f 21/21/40 20/20/38 1/1/1
f 22/22/42 21/21/40 1/1/1
f 23/23/44 22/22/42 1/1/1
f 24/24/46 23/23/44 1/1/1
f 25/25/48 24/24/46 1/1/1
f 26/26/50 25/25/48 1/1/1
f 27/27/52 26/26/50 1/1/1
f 28/28/54 27/27/52 1/1/1
f 29/29/56 28/28/54 1/1/1
f 30/30/58 29/29/56 1/1/1
f 31/31/60 30/30/58 1/1/1
f 32/32/62 31/31/60 1/1/1
f 33/33/64 32/32/62 1/1/1
f 2/2/2 33/33/64 1/1/1
f 34/34/67 2/2/3 3/3/5
f 35/35/69 3/3/5 4/4/7
f 36/36/71 4/4/7 5/5/9
f 37/37/73 5/5/9 6/6/11
f 38/38/75 6/6/11 7/7/13
f 39/39/77 7/7/13 8/8/15
f 40/40/79 8/8/15 9/9/17
f 41/41/81 9/9/17 10/10/19
f 42/42/83 10/10/19 11/11/21
f 43/43/85 11/11/21 12/12/23
f 44/44/87 12/12/23 13/13/25
f 45/45/89 13/13/25 14/14/27
f 46/46/91 14/14/27 15/15/29
f 47/47/93 15/15/29 16/16/31
f 48/48/95 16/16/31 17/17/33
f 49/49/97 17/17/33 18/18/35
f 50/50/99 18/18/35 19/19/37
f 51/51/101 19/19/37 20/20/39
f 52/52/103 20/20/39 21/21/41
f 53/53/105 21/21/41 22/22/43
f 54/54/107 22/22/43 23/23/45
f 55/55/109 23/23/45 24/24/47
f 56/56/111 24/24/47 25/25/49
f 57/57/113 25/25/49 26/26/51
f 58/58/115 26/26/51 27/27/53
f 59/59/117 27/27/53 28/28/55
f 60/60/119 28/28/55 29/29/57
f 61/61/121 29/29/57 30/30/59
f 62/62/123 30/30/59 31/31/61
f 63/63/125 31/31/61 32/32/63
f 64/64/127 32/32/63 33/33/65
f 65/65/129 33/33/65 2/2/3
f 34/34/67 3/3/5 35/35/69
f 35/35/69 4/4/7 36/36/71
f 36/36/71 5/5/9 37/37/73
f 37/37/73 6/6/11 38/38/75
f 38/38/75 7/7/13 39/39/77
f 39/39/77 8/8/15 40/40/79
f 40/40/79 9/9/17 41/41/81
f 41/41/81 10/10/19 42/42/83
f 42/42/83 11/11/21 43/43/85
f 43/43/85 12/12/23 44/44/87
f 44/44/87 13/13/25 45/45/89
f 45/45/89 14/14/27 46/46/91
f 46/46/91 15/15/29 47/47/93
f 47/47/93 16/16/31 48/48/95
f 48/48/95 17/17/33 49/49/97
f 49/49/97 18/18/35 50/50/99
f 50/50/99 19/19/37 51/51/101
f 51/51/101 20/20/39 52/52/103
f 52/52/103 21/21/41 53/53/105
f 53/53/105 22/22/43 54/54/107
f 54/54/107 23/23/45 55/55/109
f 55/55/109 24/24/47 56/56/111
f 56/56/111 25/25/49 57/57/113
f 57/57/113 26/26/51 58/58/115
f 58/58/115 27/27/53 59/59/117
f 59/59/117 28/28/55 60/60/119
f 60/60/119 29/29/57 61/61/121
f 61/61/121 30/30/59 62/62/123
f 62/62/123 31/31/61 63/63/125
f 63/63/125 32/32/63 64/64/127
f 64/64/127 33/33/65 65/65/129
f 65/65/129 2/2/3 34/34/67
f 66/66/130 131/131/195 132/132/196
f 66/66/130 132/132/196 133/133/197
f 66/66/130 133/133/197 134/134/198
f 66/66/130 134/134/198 135/135/199
f 66/66/130 135/135/199 136/136/200
f 66/66/130 136/136/200 137/137/201
f 66/66/130 137/137/201 138/138/202
f 66/66/130 138/138/202 139/139/203
f 66/66/130 139/139/203 140/140/204
f 66/66/130 140/140/204 141/141/205
f 66/66/130 141/141/205 142/142/206
f 66/66/130 142/142/206 143/143/207
f 66/66/130 143/143/207 144/144/208
f 66/66/130 144/144/208 145/145/209
f 66/66/130 145/145/209 146/146/210
f 66/66/130 146/146/210 147/147/211
f 66/66/130 147/147/211 148/148/212
f 66/66/130 148/148/212 149/149/213
f 66/66/130 149/149/213 150/150/214
f 66/66/130 150/150/214 151/151/215
f 66/66/130 151/151/215 152/152/216
f 66/66/130 152/152/216 153/153/217
f 66/66/130 153/153/217 154/154/218
f 66/66/130 154/154/218 155/155/219
f 66/66/130 155/155/219 156/156/220
f 66/66/130 156/156/220 157/157/221
f 66/66/130 157/157/221 158/158/222
f 66/66/130 158/158/222 159/159/223
f 66/66/130 159/159/223 160/160/224
f 66/66/130 160/160/224 161/161/225
f 66/66/130 161/161/225 162/162/226
f 66/66/130 162/162/226 131/131/195
f 34/34/66 35/35/68 67/67/131
f 67/67/131 35/35/68 68/68/132
f 65/65/128 34/34/66 98/98/162
f 98/98/162 34/34/66 67/67/131
f 35/35/68 36/36/70 68/68/132
f 68/68/132 36/36/70 69/69/133
f 36/36/70 37/37/72 69/69/133
f 69/69/133 37/37/72 70/70/134
f 37/37/72 38/38/74 70/70/134
f 70/70/134 38/38/74 71/71/135
f 38/38/74 39/39/76 71/71/135
f 71/71/135 39/39/76 72/72/136
f 39/39/76 40/40/78 72/72/136
f 72/72/136 40/40/78 73/73/137
f 40/40/78 41/41/80 73/73/137
f 73/73/137 41/41/80 74/74/138
f 41/41/80 42/42/82 74/74/138
f 74/74/138 42/42/82 75/75/139
f 42/42/82 43/43/84 75/75/139
f 75/75/139 43/43/84 76/76/140
f 43/43/84 44/44/86 76/76/140
f 76/76/140 44/44/86 77/77/141
f 44/44/86 45/45/88 77/77/141
f 77/77/141 45/45/88 78/78/142
f 45/45/88 46/46/90 78/78/142
f 78/78/142 46/46/90 79/79/143
f 46/46/90 47/47/92 79/79/143
f 79/79/143 47/47/92 80/80/144
f 47/47/92 48/48/94 80/80/144
f 80/80/144 48/48/94 81/81/145
f 48/48/94 49/49/96 81/81/145
f 81/81/145 49/49/96 82/82/146
f 49/49/96 50/50/98 82/82/146
f 82/82/146 50/50/98 83/83/147
f 50/50/98 51/51/100 83/83/147
f 83/83/147 51/51/100 84/84/148
f 51/51/100 52/52/102 84/84/148
f 84/84/148 52/52/102 85/85/149
f 52/52/102 53/53/104 85/85/149
f 85/85/149 53/53/104 86/86/150
f 53/53/104 54/54/106 86/86/150
f 86/86/150 54/54/106 87/87/151
f 54/54/106 55/55/108 87/87/151
f 87/87/151 55/55/108 88/88/152
f 55/55/108 56/56/110 88/88/152
f 88/88/152 56/56/110 89/89/153
f 56/56/110 57/57/112 89/89/153
f 89/89/153 57/57/112 90/90/154
f 57/57/112 58/58/114 90/90/154
f 90/90/154 58/58/114 91/91/155
f 58/58/114 59/59/116 91/91/155
f 91/91/155 59/59/116 92/92/156
f 59/59/116 60/60/118 92/92/156
f 92/92/156 60/60/118 93/93/157
f 60/60/118 61/61/120 93/93/157
f 93/93/157 61/61/120 94/94/158
f 61/61/120 62/62/122 94/94/158
f 94/94/158 62/62/122 95/95/159
f 62/62/122 63/63/124 95/95/159
f 95/95/159 63/63/124 96/96/160
f 63/63/124 64/64/126 96/96/160
f 96/96/160 64/64/126 97/97/161
f 64/64/126 65/65/128 97/97/161
f 97/97/161 65/65/128 98/98/162
f 67/67/131 68/68/132 99/99/163
f 99/99/163 68/68/132 100/100/164
f 98/98/162 67/67/131 130/130/194
f 130/130/194 67/67/131 99/99/163
f 68/68/132 69/69/133 100/100/164
f 100/100/164 69/69/133 101/101/165
f 69/69/133 70/70/134 101/101/165
f 101/101/165 70/70/134 102/102/166
f 70/70/134 71/71/135 102/102/166
f 102/102/166 71/71/135 103/103/167
f 71/71/135 72/72/136 103/103/167
f 103/103/167 72/72/136 104/104/168
f 72/72/136 73/73/137 104/104/168
f 104/104/168 73/73/137 105/105/169
f 73/73/137 74/74/138 105/105/169
f 105/105/169 74/74/138 106/106/170
f 74/74/138 75/75/139 106/106/170
f 106/106/170 75/75/139 107/107/171
f 75/75/139 76/76/140 107/107/171
f 107/107/171 76/76/140 108/108/172
f 76/76/140 77/77/141 108/108/172
f 108/108/172 77/77/141 109/109/173
f 77/77/141 78/78/142 109/109/173
f 109/109/173 78/78/142 110/110/174
f 78/78/142 79/79/143 110/110/174
f 110/110/174 79/79/143 111/111/175
f 79/79/143 80/80/144 111/111/175
f 111/111/175 80/80/144 112/112/176
f 80/80/144 81/81/145 112/112/176
f 112/112/176 81/81/145 113/113/177
f 81/81/145 82/82/146 113/113/177
f 113/113/177 82/82/146 114/114/178
f 82/82/146 83/83/147 114/114/178
f 114/114/178 83/83/147 115/115/179
f 83/83/147 84/84/148 115/115/179
f 115/115/179 84/84/148 116/116/180
f 84/84/148 85/85/149 116/116/180
f 116/116/180 85/85/149 117/117/181
f 85/85/149 86/86/150 117/117/181
f 117/117/181 86/86/150 118/118/182
f 86/86/150 87/87/151 118/118/182
f 118/118/182 87/87/151 119/119/183
f 87/87/151 88/88/152 119/119/183
f 119/119/183 88/88/152 120/120/184
f 88/88/152 89/89/153 120/120/184
f 120/120/184 89/89/153 121/121/185
f 89/89/153 90/90/154 121/121/185
f 121/121/185 90/90/154 122/122/186
f 90/90/154 91/91/155 122/122/186
f 122/122/186 91/91/155 123/123/187
f 91/91/155 92/92/156 123/123/187
f 123/123/187 92/92/156 124/124/188
f 92/92/156 93/93/157 124/124/188
f 124/124/188 93/93/157 125/125/189
f 93/93/157 94/94/158 125/125/189
f 125/125/189 94/94/158 126/126/190
f 94/94/158 95/95/159 126/126/190
f 126/126/190 95/95/159 127/127/191
f 95/95/159 96/96/160 127/127/191
f 127/127/191 96/96/160 128/128/192
f 96/96/160 97/97/161 128/128/192
f 128/128/192 97/97/161 129/129/193
f 97/97/161 98/98/162 129/129/193
f 129/129/193 98/98/162 130/130/194
f 99/99/163 100/100/164 131/131/195
f 131/131/195 100/100/164 132/132/196
f 130/130/194 99/99/163 162/162/226
f 162/162/226 99/99/163 131/131/195
f 100/100/164 101/101/165 132/132/196
f 132/132/196 101/101/165 133/133/197
f 101/101/165 102/102/166 133/133/197
f 133/133/197 102/102/166 134/134/198
f 102/102/166 103/103/167 134/134/198
f 134/134/198 103/103/167 135/135/199
f 103/103/167 104/104/168 135/135/199
f 135/135/199 104/104/168 136/136/200
f 104/104/168 105/105/169 136/136/200
f 136/136/200 105/105/169 137/137/201
f 105/105/169 106/106/170 137/137/201
f 137/137/201 106/106/170 138/138/202
f 106/106/170 107/107/171 138/138/202
f 138/138/202 107/107/171 139/139/203
f 107/107/171 108/108/172 139/139/203
f 139/139/203 108/108/172 140/140/204
f 108/108/172 109/109/173 140/140/204
f 140/140/204 109/109/173 141/141/205
f 109/109/173 110/110/174 141/141/205
f 141/141/205 110/110/174 142/142/206
f 110/110/174 111/111/175 142/142/206
f 142/142/206 111/111/175 143/143/207
f 111/111/175 112/112/176 143/143/207
f 143/143/207 112/112/176 144/144/208
f 112/112/176 113/113/177 144/144/208
f 144/144/208 113/113/177 145/145/209
f 113/113/177 114/114/178 145/145/209
f 145/145/209 114/114/178 146/146/210
f 114/114/178 115/115/179 146/146/210
f 146/146/210 115/115/179 147/147/211
f 115/115/179 116/116/180 147/147/211
f 147/147/211 116/116/180 148/148/212
f 116/116/180 117/117/181 148/148/212
f 148/148/212 117/117/181 149/149/213
f 117/117/181 118/118/182 149/149/213
f 149/149/213 118/118/182 150/150/214
f 118/118/182 119/119/183 150/150/214
f 150/150/214 119/119/183 151/151/215
f 119/119/183 120/120/184 151/151/215
f 151/151/215 120/120/184 152/152/216
f 120/120/184 121/121/185 152/152/216
f 152/152/216 121/121/185 153/153/217
f 121/121/185 122/122/186 153/153/217
f 153/153/217 122/122/186 154/154/218
f 122/122/186 123/123/187 154/154/218
f 154/154/218 123/123/187 155/155/219
f 123/123/187 124/124/188 155/155/219
f 155/155/219 124/124/188 156/156/220
f 124/124/188 125/125/189 156/156/220
f 156/156/220 125/125/189 157/157/221
f 125/125/189 126/126/190 157/157/221
f 157/157/221 126/126/190 158/158/222
f 126/126/190 127/127/191 158/158/222
f 158/158/222 127/127/191 159/159/223
f 127/127/191 128/128/192 159/159/223
f 159/159/223 128/128/192 160/160/224
f 128/128/192 129/129/193 160/160/224
f 160/160/224 129/129/193 161/161/225
f 129/129/193 130/130/194 161/161/225
f 161/161/225 130/130/194 162/162/226
