# Blender v2.76 (sub 0) OBJ File: 'window_2x1_with_sliders.blend'
# www.blender.org
mtllib window_2x1_with_sliders.mtl
o Cube.002_Cube.016
v 86.058983 -8.500000 13.006414
v 86.058983 -8.499999 13.222415
v 86.058983 8.499999 13.006413
v 86.058983 8.500000 13.222414
v 88.374626 -8.500000 13.006414
v 88.374626 -8.499999 13.222415
v 88.374626 8.499999 13.006413
v 88.374626 8.500000 13.222414
v 86.058983 -4.494536 13.222414
v 86.058983 4.494539 13.222414
v 86.058983 4.494536 13.006414
v 86.058983 -4.494539 13.006414
v 88.374626 4.494538 13.222414
v 88.374626 -4.494537 13.222414
v 88.374626 -4.494538 13.006414
v 88.374626 4.494537 13.006414
v 86.368332 8.500000 13.222414
v 88.065277 8.500000 13.222414
v 88.065277 8.499999 13.006413
v 86.368332 8.499999 13.006413
v 88.065277 -8.499999 13.222415
v 86.368332 -8.499999 13.222415
v 86.368332 -8.500000 13.006414
v 88.065277 -8.500000 13.006414
v 88.065277 -4.494536 13.222414
v 86.368332 -4.494536 13.222414
v 88.065277 4.494538 13.222414
v 86.368332 4.494538 13.222414
v 86.368332 -4.494538 13.006414
v 88.065277 -4.494538 13.006414
v 86.368332 4.494536 13.006414
v 88.065277 4.494536 13.006414
v 88.065277 -4.494536 13.039408
v 86.368332 -4.494536 13.039408
v 88.065277 4.494538 13.039408
v 86.368332 4.494538 13.039408
vn -1.000000 -0.000000 0.000000
vn 0.000000 1.000000 -0.000000
vn 1.000000 0.000000 0.000000
vn 0.000000 -1.000000 0.000000
vn 0.000000 -0.000000 -1.000000
vn 0.000000 0.000000 1.000000
usemtl Frame_in
s off
f 10//1 4//1 3//1 11//1
f 18//2 8//2 7//2 19//2
f 14//3 6//3 5//3 15//3
f 22//4 2//4 1//4 23//4
f 32//5 19//5 7//5 16//5
f 28//6 17//6 4//6 10//6
f 22//6 26//6 9//6 2//6
f 26//6 28//6 10//6 9//6
f 24//5 30//5 15//5 5//5
f 30//5 32//5 16//5 15//5
f 8//3 13//3 16//3 7//3
f 13//3 14//3 15//3 16//3
f 2//1 9//1 12//1 1//1
f 9//1 10//1 11//1 12//1
f 12//5 11//5 31//5 29//5
f 29//5 31//5 32//5 30//5
f 1//5 12//5 29//5 23//5
f 23//5 29//5 30//5 24//5
f 14//6 13//6 27//6 25//6
f 25//1 27//1 35//1 33//1
f 6//6 14//6 25//6 21//6
f 21//6 25//6 26//6 22//6
f 13//6 8//6 18//6 27//6
f 27//6 18//6 17//6 28//6
f 11//5 3//5 20//5 31//5
f 31//5 20//5 19//5 32//5
f 6//4 21//4 24//4 5//4
f 21//4 22//4 23//4 24//4
f 4//2 17//2 20//2 3//2
f 17//2 18//2 19//2 20//2
f 28//3 26//3 34//3 36//3
f 26//2 25//2 33//2 34//2
f 27//4 28//4 36//4 35//4
usemtl black-plastic
f 33//6 35//6 36//6 34//6
o Cube_Cube.014
v -88.397964 -8.500000 10.506414
v -88.397964 -8.499999 10.722415
v -88.397964 8.499999 10.506413
v -88.397964 8.500000 10.722414
v -86.082321 -8.500000 10.506414
v -86.082321 -8.499999 10.722415
v -86.082321 8.499999 10.506413
v -86.082321 8.500000 10.722414
v -88.397964 -4.494536 10.722414
v -88.397964 4.494539 10.722414
v -88.397964 4.494536 10.506414
v -88.397964 -4.494539 10.506414
v -86.082321 4.494538 10.722414
v -86.082321 -4.494537 10.722414
v -86.082321 -4.494538 10.506414
v -86.082321 4.494537 10.506414
v -88.088615 8.500000 10.722414
v -86.391670 8.500000 10.722414
v -86.391670 8.499999 10.506413
v -88.088615 8.499999 10.506413
v -86.391670 -8.499999 10.722415
v -88.088615 -8.499999 10.722415
v -88.088615 -8.500000 10.506414
v -86.391670 -8.500000 10.506414
v -86.391670 -4.494536 10.722414
v -88.088615 -4.494536 10.722414
v -86.391670 4.494538 10.722414
v -88.088615 4.494538 10.722414
v -88.088615 -4.494538 10.506414
v -86.391670 -4.494538 10.506414
v -88.088615 4.494536 10.506414
v -86.391670 4.494536 10.506414
v -86.391670 -4.494536 10.539408
v -88.088615 -4.494536 10.539408
v -86.391670 4.494538 10.539408
v -88.088615 4.494538 10.539408
vn -1.000000 0.000000 0.000000
vn 0.000000 1.000000 -0.000000
vn 1.000000 0.000000 0.000000
vn 0.000000 -1.000000 0.000000
vn 0.000000 -0.000000 -1.000000
vn -0.000000 0.000000 1.000000
usemtl Frame_in
s off
f 46//7 40//7 39//7 47//7
f 54//8 44//8 43//8 55//8
f 50//9 42//9 41//9 51//9
f 58//10 38//10 37//10 59//10
f 68//11 55//11 43//11 52//11
f 64//12 53//12 40//12 46//12
f 58//12 62//12 45//12 38//12
f 62//12 64//12 46//12 45//12
f 60//11 66//11 51//11 41//11
f 66//11 68//11 52//11 51//11
f 44//9 49//9 52//9 43//9
f 49//9 50//9 51//9 52//9
f 38//7 45//7 48//7 37//7
f 45//7 46//7 47//7 48//7
f 48//11 47//11 67//11 65//11
f 65//11 67//11 68//11 66//11
f 37//11 48//11 65//11 59//11
f 59//11 65//11 66//11 60//11
f 50//12 49//12 63//12 61//12
f 61//7 63//7 71//7 69//7
f 42//12 50//12 61//12 57//12
f 57//12 61//12 62//12 58//12
f 49//12 44//12 54//12 63//12
f 63//12 54//12 53//12 64//12
f 47//11 39//11 56//11 67//11
f 67//11 56//11 55//11 68//11
f 42//10 57//10 60//10 41//10
f 57//10 58//10 59//10 60//10
f 40//8 53//8 56//8 39//8
f 53//8 54//8 55//8 56//8
f 64//9 62//9 70//9 72//9
f 62//8 61//8 69//8 70//8
f 63//10 64//10 72//10 71//10
usemtl black-plastic
f 69//12 71//12 72//12 70//12
o glass.002_Cube.009
v -85.042847 -99.897141 9.161983
v -85.042847 -99.897133 9.361983
v -85.042847 99.897133 9.161969
v -85.042847 99.897141 9.361969
v -2.173710 -99.897141 9.161983
v -2.173710 -99.897133 9.361983
v -2.173710 99.897133 9.161969
v -2.173710 99.897141 9.361969
vn -1.000000 -0.000000 0.000000
vn 0.000000 1.000000 -0.000100
vn 1.000000 -0.000000 0.000000
vn 0.000000 -1.000000 0.000100
vn 0.000000 -0.000000 -1.000000
vn 0.000000 0.000000 1.000000
usemtl Glass
s off
f 74//13 76//13 75//13 73//13
f 76//14 80//14 79//14 75//14
f 80//15 78//15 77//15 79//15
f 78//16 74//16 73//16 77//16
f 73//17 75//17 79//17 77//17
f 78//18 80//18 76//18 74//18
o frame.002_Cube.008
v -89.473282 104.373276 7.985140
v -89.473282 104.373276 10.485130
v -84.973282 104.373276 7.985140
v -84.973282 104.373276 10.485130
v -89.473282 99.823997 10.485130
v -84.973282 99.823997 7.985140
v -89.473282 99.823997 7.985140
v -84.973282 99.823997 10.485130
v 2.256763 104.373276 7.985140
v 2.256763 104.373276 10.485130
v -2.243237 104.373276 7.985140
v -2.243237 104.373276 10.485130
v 2.256763 99.823997 10.485130
v -2.243237 99.823997 7.985140
v 2.256763 99.823997 7.985140
v -2.243237 99.823997 10.485130
v -89.473282 -104.373276 7.985149
v -89.473282 -104.373276 10.485140
v -84.973282 -104.373276 7.985149
v -84.973282 -104.373276 10.485140
v -89.473282 -99.823997 10.485140
v -84.973282 -99.823997 7.985149
v -89.473282 -99.823997 7.985149
v -84.973282 -99.823997 10.485140
v 2.256763 -104.373276 7.985149
v 2.256763 -104.373276 10.485140
v -2.243237 -104.373276 7.985149
v -2.243237 -104.373276 10.485140
v 2.256763 -99.823997 10.485140
v -2.243237 -99.823997 7.985149
v 2.256763 -99.823997 7.985149
v -2.243237 -99.823997 10.485140
v -89.473282 104.373276 9.235135
v -84.973282 104.373276 9.235135
v -89.473282 99.823997 9.235135
v 2.256763 104.373276 9.235135
v -2.243237 104.373276 9.235135
v 2.256763 99.823997 9.235135
v -89.473282 -104.373276 9.235145
v -84.973282 -104.373276 9.235145
v -89.473282 -99.823997 9.235145
v 2.256763 -104.373276 9.235145
v -2.243237 -104.373276 9.235145
v 2.256763 -99.823997 9.235145
v -84.973282 99.823997 9.235135
v -2.243237 99.823997 9.235135
v -84.973282 -99.823997 9.235145
v -2.243237 -99.823997 9.235145
vn 0.000000 0.000000 1.000000
vn 0.000000 -1.000000 0.000000
vn 0.000000 1.000000 0.000000
vn -1.000000 -0.000000 0.000000
vn 1.000000 0.000000 0.000000
vn 0.000000 0.000000 -1.000000
usemtl Frame_in
s off
f 88//19 84//19 82//19 85//19
f 96//19 112//19 109//19 93//19
f 92//19 84//19 88//19 96//19
f 96//19 93//19 90//19 92//19
f 104//19 101//19 98//19 100//19
f 85//19 101//19 104//19 88//19
f 108//19 112//19 104//19 100//19
f 112//19 108//19 106//19 109//19
f 106//20 108//20 123//20 122//20
f 112//21 128//21 127//21 104//21
f 112//22 96//22 126//22 128//22
f 96//20 88//20 125//20 126//20
f 104//23 127//23 125//23 88//23
usemtl Frame_out
f 115//22 113//22 81//22 87//22
f 113//21 114//21 83//21 81//21
f 87//24 81//24 83//24 86//24
f 115//22 121//22 101//22 85//22
f 86//24 102//24 103//24 87//24
f 127//23 102//23 86//23 125//23
f 94//24 86//24 83//24 91//24
f 126//20 125//20 86//20 94//20
f 118//23 95//23 89//23 116//23
f 116//21 89//21 91//21 117//21
f 95//24 94//24 91//24 89//24
f 118//23 124//23 111//23 95//23
f 95//24 111//24 110//24 94//24
f 128//22 126//22 94//22 110//22
f 123//20 108//20 100//20 120//20
f 121//22 103//22 97//22 119//22
f 119//20 97//20 99//20 120//20
f 103//24 102//24 99//24 97//24
f 110//24 107//24 99//24 102//24
f 128//21 110//21 102//21 127//21
f 124//23 122//23 105//23 111//23
f 122//20 123//20 107//20 105//20
f 111//24 105//24 107//24 110//24
f 117//21 114//21 84//21 92//21
f 91//21 83//21 114//21 117//21
f 109//23 106//23 122//23 124//23
f 98//20 119//20 120//20 100//20
f 101//22 121//22 119//22 98//22
f 107//20 123//20 120//20 99//20
f 93//23 109//23 124//23 118//23
f 90//21 116//21 117//21 92//21
f 93//23 118//23 116//23 90//23
f 87//22 103//22 121//22 115//22
f 82//21 84//21 114//21 113//21
f 85//22 82//22 113//22 115//22
o frame.001_Cube.007
v -2.256729 104.373276 10.485140
v -2.256729 104.373276 12.985130
v 2.243271 104.373276 10.485140
v 2.243271 104.373276 12.985130
v -2.256729 99.823997 12.985130
v 2.243271 99.823997 10.485140
v -2.256729 99.823997 10.485140
v 2.243271 99.823997 12.985130
v 89.473267 104.373276 10.485140
v 89.473267 104.373276 12.985130
v 84.973267 104.373276 10.485140
v 84.973267 104.373276 12.985130
v 89.473267 99.823997 12.985130
v 84.973267 99.823997 10.485140
v 89.473267 99.823997 10.485140
v 84.973267 99.823997 12.985130
v -2.256729 -104.373276 10.485149
v -2.256729 -104.373276 12.985140
v 2.243271 -104.373276 10.485149
v 2.243271 -104.373276 12.985140
v -2.256729 -99.823997 12.985140
v 2.243271 -99.823997 10.485149
v -2.256729 -99.823997 10.485149
v 2.243271 -99.823997 12.985140
v 89.473267 -104.373276 10.485149
v 89.473267 -104.373276 12.985140
v 84.973267 -104.373276 10.485149
v 84.973267 -104.373276 12.985140
v 89.473267 -99.823997 12.985140
v 84.973267 -99.823997 10.485149
v 89.473267 -99.823997 10.485149
v 84.973267 -99.823997 12.985140
v -2.256729 104.373276 11.735135
v 2.243271 104.373276 11.735135
v -2.256729 99.823997 11.735135
v 89.473267 104.373276 11.735135
v 84.973267 104.373276 11.735135
v 89.473267 99.823997 11.735135
v -2.256729 -104.373276 11.735145
v 2.243271 -104.373276 11.735145
v -2.256729 -99.823997 11.735145
v 89.473267 -104.373276 11.735145
v 84.973267 -104.373276 11.735145
v 89.473267 -99.823997 11.735145
v 2.243271 99.823997 11.735135
v 84.973267 99.823997 11.735135
v 2.243271 -99.823997 11.735145
v 84.973267 -99.823997 11.735145
vn -1.000000 0.000000 0.000000
vn 0.000000 1.000000 0.000000
vn 0.000000 0.000000 1.000000
vn 1.000000 0.000000 0.000000
vn 0.000000 -1.000000 0.000000
vn 0.000000 0.000000 -1.000000
usemtl Frame_in
s off
f 163//25 161//25 129//25 135//25
f 161//26 162//26 131//26 129//26
f 136//27 132//27 130//27 133//27
f 163//25 169//25 149//25 133//25
f 144//27 160//27 157//27 141//27
f 140//27 132//27 136//27 144//27
f 166//28 143//28 137//28 164//28
f 164//26 137//26 139//26 165//26
f 144//27 141//27 138//27 140//27
f 166//28 172//28 159//28 143//28
f 171//29 156//29 148//29 168//29
f 169//25 151//25 145//25 167//25
f 167//29 145//29 147//29 168//29
f 152//27 149//27 146//27 148//27
f 133//27 149//27 152//27 136//27
f 156//27 160//27 152//27 148//27
f 172//28 170//28 153//28 159//28
f 170//29 171//29 155//29 153//29
f 160//27 156//27 154//27 157//27
f 165//26 162//26 132//26 140//26
f 139//26 131//26 162//26 165//26
f 154//29 156//29 171//29 170//29
f 157//28 154//28 170//28 172//28
f 146//29 167//29 168//29 148//29
f 149//25 169//25 167//25 146//25
f 155//29 171//29 168//29 147//29
f 141//28 157//28 172//28 166//28
f 138//26 164//26 165//26 140//26
f 141//28 166//28 164//28 138//28
f 135//25 151//25 169//25 163//25
f 130//26 132//26 162//26 161//26
f 133//25 130//25 161//25 163//25
f 160//26 176//26 175//26 152//26
f 160//25 144//25 174//25 176//25
f 144//29 136//29 173//29 174//29
f 152//28 175//28 173//28 136//28
usemtl Frame_out
f 135//30 129//30 131//30 134//30
f 134//30 150//30 151//30 135//30
f 175//28 150//28 134//28 173//28
f 142//30 134//30 131//30 139//30
f 174//29 173//29 134//29 142//29
f 143//30 142//30 139//30 137//30
f 143//30 159//30 158//30 142//30
f 176//25 174//25 142//25 158//25
f 151//30 150//30 147//30 145//30
f 158//30 155//30 147//30 150//30
f 176//26 158//26 150//26 175//26
f 159//30 153//30 155//30 158//30
o glass.001_Cube.006
v 2.173702 -99.897141 11.661983
v 2.173702 -99.897133 11.861983
v 2.173702 99.897133 11.661969
v 2.173702 99.897141 11.861969
v 85.042847 -99.897141 11.661983
v 85.042847 -99.897133 11.861983
v 85.042847 99.897133 11.661969
v 85.042847 99.897141 11.861969
vn -1.000000 -0.000000 0.000000
vn 0.000000 1.000000 -0.000100
vn 1.000000 -0.000000 0.000000
vn 0.000000 -1.000000 0.000100
vn 0.000000 -0.000000 -1.000000
vn 0.000000 0.000000 1.000000
usemtl Glass
s off
f 178//31 180//31 179//31 177//31
f 180//32 184//32 183//32 179//32
f 184//33 182//33 181//33 183//33
f 182//34 178//34 177//34 181//34
f 177//35 179//35 183//35 181//35
f 182//36 184//36 180//36 178//36
o cage_Cube.001
v 89.500008 -109.000000 -11.544395
v 89.500008 109.000000 -11.544395
v 94.000008 -109.000000 -11.544395
v 94.000008 109.000000 -11.544395
v -93.999992 -109.000000 -11.544395
v -93.999992 109.000000 -11.544395
v -89.499992 -109.000000 -11.544395
v -89.499992 109.000000 -11.544395
v 89.500008 104.500000 13.455605
v 89.500008 104.500000 -11.544395
v 94.000008 104.500000 -11.544395
v -93.999992 104.500000 -11.544395
v -89.499992 104.500000 -11.544395
v -89.499992 104.500000 13.455605
v -93.999992 -104.500000 -11.544395
v -89.499992 -104.500000 13.455605
v 94.000008 -104.500000 -11.544395
v -89.499992 -104.500000 -11.544395
v 89.500008 -104.499992 13.455605
v 89.500008 -104.500000 -11.544395
v 89.500008 109.000000 12.494066
v 89.500008 -109.000000 12.494066
v 94.000008 109.000000 12.494066
v 94.000008 -109.000000 12.494066
v -93.999992 109.000000 12.494066
v -93.999992 -109.000000 12.494066
v -89.499992 109.000000 12.494066
v -89.499992 -109.000000 12.494066
v 94.000008 104.500000 12.494066
v -93.999992 104.500000 12.494066
v 94.000008 -104.500000 12.494066
v -93.999992 -104.499992 12.494066
v 94.000008 104.500000 13.455605
v 94.000008 -104.500000 13.455605
v 89.500008 109.000000 13.455605
v -89.499992 109.000000 13.455605
v 94.000008 109.000000 13.455605
v -93.999992 104.500000 13.455605
v -93.999992 -104.499992 13.455605
v -93.999992 109.000000 13.455605
v 89.500008 -109.000000 13.455605
v -89.499992 -109.000000 13.455605
v 94.000008 -109.000000 13.455605
v -93.999992 -109.000000 13.455605
v 89.500008 104.500000 10.062943
v -89.499992 104.500000 10.062943
v -89.499992 -104.500000 10.062943
v 89.500008 -104.499992 10.062943
v 89.500008 104.500000 12.555244
v -89.499992 -104.500000 12.555244
v 89.500008 -104.499992 12.555244
v -89.499992 104.500000 12.555244
v -0.990749 -104.500000 -11.544395
v -0.990749 -109.000000 -11.544395
v -0.990749 -104.500000 13.455605
v -0.990749 -109.000000 12.494066
v -0.990749 -109.000000 13.455605
v -0.990749 -104.500000 10.062943
v -0.990749 -104.500000 12.555244
v 0.000008 104.500000 13.455605
v 0.000008 109.000000 -11.544395
v 0.000008 104.500000 -11.544395
v 0.000008 109.000000 12.494066
v 0.000008 109.000000 13.455605
v 0.000008 104.500000 10.062943
v 0.000008 104.500000 12.555244
vn 0.000000 0.000000 -1.000000
vn 0.000000 -1.000000 0.000000
vn 0.000000 1.000000 0.000000
vn -1.000000 0.000000 0.000000
vn 1.000000 0.000000 0.000000
vn 0.000000 0.000000 1.000000
usemtl Cage_out
s off
f 237//37 238//37 191//37 202//37
f 204//37 201//37 187//37 185//37
f 206//38 185//38 187//38 208//38
f 207//39 188//39 186//39 205//39
f 216//40 199//40 189//40 210//40
f 199//37 202//37 191//37 189//37
f 210//38 189//38 191//38 212//38
f 211//39 192//39 190//39 209//39
f 186//37 188//37 195//37 194//37
f 247//39 245//39 192//39 211//39
f 190//37 192//37 197//37 196//37
f 209//40 190//40 196//40 214//40
f 196//37 197//37 202//37 199//37
f 229//40 194//40 204//40 232//40
f 214//40 196//40 199//40 216//40
f 194//37 195//37 201//37 204//37
f 242//39 237//39 202//39 231//39
f 245//37 246//37 197//37 192//37
f 238//38 240//38 212//38 191//38
f 201//41 215//41 208//41 187//41
f 188//41 207//41 213//41 195//41
f 195//41 213//41 215//41 201//41
f 246//38 249//38 230//38 197//38
f 233//40 229//40 232//40 235//40
f 197//41 230//41 231//41 202//41
f 235//39 232//39 242//39 243//39
f 185//38 206//38 240//38 238//38
f 232//39 204//39 237//39 242//39
f 204//37 185//37 238//37 237//37
f 229//38 233//38 250//38 249//38
f 194//38 229//38 249//38 246//38
f 186//37 194//37 246//37 245//37
f 205//39 186//39 245//39 247//39
usemtl Cage_in
f 219//39 221//39 207//39 205//39
f 236//41 198//41 200//41 234//41
f 209//39 224//39 220//39 211//39
f 210//38 212//38 226//38 228//38
f 244//42 248//42 220//42 198//42
f 193//42 203//42 218//42 217//42
f 239//42 241//42 225//42 203//42
f 203//42 225//42 227//42 218//42
f 250//38 244//38 198//38 236//38
f 207//41 221//41 217//41 213//41
f 222//40 224//40 209//40 214//40
f 208//38 227//38 225//38 206//38
f 210//40 228//40 223//40 216//40
f 213//41 217//41 218//41 215//41
f 248//39 247//39 211//39 220//39
f 224//42 222//42 198//42 220//42
f 217//42 221//42 219//42 193//42
f 222//40 214//40 216//40 223//40
f 215//41 218//41 227//41 208//41
f 198//42 222//42 223//42 200//42
f 240//38 241//38 226//38 212//38
f 223//42 228//42 226//42 200//42
f 243//39 242//39 231//39 234//39
f 193//40 233//40 235//40 203//40
f 239//39 243//39 234//39 200//39
f 249//38 250//38 236//38 230//38
f 230//41 236//41 234//41 231//41
f 203//39 235//39 243//39 239//39
f 206//38 225//38 241//38 240//38
f 200//42 226//42 241//42 239//42
f 219//39 205//39 247//39 248//39
f 233//38 193//38 244//38 250//38
f 193//42 219//42 248//42 244//42
