# Blender3D v249 OBJ File: 
# www.blender3d.org
mtllib black_table.mtl
v 77.703781 0.000001 -45.000004
v 84.903793 0.000002 -45.000004
v 84.903793 0.000002 -37.800007
v 77.703781 0.000001 -37.800007
v 77.703789 71.156532 -45.000008
v 84.903793 71.156532 -45.000000
v 84.903786 71.156532 -37.800011
v 77.703789 71.156532 -37.800011
v -85.204834 75.000000 -45.000031
v -85.204857 75.000000 44.999992
v 84.903786 75.000000 45.000008
v 84.903831 75.000000 -44.999977
v -85.204857 71.156532 -45.000000
v 84.903793 71.156532 -45.000008
v 84.903793 71.156532 44.999996
v -85.204880 71.156532 44.999981
v 84.903793 0.000006 44.999996
v 77.703781 0.000005 44.999996
v 77.703781 0.000005 37.799999
v 84.903793 0.000006 37.799999
v 77.703789 71.156532 37.799995
v 84.903793 71.156532 37.799999
v 84.903786 71.156532 44.999992
v 77.703789 71.156532 44.999992
v -85.204880 -0.000002 45.000004
v -85.204880 71.156532 45.000000
v -85.204872 71.156532 37.800003
v -85.204880 -0.000002 37.800007
v -78.004868 -0.000001 45.000004
v -78.004868 71.156532 45.000000
v -78.004868 -0.000001 37.800007
v -78.004868 71.156532 37.800007
v -85.204872 71.156532 -45.000000
v -85.204880 -0.000006 -44.999996
v -85.204880 -0.000006 -37.799999
v -85.204880 71.156532 -37.800003
v -78.004868 -0.000005 -37.799999
v -78.004868 71.156532 -37.800003
v -78.004868 -0.000005 -44.999996
v -78.004868 71.156532 -44.999992
v -82.207481 71.156532 42.020287
v 81.906418 71.156532 42.020298
v -82.207458 71.156532 -42.020302
v 81.906418 71.156532 -42.020309
v 81.906418 63.144043 42.020298
v 81.906418 63.144043 -42.020309
v -82.207458 63.144035 -42.020302
v -82.207481 63.144035 42.020287
vt 1.096311 -0.093713
vt 1.096311 -0.152786
vt 1.005831 -0.152786
vt 1.005831 -0.093713
vt -0.258372 0.421532
vt -0.258373 1.005340
vt -0.348852 1.005340
vt -0.348852 0.421532
vt 1.096311 0.421532
vt 1.096311 1.005340
vt 1.005831 1.005340
vt 1.005831 0.421532
vt 1.096311 -0.398031
vt -0.034686 -0.398031
vt -0.034687 -1.793696
vt 1.096311 -1.793696
vt 0.750692 -0.079895
vt 0.798991 -0.079895
vt 0.798991 1.315770
vt 0.750692 1.315770
vt 0.382043 0.040397
vt 0.430343 0.040397
vt 0.430343 0.778806
vt 0.382043 0.778806
vt 0.565149 1.232975
vt 0.613448 1.232975
vt 0.613448 -0.162690
vt 0.565149 -0.162690
vt 0.430343 0.289452
vt 0.382043 0.289452
vt 0.382043 1.027861
vt 0.430343 1.027861
vt -0.034686 -0.152786
vt -0.034686 -0.093713
vt 0.055793 -0.093713
vt 0.055793 -0.152786
vt 0.055793 0.421532
vt 0.055793 1.005340
vt -0.034686 1.005340
vt -0.034686 0.421532
vt 1.698362 0.421532
vt 1.698362 1.005340
vt 1.788841 1.005340
vt 1.788841 0.421532
vt -0.724486 0.421532
vt -0.724486 1.005340
vt -0.814966 1.005340
vt -0.814966 0.421532
vt -0.034686 1.183806
vt -0.034686 1.242879
vt 0.055793 1.242879
vt 0.055793 1.183806
vt 1.096311 -0.457104
vt 1.005831 -0.457104
vt 1.005831 -0.398031
vt 0.002759 1.218287
vt 0.002758 -0.128194
vt 1.058866 -0.422624
vt 0.002759 -0.422623
vt 1.058866 -1.769104
vt 1.058866 -0.128194
vt 0.382043 0.313899
vt 0.382043 1.003414
vt 0.281353 1.003414
vt 0.281353 0.313899
vt 0.382043 -0.138097
vt 0.382043 1.208383
vt 0.281353 1.208383
vt 0.281353 -0.138097
vt 0.382043 -0.138098
vt 0.281353 -0.138098
vt 1.058866 1.218287
vn 0.000000 -1.000000 0.000000
vn 0.000001 -0.000000 -1.000000
vn 1.000000 0.000000 0.000001
vn 0.000000 0.000000 1.000000
vn -1.000000 0.000000 0.000000
vn 0.000000 1.000000 0.000000
vn 0.000000 -0.000000 -1.000000
vn 1.000000 -0.000004 0.000000
vn -0.000000 -0.000003 1.000000
vn -1.000000 0.000006 -0.000000
vn -1.000000 0.000000 -0.000001
vn 1.000000 0.000000 0.000000
g fusta_taula_wood_bump_fusta_taula_wood_bump_fusta_taula_wood_bump_wood_bump.jpg
usemtl fusta_taula_wood_bump_wood_bump.jpg
s off
f 1/1/1 2/2/1 3/3/1 4/4/1
f 1/5/2 5/6/2 6/7/2 2/8/2
f 2/9/3 6/10/3 7/11/3 3/12/3
f 3/8/4 7/7/4 8/6/4 4/5/4
f 5/10/5 1/9/5 4/12/5 8/11/5
f 9/13/6 10/14/6 11/15/6 12/16/6
f 13/17/7 9/18/7 12/19/7 14/20/7
f 14/21/8 12/22/8 11/23/8 15/24/8
f 15/25/9 11/26/9 10/27/9 16/28/9
f 9/29/10 13/30/10 16/31/10 10/32/10
f 17/33/1 18/34/1 19/35/1 20/36/1
f 19/5/7 21/6/7 22/7/7 20/8/7
f 20/37/3 22/38/3 23/39/3 17/40/3
f 17/8/4 23/7/4 24/6/4 18/5/4
f 18/40/5 24/39/5 21/38/5 19/37/5
f 25/40/11 26/39/11 27/38/11 28/37/11
f 29/41/4 30/42/4 26/43/4 25/44/4
f 31/37/12 32/38/12 30/39/12 29/40/12
f 28/45/7 27/46/7 32/47/7 31/48/7
f 29/49/1 25/50/1 28/51/1 31/52/1
f 33/10/11 34/9/11 35/12/11 36/11/11
f 37/41/4 38/42/4 36/43/4 35/44/4
f 39/9/12 40/10/12 38/11/12 37/12/12
f 34/45/2 33/46/2 40/47/2 39/48/2
f 34/13/1 39/53/1 37/54/1 35/55/1
f 15/33/1 16/50/1 41/56/1 42/57/1
f 16/14/1 13/13/1 43/58/1 41/59/1
f 13/13/1 14/16/1 44/60/1 43/58/1
f 14/2/1 15/33/1 42/57/1 44/61/1
f 44/62/12 42/63/12 45/64/12 46/65/12
f 43/66/7 44/67/7 46/68/7 47/69/7
f 41/63/5 43/62/5 47/65/5 48/64/5
f 42/67/4 41/70/4 48/71/4 45/68/4
f 47/72/1 46/61/1 45/57/1 48/56/1
