# livreAvecReliure.obj produced by Art of Illusion 2.8.1, Fri Jul 12 00:28:14 CEST 2013
#
# Created by Thomas PUYBARET / eTeks for Sweet Home 3D
# Copyright (c) 2013 Emmanuel PUYBARET / eTeks <info@eteks.com>
#
# This file is distributed under Free Art License, see http://artlibre.org/licence/lal/en for more informations
# and under CC-BY Creative Commons Attribution 3.0 Unported license, see http://creativecommons.org/licenses/by/3.0/
# at your choice
#
mtllib livreAvecReliure.mtl
s 0
g face_avant
usemtl bordeaux
v -8.8 1.826 1.387
v 8.8 1.826 1.387
v 8.8 1.826 1.387
v -8.8 1.826 1.387
v -8.8 1.826 -9.013
v 8.8 1.826 -9.013
v 8.8 1.826 -9.013
v -8.8 1.826 -9.013
v 0 1.886 -3.813
v 8.8 1.826 -3.813
v 0 1.766 -3.813
v -8.8 1.826 -3.813
v 0 1.826 1.387
v 0 1.826 -9.013
v -8.78228 1.868 1.37193
v 8.78228 1.868 1.37193
v -8.78228 1.868 -8.99793
v 8.78228 1.868 -8.99793
v -8.74094 1.886 1.33676
v 8.74094 1.886 1.33676
v -8.74094 1.886 -8.96276
v 8.74094 1.886 -8.96276
v 8.78228 1.784 1.37193
v -8.78228 1.784 1.37193
v 8.78228 1.784 -8.99793
v -8.78228 1.784 -8.99793
v 8.74094 1.766 1.33676
v -8.74094 1.766 1.33676
v 8.74094 1.766 -8.96276
v -8.74094 1.766 -8.96276
f 2 1 13
f 3 2 13
f 4 3 13
f 1 4 13
f 2 3 10
f 3 7 10
f 7 6 10
f 6 2 10
f 19 20 9
f 20 22 9
f 22 21 9
f 21 19 9
f 4 1 12
f 1 5 12
f 5 8 12
f 8 4 12
f 5 6 14
f 6 7 14
f 7 8 14
f 8 5 14
f 27 28 11
f 28 30 11
f 30 29 11
f 29 27 11
f 1 2 15
f 15 2 16
f 5 1 17
f 17 1 15
f 2 6 16
f 16 6 18
f 6 5 18
f 18 5 17
f 15 16 19
f 19 16 20
f 17 15 21
f 21 15 19
f 16 18 20
f 20 18 22
f 18 17 22
f 22 17 21
f 3 4 23
f 23 4 24
f 7 3 25
f 25 3 23
f 4 8 24
f 24 8 26
f 8 7 26
f 26 7 25
f 23 24 27
f 27 24 28
f 25 23 29
f 29 23 27
f 24 26 28
f 28 26 30
f 26 25 30
f 30 25 29
g tranche
usemtl bordeaux
v -8.8 1.86832 1.36616
v -8.8123 0.87941 1.71927
v -8.8 -0.00038 1.84722
v -8.8 -0.88767 1.75234
v -8.8 -1.86709 1.36616
v 8.78436 1.86832 1.36616
v 8.7877 0.87941 1.71927
v 8.78436 -0.00038 1.84722
v 8.78436 -0.88767 1.75234
v 8.78436 -1.86709 1.36616
v 8.78436 1.77031 1.34722
v 8.78729 0.79812 1.67193
v 8.78436 -0.00038 1.78573
v 8.78436 -0.8057 1.70134
v 8.78436 -1.76926 1.34722
v -8.80364 1.77031 1.34722
v -8.81347 0.79812 1.67193
v -8.80364 -0.00038 1.78573
v -8.80364 -0.8057 1.70134
v -8.80364 -1.76926 1.34722
vn -0 0.33628 0.94176
vn -0 0.33628 0.94176
vn -0 0.24135 0.97044
vn -0 0.0195 0.99981
vn 0 -0.23873 0.97109
vn 0 -0.36682 0.93029
vn 0.99998 0.00118 -0.00612
vn -0 0.33628 0.94176
vn 0.99998 -0.00081 -0.00702
vn -0 0.2413 0.97045
vn 1 -0.00182 -0.00004
vn -0 0.01909 0.99982
vn 1 -0 0
vn 0 -0.23873 0.97109
vn 1 -0 0
vn 0 -0.36682 0.93029
vn -0 -0.3168 -0.94849
vn 0.99998 0.00115 -0.00619
vn -0 -0.2299 -0.97321
vn 0.99999 -0.00295 -0.00337
vn -0 -0.01872 -0.99982
vn 1 -0.00185 0
vn 1 -0 0
vn -0 0.22632 -0.97405
vn 1 -0 0
vn -0 0.34496 -0.93862
vn 0 -0.3168 -0.94849
vn 0 -0.3168 -0.94849
vn 0 -0.22995 -0.9732
vn -0 -0.01905 -0.99982
vn -0 0.22632 -0.97405
vn -0 0.34496 -0.93862
f 36//8 31//2 32//3
f 37//10 32//3 33//4
f 38//12 33//4 34//5
f 39//14 34//5 35//6
f 36//8 32//3 37//10
f 37//10 33//4 38//12
f 38//12 34//5 39//14
f 39//14 35//6 40//16
f 36//7 37//9 41//18
f 37//9 38//11 42//20
f 50//32 44//24 45//26
f 38//11 39//13 43//22
f 47//29 41//17 42//19
f 39//13 40//15 44//23
f 48//30 42//19 43//21
f 47//29 46//28 41//17
f 48//30 47//29 42//19
f 49//31 43//21 44//24
f 41//18 37//9 42//20
f 38//11 43//22 42//20
f 39//13 44//23 43//22
f 44//24 50//32 49//31
f 40//15 45//25 44//23
f 43//21 49//31 48//30
s 0
g face_arriere
usemtl bordeaux
v -8.8 -1.826 1.387
v 8.8 -1.826 1.387
v 8.8 -1.826 1.387
v -8.8 -1.826 1.387
v -8.8 -1.826 -9.013
v 8.8 -1.826 -9.013
v 8.8 -1.826 -9.013
v -8.8 -1.826 -9.013
v 0 -1.766 -3.813
v 8.8 -1.826 -3.813
v 0 -1.886 -3.813
v -8.8 -1.826 -3.813
v 0 -1.826 1.387
v 0 -1.826 -9.013
v -8.78228 -1.784 1.37193
v 8.78228 -1.784 1.37193
v -8.78228 -1.784 -8.99793
v 8.78228 -1.784 -8.99793
v -8.74094 -1.766 1.33676
v 8.74094 -1.766 1.33676
v -8.74094 -1.766 -8.96276
v 8.74094 -1.766 -8.96276
v 8.78228 -1.868 1.37193
v -8.78228 -1.868 1.37193
v 8.78228 -1.868 -8.99793
v -8.78228 -1.868 -8.99793
v 8.74094 -1.886 1.33676
v -8.74094 -1.886 1.33676
v 8.74094 -1.886 -8.96276
v -8.74094 -1.886 -8.96276
f 52 51 63
f 53 52 63
f 54 53 63
f 51 54 63
f 52 53 60
f 53 57 60
f 57 56 60
f 56 52 60
f 69 70 59
f 70 72 59
f 72 71 59
f 71 69 59
f 54 51 62
f 51 55 62
f 55 58 62
f 58 54 62
f 55 56 64
f 56 57 64
f 57 58 64
f 58 55 64
f 77 78 61
f 78 80 61
f 80 79 61
f 79 77 61
f 51 52 65
f 65 52 66
f 55 51 67
f 67 51 65
f 52 56 66
f 66 56 68
f 56 55 68
f 68 55 67
f 65 66 69
f 69 66 70
f 67 65 71
f 71 65 69
f 66 68 70
f 70 68 72
f 68 67 72
f 72 67 71
f 53 54 73
f 73 54 74
f 57 53 75
f 75 53 73
f 54 58 74
f 74 58 76
f 58 57 76
f 76 57 75
f 73 74 77
f 77 74 78
f 75 73 79
f 79 73 77
f 74 76 78
f 78 76 80
f 76 75 80
f 80 75 79
g pages
usemtl papier
v -8.39552 -1.80173 1.3349
v 8.40448 -1.80173 1.3349
v -8.39552 1.79827 1.3349
v 8.40448 1.79827 1.3349
v 0.00448 -0.00173 1.57191
v 8.40448 -0.00173 -3.7651
v -8.39552 -0.00173 -3.7651
v 8.40448 -1.80173 -8.84741
v -8.39552 -1.80173 -8.84741
v 8.40448 1.79827 -8.84958
v 8.40448 0.94145 -8.62976
v -8.39552 1.79827 -8.84958
v -8.39552 0.94145 -8.62976
v 8.40448 -0.95209 -8.59489
v -8.39552 -0.95209 -8.59489
v 8.40448 -0.00173 -8.50949
v -8.39552 -0.00173 -8.50949
v -8.39552 -0.76722 1.47808
v 8.40448 -0.76722 1.47808
v -8.39552 0.80544 1.47808
v 8.40448 0.80544 1.47808
vn -0.08722 -0.13658 0.98678
vn -1 0 0
vn -1 0 0
vn 0.08722 -0.13658 0.98678
vn 1 0 0
vn 1 0 0
vn -1 0 0
vn -1 0 0
vn -0.09081 0.14215 0.98567
vn 0.09081 0.14215 0.98567
vn 1 0 0
vn 1 0 0
vn 0 -0.00312 1
vn 1 0 0
vn 1 0 0
vn 1 0 0
vn 1 0 0
vn -1 0 0
vn -1 0 0
vn -1 0 0
vn -1 0 0
vn -0 0.28489 -0.95856
vn 1 0 0
vn 1 0 0
vn -0 0.28489 -0.95856
vn -1 0 0
vn -1 0 0
vn 0 -0.2485 -0.96863
vn 1 0 0
vn 1 0 0
vn 1 0 0
vn 0 -0.18786 -0.9822
vn -1 0 0
vn -1 0 0
vn 0 -0.2485 -0.96863
vn 0 -0.18786 -0.9822
vn -1 0 0
vn -0 0.18812 -0.98215
vn 1 0 0
vn -1 0 0
vn -0 0.18812 -0.98215
vn 1 0 0
vn 0 -0.01861 -0.99983
vn -1 0 0
vn 0 -0.01861 -0.99983
vn -0.69386 -0.05203 0.71823
vn 0.69386 -0.05203 0.71823
vn -0.69324 0.05412 0.71867
vn 0.69324 0.05412 0.71867
f 84//43 82//37 86//46
f 98//78 99//79 85//45
f 99//79 101//81 85//45
f 101//81 100//80 85//45
f 100//80 98//78 85//45
f 81//34 83//40 87//50
f 96//75 95//73 97//77
f 93//69 97//76 87//52
f 88//55 94//71 86//48
f 82//38 88//56 86//47
f 94//71 96//74 86//48
f 86//49 90//62 84//44
f 92//66 93//69 87//52
f 87//53 89//59 81//35
f 97//76 95//72 87//52
f 83//39 92//65 87//51
f 91//64 93//68 90//60
f 95//73 96//75 94//70
f 94//70 89//57 95//73
f 93//68 92//67 90//60
f 97//77 91//64 96//75
f 91//63 86//48 96//74
f 89//57 94//70 88//54
f 95//72 89//58 87//52
f 91//64 97//77 93//68
f 91//63 90//61 86//48
f 81//33 82//36 98//78
f 98//78 82//36 99//79
f 83//41 81//33 100//80
f 100//80 81//33 98//78
f 82//36 84//42 99//79
f 99//79 84//42 101//81
f 84//42 83//41 101//81
f 101//81 83//41 100//80
s 1
g bas_tranche
usemtl bordeaux
v -8.80341 1.86832 1.36616
v -8.80674 0.87941 1.71927
v -8.80341 -0.00038 1.84722
v -8.80341 -0.88767 1.75234
v -8.80341 -1.86709 1.36616
v -8.80341 1.77031 1.34722
v -8.80634 0.79812 1.67193
v -8.80341 -0.00038 1.78573
v -8.80341 -0.8057 1.70134
v -8.80341 -1.76926 1.34722
f 102 107 103
f 103 108 104
f 104 109 105
f 105 110 106
f 107 108 103
f 104 108 109
f 105 109 110
f 106 110 111
