# Blender3D v249 OBJ File: kit_desk.blend
# www.blender3d.org
mtllib desk_table.mtl
o soporte_mesa_Cube.155
v 95.794678 75.419624 43.421669
v 95.794716 75.419624 43.922081
v 95.794632 76.648369 43.421669
v 95.794685 76.648369 43.922081
v 95.295273 76.648369 43.922119
v 95.295219 76.648369 43.421707
v 95.295303 75.419624 43.922119
v 95.295265 75.419624 43.421707
v 95.295303 73.565849 43.922119
v 95.794716 73.565849 43.922081
v 95.794678 73.565849 43.421669
v 90.294876 73.565849 38.916241
v 90.294876 75.419624 38.916241
v 95.295265 75.419624 38.916206
v 95.295219 76.648369 38.916206
v 95.794632 76.648369 38.916206
v 95.794678 75.419624 38.916206
v 95.794678 73.565849 38.916206
v 95.295265 73.565849 38.916206
v 90.294876 76.648369 43.421707
v 90.294876 75.419624 43.421707
v 90.294876 75.419624 43.922119
v 90.294876 76.648369 43.922119
v 90.294876 73.565849 43.922119
v 90.294876 73.565849 43.421707
v 90.294876 73.565849 -43.942570
v 90.294876 73.565849 -44.442982
v 90.294876 76.648369 -44.442982
v 90.294876 75.419624 -44.442982
v 90.294876 75.419624 -43.942570
v 90.294876 76.648369 -43.942570
v 95.295258 73.565849 -39.437084
v 95.794678 73.565849 -39.437084
v 95.794678 75.419624 -39.437084
v 95.794640 76.648369 -39.437084
v 95.295219 76.648369 -39.437084
v 95.295258 75.419624 -39.437084
v 90.294876 75.419624 -39.437111
v 90.294876 73.565849 -39.437111
v 95.794678 73.565849 -43.942532
v 95.794716 73.565849 -44.442944
v 95.295296 73.565849 -44.442982
v 95.295258 75.419624 -43.942570
v 95.295296 75.419624 -44.442982
v 95.295219 76.648369 -43.942570
v 95.295280 76.648369 -44.442982
v 95.794678 76.648369 -44.442944
v 95.794640 76.648369 -43.942532
v 95.794716 75.419624 -44.442944
v 95.794678 75.419624 -43.942532
v -95.794060 75.419624 -43.942547
v -95.794098 75.419624 -44.442959
v -95.794022 76.648369 -43.942547
v -95.794060 76.648369 -44.442959
v -95.294655 76.648369 -44.442997
v -95.294601 76.648369 -43.942585
v -95.294678 75.419624 -44.442997
v -95.294640 75.419624 -43.942585
v -95.294678 73.565849 -44.442997
v -95.794098 73.565849 -44.442959
v -95.794060 73.565849 -43.942547
v -90.294258 73.565849 -39.437119
v -90.294258 75.419624 -39.437119
v -95.294640 75.419624 -39.437084
v -95.294601 76.648369 -39.437084
v -95.794022 76.648369 -39.437084
v -95.794060 75.419624 -39.437084
v -95.794060 73.565849 -39.437084
v -95.294640 73.565849 -39.437084
v -90.294258 76.648369 -43.942585
v -90.294258 75.419624 -43.942585
v -90.294258 75.419624 -44.442997
v -90.294258 76.648369 -44.442997
v -90.294258 73.565849 -44.442997
v -90.294258 73.565849 -43.942585
v -90.294258 73.565849 43.421700
v -90.294258 73.565849 43.922112
v -90.294258 76.648369 43.922112
v -90.294258 75.419624 43.922112
v -90.294258 75.419624 43.421700
v -90.294258 76.648369 43.421700
v -95.294640 73.565849 38.916203
v -95.794060 73.565849 38.916203
v -95.794060 75.419624 38.916203
v -95.793999 76.648369 38.916203
v -95.294601 76.648369 38.916203
v -95.294640 75.419624 38.916203
v -90.294258 75.419624 38.916233
v -90.294258 73.565849 38.916233
v -95.794060 73.565849 43.421661
v -95.794098 73.565849 43.922073
v -95.294678 73.565849 43.922112
v -95.294640 75.419624 43.421700
v -95.294678 75.419624 43.922112
v -95.294601 76.648369 43.421700
v -95.294655 76.648369 43.922112
v -95.794060 76.648369 43.922073
v -95.793999 76.648369 43.421661
v -95.794098 75.419624 43.922073
v -95.794060 75.419624 43.421661
v -0.000806 76.648369 -43.942574
v -0.000806 75.419624 -43.942574
v -0.000806 75.419624 -44.442986
v -0.000806 76.648369 -44.442986
v -0.000806 73.565849 -44.442986
v -0.000806 73.565849 -43.942574
v -0.000806 75.419624 -39.437111
v -0.000806 73.565849 -39.437111
v -0.000808 73.565849 38.916237
v -0.000808 75.419624 38.916237
v -0.000808 73.565849 43.421703
v -0.000808 73.565849 43.922115
v -0.000808 76.648369 43.922115
v -0.000808 75.419624 43.922115
v -0.000808 75.419624 43.421703
v -0.000808 76.648369 43.421703
v 90.294876 73.565849 -0.260495
v 90.294876 75.419624 -0.260495
v 95.295265 73.565849 -0.260495
v 95.794678 73.565849 -0.260495
v 95.794678 75.419624 -0.260495
v 95.794632 76.648369 -0.260495
v 95.295219 76.648369 -0.260495
v 95.295265 75.419624 -0.260495
v -95.294640 75.419624 -0.260500
v -95.294601 76.648369 -0.260500
v -95.793999 76.648369 -0.260500
v -95.794060 75.419624 -0.260500
v -95.794060 73.565849 -0.260500
v -95.294640 73.565849 -0.260500
v -90.294258 75.419624 -0.260500
v -90.294258 73.565849 -0.260499
v -95.294640 0.000743 43.421700
v -95.294678 0.000743 43.922112
v -95.794098 0.000753 43.922073
v -95.794060 0.000752 43.421661
v -90.294258 0.000743 38.916233
v -95.794060 0.000752 38.916203
v -95.294640 0.000743 38.916203
v -90.294258 0.000743 43.922112
v -90.294258 0.000743 43.421700
v -90.294258 0.000739 -43.942585
v -90.294258 0.000739 -44.442997
v -95.294640 0.000739 -39.437084
v -95.794060 0.000749 -39.437084
v -90.294258 0.000739 -39.437119
v -95.794060 0.000749 -43.942547
v -95.794098 0.000749 -44.442959
v -95.294678 0.000739 -44.442997
v -95.294640 0.000739 -43.942585
v 95.295258 0.000739 -43.942570
v 95.295296 0.000739 -44.442982
v 95.794716 0.000749 -44.442944
v 95.794678 0.000749 -43.942532
v 90.294876 0.000739 -39.437111
v 95.794678 0.000749 -39.437084
v 95.295258 0.000739 -39.437084
v 90.294876 0.000739 -44.442982
v 90.294876 0.000739 -43.942570
v 90.294876 0.000743 43.421707
v 90.294876 0.000743 43.922119
v 95.295265 0.000743 38.916206
v 95.794678 0.000752 38.916206
v 90.294876 0.000743 38.916241
v 95.794678 0.000752 43.421669
v 95.794716 0.000753 43.922081
v 95.295303 0.000743 43.922119
v 95.295265 0.000743 43.421707
v -93.627808 76.648369 -43.942585
v -91.961029 76.648369 -43.942585
v -93.627846 75.419624 -43.942585
v -91.961052 75.419624 -43.942585
v -93.627861 75.419624 -44.442997
v -91.961052 75.419624 -44.442997
v -93.627846 76.648369 -44.442997
v -91.961052 76.648369 -44.442997
v -93.627861 73.565849 -44.442997
v -91.961052 73.565849 -44.442997
v -91.961052 75.419624 -39.437107
v -93.627846 75.419624 -39.437096
v -91.961052 73.565849 -39.437107
v -93.627846 73.565849 -39.437096
v -93.627846 73.565849 38.916214
v -91.961052 73.565849 38.916225
v -93.627846 75.419624 38.916214
v -91.961052 75.419624 38.916225
v -91.961067 73.565849 43.922112
v -93.627861 73.565849 43.922112
v -91.961052 76.648369 43.922112
v -93.627846 76.648369 43.922112
v -91.961067 75.419624 43.922112
v -93.627861 75.419624 43.922112
v -91.961052 75.419624 43.421700
v -93.627846 75.419624 43.421700
v -91.961029 76.648369 43.421700
v -93.627808 76.648369 43.421700
v -93.627846 75.419624 -0.260500
v -91.961052 75.419624 -0.260500
v -93.627846 73.565849 -0.260500
v -91.961052 73.565849 -0.260500
v -93.627861 0.000743 43.922112
v -91.961067 0.000743 43.922112
v -91.961052 0.000743 38.916225
v -93.627846 0.000743 38.916214
v -93.627846 0.000739 -39.437096
v -91.961052 0.000739 -39.437107
v -91.961052 0.000739 -44.442997
v -93.627861 0.000739 -44.442997
v -91.961052 0.000739 -43.942585
v -93.627846 0.000739 -43.942585
v -93.627846 0.000743 43.421700
v -91.961052 0.000743 43.421700
v 93.628433 76.648369 43.421707
v 91.961662 76.648369 43.421707
v 93.628471 75.419624 43.421707
v 91.961670 75.419624 43.421707
v 93.628494 75.419624 43.922119
v 91.961685 75.419624 43.922119
v 93.628471 76.648369 43.922119
v 91.961678 76.648369 43.922119
v 93.628494 73.565849 43.922119
v 91.961685 73.565849 43.922119
v 91.961670 75.419624 38.916229
v 93.628471 75.419624 38.916218
v 91.961670 73.565849 38.916229
v 93.628471 73.565849 38.916218
v 93.628464 73.565849 -39.437092
v 91.961670 73.565849 -39.437103
v 93.628464 75.419624 -39.437092
v 91.961670 75.419624 -39.437103
v 91.961678 73.565849 -44.442982
v 93.628494 73.565849 -44.442982
v 91.961678 76.648369 -44.442982
v 93.628471 76.648369 -44.442982
v 91.961678 75.419624 -44.442982
v 93.628494 75.419624 -44.442982
v 91.961670 75.419624 -43.942570
v 93.628464 75.419624 -43.942570
v 91.961662 76.648369 -43.942570
v 93.628433 76.648369 -43.942570
v 91.961670 75.419624 -0.260495
v 93.628471 75.419624 -0.260495
v 91.961670 73.565849 -0.260495
v 93.628471 73.565849 -0.260495
v 93.628494 0.000739 -44.442982
v 91.961678 0.000739 -44.442982
v 91.961670 0.000739 -39.437103
v 93.628464 0.000739 -39.437092
v 93.628471 0.000743 38.916218
v 91.961670 0.000743 38.916229
v 91.961685 0.000743 43.922119
v 93.628494 0.000743 43.922119
v 91.961670 0.000743 43.421707
v 93.628471 0.000743 43.421707
v 93.628464 0.000739 -43.942570
v 91.961670 0.000739 -43.942570
v -95.294678 1.971330 43.922112
v -95.794098 1.971339 43.922073
v -95.794060 1.971339 43.421661
v -95.794060 1.971339 38.916203
v -95.294640 1.971330 38.916203
v -90.294258 1.971330 43.922112
v -90.294258 1.971330 43.421700
v -90.294258 1.971330 38.916233
v -90.294258 1.971326 -39.437119
v -95.294640 1.971326 -39.437084
v -90.294258 1.971326 -43.942585
v -90.294258 1.971326 -44.442997
v -95.294678 1.971326 -44.442997
v -95.794060 1.971336 -39.437084
v -95.794060 1.971335 -43.942547
v -95.794098 1.971335 -44.442959
v 95.794716 1.971335 -44.442944
v 95.295296 1.971326 -44.442982
v 95.794678 1.971335 -43.942532
v 95.794678 1.971336 -39.437084
v 95.295258 1.971326 -39.437084
v 90.294876 1.971326 -44.442982
v 90.294876 1.971326 -43.942570
v 90.294876 1.971326 -39.437111
v 95.295265 1.971330 38.916206
v 90.294876 1.971330 38.916241
v 90.294876 1.971330 43.421707
v 90.294876 1.971330 43.922119
v 95.295303 1.971330 43.922119
v 95.794678 1.971339 38.916206
v 95.794678 1.971339 43.421669
v 95.794716 1.971339 43.922081
v -93.627861 1.971330 43.922112
v -91.961067 1.971330 43.922112
v -91.961052 1.971330 38.916225
v -93.627846 1.971330 38.916214
v -93.627846 1.971326 -39.437096
v -91.961052 1.971326 -39.437107
v -91.961052 1.971326 -44.442997
v -93.627861 1.971326 -44.442997
v 91.961678 1.971326 -44.442982
v 93.628494 1.971326 -44.442982
v 93.628464 1.971326 -39.437092
v 91.961670 1.971326 -39.437103
v 91.961670 1.971330 38.916229
v 93.628471 1.971330 38.916218
v 93.628494 1.971330 43.922119
v 91.961685 1.971330 43.922119
v 91.961685 73.565849 41.975113
v 91.961685 1.971330 41.975113
v 93.628494 1.971330 41.975113
v 93.628494 73.565849 41.975113
v 93.628471 73.565849 40.341450
v 93.628471 1.971330 40.341450
v 91.961670 1.971330 40.341457
v 91.961670 73.565849 40.341457
v 91.961670 73.565849 -40.862309
v 91.961670 1.971326 -40.862309
v 93.628464 1.971326 -40.862297
v 93.628464 73.565849 -40.862297
v 93.628494 73.565849 -42.495979
v 93.628494 1.971326 -42.495979
v 91.961678 1.971326 -42.495979
v 91.961678 73.565849 -42.495979
v -93.627861 73.565849 -42.495995
v -93.627861 1.971326 -42.495995
v -91.961052 1.971326 -42.495995
v -91.961052 73.565849 -42.495995
v -91.961052 73.565849 -40.862320
v -91.961052 1.971326 -40.862320
v -93.627846 1.971326 -40.862312
v -93.627846 73.565849 -40.862312
v -93.627846 73.565849 40.341431
v -93.627846 1.971330 40.341431
v -91.961052 1.971330 40.341442
v -91.961052 73.565849 40.341442
v -91.961067 73.565849 41.975105
v -91.961067 1.971330 41.975105
v -93.627861 1.971330 41.975105
v -93.627861 73.565849 41.975105
vn 1.000000 0.000031 -0.000091
vn 0.000000 1.000000 0.000000
vn 0.000076 0.000000 1.000000
vn 1.000000 0.000000 -0.000076
vn -1.000000 -0.000037 0.000000
vn 1.000000 0.000037 0.000000
vn 1.000000 0.000000 0.000000
vn 1.000000 0.000031 0.000000
vn -1.000000 -0.000031 0.000000
vn 1.000000 0.000000 0.000076
vn 0.000076 0.000000 -1.000000
vn 1.000000 0.000031 0.000076
vn -1.000000 0.000031 0.000076
vn -0.000076 0.000000 -1.000000
vn -1.000000 0.000000 0.000076
vn 1.000000 -0.000031 0.000000
vn -1.000000 0.000031 0.000000
vn -1.000000 0.000000 0.000000
vn -1.000000 0.000050 0.000000
vn -1.000000 0.000000 -0.000076
vn -0.000076 0.000000 1.000000
vn -1.000000 0.000040 -0.000099
vn 0.000000 0.000000 -1.000000
vn -0.000000 0.000000 1.000000
vn 0.000000 -1.000000 0.000000
vn 1.000000 0.000034 0.000000
vn -1.000000 -0.000034 0.000000
vn -1.000000 0.000040 0.000000
vn 0.000019 -1.000000 0.000000
vn -0.000019 -1.000000 0.000000
vn 0.000005 0.000000 -1.000000
vn 0.000007 0.000000 -1.000000
vn 0.000007 0.000000 1.000000
vn -0.000005 0.000000 1.000000
vn -0.000007 0.000000 1.000000
vn -0.000007 0.000000 -1.000000
vn -0.000005 0.000000 -1.000000
vn 0.000005 0.000000 1.000000
usemtl Material.002
s off
f 2//1 1//1 3//1 4//1
f 5//2 4//2 3//2 6//2
f 7//3 2//3 4//3 5//3
f 7//3 9//3 10//3 2//3
f 11//4 1//4 2//4 10//4
f 8//5 6//5 15//5 14//5
f 3//6 1//6 17//6 16//6
f 6//2 3//2 16//2 15//2
f 1//7 11//7 18//7 17//7
f 50//7 34//7 33//7 40//7
f 45//2 36//2 35//2 48//2
f 48//8 35//8 34//8 50//8
f 43//9 37//9 36//9 45//9
f 49//10 50//10 40//10 41//10
f 44//11 49//11 41//11 42//11
f 44//11 46//11 47//11 49//11
f 46//2 45//2 48//2 47//2
f 48//12 50//12 49//12 47//12
f 53//13 54//13 52//13 51//13
f 55//2 54//2 53//2 56//2
f 57//14 52//14 54//14 55//14
f 57//14 59//14 60//14 52//14
f 52//15 60//15 61//15 51//15
f 58//16 56//16 65//16 64//16
f 53//17 51//17 67//17 66//17
f 56//2 53//2 66//2 65//2
f 51//18 61//18 68//18 67//18
f 100//18 84//18 83//18 90//18
f 95//2 86//2 85//2 98//2
f 98//19 85//19 84//19 100//19
f 93//16 87//16 86//16 95//16
f 99//20 100//20 90//20 91//20
f 94//21 99//21 91//21 92//21
f 94//21 96//21 97//21 99//21
f 96//2 95//2 98//2 97//2
f 98//22 100//22 99//22 97//22
f 28//23 29//23 103//23 104//23
f 104//23 103//23 72//23 73//23
f 30//24 31//24 101//24 102//24
f 102//24 101//24 70//24 71//24
f 73//2 70//2 101//2 104//2
f 104//2 101//2 31//2 28//2
f 29//23 27//23 105//23 103//23
f 103//23 105//23 74//23 72//23
f 75//25 74//25 105//25 106//25
f 106//25 105//25 27//25 26//25
f 26//25 39//25 108//25 106//25
f 106//25 108//25 62//25 75//25
f 71//2 63//2 107//2 102//2
f 102//2 107//2 38//2 30//2
f 63//24 62//24 108//24 107//24
f 107//24 108//24 39//24 38//24
f 89//23 88//23 110//23 109//23
f 109//23 110//23 13//23 12//23
f 88//2 80//2 115//2 110//2
f 110//2 115//2 21//2 13//2
f 12//25 25//25 111//25 109//25
f 109//25 111//25 76//25 89//25
f 77//25 76//25 111//25 112//25
f 112//25 111//25 25//25 24//25
f 24//24 22//24 114//24 112//24
f 112//24 114//24 79//24 77//24
f 81//2 78//2 113//2 116//2
f 116//2 113//2 23//2 20//2
f 20//23 21//23 115//23 116//23
f 116//23 115//23 80//23 81//23
f 22//24 23//24 113//24 114//24
f 114//24 113//24 78//24 79//24
f 13//18 118//18 117//18 12//18
f 118//18 38//18 39//18 117//18
f 33//25 120//25 119//25 32//25
f 120//25 18//25 19//25 119//25
f 34//7 121//7 120//7 33//7
f 121//7 17//7 18//7 120//7
f 36//2 123//2 122//2 35//2
f 123//2 15//2 16//2 122//2
f 35//26 122//26 121//26 34//26
f 122//6 16//6 17//6 121//6
f 37//27 124//27 123//27 36//27
f 124//5 14//5 15//5 123//5
f 62//7 63//7 131//7 132//7
f 132//7 131//7 88//7 89//7
f 82//25 83//25 129//25 130//25
f 130//25 129//25 68//25 69//25
f 83//18 84//18 128//18 129//18
f 129//18 128//18 67//18 68//18
f 85//2 86//2 126//2 127//2
f 127//2 126//2 65//2 66//2
f 84//19 85//19 127//19 128//19
f 128//28 127//28 66//28 67//28
f 86//16 87//16 125//16 126//16
f 126//16 125//16 64//16 65//16
f 168//29 165//29 166//29 167//29
f 165//29 168//29 162//29 163//29
f 154//29 156//29 157//29 151//29
f 151//29 152//29 153//29 154//29
f 150//30 147//30 148//30 149//30
f 147//30 150//30 144//30 145//30
f 136//30 138//30 139//30 133//30
f 133//30 134//30 135//30 136//30
f 73//23 72//23 174//23 176//23
f 176//23 174//23 173//23 175//23
f 175//23 173//23 57//23 55//23
f 71//24 70//24 170//24 172//24
f 172//24 170//24 169//24 171//24
f 171//24 169//24 56//24 58//24
f 55//2 56//2 169//2 175//2
f 175//2 169//2 170//2 176//2
f 176//2 170//2 70//2 73//2
f 72//23 74//23 178//23 174//23
f 174//23 178//23 177//23 173//23
f 173//23 177//23 59//23 57//23
f 58//2 64//2 180//2 171//2
f 171//2 180//2 179//2 172//2
f 172//2 179//2 63//2 71//2
f 87//2 93//2 194//2 185//2
f 185//2 194//2 193//2 186//2
f 186//2 193//2 80//2 88//2
f 77//24 79//24 191//24 187//24
f 187//24 191//24 192//24 188//24
f 188//24 192//24 94//24 92//24
f 95//2 96//2 190//2 196//2
f 196//2 190//2 189//2 195//2
f 195//2 189//2 78//2 81//2
f 81//23 80//23 193//23 195//23
f 195//23 193//23 194//23 196//23
f 196//23 194//23 93//23 95//23
f 79//24 78//24 189//24 191//24
f 191//24 189//24 190//24 192//24
f 192//24 190//24 96//24 94//24
f 131//2 63//2 179//2 198//2
f 198//2 179//2 180//2 197//2
f 197//2 180//2 64//2 125//2
f 88//2 131//2 198//2 186//2
f 186//2 198//2 197//2 185//2
f 185//2 197//2 125//2 87//2
f 132//25 89//25 184//25 200//25
f 200//25 184//25 183//25 199//25
f 199//25 183//25 82//25 130//25
f 62//25 132//25 200//25 181//25
f 181//25 200//25 199//25 182//25
f 182//25 199//25 130//25 69//25
f 150//25 149//25 208//25 210//25
f 210//25 208//25 207//25 209//25
f 209//25 207//25 143//25 142//25
f 144//25 150//25 210//25 205//25
f 205//25 210//25 209//25 206//25
f 206//25 209//25 142//25 146//25
f 133//25 139//25 204//25 211//25
f 211//25 204//25 203//25 212//25
f 212//25 203//25 137//25 141//25
f 134//25 133//25 211//25 201//25
f 201//25 211//25 212//25 202//25
f 202//25 212//25 141//25 140//25
f 22//24 218//24 220//24 23//24
f 218//24 217//24 219//24 220//24
f 217//24 7//24 5//24 219//24
f 20//23 214//23 216//23 21//23
f 214//23 213//23 215//23 216//23
f 213//23 6//23 8//23 215//23
f 6//2 213//2 219//2 5//2
f 213//2 214//2 220//2 219//2
f 214//2 20//2 23//2 220//2
f 24//24 222//24 218//24 22//24
f 222//24 221//24 217//24 218//24
f 221//24 9//24 7//24 217//24
f 14//2 224//2 215//2 8//2
f 224//2 223//2 216//2 215//2
f 223//2 13//2 21//2 216//2
f 43//2 238//2 229//2 37//2
f 238//2 237//2 230//2 229//2
f 237//2 30//2 38//2 230//2
f 29//23 235//23 231//23 27//23
f 235//23 236//23 232//23 231//23
f 236//23 44//23 42//23 232//23
f 46//2 234//2 240//2 45//2
f 234//2 233//2 239//2 240//2
f 233//2 28//2 31//2 239//2
f 30//24 237//24 239//24 31//24
f 237//24 238//24 240//24 239//24
f 238//24 43//24 45//24 240//24
f 28//23 233//23 235//23 29//23
f 233//23 234//23 236//23 235//23
f 234//23 46//23 44//23 236//23
f 124//2 242//2 224//2 14//2
f 242//2 241//2 223//2 224//2
f 241//2 118//2 13//2 223//2
f 37//2 229//2 242//2 124//2
f 229//2 230//2 241//2 242//2
f 230//2 38//2 118//2 241//2
f 119//25 244//25 227//25 32//25
f 244//25 243//25 228//25 227//25
f 243//25 117//25 39//25 228//25
f 19//25 226//25 244//25 119//25
f 226//25 225//25 243//25 244//25
f 225//25 12//25 117//25 243//25
f 167//25 252//25 254//25 168//25
f 252//25 251//25 253//25 254//25
f 251//25 161//25 160//25 253//25
f 168//25 254//25 249//25 162//25
f 254//25 253//25 250//25 249//25
f 253//25 160//25 164//25 250//25
f 157//25 248//25 255//25 151//25
f 248//25 247//25 256//25 255//25
f 247//25 155//25 159//25 256//25
f 151//25 255//25 245//25 152//25
f 255//25 256//25 246//25 245//25
f 256//25 159//25 158//25 246//25
f 92//21 91//21 258//21 257//21
f 257//21 258//21 135//21 134//21
f 91//20 90//20 259//20 258//20
f 258//20 259//20 136//20 135//20
f 90//18 83//18 260//18 259//18
f 259//18 260//18 138//18 136//18
f 83//23 82//23 261//23 260//23
f 260//23 261//23 139//23 138//23
f 76//7 77//7 262//7 263//7
f 263//7 262//7 140//7 141//7
f 89//7 76//7 263//7 264//7
f 264//7 263//7 141//7 137//7
f 75//7 62//7 265//7 267//7
f 267//7 265//7 146//7 142//7
f 74//7 75//7 267//7 268//7
f 268//7 267//7 142//7 143//7
f 69//24 68//24 270//24 266//24
f 266//24 270//24 145//24 144//24
f 68//18 61//18 271//18 270//18
f 270//18 271//18 147//18 145//18
f 61//15 60//15 272//15 271//15
f 271//15 272//15 148//15 147//15
f 60//14 59//14 269//14 272//14
f 272//14 269//14 149//14 148//14
f 41//11 273//11 274//11 42//11
f 273//11 153//11 152//11 274//11
f 40//10 275//10 273//10 41//10
f 275//10 154//10 153//10 273//10
f 33//7 276//7 275//7 40//7
f 276//7 156//7 154//7 275//7
f 32//24 277//24 276//24 33//24
f 277//24 157//24 156//24 276//24
f 27//18 278//18 279//18 26//18
f 278//18 158//18 159//18 279//18
f 26//18 279//18 280//18 39//18
f 279//18 159//18 155//18 280//18
f 12//18 282//18 283//18 25//18
f 282//18 164//18 160//18 283//18
f 25//18 283//18 284//18 24//18
f 283//18 160//18 161//18 284//18
f 18//23 286//23 281//23 19//23
f 286//23 163//23 162//23 281//23
f 11//7 287//7 286//7 18//7
f 287//7 165//7 163//7 286//7
f 10//4 288//4 287//4 11//4
f 288//4 166//4 165//4 287//4
f 9//3 285//3 288//3 10//3
f 285//3 167//3 166//3 288//3
f 188//24 92//24 257//24 289//24
f 289//24 257//24 134//24 201//24
f 290//24 289//24 201//24 202//24
f 77//24 187//24 290//24 262//24
f 262//24 290//24 202//24 140//24
f 184//31 89//31 264//31 291//31
f 291//31 264//31 137//31 203//31
f 292//32 291//32 203//32 204//32
f 82//32 183//32 292//32 261//32
f 261//32 292//32 204//32 139//32
f 182//33 69//33 266//33 293//33
f 293//33 266//33 144//33 205//33
f 294//33 293//33 205//33 206//33
f 62//33 181//33 294//33 265//33
f 265//33 294//33 206//33 146//33
f 178//23 74//23 268//23 295//23
f 295//23 268//23 143//23 207//23
f 296//23 295//23 207//23 208//23
f 59//23 177//23 296//23 269//23
f 269//23 296//23 208//23 149//23
f 231//23 297//23 278//23 27//23
f 297//23 246//23 158//23 278//23
f 298//23 245//23 246//23 297//23
f 42//23 274//23 298//23 232//23
f 274//23 152//23 245//23 298//23
f 227//34 299//34 277//34 32//34
f 299//34 248//34 157//34 277//34
f 300//35 247//35 248//35 299//35
f 39//34 280//34 300//34 228//34
f 280//34 155//34 247//34 300//34
f 225//36 301//36 282//36 12//36
f 301//36 250//36 164//36 282//36
f 302//36 249//36 250//36 301//36
f 19//36 281//36 302//36 226//36
f 281//36 162//36 249//36 302//36
f 221//24 303//24 285//24 9//24
f 303//24 252//24 167//24 285//24
f 304//24 251//24 252//24 303//24
f 24//24 284//24 304//24 222//24
f 284//24 161//24 251//24 304//24
f 304//7 306//7 305//7 222//7
f 303//2 307//2 306//2 304//2
f 221//18 308//18 307//18 303//18
f 222//25 305//25 308//25 221//25
f 305//24 306//24 307//24 308//24
f 302//18 310//18 309//18 226//18
f 301//2 311//2 310//2 302//2
f 225//7 312//7 311//7 301//7
f 226//25 309//25 312//25 225//25
f 309//37 310//37 311//37 312//37
f 300//7 314//7 313//7 228//7
f 299//2 315//2 314//2 300//2
f 227//18 316//18 315//18 299//18
f 228//25 313//25 316//25 227//25
f 313//35 314//35 315//35 316//35
f 298//18 318//18 317//18 232//18
f 297//2 319//2 318//2 298//2
f 231//7 320//7 319//7 297//7
f 232//25 317//25 320//25 231//25
f 317//23 318//23 319//23 320//23
f 296//7 177//7 321//7 322//7
f 295//2 296//2 322//2 323//2
f 178//18 295//18 323//18 324//18
f 177//25 178//25 324//25 321//25
f 321//23 324//23 323//23 322//23
f 294//18 181//18 325//18 326//18
f 293//2 294//2 326//2 327//2
f 182//7 293//7 327//7 328//7
f 181//25 182//25 328//25 325//25
f 325//38 328//38 327//38 326//38
f 292//7 183//7 329//7 330//7
f 291//2 292//2 330//2 331//2
f 184//18 291//18 331//18 332//18
f 183//25 184//25 332//25 329//25
f 329//32 332//32 331//32 330//32
f 290//18 187//18 333//18 334//18
f 289//2 290//2 334//2 335//2
f 188//7 289//7 335//7 336//7
f 187//25 188//25 336//25 333//25
f 333//24 336//24 335//24 334//24
o mesa_oficina_Cube.144
v 95.291306 75.425171 -43.938374
v -95.291252 75.425186 -43.938408
v -95.291306 75.425186 43.417301
v 95.291283 75.425171 43.417374
v 95.291328 76.648193 -43.938362
v -95.291267 76.648193 -43.938396
v -95.291267 76.648193 43.417332
v 95.291306 76.648193 43.417339
vn 1.000000 -0.000019 0.000000
vn 0.000000 0.000009 -1.000000
vn -1.000000 0.000009 -0.000000
vn -0.000000 0.000002 1.000000
usemtl vidre_taula
s off
f 340//39 337//39 341//39 344//39
f 337//40 338//40 342//40 341//40
f 343//41 342//41 338//41 339//41
f 344//42 343//42 339//42 340//42
f 338//25 337//25 340//25 339//25
f 344//2 341//2 342//2 343//2
