#Produced by Art of Illusion 2.7.2, Wed Nov 18 13:50:38 PST 2009
mtllib desk.mtl
s 0
g left_pillar
usemtl cherry
v -2.585 0.005 1.33
v -1.085 0.005 1.33
v -1.085 0.005 -0.87
v -2.585 0.005 -0.87
v -2.585 2.705 1.33
v -1.085 2.705 1.33
v -1.085 2.705 -0.87
v -2.585 2.705 -0.87
v -1.835 1.355 1.33
v -1.085 1.355 0.23
v -1.835 1.355 -0.87
v -2.585 1.355 0.23
v -1.835 0.005 0.23
v -1.835 2.705 0.23
f 2 1 13
f 3 2 13
f 4 3 13
f 1 4 13
f 2 3 10
f 3 7 10
f 7 6 10
f 6 2 10
f 1 2 9
f 2 6 9
f 6 5 9
f 5 1 9
f 4 1 12
f 1 5 12
f 5 8 12
f 8 4 12
f 5 6 14
f 6 7 14
f 7 8 14
f 8 5 14
f 3 4 11
f 4 8 11
f 8 7 11
f 7 3 11
s 0
g top_left_drawer
usemtl features
v -2.535 2.05 1.34
v -1.135 2.05 1.34
v -1.135 2.05 1.33
v -2.535 2.05 1.33
v -2.535 2.65 1.34
v -1.135 2.65 1.34
v -1.135 2.65 1.33
v -2.535 2.65 1.33
v -1.835 2.35 1.34
v -1.135 2.35 1.335
v -1.835 2.35 1.33
v -2.535 2.35 1.335
v -1.835 2.05 1.335
v -1.835 2.65 1.335
f 16 15 27
f 17 16 27
f 18 17 27
f 15 18 27
f 16 17 24
f 17 21 24
f 21 20 24
f 20 16 24
f 15 16 23
f 16 20 23
f 20 19 23
f 19 15 23
f 18 15 26
f 15 19 26
f 19 22 26
f 22 18 26
f 19 20 28
f 20 21 28
f 21 22 28
f 22 19 28
f 17 18 25
f 18 22 25
f 22 21 25
f 21 17 25
s 0
g bottom_left_drawer
usemtl features
v -2.535 0.24 1.34
v -1.135 0.24 1.34
v -1.135 0.24 1.33
v -2.535 0.24 1.33
v -2.535 0.84 1.34
v -1.135 0.84 1.34
v -1.135 0.84 1.33
v -2.535 0.84 1.33
v -1.835 0.54 1.34
v -1.135 0.54 1.335
v -1.835 0.54 1.33
v -2.535 0.54 1.335
v -1.835 0.24 1.335
v -1.835 0.84 1.335
f 30 29 41
f 31 30 41
f 32 31 41
f 29 32 41
f 30 31 38
f 31 35 38
f 35 34 38
f 34 30 38
f 29 30 37
f 30 34 37
f 34 33 37
f 33 29 37
f 32 29 40
f 29 33 40
f 33 36 40
f 36 32 40
f 33 34 42
f 34 35 42
f 35 36 42
f 36 33 42
f 31 32 39
f 32 36 39
f 36 35 39
f 35 31 39
s 0
g middle_left_drawer
usemtl features
v -2.535 0.93 1.34
v -1.135 0.93 1.34
v -1.135 0.93 1.33
v -2.535 0.93 1.33
v -2.535 1.97 1.34
v -1.135 1.97 1.34
v -1.135 1.97 1.33
v -2.535 1.97 1.33
v -1.835 1.45 1.34
v -1.135 1.45 1.335
v -1.835 1.45 1.33
v -2.535 1.45 1.335
v -1.835 0.93 1.335
v -1.835 1.97 1.335
f 44 43 55
f 45 44 55
f 46 45 55
f 43 46 55
f 44 45 52
f 45 49 52
f 49 48 52
f 48 44 52
f 43 44 51
f 44 48 51
f 48 47 51
f 47 43 51
f 46 43 54
f 43 47 54
f 47 50 54
f 50 46 54
f 47 48 56
f 48 49 56
f 49 50 56
f 50 47 56
f 45 46 53
f 46 50 53
f 50 49 53
f 49 45 53
s 0
g middle_right_drawer
usemtl features
v 1.055 0.93 1.34
v 2.455 0.93 1.34
v 2.455 0.93 1.33
v 1.055 0.93 1.33
v 1.055 1.97 1.34
v 2.455 1.97 1.34
v 2.455 1.97 1.33
v 1.055 1.97 1.33
v 1.755 1.45 1.34
v 2.455 1.45 1.335
v 1.755 1.45 1.33
v 1.055 1.45 1.335
v 1.755 0.93 1.335
v 1.755 1.97 1.335
f 58 57 69
f 59 58 69
f 60 59 69
f 57 60 69
f 58 59 66
f 59 63 66
f 63 62 66
f 62 58 66
f 57 58 65
f 58 62 65
f 62 61 65
f 61 57 65
f 60 57 68
f 57 61 68
f 61 64 68
f 64 60 68
f 61 62 70
f 62 63 70
f 63 64 70
f 64 61 70
f 59 60 67
f 60 64 67
f 64 63 67
f 63 59 67
s 0
g bottom_right_drawer
usemtl features
v 1.055 0.24 1.34
v 2.455 0.24 1.34
v 2.455 0.24 1.33
v 1.055 0.24 1.33
v 1.055 0.84 1.34
v 2.455 0.84 1.34
v 2.455 0.84 1.33
v 1.055 0.84 1.33
v 1.755 0.54 1.34
v 2.455 0.54 1.335
v 1.755 0.54 1.33
v 1.055 0.54 1.335
v 1.755 0.24 1.335
v 1.755 0.84 1.335
f 72 71 83
f 73 72 83
f 74 73 83
f 71 74 83
f 72 73 80
f 73 77 80
f 77 76 80
f 76 72 80
f 71 72 79
f 72 76 79
f 76 75 79
f 75 71 79
f 74 71 82
f 71 75 82
f 75 78 82
f 78 74 82
f 75 76 84
f 76 77 84
f 77 78 84
f 78 75 84
f 73 74 81
f 74 78 81
f 78 77 81
f 77 73 81
s 0
g top_right_drawer
usemtl features
v 1.055 2.05 1.34
v 2.455 2.05 1.34
v 2.455 2.05 1.33
v 1.055 2.05 1.33
v 1.055 2.65 1.34
v 2.455 2.65 1.34
v 2.455 2.65 1.33
v 1.055 2.65 1.33
v 1.755 2.35 1.34
v 2.455 2.35 1.335
v 1.755 2.35 1.33
v 1.055 2.35 1.335
v 1.755 2.05 1.335
v 1.755 2.65 1.335
f 86 85 97
f 87 86 97
f 88 87 97
f 85 88 97
f 86 87 94
f 87 91 94
f 91 90 94
f 90 86 94
f 85 86 93
f 86 90 93
f 90 89 93
f 89 85 93
f 88 85 96
f 85 89 96
f 89 92 96
f 92 88 96
f 89 90 98
f 90 91 98
f 91 92 98
f 92 89 98
f 87 88 95
f 88 92 95
f 92 91 95
f 91 87 95
s 0
g right_pillar
usemtl cherry
v 0.995 0.005 1.33
v 2.495 0.005 1.33
v 2.495 0.005 -0.87
v 0.995 0.005 -0.87
v 0.995 2.705 1.33
v 2.495 2.705 1.33
v 2.495 2.705 -0.87
v 0.995 2.705 -0.87
v 1.745 1.355 1.33
v 2.495 1.355 0.23
v 1.745 1.355 -0.87
v 0.995 1.355 0.23
v 1.745 0.005 0.23
v 1.745 2.705 0.23
f 100 99 111
f 101 100 111
f 102 101 111
f 99 102 111
f 100 101 108
f 101 105 108
f 105 104 108
f 104 100 108
f 99 100 107
f 100 104 107
f 104 103 107
f 103 99 107
f 102 99 110
f 99 103 110
f 103 106 110
f 106 102 110
f 103 104 112
f 104 105 112
f 105 106 112
f 106 103 112
f 101 102 109
f 102 106 109
f 106 105 109
f 105 101 109
s 0
g desktop
usemtl cherry
v -2.72 2.855 1.41
v 2.63 2.855 1.41
v 2.63 2.705 1.41
v -2.72 2.705 1.41
v -2.72 2.855 -0.87
v 2.63 2.855 -0.87
v 2.63 2.705 -0.87
v -2.72 2.705 -0.87
v -0.045 2.855 0.27
v 2.63 2.78 0.27
v -0.045 2.705 0.27
v -2.72 2.78 0.27
v -0.045 2.78 1.41
v -0.045 2.78 -0.87
f 114 113 125
f 115 114 125
f 116 115 125
f 113 116 125
f 114 115 122
f 115 119 122
f 119 118 122
f 118 114 122
f 113 114 121
f 114 118 121
f 118 117 121
f 117 113 121
f 116 113 124
f 113 117 124
f 117 120 124
f 120 116 124
f 117 118 126
f 118 119 126
f 119 120 126
f 120 117 126
f 115 116 123
f 116 120 123
f 120 119 123
f 119 115 123
s 0
g middle_drawer
usemtl cherry
v -1.095 2.37 1.33
v 0.995 2.37 1.33
v 0.995 2.37 -0.27
v -1.095 2.37 -0.27
v -1.095 2.72 1.33
v 0.995 2.72 1.33
v 0.995 2.72 -0.27
v -1.095 2.72 -0.27
v -0.05 2.545 1.33
v 0.995 2.545 0.53
v -0.05 2.545 -0.27
v -1.095 2.545 0.53
v -0.05 2.37 0.53
v -0.05 2.72 0.53
f 128 127 139
f 129 128 139
f 130 129 139
f 127 130 139
f 128 129 136
f 129 133 136
f 133 132 136
f 132 128 136
f 127 128 135
f 128 132 135
f 132 131 135
f 131 127 135
f 130 127 138
f 127 131 138
f 131 134 138
f 134 130 138
f 131 132 140
f 132 133 140
f 133 134 140
f 134 131 140
f 129 130 137
f 130 134 137
f 134 133 137
f 133 129 137
s 0
g drawer_facing
usemtl features
v -1.075 2.425 1.335
v 0.965 2.425 1.335
v 0.965 2.425 1.265
v -1.075 2.425 1.265
v -1.075 2.635 1.335
v 0.965 2.635 1.335
v 0.965 2.635 1.265
v -1.075 2.635 1.265
v -0.055 2.53 1.335
v 0.965 2.53 1.3
v -0.055 2.53 1.265
v -1.075 2.53 1.3
v -0.055 2.425 1.3
v -0.055 2.635 1.3
f 142 141 153
f 143 142 153
f 144 143 153
f 141 144 153
f 142 143 150
f 143 147 150
f 147 146 150
f 146 142 150
f 141 142 149
f 142 146 149
f 146 145 149
f 145 141 149
f 144 141 152
f 141 145 152
f 145 148 152
f 148 144 152
f 145 146 154
f 146 147 154
f 147 148 154
f 148 145 154
f 143 144 151
f 144 148 151
f 148 147 151
f 147 143 151
g left_top
usemtl cherry
v -2.58 2.85 -0.865
v -2.58 2.85 1.285
v -2.52 2.85 1.285
v -2.52 2.85 -0.865
v -2.58 4 -0.865
v -2.52 4 -0.865
v -2.58 3.425 0.21
v -2.52 3.425 0.21
v -2.55 3.425 -0.865
v -2.55 2.85 0.21
v -2.52 3.20277 1.285
v -2.58 3.20277 1.285
v -2.58 4 0.05738
v -2.52 4 0.05738
vn 0 -1 0
vn 0 -1 0
vn 0 0 -1
vn 0 0 -1
vn -1 0 0
vn -1 0 0
vn 0 -1 0
vn 0 -1 0
vn 0 0 1
vn -0 0 1
vn -1 0 0
vn -1 0 0
vn 0 -1 0
vn 0 -1 0
vn 1 0 0
vn 1 0 0
vn 0 0 1
vn 0 -1 0
vn 0 -1 0
vn 0 0 -1
vn 0 0 -1
vn 1 0 0
vn 1 0 0
vn -1 0 0
vn -1 0 0
vn 0 1 -0
vn 0 0 -1
vn 0 0 -1
vn 0 0 -1
vn 0 0 -1
vn 0 1 -0
vn 1 0 0
vn 1 0 0
vn -1 0 0
vn -1 0 0
vn -1 0 0
vn -1 0 0
vn 1 0 0
vn 1 0 0
vn 1 0 0
vn 1 0 0
vn 0 0 -1
vn 0 0 -1
vn 0 0 -1
vn 0 0 -1
vn 0 -1 0
vn 0 -1 0
vn 0 -1 0
vn 0 -1 0
vn 0 0 1
vn 1 0 0
vn 1 0 0
vn 0 0.83867 0.54464
vn 0 0.83867 0.54464
vn -0 0 1
vn 0 0.83867 0.54464
vn -0 0 1
vn -1 0 0
vn 0 0.83867 0.54464
vn 0 0.83867 0.54464
vn 0 1 -0
vn -1 0 0
vn -1 0 0
vn 1 0 0
vn 0 1 -0
vn 0 0.83867 0.54464
f 156//7 155//1 164//46
f 157//13 156//8 164//49
f 158//18 157//14 164//48
f 155//2 158//19 164//47
f 155//6 156//12 161//34
f 159//24 155//5 161//37
f 158//20 155//3 163//42
f 155//4 159//28 163//43
f 159//27 160//30 163//44
f 160//29 158//21 163//45
f 157//15 158//23 162//38
f 158//22 160//33 162//39
f 156//11 166//58 167//63
f 157//17 165//50 156//9
f 165//54 167//59 166//56
f 166//57 156//10 165//55
f 162//40 160//32 165//52
f 156//11 167//63 161//35
f 160//32 168//64 165//52
f 159//25 161//36 167//62
f 165//53 168//66 167//60
f 162//41 165//51 157//16
f 159//26 167//61 168//65
f 159//26 168//65 160//31
g right_top
usemtl cherry
v 2.45 2.86 -0.865
v 2.45 2.86 1.285
v 2.51 2.86 1.285
v 2.51 2.86 -0.865
v 2.45 4.01 -0.865
v 2.51 4.01 -0.865
v 2.45 3.435 0.21
v 2.51 3.435 0.21
v 2.48 3.435 -0.865
v 2.48 2.86 0.21
v 2.51 3.21277 1.285
v 2.45 3.21277 1.285
v 2.45 4.01 0.05738
v 2.51 4.01 0.05738
vn 0 -1 0
vn 0 -1 0
vn 0 0 -1
vn 0 0 -1
vn -1 0 0
vn -1 0 0
vn 0 -1 0
vn 0 -1 0
vn 0 0 1
vn -0 0 1
vn -1 0 0
vn -1 0 0
vn 0 -1 0
vn 0 -1 0
vn 1 0 0
vn 1 0 0
vn 0 0 1
vn 0 -1 0
vn 0 -1 0
vn 0 0 -1
vn 0 0 -1
vn 1 0 0
vn 1 0 0
vn -1 0 0
vn -1 0 0
vn 0 1 -0
vn 0 0 -1
vn 0 0 -1
vn 0 0 -1
vn 0 0 -1
vn 0 1 -0
vn 1 0 0
vn 1 0 0
vn -1 0 0
vn -1 0 0
vn -1 0 0
vn -1 0 0
vn 1 0 0
vn 1 0 0
vn 1 0 0
vn 1 0 0
vn 0 0 -1
vn 0 0 -1
vn 0 0 -1
vn 0 0 -1
vn 0 -1 0
vn 0 -1 0
vn 0 -1 0
vn 0 -1 0
vn 0 0 1
vn 1 0 0
vn 1 0 0
vn 0 0.83867 0.54464
vn 0 0.83867 0.54464
vn -0 0 1
vn 0 0.83867 0.54464
vn -0 0 1
vn -1 0 0
vn 0 0.83867 0.54464
vn 0 0.83867 0.54464
vn 0 1 -0
vn -1 0 0
vn -1 0 0
vn 1 0 0
vn 0 1 -0
vn 0 0.83867 0.54464
f 170//73 169//67 178//112
f 171//79 170//74 178//115
f 172//84 171//80 178//114
f 169//68 172//85 178//113
f 169//72 170//78 175//100
f 173//90 169//71 175//103
f 172//86 169//69 177//108
f 169//70 173//94 177//109
f 173//93 174//96 177//110
f 174//95 172//87 177//111
f 171//81 172//89 176//104
f 172//88 174//99 176//105
f 170//77 180//124 181//129
f 171//83 179//116 170//75
f 179//120 181//125 180//122
f 180//123 170//76 179//121
f 176//106 174//98 179//118
f 170//77 181//129 175//101
f 174//98 182//130 179//118
f 173//91 175//102 181//128
f 179//119 182//132 181//126
f 176//107 179//117 171//82
f 173//92 181//127 182//131
f 173//92 182//131 174//97
s 0
g back
usemtl cherry
v 2.51 2.845 -0.87
v -2.61 2.845 -0.87
v -2.61 2.845 -0.85
v 2.51 2.845 -0.85
v 2.51 3.985 -0.87
v -2.61 3.985 -0.87
v -2.61 3.985 -0.85
v 2.51 3.985 -0.85
v -0.05 3.415 -0.87
v -2.61 3.415 -0.86
v -0.05 3.415 -0.85
v 2.51 3.415 -0.86
v -0.05 2.845 -0.86
v -0.05 3.985 -0.86
f 184 183 195
f 185 184 195
f 186 185 195
f 183 186 195
f 184 185 192
f 185 189 192
f 189 188 192
f 188 184 192
f 183 184 191
f 184 188 191
f 188 187 191
f 187 183 191
f 186 183 194
f 183 187 194
f 187 190 194
f 190 186 194
f 187 188 196
f 188 189 196
f 189 190 196
f 190 187 196
f 185 186 193
f 186 190 193
f 190 189 193
f 189 185 193
s 0
g top
usemtl cherry
v -2.73 4.1 0.0202
v 2.62 4.1 0.0202
v 2.62 4 0.0202
v -2.73 4 0.0202
v -2.73 4.1 -0.8798
v 2.62 4.1 -0.8798
v 2.62 4 -0.8798
v -2.73 4 -0.8798
v -0.055 4.1 -0.4298
v 2.62 4.05 -0.4298
v -0.055 4 -0.4298
v -2.73 4.05 -0.4298
v -0.055 4.05 0.0202
v -0.055 4.05 -0.8798
f 198 197 209
f 199 198 209
f 200 199 209
f 197 200 209
f 198 199 206
f 199 203 206
f 203 202 206
f 202 198 206
f 197 198 205
f 198 202 205
f 202 201 205
f 201 197 205
f 200 197 208
f 197 201 208
f 201 204 208
f 204 200 208
f 201 202 210
f 202 203 210
f 203 204 210
f 204 201 210
f 199 200 207
f 200 204 207
f 204 203 207
f 203 199 207
s 0
g shelf
usemtl cherry
v -2.56 3.55 -0.0898
v 2.43 3.55 -0.0898
v 2.43 3.45 -0.0898
v -2.56 3.45 -0.0898
v -2.56 3.55 -0.8798
v 2.43 3.55 -0.8798
v 2.43 3.45 -0.8798
v -2.56 3.45 -0.8798
v -0.065 3.55 -0.4848
v 2.43 3.5 -0.4848
v -0.065 3.45 -0.4848
v -2.56 3.5 -0.4848
v -0.065 3.5 -0.0898
v -0.065 3.5 -0.8798
f 212 211 223
f 213 212 223
f 214 213 223
f 211 214 223
f 212 213 220
f 213 217 220
f 217 216 220
f 216 212 220
f 211 212 219
f 212 216 219
f 216 215 219
f 215 211 219
f 214 211 222
f 211 215 222
f 215 218 222
f 218 214 222
f 215 216 224
f 216 217 224
f 217 218 224
f 218 215 224
f 213 214 221
f 214 218 221
f 218 217 221
f 217 213 221
s 0
g divider
usemtl features
v -2.1 3.545 -0.83
v -2.1 3.545 -0.12
v -2.05 3.545 -0.12
v -2.05 3.545 -0.83
v -2.1 3.975 -0.83
v -2.1 3.975 -0.12
v -2.05 3.975 -0.12
v -2.05 3.975 -0.83
v -2.1 3.76 -0.475
v -2.075 3.76 -0.12
v -2.05 3.76 -0.475
v -2.075 3.76 -0.83
v -2.075 3.545 -0.475
v -2.075 3.975 -0.475
f 226 225 237
f 227 226 237
f 228 227 237
f 225 228 237
f 226 227 234
f 227 231 234
f 231 230 234
f 230 226 234
f 225 226 233
f 226 230 233
f 230 229 233
f 229 225 233
f 228 225 236
f 225 229 236
f 229 232 236
f 232 228 236
f 229 230 238
f 230 231 238
f 231 232 238
f 232 229 238
f 227 228 235
f 228 232 235
f 232 231 235
f 231 227 235
s 0
g divider_1
usemtl features
v -1.63 3.545 -0.83
v -1.63 3.545 -0.12
v -1.58 3.545 -0.12
v -1.58 3.545 -0.83
v -1.63 3.975 -0.83
v -1.63 3.975 -0.12
v -1.58 3.975 -0.12
v -1.58 3.975 -0.83
v -1.63 3.76 -0.475
v -1.605 3.76 -0.12
v -1.58 3.76 -0.475
v -1.605 3.76 -0.83
v -1.605 3.545 -0.475
v -1.605 3.975 -0.475
f 240 239 251
f 241 240 251
f 242 241 251
f 239 242 251
f 240 241 248
f 241 245 248
f 245 244 248
f 244 240 248
f 239 240 247
f 240 244 247
f 244 243 247
f 243 239 247
f 242 239 250
f 239 243 250
f 243 246 250
f 246 242 250
f 243 244 252
f 244 245 252
f 245 246 252
f 246 243 252
f 241 242 249
f 242 246 249
f 246 245 249
f 245 241 249
s 0
g divider_2
usemtl features
v -1.17 3.545 -0.83
v -1.17 3.545 -0.12
v -1.12 3.545 -0.12
v -1.12 3.545 -0.83
v -1.17 3.975 -0.83
v -1.17 3.975 -0.12
v -1.12 3.975 -0.12
v -1.12 3.975 -0.83
v -1.17 3.76 -0.475
v -1.145 3.76 -0.12
v -1.12 3.76 -0.475
v -1.145 3.76 -0.83
v -1.145 3.545 -0.475
v -1.145 3.975 -0.475
f 254 253 265
f 255 254 265
f 256 255 265
f 253 256 265
f 254 255 262
f 255 259 262
f 259 258 262
f 258 254 262
f 253 254 261
f 254 258 261
f 258 257 261
f 257 253 261
f 256 253 264
f 253 257 264
f 257 260 264
f 260 256 264
f 257 258 266
f 258 259 266
f 259 260 266
f 260 257 266
f 255 256 263
f 256 260 263
f 260 259 263
f 259 255 263
s 0
g divider_3
usemtl features
v -0.41 3.545 -0.83
v -0.41 3.545 -0.12
v -0.36 3.545 -0.12
v -0.36 3.545 -0.83
v -0.41 3.975 -0.83
v -0.41 3.975 -0.12
v -0.36 3.975 -0.12
v -0.36 3.975 -0.83
v -0.41 3.76 -0.475
v -0.385 3.76 -0.12
v -0.36 3.76 -0.475
v -0.385 3.76 -0.83
v -0.385 3.545 -0.475
v -0.385 3.975 -0.475
f 268 267 279
f 269 268 279
f 270 269 279
f 267 270 279
f 268 269 276
f 269 273 276
f 273 272 276
f 272 268 276
f 267 268 275
f 268 272 275
f 272 271 275
f 271 267 275
f 270 267 278
f 267 271 278
f 271 274 278
f 274 270 278
f 271 272 280
f 272 273 280
f 273 274 280
f 274 271 280
f 269 270 277
f 270 274 277
f 274 273 277
f 273 269 277
s 0
g divider_4
usemtl features
v 0.2 3.545 -0.83
v 0.2 3.545 -0.12
v 0.25 3.545 -0.12
v 0.25 3.545 -0.83
v 0.2 3.975 -0.83
v 0.2 3.975 -0.12
v 0.25 3.975 -0.12
v 0.25 3.975 -0.83
v 0.2 3.76 -0.475
v 0.225 3.76 -0.12
v 0.25 3.76 -0.475
v 0.225 3.76 -0.83
v 0.225 3.545 -0.475
v 0.225 3.975 -0.475
f 282 281 293
f 283 282 293
f 284 283 293
f 281 284 293
f 282 283 290
f 283 287 290
f 287 286 290
f 286 282 290
f 281 282 289
f 282 286 289
f 286 285 289
f 285 281 289
f 284 281 292
f 281 285 292
f 285 288 292
f 288 284 292
f 285 286 294
f 286 287 294
f 287 288 294
f 288 285 294
f 283 284 291
f 284 288 291
f 288 287 291
f 287 283 291
s 0
g divider_5
usemtl features
v 0.9 3.545 -0.83
v 0.9 3.545 -0.12
v 0.95 3.545 -0.12
v 0.95 3.545 -0.83
v 0.9 3.975 -0.83
v 0.9 3.975 -0.12
v 0.95 3.975 -0.12
v 0.95 3.975 -0.83
v 0.9 3.76 -0.475
v 0.925 3.76 -0.12
v 0.95 3.76 -0.475
v 0.925 3.76 -0.83
v 0.925 3.545 -0.475
v 0.925 3.975 -0.475
f 296 295 307
f 297 296 307
f 298 297 307
f 295 298 307
f 296 297 304
f 297 301 304
f 301 300 304
f 300 296 304
f 295 296 303
f 296 300 303
f 300 299 303
f 299 295 303
f 298 295 306
f 295 299 306
f 299 302 306
f 302 298 306
f 299 300 308
f 300 301 308
f 301 302 308
f 302 299 308
f 297 298 305
f 298 302 305
f 302 301 305
f 301 297 305
s 0
g divider_6
usemtl features
v 1.31 3.545 -0.83
v 1.31 3.545 -0.12
v 1.36 3.545 -0.12
v 1.36 3.545 -0.83
v 1.31 3.975 -0.83
v 1.31 3.975 -0.12
v 1.36 3.975 -0.12
v 1.36 3.975 -0.83
v 1.31 3.76 -0.475
v 1.335 3.76 -0.12
v 1.36 3.76 -0.475
v 1.335 3.76 -0.83
v 1.335 3.545 -0.475
v 1.335 3.975 -0.475
f 310 309 321
f 311 310 321
f 312 311 321
f 309 312 321
f 310 311 318
f 311 315 318
f 315 314 318
f 314 310 318
f 309 310 317
f 310 314 317
f 314 313 317
f 313 309 317
f 312 309 320
f 309 313 320
f 313 316 320
f 316 312 320
f 313 314 322
f 314 315 322
f 315 316 322
f 316 313 322
f 311 312 319
f 312 316 319
f 316 315 319
f 315 311 319
s 0
g divider_7
usemtl features
v 1.76 3.545 -0.83
v 1.76 3.545 -0.12
v 1.81 3.545 -0.12
v 1.81 3.545 -0.83
v 1.76 3.975 -0.83
v 1.76 3.975 -0.12
v 1.81 3.975 -0.12
v 1.81 3.975 -0.83
v 1.76 3.76 -0.475
v 1.785 3.76 -0.12
v 1.81 3.76 -0.475
v 1.785 3.76 -0.83
v 1.785 3.545 -0.475
v 1.785 3.975 -0.475
f 324 323 335
f 325 324 335
f 326 325 335
f 323 326 335
f 324 325 332
f 325 329 332
f 329 328 332
f 328 324 332
f 323 324 331
f 324 328 331
f 328 327 331
f 327 323 331
f 326 323 334
f 323 327 334
f 327 330 334
f 330 326 334
f 327 328 336
f 328 329 336
f 329 330 336
f 330 327 336
f 325 326 333
f 326 330 333
f 330 329 333
f 329 325 333
s 0
g divider_8
usemtl features
v -1.17 3.545 -0.83
v -1.17 3.545 -0.12
v -1.12 3.545 -0.12
v -1.12 3.545 -0.83
v -1.17 3.975 -0.83
v -1.17 3.975 -0.12
v -1.12 3.975 -0.12
v -1.12 3.975 -0.83
v -1.17 3.76 -0.475
v -1.145 3.76 -0.12
v -1.12 3.76 -0.475
v -1.145 3.76 -0.83
v -1.145 3.545 -0.475
v -1.145 3.975 -0.475
f 338 337 349
f 339 338 349
f 340 339 349
f 337 340 349
f 338 339 346
f 339 343 346
f 343 342 346
f 342 338 346
f 337 338 345
f 338 342 345
f 342 341 345
f 341 337 345
f 340 337 348
f 337 341 348
f 341 344 348
f 344 340 348
f 341 342 350
f 342 343 350
f 343 344 350
f 344 341 350
f 339 340 347
f 340 344 347
f 344 343 347
f 343 339 347
s 0
g blotter
usemtl green
v -1.065 2.89987 1.1235
v 0.935 2.89987 1.1235
v 0.935 2.87987 1.1235
v -1.065 2.87987 1.1235
v -1.065 2.89987 -0.4765
v 0.935 2.89987 -0.4765
v 0.935 2.87987 -0.4765
v -1.065 2.87987 -0.4765
v -0.065 2.89987 0.3235
v 0.935 2.88987 0.3235
v -0.065 2.87987 0.3235
v -1.065 2.88987 0.3235
v -0.065 2.88987 1.1235
v -0.065 2.88987 -0.4765
f 352 351 363
f 353 352 363
f 354 353 363
f 351 354 363
f 352 353 360
f 353 357 360
f 357 356 360
f 356 352 360
f 351 352 359
f 352 356 359
f 356 355 359
f 355 351 359
f 354 351 362
f 351 355 362
f 355 358 362
f 358 354 362
f 355 356 364
f 356 357 364
f 357 358 364
f 358 355 364
f 353 354 361
f 354 358 361
f 358 357 361
f 357 353 361
s 0
g paper
usemtl Default_Texture
v 0.64211 2.9405 0.83625
v 1.22314 2.9405 0.9387
v 1.22314 2.9305 0.9387
v 0.64211 2.9305 0.83625
v 0.78623 2.9405 0.01886
v 1.36727 2.9405 0.12131
v 1.36727 2.9305 0.12131
v 0.78623 2.9305 0.01886
v 1.00469 2.9405 0.47878
v 1.29521 2.9355 0.53001
v 1.00469 2.9305 0.47878
v 0.71417 2.9355 0.42756
v 0.93262 2.9355 0.88748
v 1.07675 2.9355 0.07009
f 366 365 377
f 367 366 377
f 368 367 377
f 365 368 377
f 366 367 374
f 367 371 374
f 371 370 374
f 370 366 374
f 365 366 373
f 366 370 373
f 370 369 373
f 369 365 373
f 368 365 376
f 365 369 376
f 369 372 376
f 372 368 376
f 369 370 378
f 370 371 378
f 371 372 378
f 372 369 378
f 367 368 375
f 368 372 375
f 372 371 375
f 371 367 375
