# Blender3D v249 OBJ File: 
# www.blender3d.org
mtllib wooden_table_office.mtl
v -61.386929 0.000150 45.542465
v -69.386940 0.000150 45.542465
v -69.386940 0.000149 37.542465
v -61.386929 0.000149 37.542465
v -69.386940 0.000144 -24.909340
v -61.386929 0.000144 -24.909340
v -61.386929 0.000144 -16.909340
v -69.386940 0.000144 -16.909340
v 62.613068 0.000144 -24.909332
v 70.613075 0.000144 -24.909332
v 70.613075 0.000144 -16.909332
v 62.613068 0.000144 -16.909332
v 70.613075 0.000150 45.542469
v 62.613068 0.000150 45.542469
v 62.613068 0.000149 37.542473
v 70.613075 0.000149 37.542473
v 76.148605 75.000137 50.530346
v 76.148621 77.510765 50.530315
v 76.148643 77.510765 -29.897171
v 76.148628 75.000137 -29.897184
v -74.922508 77.510773 -29.897205
v -74.922501 75.000153 -29.897217
v -74.922508 77.510773 50.530308
v -74.922546 75.000153 50.530273
v -61.386936 66.249733 45.542458
v -69.386940 66.249733 45.542454
v -69.386932 66.249733 37.542458
v -61.386929 66.249733 37.542458
v -61.386936 66.249733 -16.909346
v -69.386940 66.249733 -16.909349
v -69.386940 66.249733 -24.909348
v -61.386929 66.249733 -24.909346
v 70.613075 66.249733 -24.909338
v 70.613068 66.249733 -16.909340
v 62.613071 66.249733 -24.909338
v 62.613068 66.249733 -16.909344
v 70.613068 66.249733 45.542461
v 70.613075 66.249733 37.542465
v 62.613071 66.249733 37.542465
v 62.613068 66.249733 45.542461
vt 0.401222 0.364318
vt 0.348292 0.364318
vt 0.348292 0.436390
vt 0.401222 0.436390
vt 0.404932 0.436140
vt 0.457862 0.436140
vt 0.457862 0.364068
vt 0.404932 0.364068
vt 0.287892 0.437051
vt 0.340822 0.437051
vt 0.340822 0.364980
vt 0.287892 0.364980
vt 0.280770 0.362873
vt 0.227840 0.362873
vt 0.227840 0.434944
vt 0.280770 0.434944
vt 0.465126 0.385145
vt 0.997254 0.385145
vt 0.997254 0.407763
vt 0.465126 0.407763
vt 0.000076 0.825168
vt 0.999599 0.825168
vt 0.999599 0.802549
vt 0.000076 0.802550
vt 0.463835 0.437428
vt 0.995962 0.437428
vt 0.995962 0.414810
vt 0.463835 0.414810
vt 0.999972 0.850060
vt 0.000449 0.850060
vt 0.000449 0.827442
vt 0.999972 0.827442
vt 0.999972 0.234373
vt 0.000449 0.234373
vt 0.000449 0.958938
vt 0.999972 0.958938
vt 0.355441 0.548645
vt 0.803069 0.548645
vt 0.803069 0.619219
vt 0.355441 0.619219
vt 0.355441 0.697923
vt 0.803069 0.697923
vt 0.803069 0.627349
vt 0.355441 0.627349
vt 0.803069 0.619218
vt 0.492594 0.325047
vt 0.940222 0.325047
vt 0.940222 0.254474
vt 0.492594 0.254474
vt 0.492594 0.384291
vt 0.940222 0.384291
vt 0.940222 0.313718
vt 0.492594 0.313718
vn 0.000000 -1.000000 0.000000
vn 1.000000 -0.000006 0.000000
vn 0.000000 0.000005 -1.000000
vn -1.000000 0.000006 -0.000000
vn -0.000000 -0.000001 1.000000
vn 0.000000 1.000000 0.000000
vn -0.000000 0.000000 1.000000
vn -1.000000 0.000000 -0.000000
vn 0.000000 -0.000000 -1.000000
vn 1.000000 0.000000 0.000000
g woodred_woodred.jpg_woodred_woodred.jpg_woodred_woodred.j_woodred.jpg
usemtl woodred_woodred.j_woodred.jpg
s off
f 1/1/1 2/2/1 3/3/1 4/4/1
f 5/5/1 6/6/1 7/7/1 8/8/1
f 9/9/1 10/10/1 11/11/1 12/12/1
f 13/13/1 14/14/1 15/15/1 16/16/1
f 17/17/2 20/18/2 19/19/2 18/20/2
f 21/21/3 19/22/3 20/23/3 22/24/3
f 23/25/4 21/26/4 22/27/4 24/28/4
f 18/29/5 23/30/5 24/31/5 17/32/5
f 17/33/1 24/34/1 22/35/1 20/36/1
f 18/33/6 19/36/6 21/35/6 23/34/6
f 1/37/7 25/38/7 26/39/7 2/40/7
f 2/41/8 26/42/8 27/43/8 3/44/8
f 3/40/9 27/45/9 28/38/9 4/37/9
f 25/42/10 1/41/10 4/44/10 28/43/10
f 7/37/7 29/38/7 30/39/7 8/40/7
f 8/46/8 30/47/8 31/48/8 5/49/8
f 5/40/9 31/39/9 32/38/9 6/37/9
f 6/49/10 32/48/10 29/47/10 7/46/10
f 10/49/10 33/48/10 34/47/10 11/46/10
f 9/50/9 35/51/9 33/52/9 10/53/9
f 12/46/8 36/47/8 35/48/8 9/49/8
f 11/53/7 34/52/7 36/51/7 12/50/7
f 37/42/10 13/41/10 16/44/10 38/43/10
f 15/50/9 39/51/9 38/52/9 16/53/9
f 14/41/8 40/42/8 39/43/8 15/44/8
f 13/53/7 37/52/7 40/51/7 14/50/7
v 70.613045 70.000153 45.542461
v -69.386940 70.000153 45.542450
v -69.386940 70.000153 -24.909351
v 70.613068 70.000153 -24.909338
v 70.613029 75.000145 45.542492
v -69.386978 75.000145 45.542427
v -69.386925 75.000145 -24.909363
v 70.613052 75.000145 -24.909332
v -61.386940 66.543129 45.542458
v -61.386940 70.000153 45.542458
v -69.386940 66.543129 45.542454
v -69.386932 70.000153 37.542458
v -69.386932 66.543129 37.542458
v -61.386936 70.000153 37.542458
v -61.386929 66.543129 37.542458
v -61.386940 66.543129 -16.909346
v -61.386940 70.000153 -16.909346
v -69.386940 70.000153 -16.909353
v -69.386940 66.543129 -16.909351
v -69.386940 66.543129 -24.909348
v -61.386936 70.000153 -24.909346
v -61.386929 66.543129 -24.909346
v 70.613075 66.543129 -24.909338
v 70.613068 70.000153 -16.909340
v 70.613068 66.543129 -16.909340
v 62.613071 66.543129 -24.909338
v 62.613071 70.000153 -24.909338
v 62.613068 66.543129 -16.909346
v 62.613068 70.000153 -16.909346
v 70.613052 66.543129 45.542461
v 70.613075 66.543129 37.542465
v 70.613068 70.000153 37.542465
v 62.613071 66.543129 37.542465
v 62.613071 70.000153 37.542465
v 62.613068 66.543129 45.542461
v 62.613068 70.000153 45.542458
v 63.054825 66.543129 45.100697
v 70.171295 66.543114 45.100700
v 63.054832 66.543129 37.984226
v 70.171318 66.543114 37.984226
v 63.054825 66.543129 -17.351107
v 70.171303 66.543121 -17.351103
v 63.054832 66.543129 -24.467575
v 70.171318 66.543121 -24.467575
v -61.828701 66.543121 -17.351109
v -61.828690 66.543121 -24.467583
v -68.945183 66.543129 -24.467585
v -68.945183 66.543129 -17.351112
v -61.828701 66.543121 45.100693
v -61.828690 66.543121 37.984222
v -68.945175 66.543129 37.984222
v -68.945183 66.543129 45.100693
v 62.613068 66.249733 45.542461
v 70.613068 66.249733 45.542461
v 70.171303 66.249718 45.100700
v 63.054825 66.249733 45.100697
v 62.613071 66.249733 37.542465
v 63.054832 66.249733 37.984226
v 70.613075 66.249733 37.542465
v 70.171318 66.249718 37.984226
v 62.613068 66.249733 -16.909344
v 70.613068 66.249733 -16.909340
v 70.171310 66.249725 -17.351103
v 63.054825 66.249733 -17.351105
v 62.613071 66.249733 -24.909338
v 63.054832 66.249733 -24.467575
v 70.613075 66.249733 -24.909338
v 70.171318 66.249725 -24.467575
v -61.386936 66.249733 -16.909346
v -61.386929 66.249733 -24.909346
v -61.828690 66.249725 -24.467583
v -61.828693 66.249725 -17.351109
v -69.386940 66.249733 -24.909348
v -68.945183 66.249733 -24.467585
v -69.386940 66.249733 -16.909349
v -68.945183 66.249733 -17.351110
v -61.386936 66.249733 45.542458
v -61.386929 66.249733 37.542458
v -61.828690 66.249725 37.984222
v -61.828693 66.249725 45.100693
v -69.386932 66.249733 37.542458
v -68.945175 66.249733 37.984222
v -69.386940 66.249733 45.542454
v -68.945183 66.249733 45.100693
vt 0.000000 1.000000
vt 0.000000 0.000000
vt 1.000000 0.000000
vt 1.000000 1.000000
vn -1.000000 -0.000002 -0.000000
vn 0.000000 -0.000001 -1.000000
vn 1.000000 0.000003 0.000000
vn -0.000001 0.000001 1.000000
vn -1.000000 -0.000000 -0.000001
vn 1.000000 0.000001 0.000001
vn -0.000001 0.000000 1.000000
vn 1.000000 0.000001 0.000000
vn 1.000000 0.000002 0.000003
vn -0.000000 0.000001 1.000000
vn -0.000001 -1.000000 0.000017
vn -0.000001 -1.000000 -0.000017
vn 0.000035 -1.000000 0.000000
vn -0.000001 -1.000000 0.000009
vn -0.000001 -1.000000 -0.000009
vn 0.000017 -1.000000 0.000000
vn 0.000001 1.000000 -0.000017
vn 0.000001 1.000000 0.000017
vn -0.000035 1.000000 -0.000000
vn 0.000001 1.000000 -0.000009
vn 0.000001 1.000000 0.000009
vn -0.000017 1.000000 -0.000000
vn 1.000000 0.000013 0.000001
vn -0.000000 0.000003 1.000000
vn 1.000000 0.000013 0.000002
vn 1.000000 0.000013 0.000003
g alumain_alumain_alumain.001
usemtl alumain.001
s off
f 41/54/1 42/55/1 43/56/1 44/57/1
f 41/54/5 45/55/5 46/56/5 42/57/5
f 42/54/11 46/55/11 47/56/11 43/57/11
f 43/54/12 47/55/12 48/56/12 44/57/12
f 45/54/13 41/55/13 44/56/13 48/57/13
f 49/54/14 50/55/14 42/56/14 51/57/14
f 51/54/15 42/55/15 52/56/15 53/57/15
f 53/54/9 52/55/9 54/56/9 55/57/9
f 50/54/16 49/55/16 55/56/16 54/57/16
f 56/54/17 57/55/17 58/56/17 59/57/17
f 59/54/8 58/55/8 43/56/8 60/57/8
f 60/54/12 43/55/12 61/56/12 62/57/12
f 62/54/16 61/55/16 57/56/16 56/57/16
f 63/54/18 44/55/18 64/56/18 65/57/18
f 66/54/9 67/55/9 44/56/9 63/57/9
f 68/54/8 69/55/8 67/56/8 66/57/8
f 65/54/17 64/55/17 69/56/17 68/57/17
f 41/54/19 70/55/19 71/56/19 72/57/19
f 73/54/9 74/55/9 72/56/9 71/57/9
f 75/54/8 76/55/8 74/56/8 73/57/8
f 70/54/20 41/55/20 76/56/20 75/57/20
f 70/54/21 75/55/21 77/56/21 78/57/21
f 75/54/1 73/55/1 79/56/1 77/57/1
f 73/54/22 71/55/22 80/56/22 79/57/22
f 71/54/23 70/55/23 78/56/23 80/57/23
f 65/54/24 68/55/24 81/56/24 82/57/24
f 68/54/1 66/55/1 83/56/1 81/57/1
f 66/54/25 63/55/25 84/56/25 83/57/25
f 63/54/26 65/55/26 82/56/26 84/57/26
f 62/54/26 56/55/26 85/56/26 86/57/26
f 60/54/25 62/55/25 86/56/25 87/57/25
f 59/54/1 60/55/1 87/56/1 88/57/1
f 56/54/24 59/55/24 88/56/24 85/57/24
f 55/54/26 49/55/26 89/56/26 90/57/26
f 53/54/25 55/55/25 90/56/25 91/57/25
f 51/54/1 53/55/1 91/56/1 92/57/1
f 49/54/24 51/55/24 92/56/24 89/57/24
f 93/54/27 94/55/27 95/56/27 96/57/27
f 97/54/6 93/55/6 96/56/6 98/57/6
f 99/54/28 97/55/28 98/56/28 100/57/28
f 94/54/29 99/55/29 100/56/29 95/57/29
f 101/54/30 102/55/30 103/56/30 104/57/30
f 105/54/6 101/55/6 104/56/6 106/57/6
f 107/54/31 105/55/31 106/56/31 108/57/31
f 102/54/32 107/55/32 108/56/32 103/57/32
f 109/54/32 110/55/32 111/56/32 112/57/32
f 110/54/31 113/55/31 114/56/31 111/57/31
f 113/54/6 115/55/6 116/56/6 114/57/6
f 115/54/30 109/55/30 112/56/30 116/57/30
f 117/54/32 118/55/32 119/56/32 120/57/32
f 118/54/31 121/55/31 122/56/31 119/57/31
f 121/54/6 123/55/6 124/56/6 122/57/6
f 123/54/30 117/55/30 120/56/30 124/57/30
f 120/54/7 89/55/7 92/56/7 124/57/7
f 124/54/15 92/55/15 91/56/15 122/57/15
f 122/54/9 91/55/9 90/56/9 119/57/9
f 89/54/33 120/55/33 119/56/33 90/57/33
f 112/54/34 85/55/34 88/56/34 116/57/34
f 116/54/8 88/55/8 87/56/8 114/57/8
f 114/54/9 87/55/9 86/56/9 111/57/9
f 111/54/33 86/55/33 85/56/33 112/57/33
f 108/54/35 84/55/35 82/56/35 103/57/35
f 106/54/9 83/55/9 84/56/9 108/57/9
f 104/54/15 81/55/15 83/56/15 106/57/15
f 103/54/34 82/55/34 81/56/34 104/57/34
f 78/54/36 95/55/36 100/56/36 80/57/36
f 98/54/9 79/55/9 80/56/9 100/57/9
f 96/54/15 77/55/15 79/56/15 98/57/15
f 95/54/17 78/55/17 77/56/17 96/57/17
