# tavolo.obj 3D model
#
# Created by LucaPresidente
#
# This file is distributed under Free Art License, see http://artlibre.org/licence/lal/en for more informations
# and under CC-BY Creative Commons Attribution 3.0 Unported license, see http://creativecommons.org/licenses/by/3.0/
# at your choice
# 
mtllib tavolo.mtl
g Box01_1
usemtl Box01_1
v 470.0 0.0 248.0
v 470.0 0.0 240.0
v 478.0 0.0 240.0
v 478.0 0.0 248.0
v 470.0 70.0 248.0
v 478.0 70.0 248.0
v 478.0 70.0 240.0
v 470.0 70.0 240.0
vt 1.0 0.0 0
vt 1.0 1.0 0
vt 0.0 1.0 0
vt 0.0 0.0 0
vn 0.0 -1.0 0.0
vn 0.0 1.0 0.0
vn 0.0 0.0 1.0
vn 1.0 0.0 0.0
vn 0.0 0.0 -1.0
vn -1.0 0.0 0.0
f 1/1/1 2/2/1 3/3/1
f 1/1/1 3/3/1 4/4/1
f 5/4/2 6/1/2 7/2/2
f 5/4/2 7/2/2 8/3/2
f 1/4/3 4/1/3 6/2/3
f 1/4/3 6/2/3 5/3/3
f 4/4/4 3/1/4 7/2/4
f 4/4/4 7/2/4 6/3/4
f 3/4/5 2/1/5 8/2/5
f 3/4/5 8/2/5 7/3/5
f 2/4/6 1/1/6 5/2/6
f 2/4/6 5/2/6 8/3/6
g Box35_2
usemtl Box35_2
v 470.0 72.0 248.0
v 478.0 72.0 248.0
v 478.0 72.0 240.0
v 470.0 72.0 240.0
f 5/1/1 8/2/1 7/3/1
f 5/1/1 7/3/1 6/4/1
f 9/4/2 10/1/2 11/2/2
f 9/4/2 11/2/2 12/3/2
f 5/4/3 6/1/3 10/2/3
f 5/4/3 10/2/3 9/3/3
f 6/4/4 7/1/4 11/2/4
f 6/4/4 11/2/4 10/3/4
f 7/4/5 8/1/5 12/2/5
f 7/4/5 12/2/5 11/3/5
f 8/4/6 5/1/6 9/2/6
f 8/4/6 9/2/6 12/3/6
g Box36_3
usemtl Box35_2
v 622.0 70.0 248.0
v 622.0 70.0 240.0
v 630.0 70.0 240.0
v 630.0 70.0 248.0
v 622.0 72.0 248.0
v 630.0 72.0 248.0
v 630.0 72.0 240.0
v 622.0 72.0 240.0
f 13/1/1 14/2/1 15/3/1
f 13/1/1 15/3/1 16/4/1
f 17/4/2 18/1/2 19/2/2
f 17/4/2 19/2/2 20/3/2
f 13/4/3 16/1/3 18/2/3
f 13/4/3 18/2/3 17/3/3
f 16/4/4 15/1/4 19/2/4
f 16/4/4 19/2/4 18/3/4
f 15/4/5 14/1/5 20/2/5
f 15/4/5 20/2/5 19/3/5
f 14/4/6 13/1/6 17/2/6
f 14/4/6 17/2/6 20/3/6
g Box37_4
usemtl Box01_1
v 622.0 0.0 248.0
v 622.0 0.0 240.0
v 630.0 0.0 240.0
v 630.0 0.0 248.0
f 21/1/1 22/2/1 23/3/1
f 21/1/1 23/3/1 24/4/1
f 13/4/2 16/1/2 15/2/2
f 13/4/2 15/2/2 14/3/2
f 21/4/3 24/1/3 16/2/3
f 21/4/3 16/2/3 13/3/3
f 24/4/4 23/1/4 15/2/4
f 24/4/4 15/2/4 16/3/4
f 23/4/5 22/1/5 14/2/5
f 23/4/5 14/2/5 15/3/5
f 22/4/6 21/1/6 13/2/6
f 22/4/6 13/2/6 14/3/6
g Box38_5
usemtl Box35_2
v 470.0 70.0 310.0
v 470.0 70.0 302.0
v 478.0 70.0 302.0
v 478.0 70.0 310.0
v 470.0 72.0 310.0
v 478.0 72.0 310.0
v 478.0 72.0 302.0
v 470.0 72.0 302.0
f 25/1/1 26/2/1 27/3/1
f 25/1/1 27/3/1 28/4/1
f 29/4/2 30/1/2 31/2/2
f 29/4/2 31/2/2 32/3/2
f 25/4/3 28/1/3 30/2/3
f 25/4/3 30/2/3 29/3/3
f 28/4/4 27/1/4 31/2/4
f 28/4/4 31/2/4 30/3/4
f 27/4/5 26/1/5 32/2/5
f 27/4/5 32/2/5 31/3/5
f 26/4/6 25/1/6 29/2/6
f 26/4/6 29/2/6 32/3/6
g Box39_6
usemtl Box35_2
v 622.0 70.0 310.0
v 622.0 70.0 302.0
v 630.0 70.0 302.0
v 630.0 70.0 310.0
v 622.0 72.0 310.0
v 630.0 72.0 310.0
v 630.0 72.0 302.0
v 622.0 72.0 302.0
f 33/1/1 34/2/1 35/3/1
f 33/1/1 35/3/1 36/4/1
f 37/4/2 38/1/2 39/2/2
f 37/4/2 39/2/2 40/3/2
f 33/4/3 36/1/3 38/2/3
f 33/4/3 38/2/3 37/3/3
f 36/4/4 35/1/4 39/2/4
f 36/4/4 39/2/4 38/3/4
f 35/4/5 34/1/5 40/2/5
f 35/4/5 40/2/5 39/3/5
f 34/4/6 33/1/6 37/2/6
f 34/4/6 37/2/6 40/3/6
g Box40_7
usemtl Box01_1
v 622.0 0.0 310.0
v 622.0 0.0 302.0
v 630.0 0.0 302.0
v 630.0 0.0 310.0
f 41/1/1 42/2/1 43/3/1
f 41/1/1 43/3/1 44/4/1
f 33/4/2 36/1/2 35/2/2
f 33/4/2 35/2/2 34/3/2
f 41/4/3 44/1/3 36/2/3
f 41/4/3 36/2/3 33/3/3
f 44/4/4 43/1/4 35/2/4
f 44/4/4 35/2/4 36/3/4
f 43/4/5 42/1/5 34/2/5
f 43/4/5 34/2/5 35/3/5
f 42/4/6 41/1/6 33/2/6
f 42/4/6 33/2/6 34/3/6
g Box41_8
usemtl Box01_1
v 470.0 0.0 310.0
v 470.0 0.0 302.0
v 478.0 0.0 302.0
v 478.0 0.0 310.0
f 45/1/1 46/2/1 47/3/1
f 45/1/1 47/3/1 48/4/1
f 25/4/2 28/1/2 27/2/2
f 25/4/2 27/2/2 26/3/2
f 45/4/3 48/1/3 28/2/3
f 45/4/3 28/2/3 25/3/3
f 48/4/4 47/1/4 27/2/4
f 48/4/4 27/2/4 28/3/4
f 47/4/5 46/1/5 26/2/5
f 47/4/5 26/2/5 27/3/5
f 46/4/6 45/1/6 25/2/6
f 46/4/6 25/2/6 26/3/6
g ChamferBox05_9
usemtl Box01_1
v 470.06 78.005 240.06
v 470.06 78.005 309.94
v 629.94 78.005 309.94
v 629.94 78.005 240.06
v 470.06 77.997 240.03
v 470.045 77.997 240.034
v 470.034 77.997 240.045
v 470.03 77.997 240.06
v 470.03 77.997 309.94
v 470.034 77.997 309.955
v 470.045 77.997 309.966
v 470.06 77.997 309.97
v 629.94 77.997 309.97
v 629.955 77.997 309.966
v 629.966 77.997 309.955
v 629.97 77.997 309.94
v 629.97 77.997 240.06
v 629.966 77.997 240.045
v 629.955 77.997 240.034
v 629.94 77.997 240.03
v 470.06 77.975 240.008
v 470.034 77.975 240.015
v 470.015 77.975 240.034
v 470.008 77.975 240.06
v 470.008 77.975 309.94
v 470.015 77.975 309.966
v 470.034 77.975 309.985
v 470.06 77.975 309.9919
v 629.94 77.975 309.9919
v 629.966 77.975 309.985
v 629.985 77.975 309.966
v 629.9919 77.975 309.94
v 629.9919 77.975 240.06
v 629.985 77.975 240.034
v 629.966 77.975 240.015
v 629.94 77.975 240.008
v 470.06 77.945 240.0
v 470.03 77.945 240.008
v 470.008 77.945 240.03
v 470.0 77.945 240.06
v 470.0 77.945 309.94
v 470.008 77.945 309.97
v 470.03 77.945 309.9919
v 470.06 77.945 310.0
v 629.94 77.945 310.0
v 629.97 77.945 309.9919
v 629.9919 77.945 309.97
v 630.0 77.945 309.94
v 630.0 77.945 240.06
v 629.9919 77.945 240.03
v 629.97 77.945 240.008
v 629.94 77.945 240.0
v 470.06 72.065 240.0
v 470.03 72.065 240.008
v 470.008 72.065 240.03
v 470.0 72.065 240.06
v 470.0 72.065 309.94
v 470.008 72.065 309.97
v 470.03 72.065 309.9919
v 470.06 72.065 310.0
v 629.94 72.065 310.0
v 629.97 72.065 309.9919
v 629.9919 72.065 309.97
v 630.0 72.065 309.94
v 630.0 72.065 240.06
v 629.9919 72.065 240.03
v 629.97 72.065 240.008
v 629.94 72.065 240.0
v 470.06 72.035 240.008
v 470.034 72.035 240.015
v 470.015 72.035 240.034
v 470.008 72.035 240.06
v 470.008 72.035 309.94
v 470.015 72.035 309.966
v 470.034 72.035 309.985
v 470.06 72.035 309.9919
v 629.94 72.035 309.9919
v 629.966 72.035 309.985
v 629.985 72.035 309.966
v 629.9919 72.035 309.94
v 629.9919 72.035 240.06
v 629.985 72.035 240.034
v 629.966 72.035 240.015
v 629.94 72.035 240.008
v 470.06 72.013 240.03
v 470.045 72.013 240.034
v 470.034 72.013 240.045
v 470.03 72.013 240.06
v 470.03 72.013 309.94
v 470.034 72.013 309.955
v 470.045 72.013 309.966
v 470.06 72.013 309.97
v 629.94 72.013 309.97
v 629.955 72.013 309.966
v 629.966 72.013 309.955
v 629.97 72.013 309.94
v 629.97 72.013 240.06
v 629.966 72.013 240.045
v 629.955 72.013 240.034
v 629.94 72.013 240.03
v 470.06 72.005 240.06
v 470.06 72.005 309.94
v 629.94 72.005 309.94
v 629.94 72.005 240.06
vt 0.0004 0.9991 0
vt 0.0004 0.0009 0
vt 0.9996 0.0009 0
vt 0.9996 0.9991 0
vt 0.0004 0.9996 0
vt 0.0003 0.9995 0
vt 0.0002 0.9994 0
vt 0.0002 0.9991 0
vt 0.0002 0.0009 0
vt 0.0002 0.0006 0
vt 0.0003 0.0005 0
vt 0.0004 0.0004 0
vt 0.9996 0.0004 0
vt 0.9997 0.0005 0
vt 0.9998 0.0006 0
vt 0.9998 0.0009 0
vt 0.9998 0.9991 0
vt 0.9998 0.9994 0
vt 0.9997 0.9995 0
vt 0.9996 0.9996 0
vt 0.0004 0.9999 0
vt 0.0002 0.9998 0
vt 0.0001 0.9995 0
vt 0.0001 0.9991 0
vt 0.0001 0.0009 0
vt 0.0001 0.0005 0
vt 0.0002 0.0002 0
vt 0.0004 0.0001 0
vt 0.9996 0.0001 0
vt 0.9998 0.0002 0
vt 0.9999 0.0005 0
vt 0.9999 0.0009 0
vt 0.9999 0.9991 0
vt 0.9999 0.9995 0
vt 0.9998 0.9998 0
vt 0.9996 0.9999 0
vt 0.0004 1.0 0
vt 0.0002 0.9999 0
vt 0.0001 0.9996 0
vt 0.0 0.9991 0
vt 0.0 0.0009 0
vt 0.0001 0.0004 0
vt 0.0002 0.0001 0
vt 0.0004 0.0 0
vt 0.9996 0.0 0
vt 0.9998 0.0001 0
vt 0.9999 0.0004 0
vt 1.0 0.0009 0
vt 1.0 0.9991 0
vt 0.9999 0.9996 0
vt 0.9998 0.9999 0
vt 0.9996 1.0 0
vt 0.0001 0.0 0
vt 0.0001 1.0 0
vt 0.0002 0.0 0
vt 0.0002 1.0 0
vt 0.1521 0.0 0
vt 0.1521 1.0 0
vt 0.1522 0.0 0
vt 0.1522 1.0 0
vt 0.1523 0.0 0
vt 0.1523 1.0 0
vt 0.4997 0.0 0
vt 0.4997 1.0 0
vt 0.4998 0.0 0
vt 0.4998 1.0 0
vt 0.4999 0.0 0
vt 0.4999 1.0 0
vt 0.6518 0.0 0
vt 0.6518 1.0 0
vt 0.6519 0.0 0
vt 0.6519 1.0 0
vt 0.652 0.0 0
vt 0.652 1.0 0
vn -0.108701475 0.9881134 -0.108701475
vn -0.108701475 0.9881134 0.108701475
vn 0.108701475 0.9881134 0.108701475
vn 0.108701475 0.9881134 -0.108701475
vn -0.06980272 0.8549333 -0.51402
vn -0.26540798 0.84742546 -0.4598138
vn -0.45977482 0.8474536 -0.26538545
vn -0.51402 0.8549333 -0.06980272
vn -0.51402 0.8549333 0.06980272
vn -0.45980158 0.84740293 0.26550093
vn -0.26550093 0.84740293 0.45980158
vn -0.06980272 0.8549333 0.51402
vn 0.06980272 0.8549333 0.51402
vn 0.26540798 0.84742546 0.4598138
vn 0.45977482 0.8474536 0.26538545
vn 0.51402 0.8549333 0.06980272
vn 0.51402 0.8549333 -0.06980272
vn 0.45980158 0.84740293 -0.26550093
vn 0.26550093 0.84740293 -0.45980158
vn 0.06980272 0.8549333 -0.51402
vn -0.11289858 0.4883939 -0.86528915
vn -0.43801504 0.48231658 -0.75862604
vn -0.75862604 0.48231658 -0.43801504
vn -0.86532164 0.4883122 -0.11300283
vn -0.8653315 0.48831776 0.1129041
vn -0.7585138 0.4824088 0.438108
vn -0.43799394 0.48239332 0.7585895
vn -0.11289858 0.4883939 0.86528915
vn 0.11289858 0.4883939 0.86528915
vn 0.43801504 0.48231658 0.75862604
vn 0.75862604 0.48231658 0.43801504
vn 0.86532164 0.4883122 0.11300283
vn 0.8653315 0.48831776 -0.1129041
vn 0.7585138 0.4824088 -0.438108
vn 0.43799394 0.48239332 -0.7585895
vn 0.11289858 0.4883939 -0.86528915
vn -0.12820347 0.12820347 -0.9834266
vn -0.49591023 0.12780264 -0.8589177
vn -0.8589067 0.127901 -0.49590385
vn -0.983455 0.12809412 -0.12809412
vn -0.983455 0.12809412 0.12809412
vn -0.8589177 0.12780264 0.49591023
vn -0.49591023 0.12780264 0.8589177
vn -0.12820347 0.12820347 0.9834266
vn 0.12820347 0.12820347 0.9834266
vn 0.49591023 0.12780264 0.8589177
vn 0.8589067 0.127901 0.49590385
vn 0.983455 0.12809412 0.12809412
vn 0.983455 0.12809412 -0.12809412
vn 0.8589177 0.12780264 -0.49591023
vn 0.49591023 0.12780264 -0.8589177
vn 0.12820347 0.12820347 -0.9834266
vn -0.12820347 -0.12820347 -0.9834266
vn -0.49591023 -0.12780264 -0.8589177
vn -0.8589177 -0.12780264 -0.49591023
vn -0.983455 -0.12809412 -0.12809412
vn -0.983455 -0.12809412 0.12809412
vn -0.8589067 -0.127901 0.49590385
vn -0.49591023 -0.12780264 0.8589177
vn -0.12820347 -0.12820347 0.9834266
vn 0.12820347 -0.12820347 0.9834266
vn 0.49591023 -0.12780264 0.8589177
vn 0.8589177 -0.12780264 0.49591023
vn 0.983455 -0.12809412 0.12809412
vn 0.983455 -0.12809412 -0.12809412
vn 0.8589067 -0.127901 -0.49590385
vn 0.49591023 -0.12780264 -0.8589177
vn 0.12820347 -0.12820347 -0.9834266
vn -0.11289858 -0.4883939 -0.86528915
vn -0.43801504 -0.48231658 -0.75862604
vn -0.7585138 -0.4824088 -0.438108
vn -0.8653315 -0.48831776 -0.1129041
vn -0.86532164 -0.4883122 0.11300283
vn -0.75862604 -0.48231658 0.43801504
vn -0.43801504 -0.48231658 0.75862604
vn -0.11289858 -0.4883939 0.86528915
vn 0.11289858 -0.4883939 0.86528915
vn 0.43801504 -0.48231658 0.75862604
vn 0.7585138 -0.4824088 0.438108
vn 0.8653315 -0.48831776 0.1129041
vn 0.86532164 -0.4883122 -0.11300283
vn 0.75862604 -0.48231658 -0.43801504
vn 0.43801504 -0.48231658 -0.75862604
vn 0.11289858 -0.4883939 -0.86528915
vn -0.06980272 -0.8549333 -0.51402
vn -0.26550093 -0.84740293 -0.45980158
vn -0.45980158 -0.84740293 -0.26550093
vn -0.51402 -0.8549333 -0.06980272
vn -0.51402 -0.8549333 0.06980272
vn -0.45977482 -0.8474536 0.26538545
vn -0.26540798 -0.84742546 0.4598138
vn -0.06980272 -0.8549333 0.51402
vn 0.06980272 -0.8549333 0.51402
vn 0.26550093 -0.84740293 0.45980158
vn 0.45980158 -0.84740293 0.26550093
vn 0.51402 -0.8549333 0.06980272
vn 0.51402 -0.8549333 -0.06980272
vn 0.45977482 -0.8474536 -0.26538545
vn 0.26540798 -0.84742546 -0.4598138
vn 0.06980272 -0.8549333 -0.51402
vn -0.108701475 -0.9881134 -0.108701475
vn -0.108701475 -0.9881134 0.108701475
vn 0.108701475 -0.9881134 0.108701475
vn 0.108701475 -0.9881134 -0.108701475
f 49/5/7 50/6/8 51/7/9
f 49/5/7 51/7/9 52/8/10
f 49/5/7 53/9/11 54/10/12
f 49/5/7 54/10/12 55/11/13
f 49/5/7 55/11/13 56/12/14
f 49/5/7 56/12/14 57/13/15
f 49/5/7 57/13/15 50/6/8
f 50/6/8 57/13/15 58/14/16
f 50/6/8 58/14/16 59/15/17
f 50/6/8 59/15/17 60/16/18
f 50/6/8 60/16/18 61/17/19
f 50/6/8 61/17/19 51/7/9
f 51/7/9 61/17/19 62/18/20
f 51/7/9 62/18/20 63/19/21
f 51/7/9 63/19/21 64/20/22
f 51/7/9 64/20/22 65/21/23
f 51/7/9 65/21/23 52/8/10
f 52/8/10 65/21/23 66/22/24
f 52/8/10 66/22/24 67/23/25
f 52/8/10 67/23/25 68/24/26
f 52/8/10 68/24/26 53/9/11
f 52/8/10 53/9/11 49/5/7
f 53/9/11 69/25/27 70/26/28
f 53/9/11 70/26/28 54/10/12
f 54/10/12 70/26/28 71/27/29
f 54/10/12 71/27/29 55/11/13
f 55/11/13 71/27/29 72/28/30
f 55/11/13 72/28/30 56/12/14
f 56/12/14 72/28/30 73/29/31
f 56/12/14 73/29/31 57/13/15
f 57/13/15 73/29/31 74/30/32
f 57/13/15 74/30/32 58/14/16
f 58/14/16 74/30/32 75/31/33
f 58/14/16 75/31/33 59/15/17
f 59/15/17 75/31/33 76/32/34
f 59/15/17 76/32/34 60/16/18
f 60/16/18 76/32/34 77/33/35
f 60/16/18 77/33/35 61/17/19
f 61/17/19 77/33/35 78/34/36
f 61/17/19 78/34/36 62/18/20
f 62/18/20 78/34/36 79/35/37
f 62/18/20 79/35/37 63/19/21
f 63/19/21 79/35/37 80/36/38
f 63/19/21 80/36/38 64/20/22
f 64/20/22 80/36/38 81/37/39
f 64/20/22 81/37/39 65/21/23
f 65/21/23 81/37/39 82/38/40
f 65/21/23 82/38/40 66/22/24
f 66/22/24 82/38/40 83/39/41
f 66/22/24 83/39/41 67/23/25
f 67/23/25 83/39/41 84/40/42
f 67/23/25 84/40/42 68/24/26
f 68/24/26 84/40/42 69/25/27
f 68/24/26 69/25/27 53/9/11
f 69/25/27 85/41/43 86/42/44
f 69/25/27 86/42/44 70/26/28
f 70/26/28 86/42/44 87/43/45
f 70/26/28 87/43/45 71/27/29
f 71/27/29 87/43/45 88/44/46
f 71/27/29 88/44/46 72/28/30
f 72/28/30 88/44/46 89/45/47
f 72/28/30 89/45/47 73/29/31
f 73/29/31 89/45/47 90/46/48
f 73/29/31 90/46/48 74/30/32
f 74/30/32 90/46/48 91/47/49
f 74/30/32 91/47/49 75/31/33
f 75/31/33 91/47/49 92/48/50
f 75/31/33 92/48/50 76/32/34
f 76/32/34 92/48/50 93/49/51
f 76/32/34 93/49/51 77/33/35
f 77/33/35 93/49/51 94/50/52
f 77/33/35 94/50/52 78/34/36
f 78/34/36 94/50/52 95/51/53
f 78/34/36 95/51/53 79/35/37
f 79/35/37 95/51/53 96/52/54
f 79/35/37 96/52/54 80/36/38
f 80/36/38 96/52/54 97/53/55
f 80/36/38 97/53/55 81/37/39
f 81/37/39 97/53/55 98/54/56
f 81/37/39 98/54/56 82/38/40
f 82/38/40 98/54/56 99/55/57
f 82/38/40 99/55/57 83/39/41
f 83/39/41 99/55/57 100/56/58
f 83/39/41 100/56/58 84/40/42
f 84/40/42 100/56/58 85/41/43
f 84/40/42 85/41/43 69/25/27
f 85/3/43 101/4/59 102/57/60
f 85/3/43 102/57/60 86/58/44
f 86/58/44 102/57/60 103/57/61
f 86/58/44 103/57/61 87/58/45
f 87/58/45 103/57/61 104/59/62
f 87/58/45 104/59/62 88/60/46
f 88/60/46 104/59/62 105/61/63
f 88/60/46 105/61/63 89/62/47
f 89/62/47 105/61/63 106/61/64
f 89/62/47 106/61/64 90/62/48
f 90/62/48 106/61/64 107/63/65
f 90/62/48 107/63/65 91/64/49
f 91/64/49 107/63/65 108/65/66
f 91/64/49 108/65/66 92/66/50
f 92/66/50 108/65/66 109/67/67
f 92/66/50 109/67/67 93/68/51
f 93/68/51 109/67/67 110/69/68
f 93/68/51 110/69/68 94/70/52
f 94/70/52 110/69/68 111/71/69
f 94/70/52 111/71/69 95/72/53
f 95/72/53 111/71/69 112/71/70
f 95/72/53 112/71/70 96/72/54
f 96/72/54 112/71/70 113/73/71
f 96/72/54 113/73/71 97/74/55
f 97/74/55 113/73/71 114/75/72
f 97/74/55 114/75/72 98/76/56
f 98/76/56 114/75/72 115/75/73
f 98/76/56 115/75/73 99/76/57
f 99/76/57 115/75/73 116/77/74
f 99/76/57 116/77/74 100/78/58
f 100/78/58 116/77/74 101/1/59
f 100/78/58 101/1/59 85/2/43
f 101/48/59 117/32/75 118/31/76
f 101/48/59 118/31/76 102/47/60
f 102/47/60 118/31/76 119/30/77
f 102/47/60 119/30/77 103/46/61
f 103/46/61 119/30/77 120/29/78
f 103/46/61 120/29/78 104/45/62
f 104/45/62 120/29/78 121/28/79
f 104/45/62 121/28/79 105/44/63
f 105/44/63 121/28/79 122/27/80
f 105/44/63 122/27/80 106/43/64
f 106/43/64 122/27/80 123/26/81
f 106/43/64 123/26/81 107/42/65
f 107/42/65 123/26/81 124/25/82
f 107/42/65 124/25/82 108/41/66
f 108/41/66 124/25/82 125/40/83
f 108/41/66 125/40/83 109/56/67
f 109/56/67 125/40/83 126/39/84
f 109/56/67 126/39/84 110/55/68
f 110/55/68 126/39/84 127/38/85
f 110/55/68 127/38/85 111/54/69
f 111/54/69 127/38/85 128/37/86
f 111/54/69 128/37/86 112/53/70
f 112/53/70 128/37/86 129/36/87
f 112/53/70 129/36/87 113/52/71
f 113/52/71 129/36/87 130/35/88
f 113/52/71 130/35/88 114/51/72
f 114/51/72 130/35/88 131/34/89
f 114/51/72 131/34/89 115/50/73
f 115/50/73 131/34/89 132/33/90
f 115/50/73 132/33/90 116/49/74
f 116/49/74 132/33/90 117/32/75
f 116/49/74 117/32/75 101/48/59
f 117/32/75 133/16/91 134/15/92
f 117/32/75 134/15/92 118/31/76
f 118/31/76 134/15/92 135/14/93
f 118/31/76 135/14/93 119/30/77
f 119/30/77 135/14/93 136/13/94
f 119/30/77 136/13/94 120/29/78
f 120/29/78 136/13/94 137/12/95
f 120/29/78 137/12/95 121/28/79
f 121/28/79 137/12/95 138/11/96
f 121/28/79 138/11/96 122/27/80
f 122/27/80 138/11/96 139/10/97
f 122/27/80 139/10/97 123/26/81
f 123/26/81 139/10/97 140/9/98
f 123/26/81 140/9/98 124/25/82
f 124/25/82 140/9/98 141/24/99
f 124/25/82 141/24/99 125/40/83
f 125/40/83 141/24/99 142/23/100
f 125/40/83 142/23/100 126/39/84
f 126/39/84 142/23/100 143/22/101
f 126/39/84 143/22/101 127/38/85
f 127/38/85 143/22/101 144/21/102
f 127/38/85 144/21/102 128/37/86
f 128/37/86 144/21/102 145/20/103
f 128/37/86 145/20/103 129/36/87
f 129/36/87 145/20/103 146/19/104
f 129/36/87 146/19/104 130/35/88
f 130/35/88 146/19/104 147/18/105
f 130/35/88 147/18/105 131/34/89
f 131/34/89 147/18/105 148/17/106
f 131/34/89 148/17/106 132/33/90
f 132/33/90 148/17/106 133/16/91
f 132/33/90 133/16/91 117/32/75
f 133/16/91 149/6/107 134/15/92
f 134/15/92 149/6/107 135/14/93
f 135/14/93 149/6/107 136/13/94
f 136/13/94 149/6/107 150/5/108
f 136/13/94 150/5/108 137/12/95
f 137/12/95 150/5/108 138/11/96
f 138/11/96 150/5/108 139/10/97
f 139/10/97 150/5/108 140/9/98
f 140/9/98 150/5/108 151/8/109
f 140/9/98 151/8/109 141/24/99
f 141/24/99 151/8/109 142/23/100
f 142/23/100 151/8/109 143/22/101
f 143/22/101 151/8/109 144/21/102
f 144/21/102 151/8/109 152/7/110
f 144/21/102 152/7/110 145/20/103
f 145/20/103 152/7/110 146/19/104
f 146/19/104 152/7/110 147/18/105
f 147/18/105 152/7/110 148/17/106
f 148/17/106 152/7/110 149/6/107
f 148/17/106 149/6/107 133/16/91
f 152/7/110 151/8/109 150/5/108
f 152/7/110 150/5/108 149/6/107
